<svg xmlns="http://www.w3.org/2000/svg" viewBox="0 0 1800 1200" id="banner-animation-circles" class="banner-animation-circles">
<defs>
<symbol id="banner-circle-symbol-1" viewBox="0 0 120 120">
<path class="banner-circle-1 banner-circle-shape" fill="currentColor" d="M60 0a60 60 0 1 1 0 120A60 60 0 0 1 60 0a8 8 0 1 0 .2 0Z"/>
</symbol>
<symbol id="banner-circle-symbol-2" viewBox="0 120 120 120">
<path class="banner-circle-2 banner-circle-shape" fill="currentColor" d="M60 120a60 60 0 1 1 0 120 60 60 0 0 1 0-120 15 15 0 1 0 .3 0Z"/>
</symbol>
<symbol id="banner-circle-symbol-3" viewBox="0 240 120 120">
<path class="banner-circle-3 banner-circle-shape" fill="currentColor" d="M61 240a60 60 0 1 1-1 0 30 30 0 1 0 .5 0Z"/>
</symbol>
<symbol id="banner-circle-symbol-4" viewBox="0 360 120 120">
<path class="banner-circle-4 banner-circle-shape" fill="currentColor" d="M15 405a45 45 0 1 0 45.7-45h.3a60 60 0 1 1-1 0 45 45 0 0 0-45 45"/>
</symbol>
<symbol id="banner-circle-symbol-5" viewBox="0 480 120 120">
<path class="banner-circle-5 banner-circle-shape" fill="currentColor" d="M61 480a60 60 0 1 1-1 0h-1a55 55 0 1 0 2.8 0Z"/>
</symbol>
<symbol id="banner-circle-symbol-6" viewBox="120 480 120 120">
<path class="banner-circle-6 banner-circle-shape" fill="currentColor" d="M240 541a60 60 0 1 1 0-1 55 55 0 1 0 0 1Z"/>
</symbol>
<symbol id="banner-circle-symbol-7" viewBox="240 480 120 120">
<path class="banner-circle-7 banner-circle-shape" fill="currentColor" d="M300 480a60 60 0 1 1 0 120h1a55 55 0 1 0-2 0 60 60 0 0 1 1-120"/>
</symbol>
<symbol id="banner-circle-symbol-8" viewBox="360 480 120 120">
<path class="banner-circle-8 banner-circle-shape" fill="currentColor" d="M360 539a60 60 0 1 1 0 1 55 55 0 1 0 110 0 55 55 0 0 0-110 0Z"/>
</symbol>
<symbol id="banner-circle-symbol-9" viewBox="480 480 120 120">
<path class="banner-circle-9 banner-circle-shape" fill="currentColor" d="M540 480a60 60 0 1 1 0 120 60 60 0 0 1 0-120m0 5a55 55 0 1 0 0 110 55 55 0 0 0 0-110"/>
</symbol>
<symbol id="banner-circle-symbol-10" viewBox="120 120 120 120">
<path class="banner-circle-10 banner-circle-shape" fill="currentColor" d="M180 120a60 60 0 1 1 0 120 60 60 0 0 1 0-120m45 45a15 15 0 1 0 0 30 15 15 0 0 0 0-30"/>
</symbol>
<symbol id="banner-circle-symbol-11" viewBox="240 120 120 120">
<path class="banner-circle-11 banner-circle-shape" fill="currentColor" d="M300 120a60 60 0 1 1 0 120 60 60 0 0 1 0-120m0 90a15 15 0 1 0 0 30 15 15 0 0 0 0-30"/>
</symbol>
<symbol id="banner-circle-symbol-12" viewBox="360 120 120 120">
<path class="banner-circle-12 banner-circle-shape" fill="currentColor" d="M360 179a60 60 0 1 1 0 1 15 15 0 1 0 30 0 15 15 0 0 0-30 0Z"/>
</symbol>
<symbol id="banner-circle-symbol-13" viewBox="480 120 120 120">
<path class="banner-circle-13 banner-circle-shape" fill="currentColor" d="M540 120a60 60 0 1 1 0 120 60 60 0 0 1 0-120m0 45a15 15 0 1 0 0 30 15 15 0 0 0 0-30"/>
</symbol>
<symbol id="banner-circle-symbol-14" viewBox="120 240 120 120">
<path class="banner-circle-14 banner-circle-shape" fill="currentColor" d="M180 240a60 60 0 1 1 0 120 60 60 0 0 1 0-120m30 30a30 30 0 1 0 0 60 30 30 0 0 0 0-60"/>
</symbol>
<symbol id="banner-circle-symbol-15" viewBox="240 240 120 120">
<path class="banner-circle-15 banner-circle-shape" fill="currentColor" d="M300 240a60 60 0 1 1 0 120 60 60 0 0 1 0-120m0 60a30 30 0 1 0 0 60 30 30 0 0 0 0-60"/>
</symbol>
<symbol id="banner-circle-symbol-16" viewBox="360 240 120 120">
<path class="banner-circle-16 banner-circle-shape" fill="currentColor" d="M360 299a60 60 0 1 1 0 1 30 30 0 1 0 60 0 30 30 0 0 0-60 0Z"/>
</symbol>
<symbol id="banner-circle-symbol-17" viewBox="480 240 120 120">
<path class="banner-circle-17 banner-circle-shape" fill="currentColor" d="M540 240a60 60 0 1 1 0 120 60 60 0 0 1 0-120m0 30a30 30 0 1 0 0 60 30 30 0 0 0 0-60"/>
</symbol>
<symbol id="banner-circle-symbol-18" viewBox="120 0 120 120">
<path class="banner-circle-18 banner-circle-shape" fill="currentColor" d="M180 0a60 60 0 1 1 0 120 60 60 0 0 1 0-120m52 52a8 8 0 1 0 0 16 8 8 0 0 0 0-16"/>
</symbol>
<symbol id="banner-circle-symbol-19" viewBox="240 0 120 120">
<path class="banner-circle-19 banner-circle-shape" fill="currentColor" d="M300 0a60 60 0 1 1 0 120 60 60 0 0 1 0-120m0 104a8 8 0 1 0 0 16 8 8 0 0 0 0-16"/>
</symbol>
<symbol id="banner-circle-symbol-20" viewBox="360 0 120 120">
<path class="banner-circle-20 banner-circle-shape" fill="currentColor" d="M420 0a60 60 0 1 1 0 120 60 60 0 0 1 0-120m-52 52a8 8 0 1 0 0 16 8 8 0 0 0 0-16"/>
</symbol>
<symbol id="banner-circle-symbol-21" viewBox="480 0 120 120">
<path class="banner-circle-21 banner-circle-shape" fill="currentColor" d="M540 0a60 60 0 1 1 0 120 60 60 0 0 1 0-120m0 52a8 8 0 1 0 0 16 8 8 0 0 0 0-16"/>
</symbol>
<symbol id="banner-circle-symbol-22" viewBox="120 360 120 120">
<path class="banner-circle-22 banner-circle-shape" fill="currentColor" d="M240 421a60 60 0 1 1 0-1 45 45 0 1 0 0 .7Z"/>
</symbol>
<symbol id="banner-circle-symbol-23" viewBox="240 360 120 120">
<path class="banner-circle-23 banner-circle-shape" fill="currentColor" d="M300 360a60 60 0 1 1 0 120 60 60 0 0 1 0-120m0 30a45 45 0 1 0 0 90 45 45 0 0 0 0-90"/>
</symbol>
<symbol id="banner-circle-symbol-24" viewBox="360 360 120 120">
<path class="banner-circle-24 banner-circle-shape" fill="currentColor" d="M360 419a60 60 0 1 1 0 1 45 45 0 1 0 90 0 45 45 0 0 0-90 0Z"/>
</symbol>
<symbol id="banner-circle-symbol-25" viewBox="480 360 120 120">
<path class="banner-circle-25 banner-circle-shape" fill="currentColor" d="M540 360a60 60 0 1 1 0 120 60 60 0 0 1 0-120m0 15a45 45 0 1 0 0 90 45 45 0 0 0 0-90"/>
</symbol>
<symbol id="banner-circle-symbol-pacman" viewBox="0 0 120 120">
<path class="banner-circle-pacman" fill="currentColor" d="M60 0c26.504 0 48.995 17.186 56.936 41.021L60 60l56.936 18.98C108.994 102.815 86.504 120 60 120 26.863 120 0 93.137 0 60S26.863 0 60 0"/>
<circle cx="60" cy="30" r="12" fill="#120805"/>
</symbol>
</defs>

<g class="banner-circle-grid" fill="none" fill-rule="evenodd">
<g transform="translate(0 0)"><g class="banner-circle-instance banner-circle-instance-1"><use href="#banner-circle-symbol-21" width="120" height="120"/></g></g>
<g transform="translate(120 0)"><g class="banner-circle-instance banner-circle-instance-2"><use href="#banner-circle-symbol-22" width="120" height="120"/></g></g>
<g transform="translate(240 0)"><g class="banner-circle-instance banner-circle-instance-3"><use href="#banner-circle-symbol-14" width="120" height="120"/></g></g>
<g transform="translate(360 0)"><g class="banner-circle-instance banner-circle-instance-4"><use href="#banner-circle-symbol-9" width="120" height="120"/></g></g>
<g transform="translate(480 0)"><g class="banner-circle-instance banner-circle-instance-5"><use href="#banner-circle-symbol-14" width="120" height="120"/></g></g>
<g transform="translate(600 0)"><g class="banner-circle-instance banner-circle-instance-6"><use href="#banner-circle-symbol-10" width="120" height="120"/></g></g>
<g transform="translate(720 0)"><g class="banner-circle-instance banner-circle-instance-7"><use href="#banner-circle-symbol-8" width="120" height="120"/></g></g>
<g transform="translate(840 0)"><g class="banner-circle-instance banner-circle-instance-8"><use href="#banner-circle-symbol-14" width="120" height="120"/></g></g>
<g transform="translate(960 0)"><g class="banner-circle-instance banner-circle-instance-9"><use href="#banner-circle-symbol-10" width="120" height="120"/></g></g>
<g transform="translate(1080 0)"><g class="banner-circle-instance banner-circle-instance-10"><use href="#banner-circle-symbol-4" width="120" height="120"/></g></g>
<g transform="translate(1200 0)"><g class="banner-circle-instance banner-circle-instance-11"><use href="#banner-circle-symbol-11" width="120" height="120"/></g></g>
<g transform="translate(1320 0)"><g class="banner-circle-instance banner-circle-instance-12"><use href="#banner-circle-symbol-8" width="120" height="120"/></g></g>
<g transform="translate(1440 0)"><g class="banner-circle-instance banner-circle-instance-13"><use href="#banner-circle-symbol-9" width="120" height="120"/></g></g>
<g transform="translate(1560 0)"><g class="banner-circle-instance banner-circle-instance-14"><use href="#banner-circle-symbol-8" width="120" height="120"/></g></g>
<g transform="translate(1680 0)"><g class="banner-circle-instance banner-circle-instance-15"><use href="#banner-circle-symbol-18" width="120" height="120"/></g></g>
<g transform="translate(0 120)"><g class="banner-circle-instance banner-circle-instance-16"><use href="#banner-circle-symbol-7" width="120" height="120"/></g></g>
<g transform="translate(120 120)"><g class="banner-circle-instance banner-circle-instance-17"><use href="#banner-circle-symbol-25" width="120" height="120"/></g></g>
<g transform="translate(240 120)"><g class="banner-circle-instance banner-circle-instance-18"><use href="#banner-circle-symbol-25" width="120" height="120"/></g></g>
<g transform="translate(360 120)"><g class="banner-circle-instance banner-circle-instance-19"><use href="#banner-circle-symbol-14" width="120" height="120"/></g></g>
<g transform="translate(480 120)"><g class="banner-circle-instance banner-circle-instance-20"><use href="#banner-circle-symbol-22" width="120" height="120"/></g></g>
<g transform="translate(600 120)"><g class="banner-circle-instance banner-circle-instance-21"><use href="#banner-circle-symbol-14" width="120" height="120"/></g></g>
<g transform="translate(720 120)"><g class="banner-circle-instance banner-circle-instance-22"><use href="#banner-circle-symbol-14" width="120" height="120"/></g></g>
<g transform="translate(840 120)"><g class="banner-circle-instance banner-circle-instance-23"><use href="#banner-circle-symbol-12" width="120" height="120"/></g></g>
<g transform="translate(960 120)"><g class="banner-circle-instance banner-circle-instance-24"><use href="#banner-circle-symbol-16" width="120" height="120"/></g></g>
<g transform="translate(1080 120)"><g class="banner-circle-instance banner-circle-instance-25"><use href="#banner-circle-symbol-18" width="120" height="120"/></g></g>
<g transform="translate(1200 120)"><g class="banner-circle-instance banner-circle-instance-26"><use href="#banner-circle-symbol-10" width="120" height="120"/></g></g>
<g transform="translate(1320 120)"><g class="banner-circle-instance banner-circle-instance-27"><use href="#banner-circle-symbol-11" width="120" height="120"/></g></g>
<g transform="translate(1440 120)"><g class="banner-circle-instance banner-circle-instance-28"><use href="#banner-circle-symbol-24" width="120" height="120"/></g></g>
<g transform="translate(1560 120)"><g class="banner-circle-instance banner-circle-instance-29"><use href="#banner-circle-symbol-8" width="120" height="120"/></g></g>
<g transform="translate(1680 120)"><g class="banner-circle-instance banner-circle-instance-30"><use href="#banner-circle-symbol-1" width="120" height="120"/></g></g>
<g transform="translate(0 240)"><g class="banner-circle-instance banner-circle-instance-31"><use href="#banner-circle-symbol-6" width="120" height="120"/></g></g>
<g transform="translate(120 240)"><g class="banner-circle-instance banner-circle-instance-32"><use href="#banner-circle-symbol-9" width="120" height="120"/></g></g>
<g transform="translate(240 240)"><g class="banner-circle-instance banner-circle-instance-33"><use href="#banner-circle-symbol-15" width="120" height="120"/></g></g>
<g transform="translate(360 240)"><g class="banner-circle-instance banner-circle-instance-34"><use href="#banner-circle-symbol-12" width="120" height="120"/></g></g>
<g transform="translate(480 240)"><g class="banner-circle-instance banner-circle-instance-35"><use href="#banner-circle-symbol-13" width="120" height="120"/></g></g>
<g transform="translate(600 240)"><g class="banner-circle-instance banner-circle-instance-36"><use href="#banner-circle-symbol-24" width="120" height="120"/></g></g>
<g transform="translate(720 240)"><g class="banner-circle-instance banner-circle-instance-37"><use href="#banner-circle-symbol-2" width="120" height="120"/></g></g>
<g transform="translate(840 240)"><g class="banner-circle-instance banner-circle-instance-38"><use href="#banner-circle-symbol-23" width="120" height="120"/></g></g>
<g transform="translate(960 240)"><g class="banner-circle-instance banner-circle-instance-39"><use href="#banner-circle-symbol-1" width="120" height="120"/></g></g>
<g transform="translate(1080 240)"><g class="banner-circle-instance banner-circle-instance-40"><use href="#banner-circle-symbol-18" width="120" height="120"/></g></g>
<g transform="translate(1200 240)"><g class="banner-circle-instance banner-circle-instance-41"><use href="#banner-circle-symbol-20" width="120" height="120"/></g></g>
<g transform="translate(1320 240)"><g class="banner-circle-instance banner-circle-instance-42"><use href="#banner-circle-symbol-11" width="120" height="120"/></g></g>
<g transform="translate(1440 240)"><g class="banner-circle-instance banner-circle-instance-43"><use href="#banner-circle-symbol-13" width="120" height="120"/></g></g>
<g transform="translate(1560 240)"><g class="banner-circle-instance banner-circle-instance-44"><use href="#banner-circle-symbol-24" width="120" height="120"/></g></g>
<g transform="translate(1680 240)"><g class="banner-circle-instance banner-circle-instance-45"><use href="#banner-circle-symbol-1" width="120" height="120"/></g></g>
<g transform="translate(0 360)"><g class="banner-circle-instance banner-circle-instance-46"><use href="#banner-circle-symbol-7" width="120" height="120"/></g></g>
<g transform="translate(120 360)"><g class="banner-circle-instance banner-circle-instance-47"><use href="#banner-circle-symbol-20" width="120" height="120"/></g></g>
<g transform="translate(240 360)"><g class="banner-circle-instance banner-circle-instance-48"><use href="#banner-circle-symbol-7" width="120" height="120"/></g></g>
<g transform="translate(360 360)"><g class="banner-circle-instance banner-circle-instance-49"><use href="#banner-circle-symbol-18" width="120" height="120"/></g></g>
<g transform="translate(480 360)"><g class="banner-circle-instance banner-circle-instance-50"><use href="#banner-circle-symbol-20" width="120" height="120"/></g></g>
<g transform="translate(600 360)"><g class="banner-circle-instance banner-circle-instance-51"><use href="#banner-circle-symbol-9" width="120" height="120"/></g></g>
<g transform="translate(720 360)"><g class="banner-circle-instance banner-circle-instance-52"><use href="#banner-circle-symbol-11" width="120" height="120"/></g></g>
<g transform="translate(840 360)"><g class="banner-circle-instance banner-circle-instance-53"><use href="#banner-circle-symbol-15" width="120" height="120"/></g></g>
<g transform="translate(960 360)"><g class="banner-circle-instance banner-circle-instance-54"><use href="#banner-circle-symbol-4" width="120" height="120"/></g></g>
<g transform="translate(1080 360)"><g class="banner-circle-instance banner-circle-instance-55"><use href="#banner-circle-symbol-12" width="120" height="120"/></g></g>
<g transform="translate(1200 360)"><g class="banner-circle-instance banner-circle-instance-56"><use href="#banner-circle-symbol-25" width="120" height="120"/></g></g>
<g transform="translate(1320 360)"><g class="banner-circle-instance banner-circle-instance-57"><use href="#banner-circle-symbol-15" width="120" height="120"/></g></g>
<g transform="translate(1440 360)"><g class="banner-circle-instance banner-circle-instance-58"><use href="#banner-circle-symbol-16" width="120" height="120"/></g></g>
<g transform="translate(1560 360)"><g class="banner-circle-instance banner-circle-instance-59"><use href="#banner-circle-symbol-2" width="120" height="120"/></g></g>
<g transform="translate(1680 360)"><g class="banner-circle-instance banner-circle-instance-60"><use href="#banner-circle-symbol-14" width="120" height="120"/></g></g>
<g transform="translate(0 480)"><g class="banner-circle-instance banner-circle-instance-61"><use href="#banner-circle-symbol-9" width="120" height="120"/></g></g>
<g transform="translate(120 480)"><g class="banner-circle-instance banner-circle-instance-62"><use href="#banner-circle-symbol-11" width="120" height="120"/></g></g>
<g transform="translate(240 480)"><g class="banner-circle-instance banner-circle-instance-63"><use href="#banner-circle-symbol-5" width="120" height="120"/></g></g>
<g transform="translate(360 480)"><g class="banner-circle-instance banner-circle-instance-64"><use href="#banner-circle-symbol-6" width="120" height="120"/></g></g>
<g transform="translate(480 480)"><g class="banner-circle-instance banner-circle-instance-65"><use href="#banner-circle-symbol-6" width="120" height="120"/></g></g>
<g transform="translate(600 480)"><g class="banner-circle-instance banner-circle-instance-66"><use href="#banner-circle-symbol-23" width="120" height="120"/></g></g>
<g transform="translate(720 480)"><g class="banner-circle-instance banner-circle-instance-67"><use href="#banner-circle-symbol-12" width="120" height="120"/></g></g>
<g transform="translate(840 480)"><g class="banner-circle-instance banner-circle-instance-68"><use href="#banner-circle-symbol-4" width="120" height="120"/></g></g>
<g transform="translate(960 480)"><g class="banner-circle-instance banner-circle-instance-69"><use href="#banner-circle-symbol-5" width="120" height="120"/></g></g>
<g transform="translate(1080 480)"><g class="banner-circle-instance banner-circle-instance-70"><use href="#banner-circle-symbol-4" width="120" height="120"/></g></g>
<g transform="translate(1200 480)"><g class="banner-circle-instance banner-circle-instance-71"><use href="#banner-circle-symbol-24" width="120" height="120"/></g></g>
<g transform="translate(1320 480)"><g class="banner-circle-instance banner-circle-instance-72"><use href="#banner-circle-symbol-1" width="120" height="120"/></g></g>
<g transform="translate(1440 480)"><g class="banner-circle-instance banner-circle-instance-73"><use href="#banner-circle-symbol-2" width="120" height="120"/></g></g>
<g transform="translate(1560 480)"><g class="banner-circle-instance banner-circle-instance-74"><use href="#banner-circle-symbol-17" width="120" height="120"/></g></g>
<g transform="translate(1680 480)"><g class="banner-circle-instance banner-circle-instance-75"><use href="#banner-circle-symbol-18" width="120" height="120"/></g></g>
<g transform="translate(0 600)"><g class="banner-circle-instance banner-circle-instance-76"><use href="#banner-circle-symbol-24" width="120" height="120"/></g></g>
<g transform="translate(120 600)"><g class="banner-circle-instance banner-circle-instance-77"><use href="#banner-circle-symbol-20" width="120" height="120"/></g></g>
<g transform="translate(240 600)"><g class="banner-circle-instance banner-circle-instance-78"><use href="#banner-circle-symbol-5" width="120" height="120"/></g></g>
<g transform="translate(360 600)"><g class="banner-circle-instance banner-circle-instance-79"><use href="#banner-circle-symbol-12" width="120" height="120"/></g></g>
<g transform="translate(480 600)"><g class="banner-circle-instance banner-circle-instance-80"><use href="#banner-circle-symbol-2" width="120" height="120"/></g></g>
<g transform="translate(600 600)"><g class="banner-circle-instance banner-circle-instance-81"><use href="#banner-circle-symbol-16" width="120" height="120"/></g></g>
<g transform="translate(720 600)"><g class="banner-circle-instance banner-circle-instance-82"><use href="#banner-circle-symbol-15" width="120" height="120"/></g></g>
<g transform="translate(840 600)"><g class="banner-circle-instance banner-circle-instance-83"><use href="#banner-circle-symbol-13" width="120" height="120"/></g></g>
<g transform="translate(960 600)"><g class="banner-circle-instance banner-circle-instance-84"><use href="#banner-circle-symbol-19" width="120" height="120"/></g></g>
<g transform="translate(1080 600)"><g class="banner-circle-instance banner-circle-instance-85"><use href="#banner-circle-symbol-13" width="120" height="120"/></g></g>
<g transform="translate(1200 600)"><g class="banner-circle-instance banner-circle-instance-86"><use href="#banner-circle-symbol-3" width="120" height="120"/></g></g>
<g transform="translate(1320 600)"><g class="banner-circle-instance banner-circle-instance-87"><use href="#banner-circle-symbol-9" width="120" height="120"/></g></g>
<g transform="translate(1440 600)"><g class="banner-circle-instance banner-circle-instance-88"><use href="#banner-circle-symbol-9" width="120" height="120"/></g></g>
<g transform="translate(1560 600)"><g class="banner-circle-instance banner-circle-instance-89"><use href="#banner-circle-symbol-8" width="120" height="120"/></g></g>
<g transform="translate(1680 600)"><g class="banner-circle-instance banner-circle-instance-90"><use href="#banner-circle-symbol-8" width="120" height="120"/></g></g>
<g transform="translate(0 720)"><g class="banner-circle-instance banner-circle-instance-91"><use href="#banner-circle-symbol-7" width="120" height="120"/></g></g>
<g transform="translate(120 720)"><g class="banner-circle-instance banner-circle-instance-92"><use href="#banner-circle-symbol-21" width="120" height="120"/></g></g>
<g transform="translate(240 720)"><g class="banner-circle-instance banner-circle-instance-93"><use href="#banner-circle-symbol-15" width="120" height="120"/></g></g>
<g transform="translate(360 720)"><g class="banner-circle-instance banner-circle-instance-94"><use href="#banner-circle-symbol-15" width="120" height="120"/></g></g>
<g transform="translate(480 720)"><g class="banner-circle-instance banner-circle-instance-95"><use href="#banner-circle-symbol-17" width="120" height="120"/></g></g>
<g transform="translate(600 720)"><g class="banner-circle-instance banner-circle-instance-96"><use href="#banner-circle-symbol-24" width="120" height="120"/></g></g>
<g transform="translate(720 720)"><g class="banner-circle-instance banner-circle-instance-97"><use href="#banner-circle-symbol-6" width="120" height="120"/></g></g>
<g transform="translate(840 720)"><g class="banner-circle-instance banner-circle-instance-98"><use href="#banner-circle-symbol-5" width="120" height="120"/></g></g>
<g transform="translate(960 720)"><g class="banner-circle-instance banner-circle-instance-99"><use href="#banner-circle-symbol-3" width="120" height="120"/></g></g>
<g transform="translate(1080 720)"><g class="banner-circle-instance banner-circle-instance-100"><use href="#banner-circle-symbol-4" width="120" height="120"/></g></g>
<g transform="translate(1200 720)"><g class="banner-circle-instance banner-circle-instance-101"><use href="#banner-circle-symbol-11" width="120" height="120"/></g></g>
<g transform="translate(1320 720)"><g class="banner-circle-instance banner-circle-instance-102"><use href="#banner-circle-symbol-16" width="120" height="120"/></g></g>
<g transform="translate(1440 720)"><g class="banner-circle-instance banner-circle-instance-103"><use href="#banner-circle-symbol-19" width="120" height="120"/></g></g>
<g transform="translate(1560 720)"><g class="banner-circle-instance banner-circle-instance-104"><use href="#banner-circle-symbol-1" width="120" height="120"/></g></g>
<g transform="translate(1680 720)"><g class="banner-circle-instance banner-circle-instance-105"><use href="#banner-circle-symbol-23" width="120" height="120"/></g></g>
<g transform="translate(0 840)"><g class="banner-circle-instance banner-circle-instance-106"><use href="#banner-circle-symbol-16" width="120" height="120"/></g></g>
<g transform="translate(120 840)"><g class="banner-circle-instance banner-circle-instance-107"><use href="#banner-circle-symbol-13" width="120" height="120"/></g></g>
<g transform="translate(240 840)"><g class="banner-circle-instance banner-circle-instance-108"><use href="#banner-circle-symbol-24" width="120" height="120"/></g></g>
<g transform="translate(360 840)"><g class="banner-circle-instance banner-circle-instance-109"><use href="#banner-circle-symbol-11" width="120" height="120"/></g></g>
<g transform="translate(480 840)"><g class="banner-circle-instance banner-circle-instance-110"><use href="#banner-circle-symbol-1" width="120" height="120"/></g></g>
<g transform="translate(600 840)"><g class="banner-circle-instance banner-circle-instance-111"><use href="#banner-circle-symbol-13" width="120" height="120"/></g></g>
<g transform="translate(720 840)"><g class="banner-circle-instance banner-circle-instance-112"><use href="#banner-circle-symbol-20" width="120" height="120"/></g></g>
<g transform="translate(840 840)"><g class="banner-circle-instance banner-circle-instance-113"><use href="#banner-circle-symbol-14" width="120" height="120"/></g></g>
<g transform="translate(960 840)"><g class="banner-circle-instance banner-circle-instance-114"><use href="#banner-circle-symbol-25" width="120" height="120"/></g></g>
<g transform="translate(1080 840)"><g class="banner-circle-instance banner-circle-instance-115"><use href="#banner-circle-symbol-23" width="120" height="120"/></g></g>
<g transform="translate(1200 840)"><g class="banner-circle-instance banner-circle-instance-116"><use href="#banner-circle-symbol-2" width="120" height="120"/></g></g>
<g transform="translate(1320 840)"><g class="banner-circle-instance banner-circle-instance-117"><use href="#banner-circle-symbol-2" width="120" height="120"/></g></g>
<g transform="translate(1440 840)"><g class="banner-circle-instance banner-circle-instance-118"><use href="#banner-circle-symbol-18" width="120" height="120"/></g></g>
<g transform="translate(1560 840)"><g class="banner-circle-instance banner-circle-instance-119"><use href="#banner-circle-symbol-15" width="120" height="120"/></g></g>
<g transform="translate(1680 840)"><g class="banner-circle-instance banner-circle-instance-120"><use href="#banner-circle-symbol-8" width="120" height="120"/></g></g>
<g transform="translate(0 960)"><g class="banner-circle-instance banner-circle-instance-121"><use href="#banner-circle-symbol-8" width="120" height="120"/></g></g>
<g transform="translate(120 960)"><g class="banner-circle-instance banner-circle-instance-122"><use href="#banner-circle-symbol-1" width="120" height="120"/></g></g>
<g transform="translate(240 960)"><g class="banner-circle-instance banner-circle-instance-123"><use href="#banner-circle-symbol-25" width="120" height="120"/></g></g>
<g transform="translate(360 960)"><g class="banner-circle-instance banner-circle-instance-124"><use href="#banner-circle-symbol-18" width="120" height="120"/></g></g>
<g transform="translate(480 960)"><g class="banner-circle-instance banner-circle-instance-125"><use href="#banner-circle-symbol-10" width="120" height="120"/></g></g>
<g transform="translate(600 960)"><g class="banner-circle-instance banner-circle-instance-126"><use href="#banner-circle-symbol-11" width="120" height="120"/></g></g>
<g transform="translate(720 960)"><g class="banner-circle-instance banner-circle-instance-127"><use href="#banner-circle-symbol-11" width="120" height="120"/></g></g>
<g transform="translate(840 960)"><g class="banner-circle-instance banner-circle-instance-128"><use href="#banner-circle-symbol-23" width="120" height="120"/></g></g>
<g transform="translate(960 960)"><g class="banner-circle-instance banner-circle-instance-129"><use href="#banner-circle-symbol-13" width="120" height="120"/></g></g>
<g transform="translate(1080 960)"><g class="banner-circle-instance banner-circle-instance-130"><use href="#banner-circle-symbol-1" width="120" height="120"/></g></g>
<g transform="translate(1200 960)"><g class="banner-circle-instance banner-circle-instance-131"><use href="#banner-circle-symbol-2" width="120" height="120"/></g></g>
<g transform="translate(1320 960)"><g class="banner-circle-instance banner-circle-instance-132"><use href="#banner-circle-symbol-17" width="120" height="120"/></g></g>
<g transform="translate(1440 960)"><g class="banner-circle-instance banner-circle-instance-133"><use href="#banner-circle-symbol-10" width="120" height="120"/></g></g>
<g transform="translate(1560 960)"><g class="banner-circle-instance banner-circle-instance-134"><use href="#banner-circle-symbol-23" width="120" height="120"/></g></g>
<g transform="translate(1680 960)"><g class="banner-circle-instance banner-circle-instance-135"><use href="#banner-circle-symbol-6" width="120" height="120"/></g></g>
<g transform="translate(0 1080)"><g class="banner-circle-instance banner-circle-instance-136"><use href="#banner-circle-symbol-1" width="120" height="120"/></g></g>
<g transform="translate(120 1080)"><g class="banner-circle-instance banner-circle-instance-137"><use href="#banner-circle-symbol-4" width="120" height="120"/></g></g>
<g transform="translate(240 1080)"><g class="banner-circle-instance banner-circle-instance-138"><use href="#banner-circle-symbol-7" width="120" height="120"/></g></g>
<g transform="translate(360 1080)"><g class="banner-circle-instance banner-circle-instance-139"><use href="#banner-circle-symbol-22" width="120" height="120"/></g></g>
<g transform="translate(480 1080)"><g class="banner-circle-instance banner-circle-instance-140"><use href="#banner-circle-symbol-15" width="120" height="120"/></g></g>
<g transform="translate(600 1080)"><g class="banner-circle-instance banner-circle-instance-141"><use href="#banner-circle-symbol-10" width="120" height="120"/></g></g>
<g transform="translate(720 1080)"><g class="banner-circle-instance banner-circle-instance-142"><use href="#banner-circle-symbol-4" width="120" height="120"/></g></g>
<g transform="translate(840 1080)"><g class="banner-circle-instance banner-circle-instance-143"><use href="#banner-circle-symbol-8" width="120" height="120"/></g></g>
<g transform="translate(960 1080)"><g class="banner-circle-instance banner-circle-instance-144"><use href="#banner-circle-symbol-16" width="120" height="120"/></g></g>
<g transform="translate(1080 1080)"><g class="banner-circle-instance banner-circle-instance-145"><use href="#banner-circle-symbol-24" width="120" height="120"/></g></g>
<g transform="translate(1200 1080)"><g class="banner-circle-instance banner-circle-instance-146"><use href="#banner-circle-symbol-8" width="120" height="120"/></g></g>
<g transform="translate(1320 1080)"><g class="banner-circle-instance banner-circle-instance-147"><use href="#banner-circle-symbol-10" width="120" height="120"/></g></g>
<g transform="translate(1440 1080)"><g class="banner-circle-instance banner-circle-instance-148"><use href="#banner-circle-symbol-2" width="120" height="120"/></g></g>
<g transform="translate(1560 1080)"><g class="banner-circle-instance banner-circle-instance-149"><use href="#banner-circle-symbol-5" width="120" height="120"/></g></g>
<g transform="translate(1680 1080)"><g class="banner-circle-instance banner-circle-instance-150"><use href="#banner-circle-symbol-9" width="120" height="120"/></g></g>
</g>

</svg>
