<svg xmlns="http://www.w3.org/2000/svg" viewBox="0 0 1920 1272" id="banner-animation-alt" class="banner-animation-alt">

<g fill="none" fill-rule="evenodd">

<g fill="var(--color-brand)">
<path d="M1101.5 109a12.5 12.5 0 1 1 0 25 12.5 12.5 0 0 1 0-25m0 35c6.9 0 12.5 5.6 12.5 12.5v190a12.5 12.5 0 1 1-25 0v-190c0-6.9 5.6-12.5 12.5-12.5"/>
<path d="M94.5 334a17.5 17.5 0 1 1 0 35 17.5 17.5 0 0 1 0-35m0 60c9.7 0 17.5 7.8 17.5 17.5v155a17.5 17.5 0 0 1-35 0v-155c0-9.7 7.8-17.5 17.5-17.5"/>
<path d="M134.5 129a12.5 12.5 0 1 1 0 25 12.5 12.5 0 0 1 0-25m0 35c6.9 0 12.5 5.6 12.5 12.5v461a12.5 12.5 0 0 1-25 0v-461c0-6.9 5.6-12.5 12.5-12.5"/>
<path d="M95 598a5 5 0 0 1 5 5v15a5 5 0 1 1-10 0v-15a5 5 0 0 1 5-5m0 35a5 5 0 0 1 5 5v476a5 5 0 0 1-10 0V638a5 5 0 0 1 5-5"/>
<path d="M169.5 600a12.5 12.5 0 1 1 0 25 12.5 12.5 0 0 1 0-25m0 35c6.9 0 12.5 5.6 12.5 12.5v55a12.5 12.5 0 0 1-25 0v-55c0-6.9 5.6-12.5 12.5-12.5"/>
<path d="M170 725a5 5 0 1 1 0 10 5 5 0 0 1 0-10m0 20a5 5 0 0 1 5 5v20a5 5 0 1 1-10 0v-20a5 5 0 0 1 5-5"/>
<path d="M169.5 785a12.5 12.5 0 1 1 0 25 12.5 12.5 0 0 1 0-25m0 35c6.9 0 12.5 5.6 12.5 12.5v55a12.5 12.5 0 0 1-25 0v-55c0-6.9 5.6-12.5 12.5-12.5"/>
<path d="M227 69a5 5 0 1 1 0 10 5 5 0 0 1 0-10m0 20a5 5 0 0 1 5 5v491a5 5 0 1 1-10 0V94a5 5 0 0 1 5-5"/>
<path d="M224.5 600a12.5 12.5 0 1 1 0 25 12.5 12.5 0 0 1 0-25m0 50c6.9 0 12.5 5.6 12.5 12.5v40a12.5 12.5 0 0 1-25 0v-40c0-6.9 5.6-12.5 12.5-12.5"/>
<path d="M464.5 483a12.5 12.5 0 1 1 0 25 12.5 12.5 0 0 1 0-25m0 50c6.9 0 12.5 5.6 12.5 12.5v40a12.5 12.5 0 0 1-25 0v-40c0-6.9 5.6-12.5 12.5-12.5"/>
<path d="M1318.5 797a12.5 12.5 0 1 1 0 25 12.5 12.5 0 0 1 0-25m0 50c6.9 0 12.5 5.6 12.5 12.5v40a12.5 12.5 0 1 1-25 0v-40c0-6.9 5.6-12.5 12.5-12.5"/>
<path d="M129.5 930a12.5 12.5 0 1 1 0 25 12.5 12.5 0 0 1 0-25m0 35c6.9 0 12.5 5.6 12.5 12.5v190a12.5 12.5 0 1 1-25 0v-190c0-6.9 5.6-12.5 12.5-12.5"/>
<path d="M197 860a5 5 0 1 1 0 10 5 5 0 0 1 0-10m0 20a5 5 0 0 1 5 5v85a5 5 0 1 1-10 0v-85a5 5 0 0 1 5-5"/>
<path d="M194.5 990a12.5 12.5 0 1 1 0 25 12.5 12.5 0 0 1 0-25m0 50c6.9 0 12.5 5.6 12.5 12.5v175a12.5 12.5 0 1 1-25 0v-175c0-6.9 5.6-12.5 12.5-12.5"/>
<path d="M1351 391a5 5 0 0 1 5 5v15a5 5 0 0 1-10 0v-15a5 5 0 0 1 5-5m0 35a5 5 0 0 1 5 5v476a5 5 0 0 1-10 0V431a5 5 0 0 1 5-5"/>
<path d="M1385.5 458a17.5 17.5 0 1 1 0 35 17.5 17.5 0 0 1 0-35m0 60c9.7 0 17.5 7.8 17.5 17.5v155a17.5 17.5 0 0 1-35 0v-155c0-9.7 7.8-17.5 17.5-17.5"/>
<path d="M1425.5 578a12.5 12.5 0 1 1 0 25 12.5 12.5 0 0 1 0-25m0 35c6.9 0 12.5 5.6 12.5 12.5v55a12.5 12.5 0 1 1-25 0v-55c0-6.9 5.6-12.5 12.5-12.5"/>
<path d="M1453 653a5 5 0 1 1 0 10 5 5 0 0 1 0-10m0 20a5 5 0 0 1 5 5v85a5 5 0 0 1-10 0v-85a5 5 0 0 1 5-5"/>
<path d="M259.5 69a17.5 17.5 0 1 1 0 35 17.5 17.5 0 0 1 0-35m0 60c9.7 0 17.5 7.8 17.5 17.5v155a17.5 17.5 0 0 1-35 0v-155c0-9.7 7.8-17.5 17.5-17.5"/>
<path d="M1278.5 797a17.5 17.5 0 1 1 0 35 17.5 17.5 0 0 1 0-35m0 60c9.7 0 17.5 7.8 17.5 17.5v155a17.5 17.5 0 0 1-35 0v-155c0-9.7 7.8-17.5 17.5-17.5"/>
<path d="M272 870a5 5 0 1 1 0 10 5 5 0 0 1 0-10m0 20a5 5 0 0 1 5 5v220a5 5 0 0 1-10 0V895a5 5 0 0 1 5-5"/>
<path d="M299.5 254a12.5 12.5 0 1 1 0 25 12.5 12.5 0 0 1 0-25m0 35c6.9 0 12.5 5.6 12.5 12.5v55a12.5 12.5 0 0 1-25 0v-55c0-6.9 5.6-12.5 12.5-12.5"/>
<path d="M297 384a5 5 0 0 1 5 5v15a5 5 0 1 1-10 0v-15a5 5 0 0 1 5-5m0 35a5 5 0 0 1 5 5v205a5 5 0 1 1-10 0V424a5 5 0 0 1 5-5"/>
<path d="M309.5 643a17.5 17.5 0 1 1 0 35 17.5 17.5 0 0 1 0-35m0 60c9.7 0 17.5 7.8 17.5 17.5v426a17.5 17.5 0 0 1-35 0v-426c0-9.7 7.8-17.5 17.5-17.5"/>
<path d="M1430.5 320a17.5 17.5 0 1 1 0 35 17.5 17.5 0 0 1 0-35m0 60c9.7 0 17.5 7.8 17.5 17.5v155a17.5 17.5 0 0 1-35 0v-155c0-9.7 7.8-17.5 17.5-17.5"/>
<path d="M1470.5 115a12.5 12.5 0 1 1 0 25 12.5 12.5 0 0 1 0-25m0 35c6.9 0 12.5 5.6 12.5 12.5v461a12.5 12.5 0 1 1-25 0v-461c0-6.9 5.6-12.5 12.5-12.5"/>
<path d="M1530.5 326a17.5 17.5 0 1 1 0 35 17.5 17.5 0 0 1 0-35m0 60c9.7 0 17.5 7.8 17.5 17.5v155a17.5 17.5 0 0 1-35 0v-155c0-9.7 7.8-17.5 17.5-17.5"/>
<path d="M1563 55a5 5 0 1 1 0 10 5 5 0 0 1 0-10m0 20a5 5 0 0 1 5 5v491a5 5 0 0 1-10 0V80a5 5 0 0 1 5-5"/>
<path d="M1635.5 240a12.5 12.5 0 1 1 0 25 12.5 12.5 0 0 1 0-25m0 35c6.9 0 12.5 5.6 12.5 12.5v55a12.5 12.5 0 1 1-25 0v-55c0-6.9 5.6-12.5 12.5-12.5"/>
<path d="M1640.5 55a17.5 17.5 0 1 1 0 35 17.5 17.5 0 0 1 0-35m0 50c9.7 0 17.5 7.8 17.5 17.5v30a17.5 17.5 0 0 1-35 0v-30c0-9.7 7.8-17.5 17.5-17.5"/>
<path d="M1714 710a5 5 0 1 1 0 10 5 5 0 0 1 0-10m0 20a5 5 0 0 1 5 5v491a5 5 0 0 1-10 0V735a5 5 0 0 1 5-5"/>
<path d="M1786.5 895a12.5 12.5 0 1 1 0 25 12.5 12.5 0 0 1 0-25m0 35c6.9 0 12.5 5.6 12.5 12.5v55a12.5 12.5 0 1 1-25 0v-55c0-6.9 5.6-12.5 12.5-12.5"/>
<path d="M1791.5 710a17.5 17.5 0 1 1 0 35 17.5 17.5 0 0 1 0-35m0 50c9.7 0 17.5 7.8 17.5 17.5v30a17.5 17.5 0 0 1-35 0v-30c0-9.7 7.8-17.5 17.5-17.5"/>
<path d="M1633 370a5 5 0 0 1 5 5v15a5 5 0 0 1-10 0v-15a5 5 0 0 1 5-5m0 35a5 5 0 0 1 5 5v205a5 5 0 0 1-10 0V410a5 5 0 0 1 5-5"/>
<path d="M419.5 122a17.5 17.5 0 1 1 0 35 17.5 17.5 0 0 1 0-35m0 60c9.7 0 17.5 7.8 17.5 17.5v426a17.5 17.5 0 0 1-35 0v-426c0-9.7 7.8-17.5 17.5-17.5"/>
<path d="M509.5 334a17.5 17.5 0 1 1 0 35 17.5 17.5 0 0 1 0-35m0 60c9.7 0 17.5 7.8 17.5 17.5v426a17.5 17.5 0 0 1-35 0v-426c0-9.7 7.8-17.5 17.5-17.5"/>
<path d="M509 865a5 5 0 0 1 5 5v15a5 5 0 1 1-10 0v-15a5 5 0 0 1 5-5m0 35a5 5 0 0 1 5 5v205a5 5 0 0 1-10 0V905a5 5 0 0 1 5-5"/>
<path d="M465 329a5 5 0 1 1 0 10 5 5 0 0 1 0-10m0 20a5 5 0 0 1 5 5v20a5 5 0 1 1-10 0v-20a5 5 0 0 1 5-5"/>
<path d="M387 764a5 5 0 0 1 5 5v15a5 5 0 1 1-10 0v-15a5 5 0 0 1 5-5m0 35a5 5 0 0 1 5 5v70a5 5 0 1 1-10 0v-70a5 5 0 0 1 5-5"/>
<path d="M601.5 855a17.5 17.5 0 1 1 0 35 17.5 17.5 0 0 1 0-35m0 50c9.7 0 17.5 7.8 17.5 17.5v30a17.5 17.5 0 0 1-35 0v-30c0-9.7 7.8-17.5 17.5-17.5"/>
<path d="M554.5 1115a12.5 12.5 0 1 1 0 25 12.5 12.5 0 0 1 0-25m0 50c6.9 0 12.5 5.6 12.5 12.5v40a12.5 12.5 0 1 1-25 0v-40c0-6.9 5.6-12.5 12.5-12.5"/>
<path d="M479.5 973a12.5 12.5 0 1 1 0 25 12.5 12.5 0 0 1 0-25m0 50c6.9 0 12.5 5.6 12.5 12.5v40a12.5 12.5 0 1 1-25 0v-40c0-6.9 5.6-12.5 12.5-12.5"/>
<path d="M501.5 1115a12.5 12.5 0 1 1 0 25 12.5 12.5 0 0 1 0-25m0 35c6.9 0 12.5 5.6 12.5 12.5v55a12.5 12.5 0 1 1-25 0v-55c0-6.9 5.6-12.5 12.5-12.5"/>
<path d="M472 1098a5 5 0 1 1 0 10 5 5 0 0 1 0-10m0 20a5 5 0 0 1 5 5v85a5 5 0 0 1-10 0v-85a5 5 0 0 1 5-5"/>
<path d="M1166 801a5 5 0 0 1 5 5v15a5 5 0 0 1-10 0v-15a5 5 0 0 1 5-5m0 35a5 5 0 0 1 5 5v70a5 5 0 0 1-10 0v-70a5 5 0 0 1 5-5"/>
<path d="M1163.5 1061a17.5 17.5 0 1 1 0 35 17.5 17.5 0 0 1 0-35m0 50c9.7 0 17.5 7.8 17.5 17.5v30a17.5 17.5 0 0 1-35 0v-30c0-9.7 7.8-17.5 17.5-17.5"/>
<path d="M504.5 84a12.5 12.5 0 1 1 0 25 12.5 12.5 0 0 1 0-25m0 50c6.9 0 12.5 5.6 12.5 12.5v175a12.5 12.5 0 0 1-25 0v-175c0-6.9 5.6-12.5 12.5-12.5"/>
<path d="M891.5 89a12.5 12.5 0 1 1 0 25 12.5 12.5 0 0 1 0-25m0 50c6.9 0 12.5 5.6 12.5 12.5v175a12.5 12.5 0 0 1-25 0v-175c0-6.9 5.6-12.5 12.5-12.5"/>
<path d="M576.5 204a17.5 17.5 0 1 1 0 35 17.5 17.5 0 0 1 0-35m0 50c9.7 0 17.5 7.8 17.5 17.5v30a17.5 17.5 0 0 1-35 0v-30c0-9.7 7.8-17.5 17.5-17.5"/>
<path d="M352 69a5 5 0 0 1 5 5v15a5 5 0 1 1-10 0V74a5 5 0 0 1 5-5m0 35a5 5 0 0 1 5 5v220a5 5 0 1 1-10 0V109a5 5 0 0 1 5-5"/>
<path d="M539.5 69a12.5 12.5 0 1 1 0 25 12.5 12.5 0 0 1 0-25m0 35c6.9 0 12.5 5.6 12.5 12.5v55a12.5 12.5 0 0 1-25 0v-55c0-6.9 5.6-12.5 12.5-12.5"/>
<path d="M543 284a5 5 0 1 1 0 10 5 5 0 0 1 0-10m0 20a5 5 0 0 1 5 5v20a5 5 0 1 1-10 0v-20a5 5 0 0 1 5-5"/>
<path d="M1826.5 675a12.5 12.5 0 1 1 0 25 12.5 12.5 0 0 1 0-25m0 35c6.9 0 12.5 5.6 12.5 12.5v190a12.5 12.5 0 1 1-25 0v-190c0-6.9 5.6-12.5 12.5-12.5"/>
<path d="M1826 625a5 5 0 1 1 0 10 5 5 0 0 1 0-10m0 20a5 5 0 0 1 5 5v20a5 5 0 0 1-10 0v-20a5 5 0 0 1 5-5"/>
<path d="M347 649a5 5 0 0 1 5 5v15a5 5 0 1 1-10 0v-15a5 5 0 0 1 5-5m0 35a5 5 0 0 1 5 5v70a5 5 0 1 1-10 0v-70a5 5 0 0 1 5-5"/>
<path d="M606.5 89a12.5 12.5 0 1 1 0 25 12.5 12.5 0 0 1 0-25m0 35c6.9 0 12.5 5.6 12.5 12.5v55a12.5 12.5 0 0 1-25 0v-55c0-6.9 5.6-12.5 12.5-12.5"/>
<path d="M856.5 89a12.5 12.5 0 1 1 0 25 12.5 12.5 0 0 1 0-25m0 35c6.9 0 12.5 5.6 12.5 12.5v55a12.5 12.5 0 0 1-25 0v-55c0-6.9 5.6-12.5 12.5-12.5"/>
<path d="M1193.5 206a17.5 17.5 0 1 1 0 35 17.5 17.5 0 0 1 0-35m0 60c9.7 0 17.5 7.8 17.5 17.5v155a17.5 17.5 0 0 1-35 0v-155c0-9.7 7.8-17.5 17.5-17.5"/>
<path d="M711.5 119a12.5 12.5 0 1 1 0 25 12.5 12.5 0 0 1 0-25m0 50c6.9 0 12.5 5.6 12.5 12.5v446a12.5 12.5 0 0 1-25 0v-446c0-6.9 5.6-12.5 12.5-12.5"/>
<path d="M636.5 479a17.5 17.5 0 1 1 0 35 17.5 17.5 0 0 1 0-35m0 60c9.7 0 17.5 7.8 17.5 17.5v155a17.5 17.5 0 0 1-35 0v-155c0-9.7 7.8-17.5 17.5-17.5"/>
<path d="M756.5 269a12.5 12.5 0 1 1 0 25 12.5 12.5 0 0 1 0-25m0 50c6.9 0 12.5 5.6 12.5 12.5v40a12.5 12.5 0 0 1-25 0v-40c0-6.9 5.6-12.5 12.5-12.5"/>
<path d="M801.5 384a12.5 12.5 0 1 1 0 25 12.5 12.5 0 0 1 0-25m0 35c6.9 0 12.5 5.6 12.5 12.5v55a12.5 12.5 0 0 1-25 0v-55c0-6.9 5.6-12.5 12.5-12.5"/>
<path d="M589 970a5 5 0 0 1 5 5v15a5 5 0 1 1-10 0v-15a5 5 0 0 1 5-5m0 35a5 5 0 0 1 5 5v205a5 5 0 0 1-10 0v-205a5 5 0 0 1 5-5"/>
<path d="M1549 866a5 5 0 0 1 5 5v15a5 5 0 0 1-10 0v-15a5 5 0 0 1 5-5m0 35a5 5 0 0 1 5 5v205a5 5 0 0 1-10 0V906a5 5 0 0 1 5-5"/>
<path d="M1595.5 856a17.5 17.5 0 1 1 0 35 17.5 17.5 0 0 1 0-35m0 60c9.7 0 17.5 7.8 17.5 17.5v155a17.5 17.5 0 0 1-35 0v-155c0-9.7 7.8-17.5 17.5-17.5"/>
<path d="M1641.5 856a17.5 17.5 0 1 1 0 35 17.5 17.5 0 0 1 0-35m0 50c9.7 0 17.5 7.8 17.5 17.5v30a17.5 17.5 0 0 1-35 0v-30c0-9.7 7.8-17.5 17.5-17.5"/>
<path d="M1594.5 1116a12.5 12.5 0 1 1 0 25 12.5 12.5 0 0 1 0-25m0 50c6.9 0 12.5 5.6 12.5 12.5v40a12.5 12.5 0 1 1-25 0v-40c0-6.9 5.6-12.5 12.5-12.5"/>
<path d="M1519.5 974a12.5 12.5 0 1 1 0 25 12.5 12.5 0 0 1 0-25m0 50c6.9 0 12.5 5.6 12.5 12.5v40a12.5 12.5 0 1 1-25 0v-40c0-6.9 5.6-12.5 12.5-12.5"/>
<path d="M1541.5 1116a12.5 12.5 0 1 1 0 25 12.5 12.5 0 0 1 0-25m0 35c6.9 0 12.5 5.6 12.5 12.5v55a12.5 12.5 0 1 1-25 0v-55c0-6.9 5.6-12.5 12.5-12.5"/>
<path d="M1512 1099a5 5 0 1 1 0 10 5 5 0 0 1 0-10m0 20a5 5 0 0 1 5 5v85a5 5 0 0 1-10 0v-85a5 5 0 0 1 5-5"/>
<path d="M1629 971a5 5 0 0 1 5 5v15a5 5 0 0 1-10 0v-15a5 5 0 0 1 5-5m0 35a5 5 0 0 1 5 5v205a5 5 0 0 1-10 0v-205a5 5 0 0 1 5-5"/>
<path d="M702 1175a5 5 0 1 1 0 10 5 5 0 0 1 0-10m0 20a5 5 0 0 1 5 5v20a5 5 0 0 1-10 0v-20a5 5 0 0 1 5-5"/>
<path d="M1335.5 995a12.5 12.5 0 1 1 0 25 12.5 12.5 0 0 1 0-25m0 35c6.9 0 12.5 5.6 12.5 12.5v55a12.5 12.5 0 1 1-25 0v-55c0-6.9 5.6-12.5 12.5-12.5"/>
<path d="M976.5 119a12.5 12.5 0 1 1 0 25 12.5 12.5 0 0 1 0-25m0 35c6.9 0 12.5 5.6 12.5 12.5v55a12.5 12.5 0 0 1-25 0v-55c0-6.9 5.6-12.5 12.5-12.5"/>
<path d="M1016.5 119a17.5 17.5 0 1 1 0 35 17.5 17.5 0 0 1 0-35m0 50c9.7 0 17.5 7.8 17.5 17.5v30a17.5 17.5 0 0 1-35 0v-30c0-9.7 7.8-17.5 17.5-17.5"/>
<path d="M1129 144a5 5 0 1 1 0 10 5 5 0 0 1 0-10m0 20a5 5 0 0 1 5 5v220a5 5 0 0 1-10 0V169a5 5 0 0 1 5-5"/>
<path d="M1273.5 391a17.5 17.5 0 1 1 0 35 17.5 17.5 0 0 1 0-35m0 50c9.7 0 17.5 7.8 17.5 17.5v30a17.5 17.5 0 0 1-35 0v-30c0-9.7 7.8-17.5 17.5-17.5"/>
<path d="M1161 186a5 5 0 1 1 0 10 5 5 0 0 1 0-10m0 20a5 5 0 0 1 5 5v220a5 5 0 0 1-10 0V211a5 5 0 0 1 5-5"/>
<path d="M1747 189a5 5 0 1 1 0 10 5 5 0 0 1 0-10m0 20a5 5 0 0 1 5 5v491a5 5 0 0 1-10 0V214a5 5 0 0 1 5-5"/>
<path d="M1386 198a5 5 0 0 1 5 5v15a5 5 0 0 1-10 0v-15a5 5 0 0 1 5-5m0 35a5 5 0 0 1 5 5v205a5 5 0 0 1-10 0V238a5 5 0 0 1 5-5"/>
<path d="M1366 141a5 5 0 1 1 0 10 5 5 0 0 1 0-10m0 20a5 5 0 0 1 5 5v220a5 5 0 0 1-10 0V166a5 5 0 0 1 5-5"/>
<path d="M1721.5 189a12.5 12.5 0 1 1 0 25 12.5 12.5 0 0 1 0-25m0 35c6.9 0 12.5 5.6 12.5 12.5v461a12.5 12.5 0 1 1-25 0v-461c0-6.9 5.6-12.5 12.5-12.5"/>
<path d="M1779 169a5 5 0 1 1 0 10 5 5 0 0 1 0-10m0 20a5 5 0 0 1 5 5v491a5 5 0 0 1-10 0V194a5 5 0 0 1 5-5"/>
<path d="M1273.5 141a12.5 12.5 0 1 1 0 25 12.5 12.5 0 0 1 0-25m0 50c6.9 0 12.5 5.6 12.5 12.5v175a12.5 12.5 0 1 1-25 0v-175c0-6.9 5.6-12.5 12.5-12.5"/>
<path d="M1306 151a5 5 0 1 1 0 10 5 5 0 0 1 0-10m0 20a5 5 0 0 1 5 5v85a5 5 0 0 1-10 0v-85a5 5 0 0 1 5-5"/>
<path d="M1239 510a5 5 0 1 1 0 10 5 5 0 0 1 0-10m0 20a5 5 0 0 1 5 5v220a5 5 0 0 1-10 0V535a5 5 0 0 1 5-5"/>
<path d="M1549 741a5 5 0 1 1 0 10 5 5 0 0 1 0-10m0 20a5 5 0 0 1 5 5v85a5 5 0 0 1-10 0v-85a5 5 0 0 1 5-5"/>
<path d="M1548 616a5 5 0 1 1 0 10 5 5 0 0 1 0-10m0 20a5 5 0 0 1 5 5v85a5 5 0 0 1-10 0v-85a5 5 0 0 1 5-5"/>
<path d="M1518 576a5 5 0 1 1 0 10 5 5 0 0 1 0-10m0 20a5 5 0 0 1 5 5v85a5 5 0 0 1-10 0v-85a5 5 0 0 1 5-5"/>
<path d="M732 800a5 5 0 0 1 5 5v15a5 5 0 1 1-10 0v-15a5 5 0 0 1 5-5m0 35a5 5 0 0 1 5 5v70a5 5 0 1 1-10 0v-70a5 5 0 0 1 5-5"/>
<path d="M1826.5 1038a17.5 17.5 0 1 1 0 35 17.5 17.5 0 0 1 0-35m0 50c9.7 0 17.5 7.8 17.5 17.5v30a17.5 17.5 0 0 1-35 0v-30c0-9.7 7.8-17.5 17.5-17.5"/>
<path d="M1016 234a5 5 0 1 1 0 10 5 5 0 0 1 0-10m0 20a5 5 0 0 1 5 5v220a5 5 0 0 1-10 0V259a5 5 0 0 1 5-5"/>
<path d="M914 637a5 5 0 1 1 0 10 5 5 0 0 1 0-10m0 20a5 5 0 0 1 5 5v220a5 5 0 1 1-10 0V662a5 5 0 0 1 5-5"/>
<path d="M856.5 244a12.5 12.5 0 1 1 0 25 12.5 12.5 0 0 1 0-25m0 50c6.9 0 12.5 5.6 12.5 12.5v40a12.5 12.5 0 0 1-25 0v-40c0-6.9 5.6-12.5 12.5-12.5"/>
<path d="M1198.5 456a12.5 12.5 0 1 1 0 25 12.5 12.5 0 0 1 0-25m0 50c6.9 0 12.5 5.6 12.5 12.5v40a12.5 12.5 0 1 1-25 0v-40c0-6.9 5.6-12.5 12.5-12.5"/>
<path d="M1278.5 682a12.5 12.5 0 1 1 0 25 12.5 12.5 0 0 1 0-25m0 35c6.9 0 12.5 5.6 12.5 12.5v55a12.5 12.5 0 1 1-25 0v-55c0-6.9 5.6-12.5 12.5-12.5"/>
<path d="M1074 494a5 5 0 0 1 5 5v15a5 5 0 0 1-10 0v-15a5 5 0 0 1 5-5m0 35a5 5 0 0 1 5 5v70a5 5 0 0 1-10 0v-70a5 5 0 0 1 5-5"/>
<path d="M909 339a5 5 0 1 1 0 10 5 5 0 0 1 0-10m0 20a5 5 0 0 1 5 5v85a5 5 0 1 1-10 0v-85a5 5 0 0 1 5-5"/>
<path d="M907 1051a5 5 0 1 1 0 10 5 5 0 0 1 0-10m0 20a5 5 0 0 1 5 5v85a5 5 0 0 1-10 0v-85a5 5 0 0 1 5-5"/>
<path d="M1021 801a5 5 0 1 1 0 10 5 5 0 0 1 0-10m0 20a5 5 0 0 1 5 5v85a5 5 0 0 1-10 0v-85a5 5 0 0 1 5-5"/>
<path d="M1131 817a5 5 0 1 1 0 10 5 5 0 0 1 0-10m0 20a5 5 0 0 1 5 5v85a5 5 0 0 1-10 0v-85a5 5 0 0 1 5-5"/>
<path d="M1094 359a5 5 0 0 1 5 5v15a5 5 0 0 1-10 0v-15a5 5 0 0 1 5-5m0 35a5 5 0 0 1 5 5v70a5 5 0 0 1-10 0v-70a5 5 0 0 1 5-5"/>
<path d="M1688 70a5 5 0 0 1 5 5v15a5 5 0 0 1-10 0V75a5 5 0 0 1 5-5m0 35a5 5 0 0 1 5 5v205a5 5 0 0 1-10 0V110a5 5 0 0 1 5-5"/>
<path d="M1629 741a5 5 0 1 1 0 10 5 5 0 0 1 0-10m0 20a5 5 0 0 1 5 5v85a5 5 0 0 1-10 0v-85a5 5 0 0 1 5-5"/>
<path d="M1721.5 64a12.5 12.5 0 1 1 0 25 12.5 12.5 0 0 1 0-25m0 35c6.9 0 12.5 5.6 12.5 12.5v55a12.5 12.5 0 1 1-25 0v-55c0-6.9 5.6-12.5 12.5-12.5"/>

<rect width="5" height="521" x="157" y="69" rx="2.5"/>
<rect width="5" height="250" x="157" y="915" rx="2.5"/>
<rect width="5" height="250" x="1413" y="708" rx="2.5"/>
<rect width="5" height="60" x="317" y="194" rx="2.5"/>
<rect width="5" height="521" x="1493" y="55" rx="2.5"/>
<rect width="5" height="79" x="1623" y="165" rx="2.5"/>
<rect width="5" height="60" x="1653" y="180" rx="2.5"/>
<rect width="5" height="79" x="1774" y="820" rx="2.5"/>
<rect width="5" height="60" x="1804" y="835" rx="2.5"/>
<rect width="5" height="521" x="538" y="334" rx="2.5"/>
<rect width="5" height="250" x="522" y="865" rx="2.5"/>
<rect width="5" height="250" x="477" y="723" rx="2.5"/>
<rect width="5" height="146" x="382" y="879" rx="2.5"/>
<rect width="5" height="115" x="1196" y="1051" rx="2.5"/>
<rect width="5" height="146" x="1161" y="916" rx="2.5"/>
<rect width="5" height="485" x="377" y="69" rx="2.5"/>
<rect width="5" height="115" x="1824" y="925" rx="2.5"/>
<rect width="5" height="40" x="322" y="584" rx="2.5"/>
<rect width="5" height="295" x="789" y="89" rx="2.5"/>
<rect width="5" height="250" x="1562" y="866" rx="2.5"/>
<rect width="5" height="250" x="1517" y="724" rx="2.5"/>
<rect width="5" height="250" x="699" y="915" rx="2.5"/>
<rect width="5" height="40" x="538" y="204" rx="2.5"/>
<rect width="5" height="40" x="949" y="119" rx="2.5"/>
<rect width="5" height="115" x="754" y="154" rx="2.5"/>
<rect width="5" height="115" x="949" y="172" rx="2.5"/>
<rect width="5" height="115" x="634" y="89" rx="2.5"/>
<rect width="5" height="40" x="864" y="204" rx="2.5"/>
<rect width="5" height="40" x="964" y="234" rx="2.5"/>
<rect width="5" height="250" x="1331" y="49" rx="2.5"/>
<rect width="5" height="250" x="1673" y="70" rx="2.5"/>
<rect width="5" height="115" x="1271" y="506" rx="2.5"/>
<rect width="5" height="250" x="1472" y="635" rx="2.5"/>
<rect width="5" height="250" x="1333" y="927" rx="2.5"/>
<rect width="5" height="250" x="1744" y="960" rx="2.5"/>
<rect width="5" height="115" x="969" y="637" rx="2.5"/>
<rect width="5" height="115" x="1013" y="484" rx="2.5"/>
<rect width="5" height="521" x="1064" y="494" rx="2.5"/>
<rect width="4" height="250" x="1159" y="436" rx="2"/>
<rect width="5" height="250" x="754" y="384" rx="2.5"/>
<rect width="5" height="115" x="814" y="204" rx="2.5"/>
<rect width="5" height="250" x="970" y="781" rx="2.5"/>
<rect width="5" height="648" x="874" y="384" rx="2.5"/>
<rect width="5" height="250" x="1019" y="916" rx="2.5"/>
<rect width="5" height="115" x="1044" y="339" rx="2.5"/>
<rect width="5" height="115" x="939" y="552" rx="2.5"/>
<rect width="5" height="115" x="754" y="677" rx="2.5"/>
<rect width="5" height="115" x="1018" y="686" rx="2.5"/>
<rect width="5" height="115" x="1654" y="741" rx="2.5"/>
<rect width="5" height="40" x="1643" y="660" rx="2.5"/>
<rect width="5" height="40" x="1809" y="554" rx="2.5"/>
<rect width="5" height="40" x="1839" y="554" rx="2.5"/>
<rect width="5" height="225" x="1231" y="41" rx="2.5"/>
</g>

<g fill="var(--color-accent)">
<path d="M194.5 340a17.5 17.5 0 1 1 0 35 17.5 17.5 0 0 1 0-35m0 60c9.7 0 17.5 7.8 17.5 17.5v155a17.5 17.5 0 0 1-35 0v-155c0-9.7 7.8-17.5 17.5-17.5"/>
<path d="M197 600a5 5 0 1 1 0 10 5 5 0 0 1 0-10m0 20a5 5 0 0 1 5 5v220a5 5 0 1 1-10 0V625a5 5 0 0 1 5-5"/>
<path d="M1385.5 723a12.5 12.5 0 1 1 0 25 12.5 12.5 0 0 1 0-25m0 35c6.9 0 12.5 5.6 12.5 12.5v190a12.5 12.5 0 1 1-25 0v-190c0-6.9 5.6-12.5 12.5-12.5"/>
<path d="M1595.5 55a17.5 17.5 0 1 1 0 35 17.5 17.5 0 0 1 0-35m0 60c9.7 0 17.5 7.8 17.5 17.5v155a17.5 17.5 0 0 1-35 0v-155c0-9.7 7.8-17.5 17.5-17.5"/>
<path d="M1681.5 721a12.5 12.5 0 1 1 0 25 12.5 12.5 0 0 1 0-25m0 50c6.9 0 12.5 5.6 12.5 12.5v175a12.5 12.5 0 1 1-25 0v-175c0-6.9 5.6-12.5 12.5-12.5"/>
<path d="M419.5 764a12.5 12.5 0 1 1 0 25 12.5 12.5 0 0 1 0-25m0 35c6.9 0 12.5 5.6 12.5 12.5v190a12.5 12.5 0 1 1-25 0v-190c0-6.9 5.6-12.5 12.5-12.5"/>
<path d="M1198.5 801a12.5 12.5 0 1 1 0 25 12.5 12.5 0 0 1 0-25m0 35c6.9 0 12.5 5.6 12.5 12.5v190a12.5 12.5 0 1 1-25 0v-190c0-6.9 5.6-12.5 12.5-12.5"/>
<path d="M419 714a5 5 0 1 1 0 10 5 5 0 0 1 0-10m0 20a5 5 0 0 1 5 5v20a5 5 0 1 1-10 0v-20a5 5 0 0 1 5-5"/>
<path d="M676.5 479a12.5 12.5 0 1 1 0 25 12.5 12.5 0 0 1 0-25m0 50c6.9 0 12.5 5.6 12.5 12.5v175a12.5 12.5 0 0 1-25 0v-175c0-6.9 5.6-12.5 12.5-12.5"/>
<path d="M677 229a5 5 0 0 1 5 5v15a5 5 0 1 1-10 0v-15a5 5 0 0 1 5-5m0 35a5 5 0 0 1 5 5v205a5 5 0 1 1-10 0V269a5 5 0 0 1 5-5"/>
<path d="M1681 606a5 5 0 1 1 0 10 5 5 0 0 1 0-10m0 20a5 5 0 0 1 5 5v85a5 5 0 0 1-10 0v-85a5 5 0 0 1 5-5"/>
<path d="M981.5 274a17.5 17.5 0 1 1 0 35 17.5 17.5 0 0 1 0-35m0 60c9.7 0 17.5 7.8 17.5 17.5v155a17.5 17.5 0 0 1-35 0v-155c0-9.7 7.8-17.5 17.5-17.5"/>
<path d="M1385 973a5 5 0 0 1 5 5v15a5 5 0 0 1-10 0v-15a5 5 0 0 1 5-5m0 35a5 5 0 0 1 5 5v205a5 5 0 0 1-10 0v-205a5 5 0 0 1 5-5"/>

<rect width="5" height="115" x="417" y="1014" rx="2.5"/>
<rect width="5" height="115" x="1196" y="686" rx="2.5"/>
<rect width="5" height="80" x="1196" y="571" rx="2.5"/>
</g>

<g style="fill: oklch(from var(--color-brand) calc(l - 0.095) c h);">
<path d="M304.5 69a17.5 17.5 0 1 1 0 35 17.5 17.5 0 0 1 0-35m0 50c9.7 0 17.5 7.8 17.5 17.5v30a17.5 17.5 0 0 1-35 0v-30c0-9.7 7.8-17.5 17.5-17.5"/>
<path d="M379.5 504a12.5 12.5 0 1 1 0 25 12.5 12.5 0 0 1 0-25m0 50c6.9 0 12.5 5.6 12.5 12.5v175a12.5 12.5 0 0 1-25 0v-175c0-6.9 5.6-12.5 12.5-12.5"/>
<path d="M259.5 334a17.5 17.5 0 1 1 0 35 17.5 17.5 0 0 1 0-35m0 60c9.7 0 17.5 7.8 17.5 17.5v426a17.5 17.5 0 0 1-35 0v-426c0-9.7 7.8-17.5 17.5-17.5"/>
<path d="M1595.5 320a17.5 17.5 0 1 1 0 35 17.5 17.5 0 0 1 0-35m0 60c9.7 0 17.5 7.8 17.5 17.5v426a17.5 17.5 0 0 1-35 0v-426c0-9.7 7.8-17.5 17.5-17.5"/>
<path d="M1318.5 266a17.5 17.5 0 1 1 0 35 17.5 17.5 0 0 1 0-35m0 60c9.7 0 17.5 7.8 17.5 17.5v426a17.5 17.5 0 0 1-35 0v-426c0-9.7 7.8-17.5 17.5-17.5"/>
<path d="M555.5 855a17.5 17.5 0 1 1 0 35 17.5 17.5 0 0 1 0-35m0 60c9.7 0 17.5 7.8 17.5 17.5v155a17.5 17.5 0 0 1-35 0v-155c0-9.7 7.8-17.5 17.5-17.5"/>
<path d="M576.5 334a17.5 17.5 0 1 1 0 35 17.5 17.5 0 0 1 0-35m0 60c9.7 0 17.5 7.8 17.5 17.5v426a17.5 17.5 0 0 1-35 0v-426c0-9.7 7.8-17.5 17.5-17.5"/>
<path d="M1826.5 33a17.5 17.5 0 1 1 0 35 17.5 17.5 0 0 1 0-35m0 60c9.7 0 17.5 7.8 17.5 17.5v426a17.5 17.5 0 0 1-35 0v-426c0-9.7 7.8-17.5 17.5-17.5"/>
<path d="M1118.5 932a17.5 17.5 0 1 1 0 35 17.5 17.5 0 0 1 0-35m0 60c9.7 0 17.5 7.8 17.5 17.5v155a17.5 17.5 0 0 1-35 0v-155c0-9.7 7.8-17.5 17.5-17.5"/>
<path d="M129.5 665a17.5 17.5 0 1 1 0 35 17.5 17.5 0 0 1 0-35m0 60c9.7 0 17.5 7.8 17.5 17.5v155a17.5 17.5 0 0 1-35 0v-155c0-9.7 7.8-17.5 17.5-17.5"/>
<path d="M194.5 80a12.5 12.5 0 1 1 0 25 12.5 12.5 0 0 1 0-25m0 50c6.9 0 12.5 5.6 12.5 12.5v175a12.5 12.5 0 0 1-25 0v-175c0-6.9 5.6-12.5 12.5-12.5"/>
<path d="M339.5 334a17.5 17.5 0 1 1 0 35 17.5 17.5 0 0 1 0-35m0 60c9.7 0 17.5 7.8 17.5 17.5v155a17.5 17.5 0 0 1-35 0v-155c0-9.7 7.8-17.5 17.5-17.5"/>
<path d="M1530.5 66a12.5 12.5 0 1 1 0 25 12.5 12.5 0 0 1 0-25m0 50c6.9 0 12.5 5.6 12.5 12.5v175a12.5 12.5 0 1 1-25 0v-175c0-6.9 5.6-12.5 12.5-12.5"/>
<path d="M926.5 89a12.5 12.5 0 1 1 0 25 12.5 12.5 0 0 1 0-25m0 35c6.9 0 12.5 5.6 12.5 12.5v190a12.5 12.5 0 0 1-25 0v-190c0-6.9 5.6-12.5 12.5-12.5"/>
<path d="M731.5 915a17.5 17.5 0 1 1 0 35 17.5 17.5 0 0 1 0-35m0 60c9.7 0 17.5 7.8 17.5 17.5v155a17.5 17.5 0 0 1-35 0v-155c0-9.7 7.8-17.5 17.5-17.5"/>
<path d="M1161.5 71a17.5 17.5 0 1 1 0 35 17.5 17.5 0 0 1 0-35m0 50c9.7 0 17.5 7.8 17.5 17.5v30a17.5 17.5 0 0 1-35 0v-30c0-9.7 7.8-17.5 17.5-17.5"/>

<rect width="5" height="250" x="169" y="915" rx="2.5"/>
<rect width="5" height="70" x="287" y="184" rx="2.5"/>
<rect width="5" height="250" x="833" y="521" rx="2.5"/>
<rect width="5" height="250" x="1116" y="481" rx="2.5"/>
<rect width="5" height="115" x="934" y="917" rx="2.5"/>
<rect width="5" height="40" x="1489" y="660" rx="2.5"/>
<rect width="5" height="250" x="1761" y="441" rx="2.5"/>
</g>

<g style="fill: oklch(from var(--color-brand) calc(l - 0.135) c h);">
<path d="M94.5 69a12.5 12.5 0 1 1 0 25 12.5 12.5 0 0 1 0-25m0 35c6.9 0 12.5 5.6 12.5 12.5v190a12.5 12.5 0 0 1-25 0v-190c0-6.9 5.6-12.5 12.5-12.5"/>
<path d="M1430.5 55a12.5 12.5 0 1 1 0 25 12.5 12.5 0 0 1 0-25m0 35c6.9 0 12.5 5.6 12.5 12.5v190a12.5 12.5 0 1 1-25 0v-190c0-6.9 5.6-12.5 12.5-12.5"/>
<path d="M1746.5 710a17.5 17.5 0 1 1 0 35 17.5 17.5 0 0 1 0-35m0 60c9.7 0 17.5 7.8 17.5 17.5v155a17.5 17.5 0 0 1-35 0v-155c0-9.7 7.8-17.5 17.5-17.5"/>
<path d="M1675.5 320a17.5 17.5 0 1 1 0 35 17.5 17.5 0 0 1 0-35m0 60c9.7 0 17.5 7.8 17.5 17.5v155a17.5 17.5 0 0 1-35 0v-155c0-9.7 7.8-17.5 17.5-17.5"/>
<path d="M464.5 608a17.5 17.5 0 1 1 0 35 17.5 17.5 0 0 1 0-35m0 50c9.7 0 17.5 7.8 17.5 17.5v30a17.5 17.5 0 0 1-35 0v-30c0-9.7 7.8-17.5 17.5-17.5"/>
<path d="M1233.5 266a12.5 12.5 0 1 1 0 25 12.5 12.5 0 0 1 0-25m0 35c6.9 0 12.5 5.6 12.5 12.5v55a12.5 12.5 0 1 1-25 0v-55c0-6.9 5.6-12.5 12.5-12.5"/>
<path d="M636.5 204a17.5 17.5 0 1 1 0 35 17.5 17.5 0 0 1 0-35m0 60c9.7 0 17.5 7.8 17.5 17.5v155a17.5 17.5 0 0 1-35 0v-155c0-9.7 7.8-17.5 17.5-17.5"/>
<path d="M806.5 89a12.5 12.5 0 1 1 0 25 12.5 12.5 0 0 1 0-25m0 35c6.9 0 12.5 5.6 12.5 12.5v55a12.5 12.5 0 0 1-25 0v-55c0-6.9 5.6-12.5 12.5-12.5"/>
<path d="M1778.5 54a12.5 12.5 0 1 1 0 25 12.5 12.5 0 0 1 0-25m0 35c6.9 0 12.5 5.6 12.5 12.5v55a12.5 12.5 0 1 1-25 0v-55c0-6.9 5.6-12.5 12.5-12.5"/>
<path d="M1450.5 783a12.5 12.5 0 1 1 0 25 12.5 12.5 0 0 1 0-25m0 50c6.9 0 12.5 5.6 12.5 12.5v175a12.5 12.5 0 1 1-25 0v-175c0-6.9 5.6-12.5 12.5-12.5"/>
<path d="M464.5 69a17.5 17.5 0 1 1 0 35 17.5 17.5 0 0 1 0-35m0 60c9.7 0 17.5 7.8 17.5 17.5v155a17.5 17.5 0 0 1-35 0v-155c0-9.7 7.8-17.5 17.5-17.5"/>
<path d="M384.5 1024a17.5 17.5 0 1 1 0 35 17.5 17.5 0 0 1 0-35m0 50c9.7 0 17.5 7.8 17.5 17.5v30a17.5 17.5 0 0 1-35 0v-30c0-9.7 7.8-17.5 17.5-17.5"/>
<path d="M1061.5 89a17.5 17.5 0 1 1 0 35 17.5 17.5 0 0 1 0-35m0 60c9.7 0 17.5 7.8 17.5 17.5v155a17.5 17.5 0 0 1-35 0v-155c0-9.7 7.8-17.5 17.5-17.5"/>
<path d="M815.5 594a17.5 17.5 0 1 1 0 35 17.5 17.5 0 0 1 0-35m0 50c9.7 0 17.5 7.8 17.5 17.5v30a17.5 17.5 0 0 1-35 0v-30c0-9.7 7.8-17.5 17.5-17.5"/>
</g>

</g>

</svg>
