<svg xmlns="http://www.w3.org/2000/svg" viewBox="0 0 1800 1200" id="banner-animation-pacman">

<g fill="none">

<g id="pacman-walls">
<path stroke="#16599c" stroke-linecap="round" stroke-width="10" d="M1390 900h220c5.523 0 10 4.477 10 10v100c0 5.523-4.477 10-10 10h-220c-5.523 0-10-4.477-10-10V910c0-5.523 4.477-10 10-10Zm-260-720c5.523 0 10 4.477 10 10v100c0 5.523-4.477 10-10 10H960v240h170c5.523 0 10 4.477 10 10v100c0 5.523-4.477 10-10 10H960v240h170c5.523 0 10 4.477 10 10v100c0 5.523-4.477 10-10 10H670c-5.523 0-10-4.477-10-10V910c0-5.523 4.477-10 10-10h170V660H670c-5.523 0-10-4.477-10-10V550c0-5.523 4.477-10 10-10h170V300H670c-5.523 0-10-4.477-10-10V190c0-5.523 4.477-10 10-10zM190 900h220c5.523 0 10 4.477 10 10v100c0 5.523-4.477 10-10 10H190c-5.523 0-10-4.477-10-10V910c0-5.523 4.477-10 10-10Zm1200-360h340c5.523 0 10 4.477 10 10v100c0 5.523-4.477 10-10 10h-340c-5.523 0-10-4.477-10-10V550c0-5.523 4.477-10 10-10ZM70 540h340c5.523 0 10 4.477 10 10v100c0 5.523-4.477 10-10 10H70c-5.523 0-10-4.477-10-10V550c0-5.523 4.477-10 10-10Zm1320-360h220c5.523 0 10 4.477 10 10v100c0 5.523-4.477 10-10 10h-220c-5.523 0-10-4.477-10-10V190c0-5.523 4.477-10 10-10Zm-1200 0h220c5.523 0 10 4.477 10 10v100c0 5.523-4.477 10-10 10H190c-5.523 0-10-4.477-10-10V190c0-5.523 4.477-10 10-10Z"/>
</g>

<g id="pacman-dots" fill-rule="evenodd" transform="translate(45 45)">
<circle cx="1695" cy="1095" r="15" fill="#bfc6cc"/>
<circle cx="1575" cy="1095" r="15" fill="#bfc6cc"/>
<circle cx="1455" cy="1095" r="15" fill="#bfc6cc"/>
<circle cx="1335" cy="1095" r="15" fill="#bfc6cc"/>
<circle cx="1215" cy="1095" r="15" fill="#bfc6cc"/>
<circle cx="1095" cy="1095" r="15" fill="#bfc6cc"/>
<circle cx="975" cy="1095" r="15" fill="#bfc6cc"/>
<circle cx="855" cy="1095" r="15" fill="#bfc6cc"/>
<circle cx="735" cy="1095" r="15" fill="#bfc6cc"/>
<circle cx="615" cy="1095" r="15" fill="#bfc6cc"/>
<circle cx="495" cy="1095" r="15" fill="#bfc6cc"/>
<circle cx="375" cy="1095" r="15" fill="#bfc6cc"/>
<circle cx="255" cy="1095" r="15" fill="#bfc6cc"/>
<circle cx="135" cy="1095" r="15" fill="#bfc6cc"/>
<circle cx="15" cy="1095" r="15" fill="#bfc6cc"/>
<circle cx="1695" cy="975" r="15" fill="#bfc6cc"/>
<circle cx="1215" cy="975" r="15" fill="#bfc6cc"/>
<circle cx="495" cy="975" r="15" fill="#bfc6cc"/>
<circle cx="15" cy="975" r="15" fill="#bfc6cc"/>
<circle cx="1695" cy="855" r="15" fill="#bfc6cc"/>
<circle cx="1215" cy="855" r="15" fill="#bfc6cc"/>
<circle cx="495" cy="855" r="15" fill="#bfc6cc"/>
<circle cx="15" cy="855" r="15" fill="#bfc6cc"/>
<circle cx="1695" cy="735" r="15" fill="#bfc6cc"/>
<circle cx="1575" cy="735" r="15" fill="#bfc6cc"/>
<circle cx="1455" cy="735" r="15" fill="#bfc6cc"/>
<circle cx="1335" cy="735" r="15" fill="#bfc6cc"/>
<circle cx="1215" cy="735" r="15" fill="#bfc6cc"/>
<circle cx="1095" cy="735" r="15" fill="#bfc6cc"/>
<circle cx="975" cy="735" r="15" fill="#bfc6cc"/>
<circle cx="735" cy="735" r="15" fill="#bfc6cc"/>
<circle cx="615" cy="735" r="15" fill="#bfc6cc"/>
<circle cx="495" cy="735" r="15" fill="#bfc6cc"/>
<circle cx="375" cy="735" r="15" fill="#bfc6cc"/>
<circle cx="255" cy="735" r="15" fill="#bfc6cc"/>
<circle cx="135" cy="735" r="15" fill="#bfc6cc"/>
<circle cx="15" cy="735" r="15" fill="#bfc6cc"/>
<circle cx="1215" cy="615" r="15" fill="#bfc6cc"/>
<circle cx="495" cy="615" r="15" fill="#bfc6cc"/>
<circle cx="1215" cy="495" r="15" fill="#bfc6cc"/>
<circle cx="495" cy="495" r="15" fill="#bfc6cc"/>
<circle cx="1695" cy="375" r="15" fill="#bfc6cc"/>
<circle cx="1575" cy="375" r="15" fill="#bfc6cc"/>
<circle cx="1455" cy="375" r="15" fill="#bfc6cc"/>
<circle cx="1335" cy="375" r="15" fill="#bfc6cc"/>
<circle cx="1215" cy="375" r="15" fill="#bfc6cc"/>
<circle cx="1095" cy="375" r="15" fill="#bfc6cc"/>
<circle cx="975" cy="375" r="15" fill="#bfc6cc"/>
<circle cx="735" cy="375" r="15" fill="#bfc6cc"/>
<circle cx="615" cy="375" r="15" fill="#bfc6cc"/>
<circle cx="495" cy="375" r="15" fill="#bfc6cc"/>
<circle cx="375" cy="375" r="15" fill="#bfc6cc"/>
<circle cx="255" cy="375" r="15" fill="#bfc6cc"/>
<circle cx="135" cy="375" r="15" fill="#bfc6cc"/>
<circle cx="15" cy="375" r="15" fill="#bfc6cc"/>
<circle cx="1695" cy="255" r="15" fill="#bfc6cc"/>
<circle cx="1215" cy="255" r="15" fill="#bfc6cc"/>
<circle cx="495" cy="255" r="15" fill="#bfc6cc"/>
<circle cx="15" cy="255" r="15" fill="#bfc6cc"/>
<circle cx="1695" cy="135" r="15" fill="#bfc6cc"/>
<circle cx="1215" cy="135" r="15" fill="#bfc6cc"/>
<circle cx="495" cy="135" r="15" fill="#bfc6cc"/>
<circle cx="15" cy="135" r="15" fill="#bfc6cc"/>
<circle cx="1695" cy="15" r="15" fill="#bfc6cc"/>
<circle cx="1575" cy="15" r="15" fill="#bfc6cc"/>
<circle cx="1455" cy="15" r="15" fill="#bfc6cc"/>
<circle cx="1335" cy="15" r="15" fill="#bfc6cc"/>
<circle cx="1215" cy="15" r="15" fill="#bfc6cc"/>
<circle cx="1095" cy="15" r="15" fill="#bfc6cc"/>
<circle cx="975" cy="15" r="15" fill="#bfc6cc"/>
<circle cx="855" cy="15" r="15" fill="#bfc6cc"/>
<circle cx="735" cy="15" r="15" fill="#bfc6cc"/>
<circle cx="615" cy="15" r="15" fill="#bfc6cc"/>
<circle cx="495" cy="15" r="15" fill="#bfc6cc"/>
<circle cx="375" cy="15" r="15" fill="#bfc6cc"/>
<circle cx="255" cy="15" r="15" fill="#bfc6cc"/>
<circle cx="135" cy="15" r="15" fill="#bfc6cc"/>
<circle cx="15" cy="15" r="15" fill="#16599c"/></g>

<g id="pacman-ghost-blinky" fill-rule="evenodd">
<path class="pacman-ghost-base" fill="#f00" d="M.49 480Q-5.33 360 58 360t57.51 120q-12.62-17.298-19.024-17.299c-6.405 0-9.13 17.299-18.86 17.299S64.5 462.701 58 462.701 48.834 480 39.305 480s-12.656-17.299-19.16-17.299Q13.645 462.701.49 480"/>
<path fill="#fff" d="M38.416 427.364c7.961 0 14.415-9.036 14.415-20.182S46.377 387 38.416 387C30.454 387 24 396.036 24 407.182s6.454 20.182 14.416 20.182m39.99 0c7.962 0 14.416-9.036 14.416-20.182S86.368 387 78.407 387c-7.962 0-14.416 9.036-14.416 20.182s6.454 20.182 14.416 20.182"/>
<path fill="#122739" d="M69.757 415.254c3.185 0 5.767-3.614 5.767-8.072 0-4.459-2.582-8.073-5.767-8.073-3.184 0-5.766 3.614-5.766 8.073 0 4.458 2.582 8.072 5.766 8.072m-39.99 0c3.184 0 5.765-3.614 5.765-8.072 0-4.459-2.581-8.073-5.766-8.073S24 402.723 24 407.182c0 4.458 2.582 8.072 5.766 8.072"/>
</g>

<g id="pacman-ghost-clyde" fill-rule="evenodd">
<path class="pacman-ghost-base" fill="#ffc14a" d="M1682.49 840q-5.82-120 57.51-120t57.51 120q-12.62-17.298-19.024-17.299c-6.405 0-9.13 17.299-18.86 17.299S1746.5 822.701 1740 822.701 1730.834 840 1721.305 840s-12.656-17.299-19.16-17.299q-6.501 0-19.655 17.299"/>
<path fill="#fff" d="M1720.416 787.364c7.961 0 14.415-9.036 14.415-20.182S1728.377 747 1720.416 747c-7.962 0-14.416 9.036-14.416 20.182s6.454 20.182 14.416 20.182m39.99 0c7.962 0 14.416-9.036 14.416-20.182S1768.368 747 1760.407 747c-7.962 0-14.416 9.036-14.416 20.182s6.454 20.182 14.416 20.182"/>
<path fill="#122739" d="M1751.757 775.254c3.185 0 5.767-3.614 5.767-8.072 0-4.459-2.582-8.073-5.767-8.073-3.184 0-5.766 3.614-5.766 8.073 0 4.458 2.582 8.072 5.766 8.072m-39.99 0c3.184 0 5.765-3.614 5.765-8.072 0-4.459-2.581-8.073-5.766-8.073s-5.766 3.614-5.766 8.073c0 4.458 2.582 8.072 5.766 8.072"/></g>

<g id="pacman-ghost-inky" fill-rule="evenodd">
<path class="pacman-ghost-base" fill="#00c9a9" d="M1201.49 120Q1195.67 0 1259 0t57.51 120q-12.62-17.299-19.024-17.299c-6.405 0-9.13 17.299-18.86 17.299S1265.5 102.701 1259 102.701 1249.834 120 1240.305 120s-12.656-17.299-19.16-17.299q-6.501 0-19.655 17.299"/>
<path fill="#fff" d="M1239.416 67.364c7.961 0 14.415-9.036 14.415-20.182S1247.377 27 1239.416 27c-7.962 0-14.416 9.036-14.416 20.182s6.454 20.182 14.416 20.182m39.99 0c7.962 0 14.416-9.036 14.416-20.182S1287.368 27 1279.407 27c-7.962 0-14.416 9.036-14.416 20.182s6.454 20.182 14.416 20.182"/>
<path fill="#122739" d="M1270.757 55.254c3.185 0 5.767-3.614 5.767-8.072 0-4.459-2.582-8.073-5.767-8.073-3.184 0-5.766 3.614-5.766 8.073 0 4.458 2.582 8.072 5.766 8.072m-39.99 0c3.184 0 5.765-3.614 5.765-8.072 0-4.459-2.581-8.073-5.766-8.073S1225 42.723 1225 47.182c0 4.458 2.582 8.072 5.766 8.072"/></g>

<g id="pacman-ghost-pinky" fill-rule="evenodd">
<path class="pacman-ghost-base" fill="#ff9ad4" d="M482.49 1080Q476.67 960 540 960t57.51 120q-12.62-17.298-19.024-17.299c-6.405 0-9.13 17.299-18.86 17.299S546.5 1062.701 540 1062.701 530.834 1080 521.305 1080s-12.656-17.299-19.16-17.299q-6.501 0-19.655 17.299"/>
<path fill="#fff" d="M520.416 1027.364c7.961 0 14.415-9.036 14.415-20.182S528.377 987 520.416 987c-7.962 0-14.416 9.036-14.416 20.182s6.454 20.182 14.416 20.182m39.99 0c7.962 0 14.416-9.036 14.416-20.182S568.368 987 560.407 987c-7.962 0-14.416 9.036-14.416 20.182s6.454 20.182 14.416 20.182"/>
<path fill="#122739" d="M551.757 1015.254c3.185 0 5.767-3.614 5.767-8.072 0-4.459-2.582-8.073-5.767-8.073-3.184 0-5.766 3.614-5.766 8.073 0 4.458 2.582 8.072 5.766 8.072m-39.99 0c3.184 0 5.765-3.614 5.765-8.072 0-4.459-2.581-8.073-5.766-8.073s-5.766 3.614-5.766 8.073c0 4.458 2.582 8.072 5.766 8.072"/></g>

<g id="pacman" fill-rule="evenodd">
<path fill="#fed500" d="M60 0c26.504 0 48.995 17.186 56.936 41.021L60 60l56.936 18.98C108.994 102.815 86.504 120 60 120 26.863 120 0 93.137 0 60S26.863 0 60 0"/>
<circle cx="60" cy="30" r="12" fill="#120805"/>
</g>

</g>
</svg>