<svg xmlns="http://www.w3.org/2000/svg" viewBox="0 0 1024 1024">
<g id="banner-heat">
<path fill="#fd9300" d="M480 528h16v16h-16z"/>
<path fill="#fd9300" d="M496 528h16v16h-16z"/>
<path fill="#fd9300" d="M464 528h16v16h-16z"/>
<path fill="#fd9300" d="M448 544h16v16h-16z"/>
<path fill="#c3760c" d="M416 560h16v16h-16z"/>
<path fill="#c3760c" d="M688 384h16v16h-16z"/>
<path fill="#fd9300" d="M432 528h16v16h-16z"/>
<path fill="#fd9300" d="M464 512h16v16h-16z"/>
<path fill="#fd9300" d="M480 496h16v16h-16z"/>
<path fill="#fd9300" d="M496 512h16v16h-16z"/>
<path fill="#fd9300" d="M512 512h16v16h-16z"/>
<path fill="#fd9300" d="M448 512h16v16h-16z"/>
<path fill="#fd9300" d="M496 480h16v16h-16z"/>
<path fill="#fd9300" d="M512 496h16v16h-16z"/>
<path fill="#fd9300" d="M528 480h16v16h-16z"/>
<path fill="#fd9300" d="M544 512h16v16h-16z"/>
<path fill="#fd9300" d="M528 512h16v16h-16z"/>
<path fill="#fd9300" d="M512 528h16v16h-16z"/>
<path fill="#fd9300" d="M512 544h16v16h-16z"/>
<path fill="#fd9300" d="M448 496h16v16h-16z"/>
<path fill="#fd9300" d="M448 480h16v16h-16z"/>
<path fill="#fd9300" d="M464 480h16v16h-16z"/>
<path fill="#fd9300" d="M480 464h16v16h-16z"/>
<path fill="#fd9300" d="M496 448h16v16h-16z"/>
<path fill="#fd9300" d="M512 432h16v16h-16z"/>
<path fill="#fd9300" d="M432 432h16v16h-16z"/>
<path fill="#fd9300" d="M416 480h16v16h-16z"/>
<path fill="#fd9300" d="M560 448h16v16h-16z"/>
<path fill="#fd9300" d="M400 464h16v16h-16z"/>
<path fill="#fd9300" d="M416 416h16v16h-16z"/>
<path fill="#fd9300" d="M416 368h16v16h-16z"/>
<path fill="#fd9300" d="M432 496h16v16h-16z"/>
<path fill="#f8f8f8" d="M480 576h16v16h-16z"/>
<path fill="#fd9300" d="M480 544h16v16h-16z"/>
<path fill="#fd9300" d="M480 560h16v16h-16z"/>
<path fill="#c3760c" d="M560 528h16v16h-16z"/>
<path fill="#c3760c" d="M576 480h16v16h-16z"/>
<path fill="#c3760c" d="M576 448h16v16h-16z"/>
<path fill="#c3760c" d="M608 432h16v16h-16z"/>
<path fill="#c3760c" d="M592 448h16v16h-16z"/>
<path fill="#c3760c" d="M624 416h16v16h-16z"/>
<path fill="#c3760c" d="M528 352h16v16h-16z"/>
<path fill="#c3760c" d="M512 384h16v16h-16z"/>
<path fill="#c3760c" d="M480 352h16v16h-16z"/>
<path fill="#c3760c" d="M464 304h16v16h-16z"/>
<path fill="#c3760c" d="M592 464h16v16h-16z"/>
<path fill="#c3760c" d="M576 496h16v16h-16z"/>
<path fill="#c3760c" d="M592 416h16v16h-16z"/>
<path fill="#c3760c" d="M400 480h16v16h-16z"/>
<path fill="#c3760c" d="M384 480h16v16h-16z"/>
<path fill="#c3760c" d="M400 432h16v16h-16z"/>
<path fill="#c3760c" d="M416 496h16v16h-16z"/>
<path fill="#c3760c" d="M384 448h16v16h-16z"/>
<path fill="#c3760c" d="M400 496h16v16h-16z"/>
<path fill="#c3760c" d="M400 512h16v16h-16z"/>
<path fill="#c3760c" d="M400 448h16v16h-16z"/>
<path fill="#c3760c" d="M384 416h16v16h-16z"/>
<path fill="#c3760c" d="M480 384h16v16h-16z"/>
<path fill="#c3760c" d="M480 400h16v16h-16z"/>
<path fill="#c3760c" d="M480 448h16v16h-16z"/>
<path fill="#c3760c" d="M464 464h16v16h-16z"/>
<path fill="#c3760c" d="M464 448h16v16h-16z"/>
<path fill="#c3760c" d="M400 416h16v16h-16z"/>
<path fill="#c3760c" d="M432 448h16v16h-16z"/>
<path fill="#c3760c" d="M416 464h16v16h-16z"/>
<path fill="#c3760c" d="M432 464h16v16h-16z"/>
<path fill="#c3760c" d="M432 480h16v16h-16z"/>
<path fill="#c3760c" d="M448 432h16v16h-16z"/>
<path fill="#c3760c" d="M464 416h16v16h-16z"/>
<path fill="#c3760c" d="M464 432h16v16h-16z"/>
<path fill="#c3760c" d="M496 432h16v16h-16z"/>
<path fill="#c3760c" d="M448 400h16v16h-16z"/>
<path fill="#c3760c" d="M432 416h16v16h-16z"/>
<path fill="#c3760c" d="M416 400h16v16h-16z"/>
<path fill="#c3760c" d="M416 432h16v16h-16z"/>
<path fill="#c3760c" d="M576 416h16v16h-16z"/>
<path fill="#c3760c" d="M560 400h16v16h-16z"/>
<path fill="#c3760c" d="M576 400h16v16h-16z"/>
<path fill="#c3760c" d="M512 416h16v16h-16z"/>
<path fill="#c3760c" d="M528 432h16v16h-16z"/>
<path fill="#c3760c" d="M512 448h16v16h-16z"/>
<path fill="#c3760c" d="M528 464h16v16h-16z"/>
<path fill="#c3760c" d="M448 528h16v16h-16z"/>
<path fill="#c3760c" d="M416 528h16v16h-16z"/>
<path fill="#c3760c" d="M512 464h16v16h-16z"/>
<path fill="#c3760c" d="M512 480h16v16h-16z"/>
<path fill="#c3760c" d="M480 480h16v16h-16z"/>
<path fill="#c3760c" d="M480 512h16v16h-16z"/>
<path fill="#c3760c" d="M544 416h16v16h-16z"/>
<path fill="#c3760c" d="M576 384h16v16h-16z"/>
<path fill="#c3760c" d="M592 368h16v16h-16z"/>
<path fill="#c3760c" d="M576 320h16v16h-16z"/>
<path fill="#c3760c" d="M432 384h16v16h-16z"/>
<path fill="#c3760c" d="M400 384h16v16h-16z"/>
<path fill="#c3760c" d="M320 400h16v16h-16z"/>
<path fill="#c3760c" d="M304 336h16v16h-16z"/>
<path fill="#c3760c" d="M384 368h16v16h-16z"/>
<path fill="#c3760c" d="M384 336h16v16h-16z"/>
<path fill="#c3760c" d="M320 304h16v16h-16z"/>
<path fill="#c3760c" d="M640 368h16v16h-16z"/>
<path fill="#c3760c" d="M640 336h16v16h-16z"/>
<path fill="#c3760c" d="M448 368h16v16h-16z"/>
<path fill="#c3760c" d="M560 432h16v16h-16z"/>
<path fill="#c3760c" d="M496 496h16v16h-16z"/>
<path fill="#c3760c" d="M560 464h16v16h-16z"/>
<path fill="#c3760c" d="M544 480h16v16h-16z"/>
<path fill="#c3760c" d="M544 496h16v16h-16z"/>
<path fill="#c3760c" d="M528 528h16v16h-16z"/>
<path fill="#c3760c" d="M560 496h16v16h-16z"/>
<path fill="#885a17" d="M384 432h16v16h-16z"/>
<path fill="#885a17" d="M368 416h16v16h-16z"/>
<path fill="#885a17" d="M352 400h16v16h-16z"/>
<path fill="#885a17" d="M336 400h16v16h-16z"/>
<path fill="#885a17" d="M336 416h16v16h-16z"/>
<path fill="#885a17" d="M352 384h16v16h-16z"/>
<path fill="#885a17" d="M368 368h16v16h-16z"/>
<path fill="#885a17" d="M336 368h16v16h-16z"/>
<path fill="#885a17" d="M384 352h16v16h-16z"/>
<path fill="#885a17" d="M320 352h16v16h-16z"/>
<path fill="#885a17" d="M336 336h16v16h-16z"/>
<path fill="#885a17" d="M352 336h16v16h-16z"/>
<path fill="#885a17" d="M336 304h16v16h-16z"/>
<path fill="#885a17" d="M384 304h16v16h-16z"/>
<path fill="#885a17" d="M352 352h16v16h-16z"/>
<path fill="#885a17" d="M304 352h16v16h-16z"/>
<path fill="#885a17" d="M320 416h16v16h-16z"/>
<path fill="#885a17" d="M368 320h16v16h-16z"/>
<path fill="#885a17" d="M304 320h16v16h-16z"/>
<path fill="#885a17" d="M416 320h16v16h-16z"/>
<path fill="#885a17" d="M400 304h16v16h-16z"/>
<path fill="#885a17" d="M352 288h16v16h-16z"/>
<path fill="#885a17" d="M384 288h16v16h-16z"/>
<path fill="#885a17" d="M256 304h16v16h-16z"/>
<path fill="#885a17" d="M304 288h16v16h-16z"/>
<path fill="#885a17" d="M400 368h16v16h-16z"/>
<path fill="#885a17" d="M400 352h16v16h-16z"/>
<path fill="#885a17" d="M416 336h16v16h-16z"/>
<path fill="#885a17" d="M416 352h16v16h-16z"/>
<path fill="#885a17" d="M432 368h16v16h-16z"/>
<path fill="#885a17" d="M416 384h16v16h-16z"/>
<path fill="#885a17" d="M432 400h16v16h-16z"/>
<path fill="#885a17" d="M448 416h16v16h-16z"/>
<path fill="#885a17" d="M496 416h16v16h-16z"/>
<path fill="#885a17" d="M400 400h16v16h-16z"/>
<path fill="#885a17" d="M448 384h16v16h-16z"/>
<path fill="#885a17" d="M480 368h16v16h-16z"/>
<path fill="#885a17" d="M464 384h16v16h-16z"/>
<path fill="#885a17" d="M512 336h16v16h-16z"/>
<path fill="#885a17" d="M496 384h16v16h-16z"/>
<path fill="#885a17" d="M416 512h16v16h-16z"/>
<path fill="#885a17" d="M384 384h16v16h-16z"/>
<path fill="#885a17" d="M368 400h16v16h-16z"/>
<path fill="#885a17" d="M368 432h16v16h-16z"/>
<path fill="#885a17" d="M496 352h16v16h-16z"/>
<path fill="#885a17" d="M464 336h16v16h-16z"/>
<path fill="#885a17" d="M448 320h16v16h-16z"/>
<path fill="#885a17" d="M432 304h16v16h-16z"/>
<path fill="#885a17" d="M512 352h16v16h-16z"/>
<path fill="#885a17" d="M512 368h16v16h-16z"/>
<path fill="#885a17" d="M464 400h16v16h-16z"/>
<path fill="#885a17" d="M528 368h16v16h-16z"/>
<path fill="#885a17" d="M560 336h16v16h-16z"/>
<path fill="#885a17" d="M576 352h16v16h-16z"/>
<path fill="#885a17" d="M592 352h16v16h-16z"/>
<path fill="#885a17" d="M592 336h16v16h-16z"/>
<path fill="#885a17" d="M544 320h16v16h-16z"/>
<path fill="#885a17" d="M528 304h16v16h-16z"/>
<path fill="#885a17" d="M560 304h16v16h-16z"/>
<path fill="#885a17" d="M608 320h16v16h-16z"/>
<path fill="#885a17" d="M592 304h16v16h-16z"/>
<path fill="#885a17" d="M512 304h16v16h-16z"/>
<path fill="#885a17" d="M480 304h16v16h-16z"/>
<path fill="#885a17" d="M624 352h16v16h-16z"/>
<path fill="#885a17" d="M576 368h16v16h-16z"/>
<path fill="#885a17" d="M576 464h16v16h-16z"/>
<path fill="#885a17" d="M608 336h16v16h-16z"/>
<path fill="#885a17" d="M640 320h16v16h-16z"/>
<path fill="#885a17" d="M656 320h16v16h-16z"/>
<path fill="#885a17" d="M672 304h16v16h-16z"/>
<path fill="#885a17" d="M624 304h16v16h-16z"/>
<path fill="#885a17" d="M640 288h16v16h-16z"/>
<path fill="#885a17" d="M608 368h16v16h-16z"/>
<path fill="#885a17" d="M624 336h16v16h-16z"/>
<path fill="#885a17" d="M544 400h16v16h-16z"/>
<path fill="#885a17" d="M608 384h16v16h-16z"/>
<path fill="#885a17" d="M624 384h16v16h-16z"/>
<path fill="#885a17" d="M592 384h16v16h-16z"/>
<path fill="#885a17" d="M560 384h16v16h-16z"/>
<path fill="#885a17" d="M528 448h16v16h-16z"/>
<path fill="#885a17" d="M496 464h16v16h-16z"/>
<path fill="#885a17" d="M448 464h16v16h-16z"/>
<path fill="#885a17" d="M560 368h16v16h-16z"/>
<path fill="#885a17" d="M544 384h16v16h-16z"/>
<path fill="#885a17" d="M480 416h16v16h-16z"/>
<path fill="#885a17" d="M496 400h16v16h-16z"/>
<path fill="#885a17" d="M544 432h16v16h-16z"/>
<path fill="#885a17" d="M464 496h16v16h-16z"/>
<path fill="#885a17" d="M528 496h16v16h-16z"/>
<path fill="#885a17" d="M544 464h16v16h-16z"/>
<path fill="#885a17" d="M528 400h16v16h-16z"/>
<path fill="#885a17" d="M560 416h16v16h-16z"/>
<path fill="#885a17" d="M544 336h16v16h-16z"/>
<path fill="#885a17" d="M448 352h16v16h-16z"/>
<path fill="#885a17" d="M464 368h16v16h-16z"/>
<path fill="#885a17" d="M592 480h16v16h-16z"/>
<path fill="#885a17" d="M560 512h16v16h-16z"/>
<path fill="#885a17" d="M576 512h16v16h-16z"/>
<path fill="#885a17" d="M608 464h16v16h-16z"/>
<path fill="#885a17" d="M624 448h16v16h-16z"/>
<path fill="#885a17" d="M624 432h16v16h-16z"/>
<path fill="#885a17" d="M640 416h16v16h-16z"/>
<path fill="#885a17" d="M624 400h16v16h-16z"/>
<path fill="#885a17" d="M640 384h16v16h-16z"/>
<path fill="#885a17" d="M656 384h16v16h-16z"/>
<path fill="#885a17" d="M656 400h16v16h-16z"/>
<path fill="#4d3d23" d="M384 464h16v16h-16z"/>
<path fill="#4d3d23" d="M416 448h16v16h-16z"/>
<path fill="#4d3d23" d="M448 448h16v16h-16z"/>
<path fill="#4d3d23" d="M480 432h16v16h-16z"/>
<path fill="#4d3d23" d="M512 400h16v16h-16z"/>
<path fill="#4d3d23" d="M528 416h16v16h-16z"/>
<path fill="#4d3d23" d="M560 480h16v16h-16z"/>
<path fill="#4d3d23" d="M576 432h16v16h-16z"/>
<path fill="#4d3d23" d="M592 400h16v16h-16z"/>
<path fill="#4d3d23" d="M352 416h16v16h-16z"/>
<path fill="#4d3d23" d="M368 384h16v16h-16z"/>
<path fill="#4d3d23" d="M384 400h16v16h-16z"/>
<path fill="#4d3d23" d="M336 384h16v16h-16z"/>
<path fill="#4d3d23" d="M336 352h16v16h-16z"/>
<path fill="#4d3d23" d="M352 368h16v16h-16z"/>
<path fill="#4d3d23" d="M320 368h16v16h-16z"/>
<path fill="#4d3d23" d="M304 368h16v16h-16z"/>
<path fill="#4d3d23" d="M320 384h16v16h-16z"/>
<path fill="#4d3d23" d="M336 320h16v16h-16z"/>
<path fill="#4d3d23" d="M320 320h16v16h-16z"/>
<path fill="#4d3d23" d="M320 336h16v16h-16z"/>
<path fill="#4d3d23" d="M288 304h16v16h-16z"/>
<path fill="#4d3d23" d="M352 304h16v16h-16z"/>
<path fill="#4d3d23" d="M336 288h16v16h-16z"/>
<path fill="#4d3d23" d="M320 288h16v16h-16z"/>
<path fill="#4d3d23" d="M304 304h16v16h-16z"/>
<path fill="#4d3d23" d="M368 304h16v16h-16z"/>
<path fill="#4d3d23" d="M368 288h16v16h-16z"/>
<path fill="#4d3d23" d="M288 320h16v16h-16z"/>
<path fill="#4d3d23" d="M352 320h16v16h-16z"/>
<path fill="#4d3d23" d="M368 336h16v16h-16z"/>
<path fill="#4d3d23" d="M400 336h16v16h-16z"/>
<path fill="#4d3d23" d="M400 320h16v16h-16z"/>
<path fill="#4d3d23" d="M464 320h16v16h-16z"/>
<path fill="#4d3d23" d="M464 288h16v16h-16z"/>
<path fill="#4d3d23" d="M448 304h16v16h-16z"/>
<path fill="#4d3d23" d="M416 304h16v16h-16z"/>
<path fill="#4d3d23" d="M496 272h16v16h-16z"/>
<path fill="#4d3d23" d="M512 288h16v16h-16z"/>
<path fill="#4d3d23" d="M544 304h16v16h-16z"/>
<path fill="#4d3d23" d="M576 288h16v16h-16z"/>
<path fill="#4d3d23" d="M480 320h16v16h-16z"/>
<path fill="#4d3d23" d="M496 320h16v16h-16z"/>
<path fill="#4d3d23" d="M480 336h16v16h-16z"/>
<path fill="#4d3d23" d="M384 320h16v16h-16z"/>
<path fill="#4d3d23" d="M432 336h16v16h-16z"/>
<path fill="#4d3d23" d="M448 336h16v16h-16z"/>
<path fill="#4d3d23" d="M432 320h16v16h-16z"/>
<path fill="#4d3d23" d="M432 352h16v16h-16z"/>
<path fill="#4d3d23" d="M464 352h16v16h-16z"/>
<path fill="#4d3d23" d="M496 336h16v16h-16z"/>
<path fill="#4d3d23" d="M528 320h16v16h-16z"/>
<path fill="#4d3d23" d="M560 320h16v16h-16z"/>
<path fill="#4d3d23" d="M432 512h16v16h-16z"/>
<path fill="#4d3d23" d="M528 336h16v16h-16z"/>
<path fill="#4d3d23" d="M496 368h16v16h-16z"/>
<path fill="#4d3d23" d="M544 352h16v16h-16z"/>
<path fill="#4d3d23" d="M560 352h16v16h-16z"/>
<path fill="#4d3d23" d="M544 368h16v16h-16z"/>
<path fill="#4d3d23" d="M528 384h16v16h-16z"/>
<path fill="#4d3d23" d="M512 320h16v16h-16z"/>
<path fill="#4d3d23" d="M496 304h16v16h-16z"/>
<path fill="#4d3d23" d="M592 432h16v16h-16z"/>
<path fill="#4d3d23" d="M576 336h16v16h-16z"/>
<path fill="#4d3d23" d="M368 352h16v16h-16z"/>
<path fill="#4d3d23" d="M640 304h16v16h-16z"/>
<path fill="#4d3d23" d="M656 304h16v16h-16z"/>
<path fill="#4d3d23" d="M656 288h16v16h-16z"/>
<path fill="#4d3d23" d="M624 320h16v16h-16z"/>
<path fill="#4d3d23" d="M608 352h16v16h-16z"/>
<path fill="#4d3d23" d="M624 368h16v16h-16z"/>
<path fill="#4d3d23" d="M640 352h16v16h-16z"/>
<path fill="#4d3d23" d="M656 368h16v16h-16z"/>
<path fill="#4d3d23" d="M640 400h16v16h-16z"/>
<path fill="#4d3d23" d="M608 400h16v16h-16z"/>
<path fill="#4d3d23" d="M544 448h16v16h-16z"/>
<path fill="#4d3d23" d="M608 416h16v16h-16z"/>
<path fill="#4d3d23" d="M608 448h16v16h-16z"/>
<path fill="#4d3d23" d="M640 432h16v16h-16z"/>
<path fill="#4d3d23" d="M656 416h16v16h-16z"/>
<path fill="#4d3d23" d="M656 352h16v16h-16z"/>
<path fill="#4d3d23" d="M672 352h16v16h-16z"/>
<path fill="#4d3d23" d="M592 320h16v16h-16z"/>
<path fill="#4d3d23" d="M576 304h16v16h-16z"/>
<path fill="#4d3d23" d="M608 304h16v16h-16z"/>
<path fill="#4d3d23" d="M656 336h16v16h-16z"/>
<path fill="#4d3d23" d="M672 320h16v16h-16z"/>
<path fill="#4d3d23" d="M704 304h16v16h-16z"/>
</g>
</svg>