<svg xmlns="http://www.w3.org/2000/svg" viewBox="0 0 65 64">
<g fill="none" fill-rule="evenodd">
<path fill="#16599c" d="M57.85 12.72A32 32 0 0 0 36.63.31a32 32 0 0 0-23.84 6.16 32 32 0 0 0-8.47 9.51 32 32 0 0 0-4 11.6q-.88 6.2.66 12.24Q2.56 46.1 6.5 51.28a32 32 0 0 0 21.23 12.4 32 32 0 0 0 23.83-6.15 31.7 31.7 0 0 0 12.48-21.11q.87-6.2-.66-12.24a32 32 0 0 0-5.53-11.46"/>
<path fill="#fbf8f2" fill-rule="nonzero" d="M14 25.84 30.65 11v13.45L15 37.47V26.45l15.64 13.01V53L14 38.07zm19.35 0L50 11v13.45L34.37 37.47V26.45L50 39.46V53L33.35 38.07z"/>
</g>
</svg>