<svg xmlns="http://www.w3.org/2000/svg" width="24" viewBox="0 0 32 32" aria-hidden="true"><g fill="none"><path fill="#16599c" d="M16 0a16 16 0 1 0 0 32 16 16 0 0 0 0-32"/><path fill="#f8f8f8" fill-rule="evenodd" d="M6.4 21H8q.2 0 .2.2l.4 4.4q0 .3.4.4h3.4q.3 0 .4-.4l.3-4.4.2-.2h1.6q.3 0 .4-.4v-3a4.6 4.6 0 0 0-9.2 0v3q0 .3.4.4M7.7 9a3 3 0 1 0 5.8 0 3 3 0 0 0-5.8 0M26 17.6a4.6 4.6 0 0 0-9.2 0v2.9q0 .3.4.4h1.6q.1 0 .2.2l.3 4.4q0 .3.4.4h3.4q.4 0 .4-.4l.4-4.4q0-.2.2-.2h1.5q.4 0 .4-.4zm-7.5-8.8a3 3 0 1 0 5.8 0 3 3 0 0 0-5.8 0"/></g></svg>