<svg xmlns="http://www.w3.org/2000/svg" viewBox="0 0 1598 1598">
<g fill="#16599c" fill-rule="evenodd" transform="translate(0 -1.5)">
<rect width="133.13" height="133.13" x="133.13" y="1465.38" opacity=".7" rx="66.56" transform="rotate(90 -1332.25 0)scale(1 -1)"/>
<rect width="133.13" height="133.13" x="133.13" y="1332.25" opacity=".2" rx="66.56" transform="rotate(90 -1199.13 0)scale(1 -1)"/>
<rect width="133.13" height="133.13" x="932.5" y="1199.13" opacity=".5" rx="66.56" transform="rotate(90 999.06 1265.69)"/>
<rect width="133.13" height="133.13" x="932.13" y="1066" opacity=".6" rx="66.56" transform="matrix(0 1 1 0 -133.88 133.88)"/>
<rect width="133.13" height="133.13" x="932.13" y="932.88" opacity=".7" rx="66.56" transform="matrix(0 1 1 0 -.75 .75)"/>
<rect width="133.13" height="133.13" x="932.13" y="799.75" opacity=".8" rx="66.56" transform="rotate(90 132.37 0)scale(1 -1)"/>
<rect width="133.13" height="133.13" x="932.13" y="666.63" opacity=".9" rx="66.56" transform="matrix(0 1 1 0 265.5 -265.5)"/>
<rect width="133.13" height="133.13" x="1065.25" y="1066" opacity=".7" rx="66.56" transform="matrix(0 1 1 0 -.75 .75)"/>
<rect width="133.13" height="133.13" x="1065.25" y="932.88" opacity=".8" rx="66.56" transform="rotate(90 132.37 0)scale(1 -1)"/>
<rect width="133.13" height="133.13" x="1065.25" y="799.75" opacity=".9" rx="66.56" transform="matrix(0 1 1 0 265.5 -265.5)"/>
<rect width="133.13" height="133.13" x="1065.25" y="666.63" rx="66.56" transform="rotate(90 398.63 0)scale(1 -1)"/>
<rect width="133.13" height="133.13" x="1198.38" y="1066" opacity=".4" rx="66.56" transform="rotate(90 132.38 0)scale(1 -1)"/>
<rect width="133.13" height="133.13" x="1198.38" y="932.88" opacity=".5" rx="66.56" transform="matrix(0 1 1 0 265.5 -265.5)"/>
<rect width="133.13" height="133.13" x="1198.38" y="799.75" opacity=".6" rx="66.56" transform="rotate(90 398.63 0)scale(1 -1)"/>
<rect width="133.13" height="133.13" x="1198.38" y="666.63" opacity=".7" rx="66.56" transform="rotate(90 531.75 0)scale(1 -1)"/>
<rect width="133.13" height="133.13" x="1464.63" y="1066" opacity=".8" rx="66.56" transform="rotate(90 398.63 0)scale(1 -1)"/>
<rect width="133.13" height="133.13" x="1464.63" y="932.88" opacity=".9" rx="66.56" transform="rotate(90 531.75 0)scale(1 -1)"/>
<rect width="133.13" height="133.13" x="1464.63" y="799.75" opacity=".4" rx="66.56" transform="rotate(90 664.88 0)scale(1 -1)"/>
<rect width="133.13" height="133.13" x="1464.63" y="666.63" opacity=".9" rx="66.56" transform="matrix(0 1 1 0 798 -798)"/>
<rect width="133.13" height="133.13" x="1331.5" y="1066" opacity=".1" rx="66.56" transform="matrix(0 1 1 0 265.5 -265.5)"/>
<rect width="133.13" height="133.13" x="1331.5" y="932.88" opacity=".2" rx="66.56" transform="rotate(90 398.63 0)scale(1 -1)"/>
<rect width="133.13" height="133.13" x="1331.5" y="799.75" opacity=".3" rx="66.56" transform="rotate(90 531.75 0)scale(1 -1)"/>
<rect width="133.13" height="133.13" x="1331.5" y="666.63" opacity=".8" rx="66.56" transform="rotate(90 664.88 0)scale(1 -1)"/>
<rect width="133.13" height="133.13" x="932.13" y="533.5" opacity=".4" rx="66.56" transform="rotate(90 398.63 0)scale(1 -1)"/>
<rect width="133.13" height="133.13" x="932.13" y="400.38" opacity=".5" rx="66.56" transform="rotate(90 531.75 0)scale(1 -1)"/>
<rect width="133.13" height="133.13" x="932.13" y="267.25" opacity=".6" rx="66.56" transform="rotate(90 664.88 0)scale(1 -1)"/>
<rect width="133.13" height="133.13" x="1065.25" y="533.5" opacity=".5" rx="66.56" transform="rotate(90 531.75 0)scale(1 -1)"/>
<rect width="133.13" height="133.13" x="1065.25" y="400.38" opacity=".6" rx="66.56" transform="rotate(90 664.88 0)scale(1 -1)"/>
<rect width="133.13" height="133.13" x="1065.25" y="267.25" opacity=".7" rx="66.56" transform="matrix(0 1 1 0 798 -798)"/>
<rect width="133.13" height="133.13" x="1198.38" y="533.5" opacity=".2" rx="66.56" transform="rotate(90 664.88 0)scale(1 -1)"/>
<rect width="133.13" height="133.13" x="1198.38" y="400.38" opacity=".3" rx="66.56" transform="matrix(0 1 1 0 798 -798)"/>
<rect width="133.13" height="133.13" x="1198.38" y="267.25" opacity=".4" rx="66.56" transform="rotate(90 931.13 0)scale(1 -1)"/>
<rect width="133.13" height="133.13" x="1464.63" y="533.5" opacity=".2" rx="66.56" transform="rotate(90 931.13 0)scale(1 -1)"/>
<rect width="133.13" height="133.13" x="1464.63" y="400.38" opacity=".3" rx="66.56" transform="rotate(90 1064.25 0)scale(1 -1)"/>
<rect width="133.13" height="133.13" x="1464.63" y="267.25" opacity=".8" rx="66.56" transform="rotate(90 1197.38 0)scale(1 -1)"/>
<rect width="133.13" height="133.13" x="1331.5" y="533.5" opacity=".1" rx="66.56" transform="matrix(0 1 1 0 798 -798)"/>
<rect width="133.13" height="133.13" x="1331.5" y="400.38" opacity=".2" rx="66.56" transform="rotate(90 931.13 0)scale(1 -1)"/>
<rect width="133.13" height="133.13" x="1331.5" y="267.25" opacity=".1" rx="66.56" transform="rotate(90 1064.25 0)scale(1 -1)"/>
<rect width="133.13" height="133.13" x="1465.25" y="134.13" opacity=".9" rx="66.56" transform="rotate(90 1531.81 200.69)"/>
<rect width="133.13" height="133.13" x="1199" y="134.13" opacity=".7" rx="66.56" transform="rotate(90 1265.56 200.69)"/>
<rect width="133.13" height="133.13" x="1332.13" y="134.13" opacity=".6" rx="66.56" transform="rotate(90 1398.69 200.69)"/>
<rect width="133.13" height="133.13" x="1065.88" y="134.13" opacity=".8" rx="66.56" transform="rotate(90 1132.44 200.69)"/>
<rect width="133.13" height="133.13" x="932.75" y="134.13" opacity=".5" rx="66.56" transform="rotate(90 999.31 200.69)"/>
<rect width="133.13" height="133.13" x="399.63" y="267.75" opacity=".3" rx="66.56" transform="rotate(-90 466.19 334.31)"/>
<rect width="133.13" height="133.13" x="399.63" y="400.88" opacity=".4" rx="66.56" transform="rotate(-90 466.19 467.44)"/>
<rect width="133.13" height="133.13" x="399.63" y="534" opacity=".5" rx="66.56" transform="rotate(-90 466.19 600.56)"/>
<rect width="133.13" height="133.13" x="399.63" y="667.13" opacity=".6" rx="66.56" transform="rotate(-90 466.19 733.69)"/>
<rect width="133.13" height="133.13" x="399.63" y="800.25" opacity=".7" rx="66.56" transform="rotate(-90 466.19 866.81)"/>
<rect width="133.13" height="133.13" x="665.88" y="267.75" opacity=".3" rx="66.56" transform="rotate(-90 732.44 334.31)"/>
<rect width="133.13" height="133.13" x="665.88" y="400.88" opacity=".8" rx="66.56" transform="rotate(-90 732.44 467.44)"/>
<rect width="133.13" height="133.13" x="665.88" y="534" opacity=".9" rx="66.56" transform="rotate(-90 732.44 600.56)"/>
<rect width="133.13" height="133.13" x="665.88" y="667.13" opacity=".4" rx="66.56" transform="rotate(-90 732.44 733.69)"/>
<rect width="133.13" height="133.13" x="665.88" y="800.25" opacity=".9" rx="66.56" transform="rotate(-90 732.44 866.81)"/>
<rect width="133.13" height="133.13" x="532.75" y="267.75" opacity=".2" rx="66.56" transform="rotate(-90 599.31 334.31)"/>
<rect width="133.13" height="133.13" x="532.75" y="400.88" opacity=".1" rx="66.56" transform="rotate(-90 599.31 467.44)"/>
<rect width="133.13" height="133.13" x="532.75" y="534" opacity=".2" rx="66.56" transform="rotate(-90 599.31 600.56)"/>
<rect width="133.13" height="133.13" x="532.75" y="667.13" opacity=".3" rx="66.56" transform="rotate(-90 599.31 733.69)"/>
<rect width="133.13" height="133.13" x="532.75" y="800.25" opacity=".8" rx="66.56" transform="rotate(-90 599.31 866.81)"/>
<rect width="133.13" height="133.13" x="799" y="267.75" opacity=".4" rx="66.56" transform="rotate(-90 865.56 334.31)"/>
<rect width="133.13" height="133.13" x="799" y="400.88" opacity=".7" rx="66.56" transform="rotate(-90 865.56 467.44)"/>
<rect width="133.13" height="133.13" x="799" y="534" opacity=".6" rx="66.56" transform="rotate(-90 865.56 600.56)"/>
<rect width="133.13" height="133.13" x="799" y="667.13" opacity=".5" rx="66.56" transform="rotate(-90 865.56 733.69)"/>
<rect width="133.13" height="133.13" x="799" y="800.25" rx="66.56" transform="rotate(-90 865.56 866.81)"/>
<rect width="133.13" height="133.13" x="399.63" y="933.38" opacity=".2" rx="66.56" transform="rotate(-90 466.19 999.94)"/>
<rect width="133.13" height="133.13" x="399.63" y="1066.5" opacity=".3" rx="66.56" transform="rotate(-90 466.19 1133.06)"/>
<rect width="133.13" height="133.13" x="665.88" y="933.38" opacity=".2" rx="66.56" transform="rotate(-90 732.44 999.94)"/>
<rect width="133.13" height="133.13" x="665.88" y="1066.5" opacity=".3" rx="66.56" transform="rotate(-90 732.44 1133.06)"/>
<rect width="133.13" height="133.13" x="532.75" y="933.38" opacity=".1" rx="66.56" transform="rotate(-90 599.31 999.94)"/>
<rect width="133.13" height="133.13" x="532.75" y="1066.5" opacity=".2" rx="66.56" transform="rotate(-90 599.31 1133.06)"/>
<rect width="133.13" height="133.13" x="799" y="933.38" opacity=".3" rx="66.56" transform="rotate(-90 865.56 999.94)"/>
<rect width="133.13" height="133.13" x="799" y="1066.5" opacity=".4" rx="66.56" transform="rotate(-90 865.56 1133.06)"/>
<rect width="133.13" height="133.13" x="666.5" y="134.63" opacity=".2" rx="66.56" transform="rotate(90 0 934.25)scale(-1 1)"/>
<rect width="133.13" height="133.13" x="799.63" y="134.63" opacity=".1" rx="66.56" transform="rotate(90 0 1067.38)scale(-1 1)"/>
<rect width="133.13" height="133.13" x="400.25" y="134.63" opacity=".4" rx="66.56" transform="matrix(0 -1 -1 0 668 668)"/>
<rect width="133.13" height="133.13" x="533.38" y="134.63" opacity=".3" rx="66.56" transform="rotate(90 0 801.13)scale(-1 1)"/>
<rect width="133.13" height="133.13" x="799.38" y="1199.13" opacity=".6" rx="66.56" transform="rotate(90 865.94 1265.69)"/>
<rect width="133.13" height="133.13" x="666.25" y="1199.13" opacity=".3" rx="66.56" transform="rotate(90 732.81 1265.69)"/>
<rect width="133.13" height="133.13" x="400" y="1199.13" opacity=".3" rx="66.56" transform="rotate(90 466.56 1265.69)"/>
<rect width="133.13" height="133.13" x="533.13" y="1199.13" opacity=".2" rx="66.56" transform="rotate(90 599.69 1265.69)"/>
<rect width="133.13" height="133.13" x="133.75" y="1199.13" opacity=".5" rx="66.56" transform="rotate(90 200.31 1265.69)"/>
<rect width="133.13" height="133.13" x="133.75" y="1066" opacity=".6" rx="66.56" transform="rotate(90 200.31 1132.56)"/>
<rect width="133.13" height="133.13" x="133.75" y="932.88" opacity=".7" rx="66.56" transform="rotate(90 200.31 999.44)"/>
<rect width="133.13" height="133.13" x="133.75" y="799.75" opacity=".8" rx="66.56" transform="rotate(90 200.31 866.31)"/>
<rect width="133.13" height="133.13" x="133.75" y="666.63" opacity=".9" rx="66.56" transform="rotate(90 200.31 733.19)"/>
<rect width="133.13" height="133.13" x="266.88" y="1199.13" opacity=".4" rx="66.56" transform="rotate(90 333.44 1265.69)"/>
<rect width="133.13" height="133.13" x="266.88" y="1066" opacity=".7" rx="66.56" transform="rotate(90 333.44 1132.56)"/>
<rect width="133.13" height="133.13" x="266.88" y="932.88" opacity=".6" rx="66.56" transform="rotate(90 333.44 999.44)"/>
<rect width="133.13" height="133.13" x="133.75" y="533.5" opacity=".4" rx="66.56" transform="rotate(90 200.31 600.06)"/>
<rect width="133.13" height="133.13" x="133.75" y="400.38" opacity=".5" rx="66.56" transform="rotate(90 200.31 466.94)"/>
<rect width="133.13" height="133.13" x="266.88" y="533.5" opacity=".3" rx="66.56" transform="rotate(90 333.44 600.06)"/>
<rect width="133.13" height="133.13" x="266.88" y="400.38" opacity=".4" rx="66.56" transform="rotate(90 333.44 466.94)"/>
<rect width="133.13" height="133.13" x="266.88" y="267.25" opacity=".7" rx="66.56" transform="rotate(90 333.44 333.81)"/>
<rect width="133.13" height="133.13" x="266.88" y="799.75" opacity=".5" rx="66.56" transform="rotate(90 333.44 866.31)"/>
<rect width="133.13" height="133.13" x="266.88" y="666.63" rx="66.56" transform="rotate(90 333.44 733.19)"/>
<rect width="133.13" height="133.13" x="399.38" y="1465.38" opacity=".9" rx="66.56" transform="matrix(0 1 1 0 -1066 1066)"/>
<rect width="133.13" height="133.13" x="399.38" y="1332.25" opacity=".2" rx="66.56" transform="matrix(0 1 1 0 -932.88 932.88)"/>
<rect width="133.13" height="133.13" x="266.25" y="1465.38" opacity=".8" rx="66.56" transform="rotate(90 -1199.13 0)scale(1 -1)"/>
<rect width="133.13" height="133.13" x="266.25" y="1332.25" opacity=".1" rx="66.56" transform="matrix(0 1 1 0 -1066 1066)"/>
<rect width="133.13" height="133.13" x="665.63" y="1465.38" opacity=".9" rx="66.56" transform="matrix(0 1 1 0 -799.75 799.75)"/>
<rect width="133.13" height="133.13" x="665.63" y="1332.25" opacity=".4" rx="66.56" transform="matrix(0 1 1 0 -666.63 666.63)"/>
<rect width="133.13" height="133.13" x="532.5" y="1465.38" rx="66.56" transform="matrix(0 1 1 0 -932.88 932.88)"/>
<rect width="133.13" height="133.13" x="532.5" y="1332.25" opacity=".3" rx="66.56" transform="matrix(0 1 1 0 -799.75 799.75)"/>
<rect width="133.13" height="133.13" x="798.75" y="1465.38" opacity=".8" rx="66.56" transform="matrix(0 1 1 0 -666.63 666.63)"/>
<rect width="133.13" height="133.13" x="798.75" y="1332.25" opacity=".5" rx="66.56" transform="matrix(0 1 1 0 -533.5 533.5)"/>
<rect width="133.13" height="133.13" x="931.88" y="1465.38" opacity=".7" rx="66.56" transform="matrix(0 1 1 0 -533.5 533.5)"/>
<rect width="133.13" height="133.13" x="931.88" y="1332.25" opacity=".2" rx="66.56" transform="matrix(0 1 1 0 -400.38 400.38)"/>
<rect width="133.13" height="133.13" x="133.13" y="134.13" opacity=".5" rx="66.56" transform="matrix(0 1 1 0 -1 1)"/>
<rect width="133.13" height="133.13" x="266.25" y="134.13" opacity=".2" rx="66.56" transform="rotate(90 132.13 0)scale(1 -1)"/>
<rect width="133.13" height="133.13" x="133.13" y="1" opacity=".5" rx="66.56" transform="rotate(90 132.13 0)scale(1 -1)"/>
<rect width="133.13" height="133.13" x="399.38" y="1" opacity=".9" rx="66.56" transform="rotate(90 398.38 0)scale(1 -1)"/>
<rect width="133.13" height="133.13" x="266.25" y="1" opacity=".2" rx="66.56" transform="rotate(90 265.25 0)scale(1 -1)"/>
<rect width="133.13" height="133.13" x="665.63" y="1" opacity=".7" rx="66.56" transform="rotate(90 664.63 0)scale(1 -1)"/>
<rect width="133.13" height="133.13" x="532.5" y="1" opacity=".6" rx="66.56" transform="matrix(0 1 1 0 531.5 -531.5)"/>
<rect width="133.13" height="133.13" x="798.75" y="1" opacity=".8" rx="66.56" transform="rotate(90 797.75 0)scale(1 -1)"/>
<rect width="133.13" height="133.13" x="931.88" y="1" opacity=".5" rx="66.56" transform="rotate(90 930.88 0)scale(1 -1)"/>
<rect width="133.13" height="133.13" x="1465" y="1199.63" opacity=".4" rx="66.56" transform="rotate(90 0 2797.75)scale(-1 1)"/>
<rect width="133.13" height="133.13" x="1198.75" y="1199.63" opacity=".8" rx="66.56" transform="rotate(90 0 2531.5)scale(-1 1)"/>
<rect width="133.13" height="133.13" x="1331.88" y="1199.63" opacity=".1" rx="66.56" transform="rotate(90 0 2664.63)scale(-1 1)"/>
<rect width="133.13" height="133.13" x="1065.63" y="1199.63" opacity=".7" rx="66.56" transform="rotate(90 0 2398.38)scale(-1 1)"/>
<rect width="133.13" height="133.13" y="1.5" opacity=".6" rx="66.56" transform="rotate(-90 66.56 68.06)"/>
<rect width="133.13" height="133.13" y="134.63" opacity=".5" rx="66.56" transform="rotate(-90 66.56 201.19)"/>
<rect width="133.13" height="133.13" y="267.75" opacity=".4" rx="66.56" transform="rotate(-90 66.56 334.31)"/>
<rect width="133.13" height="133.13" y="400.88" opacity=".3" rx="66.56" transform="rotate(-90 66.56 467.44)"/>
<rect width="133.13" height="133.13" y="534" opacity=".2" rx="66.56" transform="rotate(-90 66.56 600.56)"/>
<rect width="133.13" height="133.13" y="667.13" opacity=".1" rx="66.56" transform="rotate(-90 66.56 733.69)"/>
<rect width="133.13" height="133.13" y="800.25" opacity=".2" rx="66.56" transform="rotate(-90 66.56 866.81)"/>
<rect width="133.13" height="133.13" x="1198.13" y="1.5" opacity=".9" rx="66.56" transform="rotate(-90 1264.69 68.06)"/>
<rect width="133.13" height="133.13" x="1065" y="1.5" opacity=".8" rx="66.56" transform="rotate(-90 1131.56 68.06)"/>
<rect width="133.13" height="133.13" x="1464.38" y="1.5" opacity=".9" rx="66.56" transform="rotate(-90 1530.94 68.06)"/>
<rect width="133.13" height="133.13" x="1331.25" y="1.5" rx="66.56" transform="rotate(-90 1397.81 68.06)"/>
<rect width="133.13" height="133.13" y="933.38" opacity=".5" rx="66.56" transform="rotate(-90 66.56 999.94)"/>
<rect width="133.13" height="133.13" y="1066.5" opacity=".4" rx="66.56" transform="rotate(-90 66.56 1133.06)"/>
<rect width="133.13" height="133.13" y="1199.63" opacity=".3" rx="66.56" transform="rotate(-90 66.56 1266.19)"/>
<rect width="133.13" height="133.13" y="1332.75" opacity=".2" rx="66.56" transform="rotate(-90 66.56 1399.31)"/>
<rect width="133.13" height="133.13" x="1198.13" y="1332.75" opacity=".9" rx="66.56" transform="rotate(-90 1264.69 1399.31)"/>
<rect width="133.13" height="133.13" x="1065" y="1332.75" opacity=".2" rx="66.56" transform="rotate(-90 1131.56 1399.31)"/>
<rect width="133.13" height="133.13" x="1464.38" y="1199.63" opacity=".6" rx="66.56" transform="rotate(-90 1530.94 1266.19)"/>
<rect width="133.13" height="133.13" x="1464.38" y="1332.75" opacity=".7" rx="66.56" transform="rotate(-90 1530.94 1399.31)"/>
<rect width="133.13" height="133.13" x="1331.25" y="1332.75" opacity=".6" rx="66.56" transform="rotate(-90 1397.81 1399.31)"/>
<rect width="133.13" height="133.13" y="1465.88" opacity=".2" rx="66.56" transform="rotate(-90 66.56 1532.44)"/>
<rect width="133.13" height="133.13" x="1198.13" y="1465.88" opacity=".9" rx="66.56" transform="rotate(-90 1264.69 1532.44)"/>
<rect width="133.13" height="133.13" x="1065" y="1465.88" opacity=".2" rx="66.56" transform="rotate(-90 1131.56 1532.44)"/>
<rect width="133.13" height="133.13" x="1464.38" y="1465.88" opacity=".7" rx="66.56" transform="rotate(-90 1530.94 1532.44)"/>
<rect width="133.13" height="133.13" x="1331.25" y="1465.88" opacity=".6" rx="66.56" transform="rotate(-90 1397.81 1532.44)"/>
</g>
</svg>