<svg xmlns="http://www.w3.org/2000/svg" viewBox="0 0 1500 1150">
  <g fill="none">
    <path fill="#1c72c9" d="M205.4 93c-.3.7-.2 28.3.2 61.2l.7 59.8-2.2 1.2c-1.4.7-21.5 9-44.9 18.5l-81.8 33-39.2 15.9v395.2l-25.8-3.2c-29.5-3.9-30.2-4-30.2-2 0 .9 2.5 1.7 9.2 2.4l75.7 8.8q11 1.2-3.6 3a731 731 0 0 1-71.5-7c-7.8-1-9.8-1-9.8 0 0 1.5.6 1.6 38.4 5.9l34.8 4 3.7.7v13.9c.1 13.5 0 13.9-2 13.9s-66.5-8.3-72.7-9.4c-3-.4-3 2 0 2.7 1.3.3 18.2 2.7 37.8 5.2 31.1 4 36.7 4.5 46 4 5.8-.4 11.2-1.1 12-1.6 1.6-.8 11.5-1.7 57.5-5 34.7-2.4 107.2-7.6 122-8.8 6-.5 11.3-.7 11.7-.5.4.3.8 2.9.8 6v5.4h15v-11.3l3.2.7c4.9.9 20.8 3 45 6.2 11.9 1.5 21.1 3.1 20.5 3.4-.7.4-6.2 1.2-12.2 1.8l-51.5 5.6a12253 12253 0 0 1-210.5 22c-40.6 3.9-94.9 8.5-97.8 8.5-1 0-1.7.8-1.7 1.5q.1 1.5 2 1.6a9752 9752 0 0 0 351.5-36.5 5977.6 5977.6 0 0 1 232.5-25c40.3-3.6 57-5 112-9.1 33.5-2.5 43.7-3.3 97-8 50.6-4.4 100.8-10.3 153-18 16.7-2.5 34.7-5.1 40-6l26.4-4 42-6c34.6-4.9 66.7-9.6 102.6-15.5l45.7-7.5c15.2-2.4 24.2-4.8 15.7-4-4.3.2-43.9 6.6-57 9-11.7 2.2-56.3 9-85.4 13.1l-62.5 9a6525 6525 0 0 1-120.5 17.4 4419 4419 0 0 1-240.6 22.1c-57.6 4.1-256.4 23.7-268 26.4a67 67 0 0 1-13-1.4c-6-1-22-3.4-35.3-5.2-15-2-23.7-3.6-22.5-4 1-.4 33.1-3.3 71.4-6.4a35866 35866 0 0 0 172-14l56-4.3 21-1.7c5.2-.2 31.5-2.3 58.4-4.5 27-2.1 50.3-4 51.8-4 2 0 2.8-.4 2.8-2 0-2 .7-2 35.2-2 31 0 38-.2 57.8-2.4a7593 7593 0 0 0 133-16.6c.6 0 1-1.9 1-4.3v-4.3l9-.7c5.1-.3 13.1-.7 17.9-.7s17-.6 27-1.4l56.5-4.6c48-3.7 46.6-3.5 46.6-6.5q0-2.2 1.2-2.4l15.7 1c17.5 1.3 20 .9 20-3 0-1.6.7-3 1.6-3.4.8-.3 8.6-.2 17.5 0 16.8.7 16 .9 16.4-3.6q.2-1.5 4-2.2l24-4.4c27.5-4.8 27.5-4.8 27.6-8.4 0-3.3-2.5-2.8 25.5-5.6 18.2-1.8 21.5-1.8 24.9-.2 8.3 3.7-2.8 10.5-27.2 16.7-32 8.1-123.9 23.5-238.7 40.1-26.4 3.8-55 8.1-63.5 9.4-49.1 8-129.5 18.5-174.5 23-16 1.6-56.9 5.1-98 8.6-13.8 1-41.7 3.3-62 5a6368 6368 0 0 0-239.5 23.4 2166 2166 0 0 0-63.6 7.6 6041 6041 0 0 1-81.4 9.9l-41 5a4520 4520 0 0 1-198.5 21c-20.7 1.7-23.5 2.2-23.5 3.7q0 1.3.2 1.3c1 0 58-5.2 69.8-6.5a3293.4 3293.4 0 0 0 128.5-14l146-18c110.6-13.5 231-25.4 353.5-35 90.6-7 141.7-12.4 216.3-23 52.1-7.4 82.8-12 84.7-12.7.8-.4 24.2-3.8 52-7.7 56.2-8 60.3-8.5 136-21 81.5-13.6 110.8-20 123.4-27.6 8-4.7 6.9-10-2.7-12.5-4-1-4-1.1-2.1-3 1.5-1.5 5.2-2.4 17.4-4 19.9-2.5 20.4-2.4 34 1.5l11.4 3.3.3 13.6.3 13.5-4.9 4.4q-19.9 17.8-68.1 42.2c-33.6 16.9-51.6 24.2-124 53-13 5.1-16.7 7-6.5 7 5.6 0 19 .9 24.8 1.2l10.8.7-21.8 8.7a1166 1166 0 0 0-76 32c-53.6 25.4-102.9 54.5-188.9 111.2a1786 1786 0 0 1-240.4 135.5l-4.5 2.2h3.1c2 0 8.7-2.5 17.4-6.6l14.1-6.7L709 999c21 2.1 25.3 2.8 22.8 3.8-.6.2-3.7 2-7 3.8-5.4 3-5.7 3.5-3.2 3.6q6.5-.1 79.1-45.7c14.4-9 17.5-11 36-23.3l19.7-12.8c.3-.2-.5 2.5-2 6-2 5-2.5 7.9-2.5 14.4 0 7.5.4 8.9 3.8 16 7.2 14.5 22.4 27.3 47.2 39.5 9.5 4.7 12.9 6 16 5.7 3.6-.3 3.4-.4-4.7-3.7-10-4-18.6-8.5-29.4-15.6l-7.9-5 28-.3 27.8-.3 17 8.5c21.2 10.5 36.5 16.6 41.3 16.6 3.2-.1 1.3-1-10.7-6a356 356 0 0 1-53.8-27 91 91 0 0 1-23.9-23.2c-1-1.8-1.9-6.5-2.2-10.5-.6-11 2-15.9 16.6-30.4a459 459 0 0 1 50.3-41.5c76.3-58.1 143.1-100.2 190-119.7 23.1-9.7 21.2-9 40-13.2 37.1-8 87.9-14.4 143.7-18.3l11.3-.8v42l-.2 42 2.3.9a66 66 0 0 0 22-.1l2.7-1V761c0-23.1.2-42.3.4-42.5.7-.6 50.7-2.1 99.5-3 32-.6 39.3-1 39.3-2.1 0-1-2.1-1.3-9.3-1.3-9.8 0-70.3 1.4-107.3 2.5l-22.2.7-.5-2.7q-.4-2.5.6-3c2.6-.9 91.1-6.7 123.4-8.1 8.9-.4 15.3-1.1 15.3-1.7s-5-.7-13.8-.3a4479 4479 0 0 0-122 7.6h-4.2v-60c0-33 .1-60 .4-60a2889.5 2889.5 0 0 0 35.5 16.1c20 8.8 64.8 29 82.5 37 21.4 9.9 21.6 10 21.6 8.5 0-1.3-9-5.8-32.3-16.2l-10.7-4.7v-13.3c0-12.6 0-13.5 1.9-13.5 1.5 0 2 .9 2.2 3.8.4 3.6.6 3.7 3.5 3.7q3.2.1 4.7 2c1 1.5 1.9 1.7 4.3 1 4.2-1.2 4.3-1.1 5.7 1.5 1.1 2.3 1.8 2.6 6.4 2.4 5-.3 5-.2 5.7 2.9a11 11 0 0 0 1.7 4.4c1.5 2 6.9 1.8 6.9-.2q0-1.5-2.7-1.2c-2.4.2-2.9-.2-3.8-3.6-1.4-4.7-3.5-6-7-4.7-3.9 1.5-4.4 1.4-5-1.9-.8-3.6-2.5-4.3-6-2.5q-4.7 2.6-4.5-1.6c0-1.7-.6-1.9-4-1.3l-4 .7V599l-5 .1c-2.7 0-6-.5-7.4-1-2.2-.8-2.4-1.3-1.9-5.7.4-4 .1-5.2-1.6-6.7q-4.2-4 0-6.8c2-1.4 2-1.5.3-4.3-1.8-2.7-1.8-2.8.4-4.5 2.8-2.3 2.7-3.2-.4-6q-3-2.2-1.5-3.4c.5-.5 1.1-2.4 1.1-4.2-.1-2.3.6-3.4 2.5-4.2 3.3-1.6 3.2-5.5-.1-9.5-2.2-2.6-2.5-3.6-2-7.1.5-2.3 1.4-4.5 2.2-5q1.5-.7.8-4c-.4-2.3 0-3.9 1.6-5.9q2.4-2.9.7-2.7c-2.6 0-4.7 3.5-4.7 7.6-.1 2-.7 5-1.6 6.4-2 3.6-1.8 9.3.5 12.3 2.7 3.3 2.6 6.1-.3 7.4-3.4 1.6-4.4 9.8-1.4 13l2 2.1-2.1 2.8c-2 2.5-2 2.8-.7 5 1.3 2 1.3 2.3 0 3.4-1.9 1.6-1.9 3.8 0 8.4 2 4.7 2.1 4.5-2 4.5-2.3 0-5.6-1-8.3-2.5-3.8-2.3-4.7-2.5-7-1.5-2.1 1-2.8 1-3.7-.5-1-1.2-2.1-1.4-4.9-1q-3.5.8-3.5-.3c0-.7-2-1.1-4.5-1.1-3.5 0-4.6-.5-5.9-2.4-1.2-1.8-3-2.7-6.8-3.3-4.5-.7-5.4-1.2-5.8-3.4-.5-1.9-1.4-2.5-3.8-2.7-1.7-.2-3.7-1-4.3-1.8a4 4 0 0 0-2.6-1.5c-.8 0-2.1-1.4-2.9-3.2s-2.4-4-3.9-4.5c-3.4-1.6-3.2-4.7.5-7.4 3.5-2.7 3.8-5.4.6-7a9 9 0 0 1-4.6-7.4c0-.9 1.3-2 3-2.6 3-1.1 3.5-2.3 2-6.2s.7-6 5.3-5.4c3.5.6 3.7.6 3.7-2.4-.1-2.8 0-3 3.7-2.6 4 .2 4.2-.1 3-6.7-.2-2.1 1-2.3 7.1-1 2.2.5 2.3.3 1.6-3.5-.4-3.2-.4-4 .9-4q1.3-.1 1.8-1 .3-1.1 3.7 0c4.1 1.5 6 .3 4.2-2.9-1.4-2.7-1.3-5.8.3-6.5.7-.2 3.2-.2 5.4 0 3.7.5 4.1.3 5.4-2.2 1.6-3.5 4.9-4.2 8-2 2.9 2 8.2 2 9.9 0 2-2.4 5.2-1.3 7.9 2.8 2 3.2 3 3.7 5.8 3.7 3.1 0 3.8.8 3.3 4-.1.6.3 1.7.8 2.4s1.2 2.4 1.5 3.8c.6 2.5.4 2.8-2.6 3-3.7.4-4.7 3.1-2.4 6.3 2.1 2.8 4.4.8 2.7-2.3-1-2-.9-2.1 2.3-2.1 4.4 0 4.8-.7 3.1-4.1-1.9-3.6-1.9-3.6 1-4.3 2-.6 2.6-1.2 2.6-4.1 0-3.4 0-3.5 4-3.5 3.3 0 4.2-.4 4.7-2 .3-1.2 2-2.9 3.6-3.7 4-2.2 14.3-2.5 17.4-.7q4.2 2.5 4.3 0c0-1.7-7.1-3.6-13.9-3.6-6.3 0-11.6 2-13.2 5-.6 1.2-2 2-3.4 2-4.3 0-5.5 1-5.5 4.6 0 4.5-3.1 4.7-4.7.4-.9-2.3-1.8-3-3.7-3q-4 0-6.7-5.1c-1.9-3.5-5.6-4.2-10-1.8l-3.8 2.2-3.4-2.2c-5.6-3.5-10.3-2.3-12 2.8-.2 1-1.7 1.4-5.5 1.2-4.3-.2-5.3 0-6.2 1.9a8 8 0 0 0-.6 4.5c.6 2.3.3 2.4-3.2 2.4-5.1.1-8.2 2.2-7.5 5.5.4 2.2.1 2.4-3.4 2.7-3.7.4-3.8.5-4.1 4.6-.3 3.8-.7 4.3-2.9 4.3q-2.5 0-3.3 2.4c-.9 2-1.7 2.5-4.5 2.5q-6.4 0-5.2 8c.6 3.3.4 4-1.7 4.9-3.3 1.4-4.2 4.6-2.2 7.7a10 10 0 0 1 1.6 3.8c0 .8.7 2 1.5 2.7 1.4 1.1 1.3 1.5-.5 3.4-3.1 3.3-2.7 7.3.9 9.3 2.2 1.3 3 2.5 3 4.5v2.8h-16v-46.8l21.4-20c28.7-27.1 29.6-28.2 29.6-33.4 0-3.7-.5-4.8-5.2-9.3a2364 2364 0 0 0-45.5-40.6l-4.2-3.5-.8-42.3-.8-42.3 3.8-2q3.8-2 3.8-4-.2-5.1-5-6.3l-3-.7v-11.9c0-8.8.2-12 1.2-12 .7 0 3-.5 5-1 3-.8 3.8-1.5 3.8-3.5 0-2.8-3.1-4.4-8.1-4.4h-3l.3-16.7.3-16.7 2.8-.7c6-1.6 6.7-3.2 6.6-15.4 0-6-.4-13.3-.8-16l-.6-5-5-1.3a87 87 0 0 0-33.3 1.2l-4.2 1.8v22.2l-7.3-.3c-8-.4-14.4 1-17.7 3.6-1.8 1.5-2.2 3.3-2.7 9.5-.7 8.7.4 11.3 4.4 10.3 2-.5 2.3-.2 2.3 3 0 1.9-.4 3.4-1 3.4-1 0-33.7-3.7-39.7-4.5-4-.5-4.1-.6-4.8-5.1q-.7-4.5-4-8.2c-3.1-3.3-3.8-3.6-8.7-3.5-4.8 0-46.4 9.2-58.9 13a24 24 0 0 0-13.3 10.2l-2.8 4 .1 34c.1 35.6.2 35.2-4 35.2-.6 0-1-35.6-1-89 0-97.8.3-93.3-6-96.6a15 15 0 0 0-5.2-1.4 293 293 0 0 0-27.2 10c-18.2 7-25.5 10.4-26.5 12.1a18 18 0 0 0-1.5 8.7v6.4l-4 1.3c-8.2 2.9-17.5 13.7-17.5 20.6 0 5.8 5.2 10.5 16.9 15.2l4.1 1.6v17.6l-4.8 1.3a26 26 0 0 0-16 16.6c-2.2 10.5 2.8 16.9 17 21.5l3.8 1.2v12.9h-4.3c-7.8 0-14.8 7.2-16.4 16.7-1.3 8.5 3.8 15.6 14.2 19.6l6 2.3.2 33.5c.3 36 .4 36.8 5.6 39.6 3.7 1.9 8.6 1.4 31.2-2.8 24-4.4 28.4-6.4 30.5-13.9.5-1.9.9-11.2.9-20.7l.1-17.2 2.9-.7c2.1-.4 3.7 0 5.9 1.6 5.1 3.8 9 3.6 41.8-2.5 24.4-4.6 31.6-6.3 34.6-8.2l3.8-2.4v5c0 2.6.5 5.3 1.2 5.9.8.6 8.3 2 16.8 3.1 19.7 2.7 20 2.8 20 4.9 0 1.4-3 2.3-18.3 5.2l-18.2 3.5-.3 12c-.1 6.6.2 12.6.7 13.4q.6 1.4 14.7 2.6l17.6 2 3.8.6v6c0 3.2.3 6 .7 6.2s7.4.7 15.5.9c13.4.2 15 0 15.8-1.5q1-1.8 5-1.8c2.2 0 4 .5 4 1-.1.5-11.3 11.8-25 25l-25.1 24.3.1 4.6c0 4.3.3 4.8 6.7 11.1l23.6 22.1 17 15.4-4.4.5c-3.4.5-4.7 1.2-5.7 3-1 2-1.8 2.5-4.7 2.3-2.6-.3-3.7 0-4.2 1.2q-.4 1.8-3.4 1-6.1-1.5-7.9 3.6-1 3-3 3c-3.8 0-5 1-5 4.5 0 2.5-.6 3.5-2 4q-2 .6-2 3.4-.1 2.6-1.6 3.5c-2.4.9-1.8 5.3 1 7.2a5 5 0 0 1 2.6 4c0 1.4 1 3.4 2.7 4.8 1.5 1.4 2.4 2.7 2 3-1 1.2-23.8-5.4-27-7.8-1.6-1-2.7-2.6-2.7-3.3s-1.1-1.4-2.5-1.4q-2.3 0-2.8-2c-.4-1.4-1.4-1.9-4.1-2-2.6 0-3.6-.5-4.1-2-.9-2.5-5.5-3-10-1-7.5 3.3-8.6 3.4-11.5 1.3-2.3-1.8-3.4-2-7-1.1-3.4.7-4.7.6-6-.6-2.1-2-4.5-2-6-.1-1 1.2-1.6 1.2-3.1.3-1.5-1-2.4-1-3.9 0-1 .7-3.5 1-5.6.7-2-.2-4.2 0-4.8.4q-1.2 1-2.9-.3c-1.5-1.1-1.7-3.8-2-24.6-.3-22.6-.3-23.5-2.3-23.6l-11.6-.9-9.5-.6-.7-17.6a97 97 0 0 0-1.7-18.7c-.7-.6-14.8-1.1-39.8-1.3l-38.9-.4-.6-15.6a140 140 0 0 0-1.3-16.2 3540 3540 0 0 0-111-1.6q-1 .5-.2 6.2c.4 3.2.8 13.7.9 23.3s.4 22 .8 27.5c.7 9.3 0 14.6-1.9 14.6-.4 0-.9-15.5-1.1-34.6l-.6-34.4-2.4-3-9.8-11.6-11.5-13.6-4-4.9h-106c-58.3 0-151.6.3-207.3.7l-101.2.7v-24.2l3.7-1 27.7-7.1c15-3.8 24.5-6.7 25.3-7.7.6-.9 4-2.2 7.5-2.9a377 377 0 0 0 44.5-12.3c7-3.5 7.4-2.4-9-20.8a71 71 0 0 1-7.8-9.8c0-.6-3.8-5-8.5-9.6a59 59 0 0 1-8.4-9.4c0-.6-3.4-4.4-7.6-8.6a49 49 0 0 1-7.4-8.5c0-.5-4.3-5.2-9.5-10.4s-9.5-10-9.5-10.6a41 41 0 0 0-7.6-8.5c-4-4-7.4-8-7.4-8.8s-5.7-7.2-12.6-14.1c-6.8-7-12.4-13-12.4-13.6s-3.2-4.1-7.1-8a59 59 0 0 1-7.8-8.6 80 80 0 0 0-21.5-20 7940.7 7940.7 0 0 0-73.1-39.8L389 112.6a99 99 0 0 0-15.4-7.5c-1 0-3 1.2-4.7 2.6a12 12 0 0 1-4.2 2.5c-.6 0-2.6 1.5-4.5 3.4a14 14 0 0 1-6 3.8c-2 .2-2.7.9-3 3-.4 3.5-3.2 3.7-6.3.6q-2.2-2.1-11.2-4c-29.8-6.3-107.8-22-117-23.6-9.4-1.7-10.8-1.8-11.4-.5m49.1 10.3c96.8 19.5 87.2 17.3 86.8 20l-.5 2.6s-18.2-3.4-40.2-7.8a3054 3054 0 0 0-64-12c-31.4-5.2-28.4-4.3-28.4-8.4 0-2 .2-3.5.6-3.5s21 4 45.7 9.1m-37.9 1.3c19 2.4 124.8 22.8 127.6 24.6q1.1.8.4 2c-1 1.5.4 1.7-46-7-74.7-14-89.9-17-90.7-18-1.4-1.3.2-3.2 2-2.7 1 .3 4 .8 6.7 1.1M395 118.8c10.8 5.8 24.4 13.3 30.2 16.3 38 20.7 65 35.8 62 34.8s-42.7-17.6-49.5-20.7a99 99 0 0 1-12-6.5c-2.8-1.8-12.6-7.5-21.7-12.7-17.7-9.8-31.8-19.2-31.8-20.9 0-2.2 4-.5 22.8 9.7m-165.4-5.7a18436.6 18436.6 0 0 1 85.3 16.2l26.2 5.2-5.6 6-15 16.4-9.6 10.2 4.4 5c4.7 5.3 5.9 5.9 7.9 3.6 2.1-2.7 3.2-1.7 2.5 2.2-.3 2-.8 9-1 15.4l-.4 11.7 2.7.6 4.3 1.1q1.8.8 2.7-2.7a480 480 0 0 1 7.6-21.4c4.8-12.8 7.6-18.8 9.8-21.1 2.8-3 3.1-3.1 6-1.8 2.8 1.2 45.8 16.6 91.5 32.7 11.3 3.9 14.9 5.5 14 6.2l-6 4.3c-4.5 3-4.7 3.4-3.7 6 .6 1.5 1.5 3.3 2 4 1.4 1.6 7.3 1.7 10 .2 2.4-1.2 2.3-1-3.7 12q-6.2 13.5-3.5 17.6c.3.7 2.2 1.5 4 1.8 3.2.6 3.3.5 5.7-5l4.7-10.6 2.2-4.7 8.6 11.2c20 26.4 32.4 42.5 35.3 46.1l3 3.8.8 97.7.8 140 .1 42.3-3.4-2c-5.2-3.2-7-2.7-9.6 2.1a23 23 0 0 1-3.2 4.9c-.5.3-.6 2.6-.2 5.2q.6 4.9 2.3 4.7 4 .1 1.5-3.4c-.8-1.1-1.4-3-1.4-4.2q-.2-2.5 2-1.7c2 .5 2.2.3 1.6-2.4-.7-4 1.5-6.4 4.2-4.5 9 6.6 10.8 6.6 12 1q1.6-8.4 6.1-1.4 4 6 4.1 1.6 0-1.9 2.2-2.2c1.8-.3 2.4-1.3 3.2-5.8.6-3 1.6-5.5 2.2-5.8s2.1 1 3.4 2.8c1.8 2.4 2.4 2.8 3.6 1.9 1.1-1 1.8-.9 3.2.5 1.6 1.5 2.1 1.5 4.7.1 3.4-1.7 4.5-1.2 4.5 2 0 2 .4 2.4 2.3 2.4 2 0 2.3.5 2 2.1-.5 2-.3 2.1 2.8 1.8 3.2-.4 3.3-.3 3 2.9-.2 3 0 3.2 2.3 3.2 2.6 0 2.7.2 2 4.6-.8 5.5.3 5.8 6.7 1.5 2.4-1.7 4.8-3 5.2-3s.6 1.6.2 3.5c-.5 3.2-.5 3.4 2 3.4 2.1 0 2.3.4 1.8 3-.5 3-.4 3 2.5 3 3.6 0 3.6.1 1.6 4.2-1.5 2.9-1.5 3 .6 3.6 1.8.5 2 1 1.6 4-.5 3-.4 3.3 2.5 3.3 3 0 3 0 2.4 4-.6 3.3-.5 4 .5 3.8 1.8-.6 3.5-6.1 2.6-8.3q-.8-1.4-2.8-1.5c-2 0-2.3-.6-2.4-3-.1-2.2.4-3 2.2-3.5a4 4 0 0 0 2.8-2.5c.5-1.5 1.5-1.8 5-1.6 3.6.3 5-.2 7.1-2.1 3.3-3 4.9-3 6.3.2.9 2 1.6 2.4 3.6 1.9 3.4-.9 5.6 1 5.6 4.7 0 4 1.4 4.3 6.6 1.5 6-3.4 9-3.4 10.4-.1.8 2.2 1.4 2.5 4.2 2 11.6-1.7 12-1.7 11.2.2q-2 4.7 1 5c1.8.3 2 1 1.7 4.4-.4 4.5-.8 4.4 6.9 2.7q1.3-.2 1.4 1.7c0 1.7.6 1.9 5 1.6l4.9-.4-.7 3.5a19 19 0 0 1-2.6 6c-2.6 3.4-2.6 3.4 1 4.6q3 1 3 3c0 1.7-1.1 2-10.7 2.6-15.3.8-64.1.7-62.6-.2 2.5-1.7 5.3-8.2 5.3-12.6q0-7.7-6-6.3c-2.2.5-2.8.2-2.7-1.1.2-2-5-2.6-7-1q-3 2.6 1.2 2.8 2.5 0 2.5 1.5c0 1.3.7 1.5 4.6.9l4.7-.7-.6 3.6c-.4 2-.2 3.7.3 3.7q2.7-.1-2.5 5c-1.9 1.9-3.5 4-3.5 4.7 0 1-4.5 1.3-18.7 1.3-18 0-18.6-.1-17-1.8 1-1 1.7-3.3 1.7-4.9s.7-3.7 1.5-4.4 1.4-2.2 1-3.3c-.2-1 .4-3 1.5-4.4 1.9-2.4 1.9-2.5-.3-6.3-1.8-3-2.8-3.9-5-3.9q-2.5-.1-2.7-1c0-.6-1-1-2-1-2 0-2-.2-.3-3q3.6-6.6-4.6-6.3c-3.9.2-4 0-4.3-3-.3-2.7-.8-3.3-3-3.6-2.2-.2-2.8-.8-2.8-2.5 0-2.5-2.6-6.6-4.2-6.6-.7 0-2 .7-3 1.6-1.5 1.3-2 1.4-3.3.4s-1.5-1-1.5.6c0 1 .4 2.5.9 3.4.8 1.2 1.3 1.1 3.3-.8 1.3-1.2 2.9-2.2 3.6-2.2 1.4 0 2.4 3.8 2 7-.3 2.3 0 2.4 3 2.2q5.5-.7 1.5 5.3-3.2 5.1 3.2 2.2c4.3-2.1 8.5-2.2 8.5-.4 0 .8-1.2 2.4-2.5 3.6q-5.2 5 .5 5c1.6 0 3 .5 3 1.2q.1 1 2.5.6c1.9-.3 3 .2 4.5 2.3 1.9 2.7 1.9 2.7-.1 4.5q-2.1 1.9-1.5 4.1.7 2.4-1.5 3.4-2.2 1.1-1 2.4c.5.6.6 1.8 0 2.5-.4.8-.5 2-.2 2.7q.3 1.4-1.4 2a8 8 0 0 0-2.8 2c-.8.8-8 1.2-25.5 1.5-23.9.4-24.5.3-24.5-1.6q0-2 2.5-2.5c3-.7 3.7-3.3 1.4-6.7-1.5-2.4-1.5-2.7 0-3.6 1.2-.6 1.5-1.7 1-4.2q-.6-3.2.5-4c2.1-1.3 1.1-4.6-1.7-5.6-2.3-.7-2.8-1.6-2.8-4.2 0-3.4-1.6-4-5.7-2.3-1.5.7-1.8.1-1.7-4.8 0-6.1-2.2-9.6-6-9.6q-2 0-2-2.1 0-2.2-1.5-1.5-1.4.4-1-.8 1.2-2.9-6.5-4c-3.6-.6-4.7-.4-6.5 1.3-2 2-2.4 2-3.5.6-1.8-2.1-3.8-2-6.8.5q-4.3 3.5-4.2-2.7c-.1-3.2-2.4-4.8-5.2-3.2-1.3.6-3 1.8-4 2.5-1.4 1.3-1.8 1-3.7-2-1.1-2-2.6-3.6-3.3-3.6-2.3 0-4.8 3.3-4.8 6.1q-.1 2.8-2 4-1.9 1-2 2.3c0 1-1 1-4.4.3-3.7-.9-4.5-1.4-5-4q-.9-5-6.7-.7c-1.7 1.3-3.5 1.7-4.1 1.4-.7-.5-6.8-.7-13.6-.5-9 .2-12.2-.1-12.2-1q-.1-1.2-2.5-.5c-2.1.5-2.7.1-4-3-1.6-3.8-4.6-4.6-7.6-2-1.7 1.6-1.9 1.4-2.9-1.8-1.6-5-3.8-6-7.6-3.5l-3.2 1.9-2.3-3.8c-1.4-2-3.4-3.8-4.6-4-2.6-.4-5.3 3.1-5.3 7 0 2.1-.6 2.6-3.1 3q-3 .4-4.6-1.4c-2.2-2.4-5-2.4-5.9.1q-.4 2.5-2.6 1c-4.1-2.2-6.3 1.4-3.8 6.3q1.5 2.5-.5 1.4c-1-.3-15.2-.7-31.6-.7h-30v-44.6l5.3-.7c2.8-.3 8-.6 11.2-.7 8.7 0 10.9-1.4 11.8-7.5l.9-5h6.6c6 0 6.7-.1 7.9-2.3.7-1.6 3.1-3.2 6.3-4.3 13.2-5 13.3-16.4 0-20.8q-10.4-3.6-1.4-5.8c10-2.7 13.7-11.4 7.5-17.2-1.7-1.5-5-3.4-7.5-4-6.2-1.7-6.2-4.2.1-5.8 9.6-2.6 13.4-11.3 7.4-17.3a15 15 0 0 0-5.7-3.5c-6.4-1.4-7.8-2.1-8.3-4.5-.6-2.3-1.2-2.5-7.4-2.7l-6.6-.3v-4.9c0-5.4-1-6.6-6.2-7.5-4.3-.9-10.5.4-24.1 4.6-8.9 2.6-9.7 3.1-9.7 5.4 0 2-.5 2.5-2.8 2.5-6.5 0-11.2 5.7-11.2 13.3 0 2.9.6 4.6 2.9 6.8 1.6 1.6 3.6 2.8 4.5 2.8 3 0 1.7 3.6-2 5.4-2.6 1.2-3.6 2.5-4.5 5.9-.7 2.2-.9 5.8-.6 7.8.6 3.6 4.5 8 7.2 8s1.5 4.4-1.7 6.4q-5.7 3.6-4.3 12c.5 4 3.8 8.6 6 8.6 1.3 0 2.5 23 2.5 51.5V579l-11.3-.4c-6.2-.2-56.5-1-111.7-1.5s-102-1.2-103.8-1.5l-3.2-.5V284.6l22.7-9.3 57.3-23.1c18.9-7.8 46-18.7 60-24.2s26-10.6 26.7-11.2c1-.6 1.3-12.7 1.3-54.2 0-29.4.2-53.5.6-53.5zm144.5.8c4.6 3.2 4.8 3.8 2 5.3-2.5 1.4-5 .6-9-2.7l-3.1-2.6 2.3-1.3c3.2-1.9 3.3-1.8 7.8 1.3m-7.9 4c1.7 1 3 2 3 2.5 0 1.6-4.2 1.8-7 .2-2.6-1.3-3-1.9-2-3 1.6-1.8 2.5-1.8 6 .3m30.6 10.3c20.3 12 21 12.4 15.8 10.4l-20-7.9-19-7.4q-2.7-1-1-1c.9-.1 2.9-1 4.3-2.1s2.7-2 2.9-2 7.9 4.4 17 10m-35.6-6.4c3.1 1.3 4 2 3.7 3.7q-.2 2.3-2.3 1.8c-2.4-.4-9.4-5-9.4-6.3s3.5-1 8 .8m-13.1 4q.3.4-.6 1.5c-1.3 1.3-5.7-.7-4.8-2.2.5-1 4.2-.4 5.4.7m32.4 2.8c6.1 2.3 13 4.9 15.2 5.6s7.3 2.7 11.5 4.5c19.4 8.4 47.9 20.3 73 30.5 32.7 13.4 31.4 12.7 30 14.4-1 1 2.4 5.3 15.2 19.2 9 9.8 22.3 24.6 29.7 32.9l21 23c4.1 4.3 11 12 15.1 16.8 8.5 10 12.6 14.8 29.4 34.1 23.2 26.6 25.4 29.4 24.9 31.5-.3 1.2-1 2-1.3 2-.5 0-8.4-8.8-17.7-19.7l-29.2-33.7-53.8-61.1-23-26.1c-7.8-8.9-14.4-17-14.7-18q-.5-2-9.5-5.3c-4.7-1.8-23.8-9.2-42.1-16.5l-60.3-23.6c-24.2-9.4-26.7-10.5-26.7-12.6q.1-2.1 1-2.3c.6 0 6.1 2 12.3 4.4m-26.6.7a8 8 0 0 1 2.3 5.3c0 2.6-2.7 5.8-17.9 21.5l-17.8 18.5-2.7-3.7c-1.6-2-2.7-4-2.5-4.6s6-7 12.9-14.3a647 647 0 0 0 22.7-24.9c.4 0 1.6 1 3 2.2m34.3 9.5c18.3 7 92 36 110 43.2 4.4 1.8 4.4 1.8 4.1 6.2 0 2.4-.4 4.5-.6 4.7-1 1-28.8-9-69.5-25.2a3669 3669 0 0 0-69.3-27l-4.7-1.8v-9.8l3.7.6c2 .3 13.9 4.5 26.3 9.1m-24.3 4.8q.2.4-1.2 1.9c-1.2 1.2-2.2 1.3-5 .4q-5.4-1.5-2.4-4.5c.9-.8 2-.8 4.7.4 2 .8 3.7 1.6 3.9 1.8m9.3 3.2c3.5 1.5 9.7 3.8 13.8 5.3 4 1.4 7.3 3 7.4 3.6 0 .6-1.7 2.2-3.8 3.7-4.3 3-6.4 3-13 .3l-3.7-1.5 4.2-3c4.3-3.3 5.7-5.3 1.6-2.6-1.5.8-3.7 2.3-5.2 3.3-2.3 1.5-3 1.5-9.5-.7l-7-2.2 3.9-4.4a28 28 0 0 1 4.3-4.3c.3-.1 3.5 1.1 7 2.5m-15.3 1.3q1.2.6-4.5 7c-5.2 5.5-6 6.2-8.5 5.5-1.5-.3-2.7-1.1-2.7-1.7q-.1-.7-1.8.4-2.3 2-.3-.4c.6-1 1.7-1.5 2-1.2.5.3 2.8-2.2 5.2-5.4 4.5-6.1 5.9-6.7 10.6-4.2m13 11.6 23.7 8.5a3857 3857 0 0 1 66.3 23.7c7 2.6 10 5 4.5 3.6a2584 2584 0 0 1-109-39.1c-.6-1.8.7-1.6 14.4 3.3m32-1.5c2.3 1 4.3 2 4.3 2.4 0 .2-2.1 1.9-4.6 3.6l-4.5 3.1-5-1.8c-2.8-1-4.9-2-4.8-2.5.5-1 8.2-6.6 9.4-6.7.5 0 2.8.8 5.2 1.9m769.3 5.6 2.4 2.4v234.1l-2.7 2.4q-5.7 4.8-3.5-.2c1.2-2.3 1.3-18.4.6-96.3-.4-51.5-.5-102.3-.2-113.2.4-12.7.3-19.8-.4-20.2-.5-.3-12.4 3.8-26.3 9.3-21 8.2-25.5 10.3-25.8 12-.6 4.5-2.1 1.7-2.1-4.2 0-4.4.5-6.9 1.8-8.5 2.2-2.8 48.7-21.4 51.7-20.6 1 .3 3.1 1.7 4.5 3m-834.8-.7c-1 2.9-8.3 10.2-9.3 9.5q-2-1.3 5-7.8c4.7-4.2 5.2-4.4 4.3-1.7m75.4-.7c1.8.6 3.4 1.5 3.4 1.8 0 1-8 6-9.4 6l-4-1.4-3-1.2 4.4-3.1c5.3-3.8 4.5-3.7 8.6-2.1m-67.9.6c1 .6-.6 5.7-6.2 20.7-4 11-7.9 19.9-8.5 19.9l-2-.3c-2.7-.4.4-11.6 10.1-35.9 2-5.1 3.7-6.3 6.6-4.4m80.7 4.4 2.7 1.4-3.5 2.7c-4 3-6.6 3.2-12.2.8l-4-1.8 3.2-1.6c1.6-1 3.6-2.3 4.3-3.1q1.9-2.3 9.5 1.6M437 172l3.4 1.4-4.2 2.6c-4.1 2.5-4.7 2.6-9 1.4-5.3-1.5-6-2-4-3.1 1-.5 2.8-1.8 4-3 2.6-2 3.5-2 9.8.7m-106.3 9.9c-3.3 9.6-3.4 9.8-4 6.3a10 10 0 0 1 .9-6.8 15 15 0 0 0 1.6-4c0-1.2 4.1-6.3 4.7-5.8 0 .2-1.3 4.8-3.2 10.3m116.2-6.1 3.6 1.5-3.6 2.5c-4 2.8-6.4 3-10.2 1.3-3.2-1.5-3.2-1.9.7-4.5 4-2.7 4.8-2.7 9.5-.8m719.4 111.2c.2 82.5 0 111.6-.8 114-.7 1.7-2.3 3.8-3.7 4.8-2.9 1.8-24.4 6.2-35.6 7-12 1-11.5 2.9-11.9-36.1a743 743 0 0 1 .2-32.4c.3 0 1.7.4 3 1.1l2.7 1.2v28.9l2.2-.6 8.8-1.6 17.7-3.2 11.3-2v-86.4c0-47.5-.4-86.5-.8-86.5s-6.2 2-12.8 4.1l-12 4-8.2-3.1c-11.6-4.5-11.2-5.6 3-10.8 6.2-2.2 16.5-6 22.8-8.6 6.2-2.3 12-4.4 12.6-4.4 1-.1 1.4 24.8 1.5 110.6M456.8 179.4c1.8.7 3.4 1.5 3.4 2s-1.7 1.8-3.7 3.2c-3.4 2.3-3.7 2.3-8 .9-2.3-.9-4.3-1.8-4.3-2.2 0-.8 7-5 8.4-5.1.5 0 2.4.5 4.2 1.2m14.4 5.6 7.1 2.9-3.4 2.7c-3.6 2.7-5.3 3-7.6 1.7q-1.6-.7 2-3c1.9-1.1 3-2 2.5-2s-2.4.8-4.1 2c-3.2 1.8-3.5 1.8-8 .1-2.5-.8-4.5-1.9-4.5-2.2 0-.8 6.3-5 7.6-5 .7 0 4.4 1.3 8.4 2.8m53 10.7c0 .6 3.3 4.4 7.5 8.5a39 39 0 0 1 7.5 9q0 1.3-3.1-1.6a408 408 0 0 1-24-27c0-1 12 10 12 11m-37.6-5c3 1.3 3.5 1.9 2.5 3a8 8 0 0 1-3.2 2c-1.2.4-4.3 2.4-7.2 4.4-4.8 3.5-5 3.6-2.3 3.9 1.6.2 2.8.8 2.8 1.6 0 1-14.7 35.3-15.5 36.4q-.3.1-2-.4c-2.8-1.1-1.7-6.7 4-20.6 3.2-7.3 6.2-13.9 6.7-14.6 2-2.5 0-2.2-3.6.6-2 1.6-5 3.5-6.7 4.2-3 1.3-3.3 1.2-5-1.1-1.9-2.4-1.9-2.4 1.1-5a218 218 0 0 1 23.6-15.9c.6 0 2.7.7 4.8 1.5m31.8 12.5c2.6 3 4.8 5.7 4.8 6.1s-1.4 1.2-3 2c-1.8.6-3 1.3-2.7 1.5.3.3 1.9-.2 3.6-1.1 3-1.6 3.1-1.5 6.1 1.3 3.6 3.7 3.7 4.7.2 6.7q-2.3 1.4-.8 1c5.3-2 6.1-1.7 8.9 1.9l2.7 3.5-3.8 1.9c-2 1.1-5.4 2.6-7.4 3.5l-3.7 1.5-6.7-7.7-6.5-7.6 2.1-1.8q2-1.6 1.4-1.7a6 6 0 0 0-2.4 1.4c-1.3 1.2-2 1-5-2.7-2-2.3-3-4.3-2.4-4.4.5-.2 1.9-1 3-2 1.6-1.3 1.5-1.3-1.2 0-3 1.5-3.3 1.5-5.6-1-5.6-6.3-5.6-6-.4-8.4 3.7-1.7 4.7-2.6 5.2-5.1l.7-3.2 4 4.5zm-21.8-9.1c1.7.6 1.6.8-1 2.2l-8 4.3-5 2.7 5.6-5c3-2.8 5.7-5 6-5zm623 8.2c4.2 1.7 7.9 2.7 8.5 2.4 1.3-.8 9.5 1.3 14.8 3.8 2.5 1.1 5 3.1 5.8 4.7 2.4 4.6 1.6 5.7-1 1.7-3-4.3-4.4-5.1-12.6-7.9-5.3-1.7-6.3-1.7-8.7-.4a16.3 16.3 0 0 0-6.8 23.3 19 19 0 0 1 2 4.3c-1.6 0-23.7-11.4-25.4-13-4.2-4.7-1.6-12.3 6.7-18.6 2.5-1.9 5.6-3.5 7-3.5 1.3 0 5.7 1.5 9.8 3.2m37.2 162.5c-.6.6-30.5 6.3-32.6 6.3-2 0-2-.6-2-11.4 0-6.4.3-11.5.8-11.5s2.6.6 4.7 1.6c9.4 3.9 17.6.8 22-8.2 2.4-4.8 2.6-6.3 2.3-13.4-.3-7.4-.6-8.2-3.4-11-2.2-2.2-6-4-13.5-6.4q-10.6-3.4-8.5-4l13.5-3.1c6.3-1.5 12.1-3 13-3.5 2.7-1.6-.5-1.2-14.5 2l-14.6 3.2q-1.4.5-1.7-5v-5.2l4.3 1.4c13.6 4.9 24.2-2.5 25.4-17.7 1-13-2-17-15.4-21.2-5-1.5-9.3-3-9.7-3.4s5.8-2.4 13.7-4.5c8-2.1 14.3-4.2 14-4.7a69 69 0 0 0-15.5 3.2c-8.3 2-15.4 3.9-16 3.9s-1-3.4-1-7.5v-7.3l6.2 2.5c13.6 5.5 23.8-1.7 23.9-17 0-8.2-2.2-13-7.3-15.8l-4.2-2.3 8-2.6 8-2.7.2 82.5zm-663-163c.6 1.6-7.2 6.8-8.6 5.9-1.8-1.1-1.2-2.2 2.7-4.9 3.9-2.6 5.4-2.8 6-1m4.8 5.3 2.9 3-3.6 1.6c-2.1.9-3.7 1.7-3.7 2s1.6-.2 3.7-1c3.5-1.6 3.7-1.5 6.4 1 1.6 1.6 2.9 3.2 2.9 3.6s-2.1 2-4.7 3.5l-4.6 2.7-2.1-2.7-5.4-6.5a16 16 0 0 1-3.2-4.8c0-.8 6.7-5.1 8-5.3.3 0 1.9 1.3 3.4 3m-10.4 7.3c3 4 8.6 11 12.5 15.7l22 27c13.8 17.2 14.7 18.4 12.9 19.7-1 .8-2.3 1.3-2.9 1a475 475 0 0 1-19.8-24.2c-31.8-40.6-33-42.2-32.3-44.4q.7-1.8 1.4-2c.3 0 3.1 3.3 6.2 7.2m649.4-4.1q12.5 5.9 10.2 18.3c-.9 4.1-5.5 9-9.3 9.9-5.9 1.1-14.5-4-17.9-10.4-3.4-6.6-.5-16.5 5.6-19.6 2.8-1.5 5.3-1 11.4 1.8m-648.9 15.4 32.7 41.8a51 51 0 0 1 8 11.7c-2 1.6-7.4 3.3-8.1 2.3-.8-1.2-21.8-28.8-35.3-46.3a84 84 0 0 1-9.8-14.3c0-2.3 2.1-6.8 3-6.5.5.2 4.8 5.2 9.5 11.3m64.3 2.7a66 66 0 0 1 11.3 13.1 204 204 0 0 1-24.1-25.9q0-.7.2-.3zm816.8-11.2c7.4 1.4 7.3 1.2 7.3 16.1l.1 10.8-3.3-1c-6.6-1.9-25.8-1-32 1.5-1.7.7-1.7-.2-1.7-11.8 0-7.3.3-12.7 1-13.1a71 71 0 0 1 17.9-3.4c2.4-.1 7.2.3 10.7 1M512 223c1.7 2.2 2.7 4.2 2.3 4.6-.2.4-2.6 1.5-5 2.7l-4.5 1.9-2.7-3.3a14 14 0 0 1-2.9-4.3c0-1 7.1-5.2 9-5.4.3 0 2 1.7 3.8 3.8m33 10.3c2.9 3.3 5.2 6.4 5.2 6.8s-1.7 1.2-3.7 2c-1.9.6-3.3 1.5-3 1.7.3.3 2.2-.2 4.2-1 3.6-1.6 3.9-1.6 6 .5 1.4 1.3 2.5 2.8 2.5 3.4s-3.5 2.9-7.7 4.9l-7.7 3.6-2.3-2.2c-3-2.7-3-4.3 0-6.4 2-1.6 1.5-1.6-2.7.1q-1.6.5-6.5-5.7l-5-6.3 6.6-3.7c3.7-2 7.3-3.8 7.8-3.8.7 0 3.5 2.7 6.3 6.1m-24.8.9c0 .5-1.3 1.6-2.8 2.4q-2.4 1.3-1.7 1.6c.5 0 2-.7 3.2-1.6 2.1-1.5 2.5-1.4 5.3 1.5 1.7 1.7 2.8 3.5 2.5 4s-2.6 1.7-5.1 2.6l-4.6 1.8-2.6-2.6c-2.2-2.1-2.3-2.9-1.4-4.1q1.6-1.6-.6-1-1.8.5-4-2.5l-2.2-3 4.7-2.6 4.8-2.4 2.2 2.4c1.2 1.5 2.3 3 2.3 3.5m597.4 1c2.5.9 2.6 1.3 2.6 9.4v8.4l-2.8-.7c-2.7-.8-2.8-.9-3-9.5a43 43 0 0 1 .1-8.6c.3 0 1.7.4 3 1m219.6 10.9c0 2.2.4 4.3 1 4.5.5.4 1 2.1 1 3.9v3.2h-8.3c-4.6 0-10.4.3-13 .7l-4.7.7v-5.8q0-6 1.4-7.1c2.6-2.1 9.8-4 16.3-4h6.3zm-806.7.5 2.6 3.4-4.5 2.6-4.5 2.5-3-3.2a18 18 0 0 1-2.9-3.7 57 57 0 0 1 9.6-5zM579 257q1.3 4-7.2-5.6l-6-6.8 6.5 5.7c3.5 3 6.5 6 6.7 6.7m789 8.9.3 20.3h-14.9l-.4-19.7c-.2-10.9 0-20.1.1-20.6.2-.5 3.5-.7 7.5-.5l7.2.3zm8.3-19c.6.6-2.3 2.2-4.3 2.2q-1.6 0-1.7-2c0-1.7.4-1.9 2.7-1.3 1.5.4 3 .8 3.3 1m-26 1.4c0 1.7-.5 2-2.3 1.5a27 27 0 0 0-5.3-.7c-2.8-.2-2.8-.2 1-1.5 5.7-1.8 6.6-1.7 6.6.7M563 254.9c0 .4-3.8 2.4-8.5 4.4l-8.4 3.7-2-2.5a11 11 0 0 1-2-3.8c0-.6 3.5-2.8 7.7-4.7l7.8-3.6 2.7 3c1.6 1.5 2.7 3.2 2.7 3.5m-24 2.3c2.8 3.4 5 6.4 5 6.8 0 .8-8.8 5.6-9.4 5a86 86 0 0 1-9.5-12.8c0-.9 6.5-4.9 8-5 .5 0 3 2.7 5.9 6m723.8-4.5c1.3.9 2.7 3.2 3.2 5.3s1.3 20.8 1.7 41.8c.6 37.9.6 38-1.6 42.7a20 20 0 0 1-4.6 6.1 469 469 0 0 1-64 12.5c-4.7 0-9-2.3-9.8-5.1a908 908 0 0 1-1.3-40c-.6-37.4-.6-37.6 1.6-41 4.5-7.5 9-10.4 19.7-13 5.4-1 18-4 27.9-6.4 19.9-4.7 24-5.1 27.2-2.9m85 .4c2.2 0 2.3.4 2.3 10s-.1 10-2.3 10c-6.6 0-6.7-.3-6.7-11.1 0-10 0-10 2.2-9.4 1.2.2 3.2.5 4.5.5m-219.3 4.5c5 1.5 11 3.5 13.3 4.6 4.8 2 8.3 7 8.3 11.5l-.1 3-1.4-3c-2.2-5-5.7-7.3-20.2-13.1-7.6-3.1-14-5.9-14.3-6.1-1-1 5.2.3 14.4 3.1m-11 1.2 9.3 3.7-3.5 3c-6.6 5.8-8 13.8-4 22l2.5 4.6-3.7-1.6c-2-.9-6.4-2.7-10-4-9-3.4-11.8-5.3-13.7-9-2.8-6.2.2-13.9 7.7-19.3 2.3-1.6 4.7-3 5.2-3s5.1 1.6 10.3 3.6m-548 5.7c-.9.4-5 2-9.3 3.3l-7.6 2.3-2.8-2.7c-1.6-1.4-2.4-3-2-3.4a66 66 0 0 1 8.8-4.3l8-3.3 3.4 3.5c3 3.2 3.2 3.6 1.6 4.6m765.6 1.3v5.6l-6.2-.6-8.5-.6c-2.2 0-2.3-.4-2.3-5v-5h17zm-197.6.8c6.6 2.9 9.5 7 9.5 13.4.1 4.8-1 7.4-4.8 11.4q-5 5.5-13 2.2c-11.2-4.5-14.1-18-5.4-26.2 4-3.9 6.4-4 13.7-.8m-558.1 6.1a64 64 0 0 1 6.7 8.4c0 1.3-16.8 7.4-18.5 6.7-2.5-1-3-3.5-.9-6l1.8-2.1-2.2 1.9c-1.8 1.5-2.4 1.6-3.8.6-2.2-2-1.8-2.8 2-4 1.8-.6 4.6-2.2 6.2-3.6 1.5-1.3 3.2-2.4 3.6-2.4q.7 0 .8-1c0-1.2-3.3-.6-3.8.8-.6 1.7-1.6 1.5-4.8-1l-2.6-2.2 3.3-1.8c1.8-1 3.8-1.8 4.5-1.8.5 0 4 3.4 7.7 7.5m19 6.6q.4 1.6.2 1.8s-3.5-3.6-7.6-8.2l-7.4-8.3 7.1 6.4c4 3.6 7.4 7.3 7.6 8.3m-51.2-11.5c2.7 2.5 2.4 3-2.8 5.3-4.8 2.2-5.8 2-7.4-1-.9-1.5-.5-2.1 2.8-3.8 4.6-2.5 5.1-2.5 7.4-.5m729.9 8.2v7.8l-3-.4-3-.5v-14.7h6zm31-4.4c11.9 1.3 24.9 2.8 29.2 3.1l7.8.7v15.8l-4.8-.5-30.7-3.1a569 569 0 0 1-27.3-3q-1.2-.2-1.2-7.9v-7.6h2.9c1.5 0 12.4 1.2 24.1 2.5m-744.2.8 3.4 2.2-10.4 3.6a466 466 0 0 0-21.1 8.4c-6 2.6-11.2 4.5-11.5 4.2-.2-.2-.5-1.9-.6-3.6-.1-3 .3-3.3 6.8-6.2a313 313 0 0 1 28.4-10.8c.8 0 3 1 5 2.2m787.2 7.8c0 3.3-.4 4-2 4s-2-.7-2-4c0-3.4.3-4 2-4s2 .6 2 4m-797.4 6.3c-1.3 2.8-4.6 9.1-7.4 13.9a224 224 0 0 0-8.3 16.2q-5.9 13.4-7.4 3.3c-.5-4 0-5.4 7.7-20.2 7.6-14.5 8.8-16.1 11.8-17.2 5.9-2 6.1-1.8 3.6 4m15.9 7.5c5.1 6.5 11.8 14.6 14.7 18.2a683 683 0 0 1 29.8 39c.7 1.4.4 1.8-1.7 2.2-2.2.5-3.6-1-12.4-12l-18.9-23.7c-25.1-31.3-25.1-31.2-23.6-35 .8-2.3 1.7-1.5 12 11.3m21.2-8.6c3.8 4.1 3.3 4.8-6.7 8.3l-9.6 3.4-2.6-3.2a20 20 0 0 1-2.8-3.7c-.1-.6 16.8-6.9 18.6-7 .5 0 2 1 3.1 2.2m758.7.4c1.2.5 1.5 2.3 1.5 9.7v9.1l-1.9-4.4c-1.7-4-2.9-15-1.6-15q.5 0 2 .6m-809 5.4-4.4 8.2-2 3.2v-13.2l3.7-1.5c5.5-2.2 5.5-2.2 2.7 3.3m67.5-1.4c2.2 2 4 4.4 4 5.1q0 3-6-5-5.9-7.1 2-.1m668.5-1.7c1 1.8-1.3 6-3.4 6-1.7 0-2-.6-2-3.5 0-3 .3-3.5 2.4-3.5 1.3 0 2.6.5 3 1m91.8 14.4c.2 8.3.3 15.5 0 16-.2.3-3.7.6-7.8.6h-7.4v-15.4c0-17.5-.9-16.1 9.5-16.4l5.2-.2zM556 294.4c-1.8.8-3.4 1.5-3.6 1.3-.1-.2.4-2 1.4-4.2l1.6-3.8 1.8 2.5 2 2.4zm750-4.1 10.3 1.1v40.7c0 50 .9 84.3 2.2 83.4.7-.4.8-22.3.3-62.4l-.7-61.8 7.8.6c4.4.3 8 .7 8.4 1 .2.2.4 4.8.5 10.1l.4 61.6.4 52-7 .4c-3.8.1-9.7 0-13.1-.4l-6.2-.6v-15.8c0-9.6-.5-16.1-1-16.5-1-.6-1.8 15.3-1.1 18.9.2.9-5 .5-23.7-1.6L1273 400l.3-10.1.3-10.1 17.7-3.5 17.7-3.6v-12.5l.1-12.7-3.3-.7c-1.7-.3-6.9-.8-11.3-1.1-9-.5-6.8.6 5 2.6l7 1.1.2 6.6.1 6.5-3.1-.5-16.1-2.2c-7.2-1-13.7-2-14.5-2.5-1.8-.8-2.7-13.9-1.3-19.2l.8-3.3 16.5-3.2 17.2-3.3c.4 0 .8 2 .8 4.4s.4 4.5 1 4.5 1-7 1-19.3v-19.3l-15.6-1.9c-13.5-1.5-15.4-2-14.9-3.3l1.3-3.5c.5-2.1 4-2 25.9.5m72.8-1c3.5 1.3 2.1 2.9-3.5 3.8-4 .8-4 .8-4-2 0-2.5.4-3 2.4-3 1.3 0 3.7.5 5.1 1.1m-846.5 10c0 6.1-.5 8.9-2.1 12-1.8 3.4-2 5.2-1.5 9.5.7 5.4.7 5.4 4.1 5.4q3.5 0 4.2-1.7c.8-1.9 2.1 229.7 1.3 235l-.3 2.8-2.3-2.1c-3.3-3-6.7-2.3-8 1.7-.6 1.7-1.3 3.4-1.6 3.8s-.9-42.6-1.2-95.2c-.4-52.7-.8-114-1.1-136.4l-.4-40.5 3.1-1c5.8-2 5.8-2 5.8 6.6m67-4c.6 1 .8 2.4.4 3q-.6 1 .2.6c1.4-1 6 3 4.8 4.1-.5.5-4.7 2.2-9.4 3.7-4.8 1.6-7.8 3-6.9 3.2s5.4-1 10-2.8l8.2-3.2 3.5 3.8 3.5 3.8-6 1.8-10.5 3.3-4.7 1.4-5.2-6-5.1-5.8 5.3-2.6c5.3-2.5 3.3-2.4-2.8 0-2.8 1.2-3.4 1.1-5.2-.8-3.7-4-3.1-4.6 6.4-8.2 9.4-3.4 11.4-3.3 13.5.6m518.4-2.2c2.4 1 2.6 1.5 2.6 7 0 3.4-.4 6-.8 6s-1.7-.2-3-.6c-2-.5-2.2-1.1-2.2-7 0-3.5.1-6.3.4-6.3.2 0 1.6.4 3 1m230.7 11.5c3.2 13 3.4 15.2 1.3 16-3.4 1.3-3.7.6-8.9-18.2l-2.5-9.4 3.8.4 3.6.3zm-785.2-6.4 2.1 3-3.7 1.5c-7.3 3.2-12.7 4.5-13.7 3.5-1.7-1.7 1.9-7.8 5.6-9.5 5.1-2.1 7.4-1.9 9.7 1.5m729.8 2 12.3 1.3v10.9c0 5.9-.1 11.1-.3 11.5-.2.7-17.5 4.3-28.5 5.9l-4.2.7v-32.6l4.2.6zm-668.8 8c3 3 6.1 6.8 6.8 8.4 1 2.6.6 2.3-3.5-2-13-13.8-15.3-18.2-3.3-6.4m-55-1.8c3.5 4.7 3.7 5.7 1.3 5.6-1 0-4.4.7-7.7 1.7l-5.9 1.6-3.3-3.4-3.4-3.3 7.8-3.1 8-3.2c.2 0 1.6 1.8 3.2 4m772.5 7.2c2.3 8 2.4 9.1 1 10.6-3.1 3.5-1.1 6.6 5 7.7l3.6.6V390l-3 .6c-4.5 1-5.5 2.8-4.4 8.8.7 4.4 1.3 5.2 3.4 5.8s1.7.8-2.4 1.4c-2.6.4-5 .5-5.4.1-.4-.3-.9-23.8-1-51.9-.2-28-.2-51 0-50.6s1.8 4.4 3.2 9.4M551 311.8l4.2 4.7v37.3l-6.3-.4c-3.4-.2-6.8-.6-7.5-.8-1-.2-1.2-4.6-1.2-17.4 0-16.5 0-17.1 2.6-22.6 1.5-3 3-5.5 3.4-5.5s2.4 2.1 4.8 4.7m566.7.2 8.3 3.8c.2.2-1.3 1.7-3.3 3.4-5.7 5-7 14.2-3.2 22 .8 1.6 1.2 3 1 3-2.2 0-21.4-10.7-23.6-13-5.1-5.6-2.6-16.6 5.2-21.8 3.9-2.6 4-2.6 15.6 2.6m4.3-3.2c10.2 2.3 22 7 25 10 2.9 2.9 3.2 3.7 3 9.6v6.2l-1.3-4.7c-1.7-6.3-5.4-10-12.7-12.7-5.6-2-22.8-11-18.5-9.6zm-546.2 5.7c5 5.6 5 5.3-3 8l-7.6 2.5-3.5-4.2-3.5-4.2 3.2-.8 7.2-2.2c5.3-1.7 4.9-1.8 7.2.9m36.4 7.9c-11.9 3.9-13.8 4-16.7.2l-2.5-3.2 10.4-3.5 10.3-3.5 3.2 3.6 3.3 3.6zm525.9-2c11.9 5.8 12.3 21.5.8 27.1-3.1 1.5-4.3 1.6-7.2.7a19 19 0 0 1-11.2-9.7c-3-7-.8-15.9 4.8-19.3 3.7-2.3 5.7-2 12.8 1.3m-570 22.8c0 10.7-.1 12.1-1.6 11.5-.8-.2-3.3-.5-5.4-.5h-3.9v-36l5.4 6.4 5.6 6.5zm16-19c1.3 1.7 2.1 3.2 2 3.4l-7.3 2.6-6.8 2.2-2.4-2.3c-1.4-1.3-2.3-2.8-2.1-3.3a52 52 0 0 1 13.8-5.6c.4 0 1.7 1.4 2.9 3m40.5 0c1.5 1.8 2.5 3.3 2.3 3.5 0 .2-5.1 1.9-11 3.8l-10.8 3.4-2.7-3.4c-2.2-2.9-2.3-3.6-1.2-4.4.8-.5 2.2-1 3-1 .9 0 4.7-1 8.5-2.3l8.1-2.6c.7 0 2.4 1.4 3.8 3m18.5 5.6c2.2 2.6 3.7 5 3.4 5.6s-1 .6-1.3.1l-6.6-7.8c-4.6-5.3-5.2-6.5-2.7-4.7 1.7 1.2 5 4.3 7.2 6.8m730.6-7.2q5.4 2.3 2.3 4.1c-1.7 1-30.9 1.2-31.6.1-2.5-4.2 21.2-7.6 29.3-4.2M590 332l2 2.7-7 2.2c-7.6 2.3-8.8 2.1-11-1.8-.7-1.5 0-2 5.4-3.7 8-2.7 8.3-2.6 10.6.6m41.6.6c1.3 1.7 2.2 3.5 1.8 3.9s-5.4 2-11.2 3.7l-10.5 3-2.9-3c-1.5-1.7-2.6-3.4-2.4-3.5.6-.6 20-7.3 21.5-7.4.5 0 2.3 1.4 3.7 3.3m733.7-2.7 3.6.6.7 33.1c.4 18.3.8 36.7 1.1 41 .4 7.6-.2 9-2.5 6.2-2-2.3-7.4-3-11-1.1l-3 1.6V379c-.1-17.7-.2-36.2-.4-41l-.3-8.8 4 .1c2.3 0 5.8.3 7.8.6m-782.5 17.7a62 62 0 0 1 7.2 9.2 59 59 0 0 1-8.9-.5c-4.7-.6-9-1-9.7-1-1 0-1.2-2.8-1.2-10.7v-10.7l2.5 2.5c1.5 1.3 6 6.3 10.1 11.2m12.8-8.8c1 1.5 1.6 2.7 1.4 2.8a63 63 0 0 1-14.8 3.1 7 7 0 0 1-2-2.4c-1-1.6-.3-2.1 4.7-3.8 7.6-2.7 8.7-2.7 10.7.3m44 2.6c1.5 1.7 2.3 3.5 1.9 4-.5.4-5.3 2-10.9 3.3l-11.6 3.2q-1.6.3-4.2-3.5l-2.6-4 5.8-1.7c3.1-.8 7.7-2.1 10.2-3 6.8-2 8.5-1.7 11.4 1.7m11.4-1.2q1.9.8-.8 2-3.9 2.1-2.4-1.3c.6-1.9 1.2-2 3.2-.7m-51.7 4.7c1 .9 1.9 2 1.9 2.3 0 .4-2.8 1.5-6.1 2.6-6 1.8-6 1.8-8.2-.3-1.1-1.2-1.9-2.4-1.6-2.7.4-.3 9.8-3.2 11.8-3.5.2 0 1.2.7 2.2 1.6m584.7 6.6c-.3 5-.5 5.2-3 5.6-2.8.3-2.8.1-2.8-4.7 0-5.2-.1-5 5.3-6 .4 0 .7 2.3.5 5.1m-578.8 0c1 1.2 1.9 2.6 1.9 3 0 .2-3 1.1-6.6 1.7-5.8 1-6.8 1-8.4-.5-1-1-2-2-2-2.4 0-.8 8.7-3.8 11.4-3.9 1 0 2.7.9 3.7 2.1m-47.7 4.8c26.2 2.2 36.7 3.3 36 4a45 45 0 0 1-6.3 2c-5.3 1.2-40.8 10.5-44.2 11.5-1.3.5-1.7-.8-2.2-7.4-.4-4.3-.4-8.6 0-9.6.7-1.9.9-1.9 16.7-.5m793.7 42c0 4.7-.2 5.1-2.3 4.8-1.7-.3-2.4-1.1-2.6-3.7-.4-4.5.3-6.2 2.8-6.2 1.8 0 2.1.7 2.1 5.2M953.7 402c.5.4 1.8 1.7 2.8 3l2 2.1H816.2l.7-2.2.9-2.3 51.9-.4 67.4-.8c8.5 0 15.9.1 16.5.6m-138.1 2.5-.8 2.3-137 .9-136.6.7v-6.2h275zm-2.3 7.9-1 2.4-94.7.7c-52.1.4-113.2.7-135.6.7h-40.8v-7l136.2-.3c75-.2 136.4 0 136.6.4a9 9 0 0 1-.7 3m148.6-1.4c1.2 1.7 2.3 3.4 2.3 3.6s-33.8.5-75 .5-75 0-75-.3.4-1.7 1-3.2l1-3 71.7-.2 71.8-.4zm389 2.8c-.4.3-3 .8-6.2 1l-5.5.6v-3c0-3 0-3 5.7-3.5 5.3-.3 5.7 0 6.1 2.1.2 1.3.1 2.6-.2 2.8m18.9 2.3c2.6 2.6 13.9 12.8 24.8 22.5 27.7 24.7 31.6 28.5 31.6 31.5 0 1.9-3.3 5.6-12.8 15-32.8 32.2-45.4 44.2-47.7 45-3.8 1.5-6.3 0-16.6-9.5-5.2-5-18-16.7-28.6-26.2-10.5-9.6-19.4-18-19.8-18.9-1.9-5-1.1-6 28.7-35.4 33.7-33.3 32.2-32.3 40.4-24m-559 3.5-.6 2.6h-55.9c-30.5 0-91.1.3-134.4.6l-78.7.7v-6.3l134.7-.3c74.2-.2 135-.2 135.1 0 .2.1.1 1.4-.3 2.7m157.6-1 1.6 2.2-39 .7c-44.2.8-118.8.9-118.8.2l.9-3 1-2.5h152.8zM311 428.5l.4 4.6h-7c-4 0-7.1.5-7.1 1 0 1 5.7 2 10.7 2h3.3l-.3 46.4-.3 46.1-5.7.6-5.7.5-.5-3c-.3-1.7-1.1-25.1-2-52-1-35.9-1.1-49.3-.4-50.2q1-1.5 7.8-1l6.5.2zm498.1-3c-.4 2.1-.7 2.2-19.3 2.8-10.5.3-70.7.6-133.8.7-114.1.1-114.7.1-114.7-1.9q0-1.7.2-2.2l126.3-.7c69.2-.3 129.5-.7 133.8-.8 7.6-.2 7.8-.2 7.5 2m165.2-.6c1 1 2 2 2 2.5s-37.5.8-83.2.8c-75.3 0-83-.2-82.5-1.6q.7-1.6.7-2.5c0-.6 32.2-1 80.5-1 74.6 0 80.5.2 82.5 1.8m-681.7 6.5c.3 3.4 1 21.2 1.7 39.2.5 18.2 1.2 38.7 1.6 45.7.3 7 .2 12.8-.3 13.1s-3.6.8-7 1.2l-6.3.7v-8c0-7.5 0-8 2.2-8.5 1.3-.2.1-.4-2.5-.5-4-.1-4.7-.4-4.7-2.1 0-1.6.7-2 3.9-2 7 0 7 0 7-12.1v-11h-6c-5.7 0-6 0-6-2.5 0-2.3.3-2.4 5.1-2.3 2.8.2 5.5-.2 6-.8s1-5.2.8-11l-.3-9.9-5-.4c-3.7-.4-5.1-1-5.3-2.2-.3-1.4.6-1.7 4.5-2l4.7-.3.3-11c.4-12 .2-12.5-6-12.5-5.9 0-4.5-2.3 3-4.7 3.7-1.1 7-2.2 7.4-2.2s1 2.7 1.2 6.1m687.4.8 2.3 2.8-86.8.3c-47.7.2-86.9.3-87.2.2-.1-.2 0-1.4.3-2.8l.7-2.5 50.2-.3 84.3-.4 34-.2zm-172.8-.8a6 6 0 0 1-1 2.8c-1 1.9-6.2 2-152.7 2.3l-112.3.1V434l.1-2.7 50.2-.3c162-.8 215.7-.7 215.7.5m287 2.4c.2.3.5 27.7.6 61 0 33 .3 60.6.8 61 .7.8 1-6.2 1.1-33.2v-20l37.3-.2 37.3-.2v29c0 27.2-.2 29-1.8 28.8-1.6-.3-1.7-2.6-2-27l-.3-26.8-32.5.2-32.5.2-.2 25.6-.2 25.5h-4.3q-4.4 0-4.4-1.5c0-.9-.3-18.2-.3-38.5-.4-73-.5-83.6-1.5-83-.7.3-1 7.7-1 18.5v18h-11l-.1-11.8c0-6.5-.3-13.4-.6-15.5l-.6-3.7h-30.2a311 311 0 0 1-31-.8c-.4-.4-7.2-.6-15.1-.4l-14.4.4V432l53.1.6c29.3.3 53.5 1 53.8 1.3m-769.2 3.1c-.2 1-1.7 1.6-5.5 1.7-4.6 0-5.2-.1-5.2-2s.5-1.9 5.5-1.6c4.4.3 5.5.7 5.2 2m-39.7 7.8v9.7l-6.8-.7c-3.7-.4-8.3-1.4-10.2-2.4-3.2-1.4-3.6-2-3.9-6q-.2-4.2 1.3-6.7c1.5-2.3 3.3-2.7 15.3-3.3l4.3-.2zm519.3-4.8c-.3 1.5-1 3-1.2 3.4-.4.3-59.5 1-131.4 1.3l-130.7.7v-7.1l77.7-.3 132-.5 54.3-.3zm177.7.2q-.1 2.7-1.7 3.5c-2.6 1-175.3.7-175.3-.4 0-.5.4-2 1-3.5l.9-2.6h175.1zm-647.7 2.5c5.3 1.5 8.4 5.6 6.9 8.9-1.6 3.5-8.6 6.5-17.5 7.2l-7.7.7v-9c0-4.9.2-9.2.5-9.5a63 63 0 0 1 17.8 1.7m680 7.3c.3 5.4.6 15.5.6 22.6l.1 12.6h-25.7l-.7-12.6c-.4-7-.6-17.2-.6-22.6v-9.7h25.7zm29.7 6.8c0 11.3-.3 14.5-1.3 14.2-.8-.3-1.3-3.7-1.5-11.6l-.3-11.1H1019l.4 11.5c.4 8.3.2 11.4-.6 11.1q-1-.4-1.4-14.4l-.3-14.2h27.1zm18.7.2.3 14.2h-17v-29l8.2.3 8.2.2zm14 0 .3 14.4-6.3-.4-6.3-.3-.3-14.2-.2-14.3 6.2.3 6.3.2zm-274.7-10.3c0 .8-.5 2.6-1 4l-1 2.5h-259v-6.9l122.2-.3c67.2-.1 126-.3 130.5-.5 6.6-.2 8.3 0 8.3 1.2m180 2v3.3l-7.7.7c-4.3.2-16 .5-26.2.5-16.6 0-18.7-.2-21.7-1.9-3.1-2-3.1-2-5 0-1.7 2-3.2 2-60.6 2-32.4 0-58.8-.3-58.8-.6l1.4-4 1.4-3.5h177.2zm57 12-.2 10.5h-17.8v-20.9h18.5zm-108 .7 2.8 3.3 3.4-3.2c1.8-1.8 3.7-3 4-2.6.5.4.8 2.6.8 5 0 4.7.3 5 4.5 3.3 3.5-1.2 4.4 0 4.4 5.5 0 2.9.5 3.9 2.1 4.2 1 .3 2 1.3 2 2.1 0 1.5 1.2 1.5 5.2-.3 1.5-.5 1.8-.1 1.8 2.5 0 1.7-1 4.9-2 7-2.8 5.5-2.7 7.3.3 6.5 2.1-.5 2.5-.2 2.8 2.2.3 2.2.9 2.8 2.9 2.9 8.5.4 8.1 0 7.8 4.7-.3 3.7 0 4.3 2.4 5.7 2.8 1.5 2.9 1.5 5-1.5 1.2-1.6 3.7-4.4 5.7-6.1 4-3.8 5-3 5 3 0 4 0 4 3.5 3.2q3.4-.5 3.8.7.5 1.3 4.6 1l4.2-.4-1.6 4.2c-.7 2.3-2.4 5.4-3.5 7-3 4.2-1.8 5.3 4.7 4.5 5.7-.7 6-.4 4 3.4-.8 1.4-1.2 3.2-.9 4 .4.8-.6 2.3-2.2 3.6-3.5 2.8-2.8 5.5 1.4 5.5 3.1 0 6.4 2.4 5.8 4.4-.2.5-1.6 1.7-3 2.3-2.3 1.2-2.6 1.7-2 4.5.5 2.8.4 3-1.6 2.5-3-.8-3.5.7-1.1 2.8 1.7 1.6 2.3 1.6 4.3.5 2.8-1.4 6.7 0 6.7 2.5q.2 1.4 2 1.4 1.8.1 2 1.8c0 1 .9 2.9 1.9 4.2 1.5 2.1 2.2 2.3 3.2 1.4 1.8-1.9 2.5-1.7 3.2.7.5 1.8 1 2 4 1.4l3.4-.6.7 4.6c.4 2.4 1 4.8 1.6 5q.8.8.3 2-.4 1.5.6 1.5c.6 0 .2 1.7-.9 4.3-1 2.4-2.2 5-2.5 6q-.5 1.8-3.9 1.7c-2.8 0-3.5.5-4 2.6-.6 2-1.1 2.4-3.1 1.9q-2.5-.7-2.5.6t-2-.5q-2-1.5-4-1c-1.6.4-2.3 0-3-2-.5-1.4-1.8-2.5-2.7-2.5s-2.8-1-4-2.1c-2-2-2.6-2.1-5.4-.9s-3.3 1-4.1-.4c-.5-1-1.6-1.7-2.4-1.7q-1.4.1-1.4-3.4c0-3.3 0-3.4 3.3-2.9 2.8.5 3.6.1 5.1-2.2 1-1.6 2-3.4 2-4.1q0-1 .6-.8c2.7 1.6 3.6-8.9 1-12-1.1-1.2-1-1.6.3-2.1q1.5-.7 1.7-1.5c0-.8-6.3-2.9-8.8-2.9-2 0-1.4 2.7 1 5.2 1.4 1.2 3.2 3.5 4.1 5l1.7 2.8-3.1.6c-2.4.5-3 1-2.7 2.5q.5 1.8-.8 1.8-1.4.1-1.4 2.5c0 2.2-.3 2.4-4 1.8-4-.5-4-.5-4 2.8 0 3.6-2.4 7-5 7q-1.6.1-2.8 1-1 1.2-3.1-.2c-1.7-1-2.6-1-4.1 0-2 1.1-2 1-2-1.8q-.1-3-2-4-1.8-1.1-2-2.5c0-.8-.8-2.1-1.6-3-1.7-1.7-4.7-.7-7.4 2.4-1 1-3 2.1-4.7 2.4-2.7.5-3.3.2-4-1.4q-1-3.2-7.6-.5c-1.5.7-1.7.3-1.7-2.1 0-4.4-1.3-5.6-5-4.9-3 .7-3 .7-3-3.2q0-6.4-4.7-6.3c-2 0-2.3-.5-2.3-3.3q0-5.6-4.3-3.4c-1.3.6-1.8.2-2.4-1.8-.5-2.5-2.7-3.1-5.3-1.5-1.7 1.2-3-.4-3-3.6a9 9 0 0 0-1.9-4.4l-1.9-2.3-4 2.4c-2.3 1.3-4.2 3-4.2 3.6 0 1.8.5 1.8 4-1 3-2.1 3-2.1 4.5-.2.8 1 1.5 3.3 1.5 5s.4 3.7.9 4.5c.8 1.2 1.2 1.2 3.4-.3 3.4-2.2 3.7-2 3.7.9 0 2.4.1 2.5 3.5 1.9l3.6-.7-.4 4c-.3 3.7-.2 3.7 3 3.6 3-.3 3.3 0 3.4 2.4.4 8.1.8 8.9 3.7 7.4 4-2.1 5.2-1.5 5.2 2.8 0 5 1.2 5.7 5.4 3.2l3.3-2.1 1.3 3c1 2.8 4 4.2 4 2q.2-1 2.2-.8 2.4.4 5.4-3.2c3.2-3.5 5.4-3.5 5.4.1q.1 2 2 2.6c1.5.4 2 1.3 2 4.2 0 5 .8 5.6 3.6 3 2.3-2.2 2.4-2.2 4.3-.5s2.2 1.8 3.8.3c1-.8 2.3-1.3 3-1s2-.1 2.8-.8c1.2-1 2.1-.8 4.9.4 1.8 1 3.6 2.4 4 3.2.5 1.5 1 1.4 4.2-.6q5.4-3.5 5.3 2 0 1.3 2.2.7c1.6-.3 2.3.1 3.2 2.4 1 2.6 1.5 3 3.8 2.4q2.8-.6 5.2 1 2.4 1.5 3.1.7.6-.9 2-.6c1.4.6 4.6-2 4.6-3.6q.2-.9 2.9-1c3.3 0 7.1-3.8 7.1-7.4 0-3.4 2-4.8 4-2.8 1.8 1.5 2 1.4 4-.2 1.9-1.8 2-1.8 4 0 1.9 1.7 2 1.7 4.5-.6 2.4-2.2 2.5-2.3 4.5-.4 1.8 1.6 2.3 1.7 4.1.6s2.2-1 3 0c.5.8.9 2 .9 2.6 0 2.3 2.1 2.5 4.4.4l2.3-2.2 2 2.7c2 2.6 2.2 2.7 4.9 1.5 2.4-1 3-1 4 .5.8 1 2.6 1.8 4.2 1.8 2.2 0 2.7.6 3 2.8.1 1.5.8 2.8 1.3 2.8s.8 1 .5 2a6 6 0 0 0 .6 4c.8 1.3.8 2.4 0 4.3-1.2 2.7 2.7 2.3-56.8 5.3-38 1.8-44.5 1.6-48-1.6-2-2-3.1-2.2-6.8-1.8-3.3.3-4.9 0-6-1-1.4-1.4-2.2-1.5-4.8-.5s-3.5.9-5.4-.3c-2-1.4-3-1.5-5.4-.4-2.5 1-3.3.8-5.8-.9-3-2.2-11.6-2.5-16.2-.4-3.6 1.5-8.5 6.9-7.1 7.7 1.4.9 3-.1 3-2 0-.8 2.1-2.4 4.6-3.6 3.8-1.8 4.8-1.9 5.5-.7s1 1.1 2.1.2c1.9-2 5.3-1.6 8.1.6 3 2.4 4 2.5 6.7.9 1.6-1 2.3-.9 4 .6 1.7 1.6 2.5 1.7 4.6.7 3.7-1.6 5.2-1.4 6 1q.7 2 1.8 1.1c2.7-2 6.5-2.2 8.8-.3l2.3 2-3.5.5-5.9 1c-1.4.1 4 .3 12.3.4 16 .2 45.9-1 82-3.4 12.7-.8 25.4-1.4 28.4-1.4h5.3v6.7l-10.3.7-37.2 3.1c-41 3.7-67 5.5-88.3 6.1l-19.2.7v-13.2l-11.3-.3-11.2-.3-.4-3.3q-.2-3.5-2.7-4.2-2.3-.9-2.6-3.7c-.3-2.5-.7-2.8-4.1-2.7-3.2 0-3.7-.2-3.7-2q-.2-5-3.7-4.1-2.4 1 .4-1.3l2.3-2-3-2.1a12 12 0 0 0-4-2.1c-.5 0-1-1.6-1-3.6 0-3.1-.4-3.6-3-4-2.6-.6-3-1-2.4-3.1.4-2 .2-2.4-1.8-2.4-1.8 0-2.7-.7-3.6-3-1.5-4-5.3-4-8.2-.2-2 2.6-2.3 2.7-3.5 1q-2.5-3.5-5.5.4l-1.8 2.2-1.2-2.2a13 13 0 0 0-3.5-3.7c-2-1.3-2.7-1.3-6.6.2-2.5 1-5.2 2.3-6 3-2.2 1.8-2.6 1.8-3.4-1.1q-1-4.5-6.3-.5c-2.3 1.8-2.7 1.8-4.2.5-2.3-2.1-5.4-2-7.6.5l-1.8 2-2.3-2.1q-2.2-2.2-4.2-1.5-1.8.5-3.1-1a5 5 0 0 0-3.1-1.4c-2 0-2.6-1.6-.9-2.5q.9-.8 1-2.6c0-1 .6-2 1.5-2q2.6-.2.4-2.6c-1.7-1.7-.2-3.4 2.7-3.4 2.3 0 2.5-.2 1.8-3.1-.5-2.7-.4-3 1-2.4q1.8.5 2.6-.6.8-1.5 2.7.5c2.7 2.4 3 2.2 3.4-2 .3-3.3.6-3.8 2.6-3.5q2.1.3 2.3-1c0-.7 1-2.4 2-3.8q4.2-4.6 6.4 3.4c1 3.9 1.6 4.1 4.7 2.4 2-1 2.1-1 1.5 3.2l-.7 4.2 3.1-.8c3-.7 3.2-.6 2.5 2.2-1.4 6.5-1.5 6.3 5 4.8 2.7-.5 3.3-.3 3.9 1.5q.8 1.8 2 2 3 .2-.6-4.4c-1.6-2.1-2.8-2.6-5-2.3s-2.8 0-2.8-1.3c0-3-1.2-5-3-5q-2 .2-2.2-3.2c-.3-2.8-.7-3.3-2.9-3-2 0-2.9-.5-3.7-3-1.6-4.3-.7-4.7 10.8-4.7 6.9 0 10.6.4 12.9 1.5 3 1.6 3 1.9 1.6 3.4a6 6 0 0 0-1.5 3c0 1.8 3 5 4.6 5s1.6.5.7 3.8c-.3 1.2-1.3 2.3-2.3 2.3q-1.6 0-2.8 1.2c-1.7 1.6-1.5 4.8.3 4.8.7 0 1.5-.8 1.5-1.6q-.2-1.8 2.5-1c2 .5 2.5.3 2.5-1.5 0-1.3.9-3 2-4 1.8-1.5 2.5-1.6 4-.7q1.7 1 2.5.5c1-1-2.5-4.8-4.6-4.8s-8-3-8-4c0-.4 1-1.4 2-2.5 3-2.4 2.6-3.3-1.7-5.1-3.4-1.4-3.6-1.7-1.9-2.7 7.3-4.3 7.3-7.2 0-6.3-3.9.3-4.3.1-4.3-1.6q.1-2.2-2.1-1.4c-1.9.5-2 .2-1.5-2.4.7-2.8.6-3-2.8-3-3.2 0-3.6-.2-3.4-2.6.2-2.3-.2-2.8-2.7-3.3-3.5-.8-8.5-3.8-8.5-5.2 0-.4 1.5-1.8 3.4-3.1 4.1-2.6 4.3-4.4 1.6-10.6-1.2-2.5-1.9-4.7-1.6-5s2.1 0 4 .6c7 2.7 7.6 1.8 4.9-7.8-1-3.2-1.4-6.2-1-6.5.2-.3 3 1 6.2 3s6.3 3.4 7 3.1c1-.2 1.5-2 1.5-4V477l3.7 2.5c5.3 3.6 6.3 3.3 6.3-2 0-3.8.3-4.7 2.5-5.6 2-1 2.8-.9 5 1.1 2.3 2.3 4.5 2.1 4.5-.5 0-.7.8-1.8 1.8-2.3 1.5-.9 1.7-2 1.3-6.7-.4-5.6-.4-5.7 2-5 5.8 1.8 6.9 1.9 6.9.2 0-.8.5-2.7 1.1-4.2l1.3-2.6 2.6 3c1.3 1.6 3.7 4.4 5 6.3m-131.4-5.6-1.3 4-.5 2.5H541.2v-7l20.2-.3 129.6-.5c102-.3 109.3-.3 108.8 1.3m119.4 0c0 1.1-1 1.3-4.6.9l-4.4-.7v6.3h-55.7c-52.5 0-55.5-.1-54.8-1.7.4-1 1-2.8 1.2-4l.5-2.3h58.8c51.4 0 59 .2 59 1.5m63 2.5v4l-18.7-.2-18.7-.3-.8-3.2c-1-4-3.6-4.3-6.8-.9-2.2 2.4-2.4 2.4-4.7.8-5.3-4-3.6-4.2 23.7-4.2h26zm-708-1q0 2-2 2t-1.4-2q.6-1.8 2-2 1.2.2 1.4 2m52.5 6c0 1.7-.7 2-5.7 2q-5.6 0-6.2 1.3-.5.7-.6-2.3v-3.6l6.2.4c5.5.3 6.3.6 6.3 2.2m-40.5 8c0 4.9-.5 9.2-1 9.4-1.6 1-16.2-1.3-18.8-3-2.5-1.7-3.1-7.4-1.1-11.8 1.4-3.2 2.3-3.3 12.6-3.5l8.3-.1zm510.5-6.5-1.1 4-.7 2.4H541.2v-6.9l71.7-.3 128.1-.5c51.2-.2 56.3 0 55.7 1.3m113.5-.1q-.1 1.2-1.6 2c-.7.2-1.4 1.5-1.4 2.5 0 2-.2 2-2.6.5-2.3-1.5-2.8-1.5-6.7-.1-3.7 1.4-10.4 1.6-52.5 1.6-52.4 0-49.4.4-47.2-5.4l.9-2.6h55.5c46.8 0 55.6.3 55.6 1.5m72 2.5v4l-13.3.3-13.2.2 13.2.3 13.3.4v6.8h-8.6c-6.7 0-8.6-.3-9-1.4q-.7-1.5-4.2-1.5c-3.8 0-6.5-2.1-5.7-4.3.7-1.7-1.2-6.9-2.8-8-.7-.4 5.9-.7 14.5-.7h15.8zm193.3 14.8c.4 8.7 1 29.8 1.2 47 .6 27.3.5 31.3-.8 31.3q-1.4-.2-2.1-2.3c-.3-1.3-.7-21.8-.8-45.7-.2-32.2-.4-39.6-1-28.5l-.7 16.2q0 1.2-7.1 1.2h-7l-.3-13-.3-13.2-29.7.2-29.7.2v-3.9c0-2.2.3-4.2.6-4.6.4-.3 17.9-.6 39-.6h38.1zm-846.1-13.3c9.4 1 14.7 6 11.5 10.9-2.6 4-7.7 5.6-16.2 5.6h-7.5v-18l3.7.5zm464.8 4.3c0 .6-.5 2.3-1.1 3.8l-1 3-125.5.4-125.4.4v-3.6c0-2 .5-3.8 1.2-4 2.5-1 251.8-.8 251.8 0m101 .7q0 1.4-.7 3c-.4 1.4-.8 1.4-2.6 0-3.4-2.2-6.6-1.9-7.3 1l-.6 2.4-6-2.1c-5.7-2.1-6.1-2.1-7.3-.5-1.1 1.6-4.4 1.7-39 1.7-20.6 0-37.5 0-37.5-.3s.4-1.8 1-3.5l1.1-3.1h49.5c42 0 49.4.2 49.4 1.4m195 2.6v4h-73v-3.4c0-1.8.3-3.6.6-4 .4-.3 16.8-.6 36.5-.6h35.9zm65 12.4v11.5l-3.3.5c-1.7.4-5.5.5-8.2.4l-5-.4-.4-10.7-.2-10.8h-20.5q-20.3 0-20-1c.5-.6 11.2-1 29.1-1h28.5zm-364.6-4.1-.8 3.3c-.5.7-135.6.5-137-.1-1-.4-26.5-.6-56.7-.4l-54.9.5V481h250zm80-1 .5 3.4c0 1-8.6 1.3-39.9 1.3h-40l1.2-3.6 1-3.5H870zm111.6 1.1v3.6H973c-9 0-9 0-8.5-2.3.3-1.3.6-2.8.6-3.4 0-1 2.4-1.4 8.6-1.4h8.5zm38-.1c-.1 2-.1 2.1-1.6.2-.7-1-1.1-2.2-.8-2.7.8-1.4 2.4.2 2.4 2.5m98.2 6.6.2 9.5-10.2.3-10.2.3v-20l10 .2 10 .3zm18.2-6.6c.4 1.7.5 6 .3 9.7l-.3 6.4h-15.9l-.4-9.7-.3-9.8h16zm-96.4 8.1v10.5h-18v-20.9h18zm50 0v10.5h-48l-.2-10.5-.3-10.4h48.5zm-768.3-4.4c4.6 0 5.3.3 5.3 2 0 1.8-.7 2-6 2h-6l-.3 10.7c-.3 10.4-.4 10.3-.6-3.2-.1-10.9.1-13.6 1-12.8s3.6 1.3 6.6 1.3m696.4 26.3c.2 15 .3 27.4.1 27.6q-.4.3-1.5-.8a5 5 0 0 0-2.8-1.1c-2.3 0-3.4-1.7-2.1-3.4a30 30 0 0 0 2.4-10.6c.2-2.3-.2-2.5-4.5-2.8-3.7-.3-4.6-.7-4-1.5.6-.7 1.8-3.6 2.6-6.7 2-6.4 1-8-4-8-1.9 0-3.3-.6-3.3-1.1s-1.2-.9-2.8-.8c-2.4.3-2.8 0-3.8-3.6q-1-4-3.2-5c-1.8-.8-2.2-1.8-2.2-5.3v-4.3h28.8zM286.2 498c0 5-.4 9.2-1 9.5s-4.2.3-8.2-.1c-8.8-.8-11.8-3-11.8-9 0-7.4 2.4-8.9 14.7-9.2l6.3-.2zm353.5-8.3c2 .7 2 .7 0 1.4-3 1.3-98.5 1.2-98.5 0 0-1 11.7-1.3 65.4-1.8 17 0 32 .1 33 .4m232 .4q.4.9-1 1-1.5-.1-1-1t1-1q.3 0 1 1m-83.8 3.5-1 3.4h-9.3c-5.2 0-10 .3-10.7.6q-1.4.4-2.6-2-2.1-4.5-8-.7c-2.5 1.8-7.4 2-109 2.6l-106.1.8v-2.1c0-2.1 0-2.1 48.2-2.2 43-.1 49-.3 55.2-2 6.4-1.5 13-1.7 75.7-1.8l68.7-.1zm74.5-.3c.3 1.8.4 3.3.3 3.5s-16.8.2-37.2 0l-37-.3.9-3.2.8-3.2H862zm119.8.3v3.6l-8-.4c-6.7-.2-8-.5-8-2 0-.8-1.1-2.3-2.2-3.2-2.1-1.4-1.6-1.5 8-1.5h10.2zM337 497.4c3.6 1.8 4.6 2.9 4.9 5.2.2 1.6-.4 3.6-1.5 4.7-2.3 2.6-10.5 4.9-17.5 4.9h-5.8v-18.3l7.7.7c4.9.3 9.3 1.4 12.2 2.8m426.6 1.8c.5 1.6 1.2 1.8 4.5 1.4 3.5-.6 4-.4 4 1.2-.1 1-.7 3-1.6 4.4-2 3.5-1.8 4 1.6 4 2.9 0 3 0 2.3 4l-.6 4.2 3.6-.8c4.2-.8 4.5-.1 2 4.9-1.5 3.2-1.4 3.5.7 7 2.8 4.2 3 4.3 6.5 2.1 3.5-2.4 5.2-1.2 6 4l.7 4.8 3.5-.7c3.4-.7 3.5-.7 3 2.3-.8 3.4 2.2 6.8 5.4 6.4 1.8-.3 1.8-.1-.3 4.2-2.3 4.5-2 6.4.3 4.9q1.3-.7 3.1-.5a7 7 0 0 0 4-1.3q4.8-3.4 4.8 1c0 2 .4 2.4 3 2.4 2.3 0 3 .5 3 2.2q-.1 2.2 1.8 1.6c1.5-.3 2.1.1 2.4 2.6.3 1.7 0 3.3-.4 3.5q-.8.5-.8 1.6-.1 1.4-1.8 2c-1 .2-21.9.7-46.5 1l-44.7.8v-2.1q-.1-2-1-2.1c-.6 0-1-1.5-.8-3.3.3-3 0-3.3-3-3.6q-3.1-.3-3.2-1.7 0-3.3-6.8-1.6c-3.7.8-4.2.7-4.6-1q-.4-2.2-2.5-1.4c-1.6.6-2.1.2-2.3-2.1-.3-2.2-1-2.9-3-3.1q-3-.3-2.1-1.8c.7-2.2-1.7-4.4-4.9-4.4q-2.9 0-2.8-1.6c0-1.4-.7-1.6-3.6-1.1-1.9.3-3.4.2-3.4-.3s-.4-1.7-.8-2.6q-.7-2 1.2-1.1c1 .4 2.8 1 4.2 1.3 2.3.5 2.4.4 1.8-2-.6-2.3-.4-2.6 2-2.6 2.3 0 2.6-.3 2-2.5-.6-2.4-.4-2.6 3.4-2.6 2.3 0 4.2-.3 4.2-.7s-1.8-2.6-4-4.7c-6.5-6.3-5.1-9.2 2.6-6 4 1.6 5.4 1.2 5.4-1.6 0-1.6.4-2 2-1.5s2 .2 2-3.4.2-4 1.7-3.1q1.8 1 3.4-.6c2.2-2 4.6-1.1 5.9 2.1 1 2.9 2 3.1 3.9 1.3 1-1 1.5-.8 2.5.6q1.5 1.6 2.6 1.1 1.3-.6 3 1.7c2.3 3 4.4 1.4 5.4-4.2.6-4 .6-4.1 4.4-3.7 3.5.2 3.7.2 4-2.9.3-4.2 7.6-11 9.7-9.3.7.6 1.7 2 2 3m218.5 0c1.7 0 1 3.6-1 5.4-2.7 2.4-5.2 1.4-4.9-2.1q.7-4.8 3.7-3.9c.7.3 1.8.5 2.2.5m-231.9 3.4-.3 3.4-11.2.4c-6.2.2-12.2 0-13.4-.6q-2.2-.9-4.6 0c-1.6.8-30.4 1.2-91 1.3l-88.6.1v-8h209.5zm34.8-.3-1.1 3.4c-.7.7-9.8.9-9.8.2-.1-7.2-.5-6.8 5.9-6.8h6zm78.1-2.2c-1.1.7-1.2 1.2-.1 2.5q1.3 1.6.5 2.5c-1 1-76.8 1.7-77.3.7-.1-.4 0-2 .3-3.6l.7-3H826c23.6 0 38 .4 37.2.9m336.6 5.4.7 29.1.6 29.3c0 .2.7.3 1.3.3 1 0 1.3-1.4 1-5.6q-.8-7.8 2.5-4.3 1 .9 2.4.3c.7-.5 3-1 5-1s4.4-.7 5.3-1.3c1.4-1.3 1.8-1.2 3 .4 1.3 2 1.5 2 4-.4l2.6-2.5 2.3 2.3c2.2 2 2.8 2 6.6 1.1 3.6-1 4.5-1 6.1.5q1.9 1.8 4.7 1c1.5-.3 3.7-.6 5-.6 1 0 2.6-.6 3.3-1.5 1.5-1.8 7-2 7-.1 0 .7-.6 1.9-1.3 2.6-1 1-.7 1.2 2 .6q3.3-.7 3.3.4.1 1 2.5.5c2-.5 2.5-.3 2.5 1.5q-.2 2.1 2.4 2 2.5 0 2.6 1.6 0 1.3 1 1.4c2 0 5 4.1 4.4 6.1q-.7 2 .8 2c2 0 3.9 10.7 2 11.4-.7.2-1.2 1.2-1.2 2s-1.1 1.8-2.3 2a513 513 0 0 1-35.3 3.6c-3.2 0-3.5-.2-3.5-3.3 0-1.8-.3-5.5-.6-8.3l-.6-5.1-7.4-1.1c-6.6-1-11.9-2.6-21.1-6.4q-3.4-1.5-4-.2-.6 1.1-26.8 1.5c-23.3.3-26 .2-26.3-1.2-.1-1 .5-2.4 1.4-3.3 1.4-1.4 4.2-1.6 21.6-1.2 17.3.3 19.9.2 19.4-1.1-.3-.8-.5-12-.5-24.9v-23.4h-20v-8.3l10.7.7zm-108.9 1.4c-.2 1.7-2.5 1.8-25.2 2.2-13.8.3-29.6.4-35.3.2-9.4-.3-10.2-.5-10.2-2.2 0-1.9 1-2 35.5-2 33.3 0 35.5.2 35.2 1.8m-509.2 3.7c-2.5 2-3.6 2.3-7.3 1.9-3.8-.5-4.3-.3-5.1 1.8-.5 1.3-.7 3-.4 3.6.6 1.6-1 1.7-2.5.2-.6-.7-6.2-1.5-13.2-1.7l-12-.5V508h21.7l21.7.2zm131-.8c-.3.8-.5 1.9-.5 2.4s-1 1.1-2 1.5c-1.2.3-2 1.5-2 2.6 0 1.6-.3 1.8-2 1q-2-1.1-55.4-1.1c-29.3 0-54-.2-55-.6-.8-.3-2.5-2.1-3.6-4l-2-3.4h61.6c55.7 0 61.5.2 61 1.6m28.8.4c-.5 1.5-1 1.7-2.5 1-1-.6-3.9-1.2-6.4-1.4-7.5-.7-6.4-1.6 1.8-1.6 7 0 7.6 0 7 2m41.7-1.6-1 3c-1.3 3.3-4 3.4-4 .2 0-1.3-.6-2.7-1.3-3s.4-.5 2.5-.5c2-.1 3.8 0 3.8.3m76.2.2c-1.7.7-1.5 2.9.3 4.3.7.8 1.5 1.7 1.5 2.2s-17.3.9-39.1.9h-39l.6-3.3 1.1-4c.3-.3 17.4-.7 38.1-.6s37.2.3 36.5.5m305.8 24.8V559l-6 .3-6 .4-.6-5.1c-.4-3-.5-7.4-.4-10 .1-2.7.2-11.6.1-19.7l-.1-14.7h-43V557h-5v-48.9h61zm-888.8-17.2c2.1.2 2.2 1 2.5 8.6.3 7 .6 8.4 2.1 8.9 1.7.4 2 3 2.6 40.5.4 22 .4 40.2 0 40.6-.3.4-2.3 1.2-4.3 1.7l-3.6 1-.3 9.5c-.4 12.7-.1 14 4.2 14 3.1 0 3.3.1 3.9 4.6.4 2.6.7 18.8.7 36V713h-8.8l-.6-6c-.4-3.5-.6-22.3-.6-41.8 0-19.6-.5-61.7-1.1-93.6-.5-32-.7-58.9-.2-60q.8-2.7 1 1.1.4 3.4 2.5 3.6m314.3-2.5 3 5.5c.7 1.5 1.7 1.7 4.8 1.2l4-.6-.7 5.4c-.3 3-.3 5.7 0 6.1.4.4 2.4-1 4.5-3 4.7-4 6.2-4 6.7.7.2 1.8 1 3.8 1.8 4.4 1.3 1 1 1.6-1 4.9-3.6 5.3-3.7 7.2-.4 7 2.2-.2 2.8.2 2.8 1.7 0 2.6 2.2 3.4 4.9 2 2-1 2.3-1 2.8.9s1 2 3.9 1.5c3.2-.7 3.4-.6 3.4 2.4q0 5.8 3.4 2.2 3.8-4.2 5.4 1c1.3 3.5 2 3.6 5.7.8q4.8-3.6 6.5 2 .5 2.1 1.2 2.3l2.8-.1q1.9-.1 3-2.5.9-2.6 3.4-2.6c2.1 0 2.6-.4 2.6-2.8q0-5.5 3.8-3c1.7 1 2.4 1 4-.5 1.8-1.7 2-1.6 4 1q3.7 5.4 4.8-3.7c.7-6.1 2-7 5-3.5 1.8 2.4 2.4 2.6 4.3 1.6 2-1 2.3-.9 2.8 1q.5 2.2 2.4 1.6 4.9-1.2 4.9 3.5c0 2.4.4 2.8 2.6 2.8 2.4 0 2.5.3 1.9 3.6l-.7 3.7 3.2-.7c2.7-.7 3.2-.5 2.6.9-.7 1.9 1 3 2.7 1.8.7-.6 3-1.3 5.2-1.7 3.7-.6 4.2-.4 4.8 1.6.5 1.8 1 2 3.2 1.5 2.6-.7 2.7-.7 2 2.8q-.6 3.5.4 3.6c1.8 0 1.1 3-1 4.2-1 .7-2 1.9-2 2.5s-1 1.8-2.4 2.4q-4.5 1.9-.8 4.4c1.6 1.2 1.5 1.4-1 2.6-3.2 1.4-3.6 2.8-.7 2.8 1 0 2 .7 2 1.5s.7 1.9 1.5 2.3c1.5.8 1.2 1.3-1.5 3.3-1.7 1.2-3 2.4-2.6 2.7s2.7 1.4 5.3 2.2c3.6 1.2 4.7 2.1 4.7 3.5q.2 2.1-3 2.6-3.1.5-2.6 2.3.4 2-1.7 1.2c-2.8-.8-3.7 1.2-1.5 3.6 2.5 2.8.5 4.4-3.7 3-6-2-6.9-1.7-6.9 3.4v4.7l-2.7-1.7q-2.3-1.5-3.1-1.1c-.9.8 1.9 3.7 4.5 4.6 4.6 1.8 2.3 3-6.1 3h-8.5l-.7-3c-.4-1.7-1.5-3.7-2.7-4.5-1.7-1.2-1.8-1.7-.8-3 2-2.3 3.1-8.8 2-10.3-.8-.7-2.7-1.2-4.5-1.2q-3.1 0-4.5-2c-1.3-1.7-2-2-4.8-1-3.3.9-3.3.9-2.8-2 .4-2.2.1-3.3-1.1-4.3-1-.6-1.7-2.5-1.7-4.3 0-2.6-.4-3-3-3-1.7 0-5.3.5-8 .9-4.6.6-5.1.5-6-1.6-1.4-3-5.4-3.3-10.5-.8s-5.6 2.5-5.8 0q-.4-5-5.7-5c-2.5 0-3.5-.5-4.4-2.5-1.5-3.2-5.1-3.2-8 0-1.9 1.9-3.1 2.2-6.8 2s-4.9.1-6.6 2.1c-2.7 3-5.1 3.3-4.3.4.9-2.5-1-5-3.6-5q-2 .2-1.8-2.8 0-2.9-2.1-3.4-2-.5-1.3-2.1.4-1.7-.7-3.2-2-2.6-8 1.7c-3.6 2.4-3.9 2.3-3.9-1q-.1-3-2-4c-1-.7-2.1-2.4-2.2-3.9-.3-2.2-1-2.8-3.1-3q-2.9-.2-2.7-2.3 0-2-2.6-2c-1.3 0-2.4-.5-2.4-1.3a7 7 0 0 0-1.4-3.1c-1.2-1.7-1.6-1.7-4.5-.3-2.7 1.3-3.2 1.4-4.2.1a4 4 0 0 0-3.5-1c-1.7.5-2.6 0-3.9-1.9q-1.7-2.5-3.8-2.2c-2.5.3-3.3 1.8-4.6 7.8-.8 4-1 3.6-1-5.3-.2-10.4.3-11.2 5-8.6 2.4 1.3 4.1-.4 3.5-3.5-.4-1.6 0-1.7 3.4-1.1 3.7.6 4 .5 4-2q-.1-2.6 1.9-2.6a5 5 0 0 0 3.3-1.4q1.5-1.2 2.1-.9.6.4 2.2 0c1.5-.5 1.4-1-.5-4-3-4.8-2.6-5.6 2.2-5.3l4.2.2-.2-3.7c-.2-3.6-.2-3.7 2.5-2.8 3.6 1.4 6.9.5 8.9-2.6q3.4-5.2 7 1.3m450.2 8.6.3 10.6h-19l-.2-10.5c-.2-5.9-.1-10.8 0-11.1.3-.2 4.6-.3 9.6 0l9 .2zm49.3.2v10.4h-46.9l-.3-10.5-.2-10.8 23.7.2 23.7.3zm39.8-.2-.3 10.1-9.3.3-9.2.3v-21h19zm20.2.1v10.5h-18v-20.9h18zm-823-6.8c0 1-1.8 1.3-6.6 1.3q-6.5 0-6.4-1.2-.1-1.3 6.4-1.3c4.9 0 6.6.2 6.6 1.2m860.3 4.6c.4 3.3.7 7.8.7 10v3.8h-8.9l-.3-10-.4-10h8.3zm7.7 6.3v12.5l-7.7-.3q-7.6-.2-8.1-1.5c-.3-.8 1-1.2 4.7-1.2h5.1v-22h6zm-501-8.6c2 0 2.4.5 2.4 2.5v2.5l-37 .3-44.1.3c-5.3 0-7.7.5-9.2 1.8-1.8 1.6-1.9 1.5-2-1.9 0-2-.3-4-.6-4.4q-.3-.8 1.2-1.2c1.4-.3 80.6-.2 89.3 0m172.2-.3c3 .6 3.8 1 3.8 3v2.3H826c-39.9 0-44.1 0-43.6-1.5.4-.9.7-2.2.7-3 0-1.2 6-1.4 39.7-1.4 21.8 0 41.4.3 43.5.6m-304.2 1.9c-.7.8-1 2.2-.7 3 .6 1.4-.7 1.5-9.6 1.3l-10.2-.3-.4-2.8-.3-2.7h11.2c9.8 0 11 .2 10 1.5m786.3 4.6 2.7 2V570l-3.1.7c-4.5.8-26 .7-26-.1q0-1-.8-2.2c-.8-1.2-1.5-1.2-4.6 0-3.3 1.2-3.8 1.1-4.6-.4-.6-1-1.7-1.7-2.5-1.7s-2-1.8-2.7-4.4q-1.1-4.5-3.4-5.5c-2.9-1.4-3-3.7-.3-4.6q2-.6 2-3.4 0-2.9 1.9-3.5c1.7-.3 2-1 1.4-3.6-.5-3-.4-3 2.9-3s3.7-.4 5.1-4c1.7-4.4 2.3-4.6 6.1-2.9 2.2 1 2.8 1 4-.7 1-1.4 2.3-1.9 4.9-1.6 3 .3 3.5 0 4.5-2.7.8-2.5 1.7-3 4.8-3.4l4.5-.5c.3-.1 1.8.7 3.2 1.9M561 525.8c2.5.7 2.8 4 .3 3.6-1.8-.5-6 2.6-6 4.2q.1 1.5-3.5.9c-3-.5-3.6-.2-4.5 2q-1 2.8-3.5 2.6c-2.5 0-2.5 0-2.5-7v-7l8.7.1c4.8 0 9.8.3 11 .6m139 .6c1.9 1.8 1.5 2.4-1.4 3.2q-2.4.6-2 2t-1.4 1.9q-1.7.6-1.9 2.2 0 1.7-1.7 1c-2.3-.8-5.3.3-5.3 2q-.1 1.4-2.5 1.5c-2.1 0-2.7.6-3.6 4.4l-1 4.3-3-1.6c-2.6-1.4-2.9-1.4-4.6 0q-1.9 1.5-5 1.2c-2.7-.4-3.1-.2-3.7 2.6-.5 2.3-1.1 3-2.7 3q-2 .1-2.6 2-.5 1.9-1.7 2-1.2-.1-2.4-2c-1.5-2.3-5.4-2.5-8.6-.4-2.2 1.4-2.4 1.3-3.5-1.1-1-2.2-1.7-2.6-4.3-2.2s-3.1 0-3.9-2c-.9-2-1.4-2.3-3.9-1.8q-3 .8-3.8-1-1-1.7-3.6-1.2t-2.6-.8c0-.8-1-2-2.2-2.8-1.9-1.4-2-1.6-.5-3.8 2-2.8 2.1-6.4.1-7.2-.8-.3-1.4-1.8-1.4-3.6v-3h41.7c31.3 0 42.2.3 43 1.2m175.3.8c0 2.7 3.7 6 6.7 6 1.2 0 2.3.3 2.3.7-.1 3.1-1.9 3.2-41.6 3.1-52 0-47.4.1-47.4-2 0-3-2.2-6.7-4.3-7.4-1-.3-3 .2-4.4 1q-2.3 1.6-2.8 1.4l-1.5-2.6-1.1-2.3h94.1zM1374.6 801c-.8.9-14 1.5-17 .8l-2.4-.7V693c0-59.5-.4-120.5-.7-135.5-.3-16-.3-27.2.2-27.2s1.8.7 2.9 1.5c3.8 2.9 12 1.2 15.6-3.1 1.2-1.5 1.5 16.4 1.7 135 .1 75.3 0 137.1-.3 137.4m-333.4-265c0 2-.6 2.2-10.6 2.2-8 0-10.4-.3-10.4-1.4 0-2 .2-2.2 10.9-2.4 9.6-.4 10.1-.3 10.1 1.7m49.8.5c.3 1.6-1.4 1.7-23.8 1.7-23.5 0-24 0-24-2s.4-2.1 23.7-1.8c21.6.2 23.7.4 24.1 2m60.2.1c0 1.4-3 1.6-20 1.6-17.1 0-20-.2-20-1.6 0-1.2 2.9-1.5 20-1.5 17 0 20 .3 20 1.5m-316.8 3.6c17.4 0 17.8 0 16.5 2-.7 1-2.3 2-3.7 2.2-2.1.2-2.6 1-2.9 3.6-.2 3.1-.4 3.2-2 1.7-1.7-1.4-2-1.4-2.5-.1-.3.9-1.7 1.5-3 1.5-2.3 0-2.6.5-2.6 3 0 2.3-.5 3-1.9 3q-1.7.1-3 1.3c-.8.8-1.7.6-3.7-.6-1.4-1-3.3-1.5-4-1.2q-1.5.5-2.5-2c-1.2-3.3-3.1-3.9-6.8-2l-3 1.6-.3-3.7q-.3-3.9-2.6-4.9-2-1-1.6-1.8.5-.6-.5-.7c-.6 0-1.1-1-1.1-2 0-2 .3-2.2 6.7-1.6 3.7.4 14.7.7 24.5.7m206.8 9v9l-9.8-.2-9.7-.3-.3-8.8-.3-8.7h20.1zm49.1-2.3.2 8.8c.1 1.9-.6 2-23.6 2.3l-23.7.2v-18h47zm39.9 3.3v9h-5.5c-3 0-5.7-.5-6-1-.4-.6-2.2-1-4-1h-3.5v-16h19zm20 0v9h-18v-18h18zm37.8.3-.3 9.2-4.3.3-4.2.3V541h9zm7.2.2v9.6l-2.8-.3-2.7-.3-.3-9.2-.3-9.4h6.1zm-176 2.4c0 4.5-.6 4.9-3.2 2.4-2.3-2-2.3-3.2-.1-5 2.7-2 3.3-1.6 3.3 2.6m96 7c1.6 0 2 .8 2 4.5v4.5l-41.6.3c-33.2.2-41.8 0-42.7-1-.6-.7-2-1.2-3.1-1-1.6.2-2.5-.6-3.5-2.7-.6-1.5-1-3-.8-3.2.5-.5 78.7-2.2 83.5-1.7zm40 5v3h-36v-6h36zm-778 4.7c2.5 3.9 3.2 4 6.8 1.3 2.4-2 2.6-2 3.9-.4.6 1 1.5 3.3 1.9 5.2q1 6.8 4.8 1.7c2.6-3.2 4.1-2.7 5.4 1.9.7 3 1.1 3.1 4.4 2.9 3.6-.3 3.7-.3 4 3.5.2 3.9.7 4.2 5.6 2.7 2.2-.6 2.2-.4 2 2.7-.4 4.1 2.2 4.8 3.2.9.6-2.5 1.5-2.8 5.5-1.6 2 .6 2.2.2 2.8-3.3.7-4.3 2.8-5.9 4.7-3.6 1.8 2 3.3 1.8 6-1 3-3.3 4-3.2 4 .5 0 3.4 3 5.3 7.9 4.8 2.1-.3 2.6 0 2.8 2.4.2 1.4 1 2.8 1.8 3.2 1.2.4 1.5-.6 1.5-5 0-5.1.1-5.5 2.4-5.5 2.1 0 2.4-.3 2-3.2-.4-1.7 0-4 .5-4.8 1-1.2 1.3-1.1 2.9.7 1 1.1 2.2 3 2.7 4 1 1.7 1.3 1.6 4.2-.4q6.2-4.4 6.3.2c0 5.7 3 7.3 6.5 3.5q3-3.5 5.5-.5c1.6 2 2.7 2 4.7-.4 1.9-2.2 4.3-2.7 4.3-.9q.2 1 2.4.6 4.2-.7 1.6 4.3c-1.3 2.3.2 3.5 2.6 2.2q1.7-1 3 .2c.7.8 2.3 1.2 3.3.9 2.6-.7 4.5 3.7 3.5 8.4a10 10 0 0 0 .5 5.2c1 2 1.3 2 4.2.5l3-1.5-.3 3.2c-.3 3 0 3.4 2.4 3.7q4.8.4 1 4.3c-1.2 1.5-1.3 2.1-.2 3.4 1.1 1.5 1 2-1 3.5l-2.3 1.7 2.2 2.2c2.8 2.8 2.6 5-.4 5-2.2 0-2.5.5-2.5 3.5v3.6h-14c-7.5 0-15.8.3-18.4.6l-4.6.6v12.8h-5c-2.8 0-5-.4-5-.8 0-2.3 1.4-5.2 2.3-5.2q4.5 0 2.2-5.3c-1.4-3.3-1.3-3.6.6-5.3a5 5 0 0 0 1.5-4.4c-.3-1.5.1-3.2 1-4.3 2-2.2.5-4.3-3.7-5.2q-2.7-.6-2.4-1.6.4-.7-1-.3c-2.7 1-1.7 3.2 2 3.9 4 .8 4.1 1.3 1.5 4.7-1.6 2-1.7 2.7-.7 3.8q1 1.2.2 1.6c-3.6 1.4-4 2-2.3 5.5 1.8 3.6 1.5 4.9-1.2 4.9-1.3 0-2 1-2.4 4l-.7 4h-8.7c-6.7 0-8.3-.3-7.5-1.3 2.5-2.3 1.5-8.2-2.3-13.5 0-.2-1.5-.6-3-.8q-3-.6-4.2 1.3-1.3 1.7-1.8 1.5c-1.4-.8-2.6 0-2.1 1.2q.4 1.3-1.2 1.2c-2-.1-2.6 5.4-.7 6.6q1 .6-.7.7-1.6.2-1.7 2c0 1.6-.7 2-3.5 2q-6.3 0-1-3.6c2.2-1.6 2.3-2.2 1.5-5-.8-3-.7-3.4 1.7-3.4q2.5 0 2-1.3c-.4-.8.3-2.2 1.3-3.2s2-3 2-4.5c0-2.1-.7-3-3-3.7l-3.1-1 2.6-2.7c3.5-3.5 3-6.1-1.4-5.7-2.6.2-3 0-2.4-1.4.4-1.4.2-1.6-2.2-1-2.6.6-2.8.5-2.2-1.8 1.8-7.1-2.8-7.3-11.4-.6-3.6 2.7-7 5-7.6 5s-1.9-1.2-2.8-2.6c-2.4-3.7-5.5-3-7.8 1.8-1.6 3.4-2 3.7-4.3 2.7-5-1.9-6.4-1.3-6.4 2.5v3.5l-3.6-2q-3.7-2.4-4.6-1.1c-.6.6-2.6.7-4.5.5q-3.4-.6-4 1t-4 1.6c-3.8 0-5.3 2.1-3.4 4.5q1.2 1.7.6 4.5c-.5 2.3-1.4 3.1-3.6 3.6-5 1.1-6 5.8-1.4 7.5q2.5 1 2.5 3.4t1 2.5 1 1c0 1.6-27.8 1.4-28.3-.1-.3-.9-1.4-.9-5 0-6.5 1.6-7.6 1.5-8-1q0-2.5-3.2-2.6c-3.2-.4-5.6-2.9-4.8-4.9.3-.8-.7-1.7-2.1-2.3-4-1.4-3.3-2.4 2.8-4.5 8.5-3 9.8-5.7 3.2-7-2.9-.5-3.3-.9-2.9-3 .4-2 .1-2.5-1.4-2.5-2 0-4.3-1.7-4.3-3.2 0-.4 1.5-1 3.4-1.4q7-1.2 2.5-4.7c-1.3-1-2.5-2.5-2.6-3.4a9 9 0 0 0-2.3-3.7c-2.5-2.8-2.7-5-.3-4.2 8.2 2.4 10.3 1.8 7.4-2.3-3.4-5-3.5-5.2-.8-4.6 2.9.7 3.2 0 1.7-4q-1.8-4.6 2.5-.4c2.4 2.2 4.5 1.9 4.5-.7 0-2.1 2-1.7 4.6.8 1.9 1.7 2.5 1.9 3.8.8s2-.8 4.2.9c5.2 4 13 1.7 9-2.8-2.2-2.4-1.1-5.1 1.7-4.8 1.7.1 2.2-.4 2.4-2.9q.2-3.1-1.2-4.4a5 5 0 0 1-1.5-3.1c0-1.6.2-1.7 2.6-.7q2.6 1.2 3 .3c1.7-4.7 3.4-4.2 6.4 1.6 2.3 4.5 4.2 4.3 3.3-.2-.6-2.8-.5-3 2-2.4s2.7.5 2.7-3c0-2 .4-4.6 1-5.6 1.3-2.5 2.8-1.5 6 3.7m921.8.3a253 253 0 0 0 19.8 5.7c-.6.7-21 3.3-25.8 3.3h-4.6l-.5-3.9c-.3-2.2-1.3-4.6-2.1-5.6-1.8-1.8-2.1-3.4-.6-3.4.6 0 6.8 1.8 13.8 3.9m34 3 11.6-.2.3 4.1c.4 4.5.1 4.7-4.4 3.3l-14.8-4.7c-11.7-3.6-12-3.8-9-5 2.7-1.1 3-1 3.6.7.8 1.8 1.8 2 12.6 1.8m-108.4-.7c3.4.8 8.2 1.9 10.8 2.2l4.8.7v6.3c0 3.4.2 8.4.6 11q.7 4.5-.6 4.5-1 0-1-9.3v-9.4l-3.8-.6c-17.2-2.7-94.9-4.4-125.7-2.8-11 .6-30.5 1.4-43.3 1.7-23 .6-23.1.6-24.2-1.6-.7-1.1-1-2.4-.5-2.7 1-1 70.5-2 128-1.8 40.6.2 50 .5 55 1.8m180.2 1.8c2.8 0 3.3.4 3.5 2.7s.9 2.9 4.9 3.6l6.5 1.2c1 .2 2.5 1.4 3 2.7.8 1.9 1.6 2.2 5.2 2l4.3-.1v11c0 6-.2 10.9-.5 10.9s-6-2.5-12.8-5.6c-6.7-3-14.4-6.4-16.8-7.6l-4.7-2-.6-9.3c-.4-5.1-.4-10 0-10.9.5-1.4.8-1.5 2.7-.2 1.1.9 3.5 1.6 5.3 1.6m-53.6 3.5c0 4-.4 5.4-1.5 5.4-2.1 0-3.6-3.3-3.4-7.4.2-3 .6-3.5 2.5-3.5 2.2 0 2.4.4 2.4 5.5m43 4v9.5l-3.3-1.4-8-3.5-4.7-2.2v-12h16zm-564-6.5 2.4.8-2.2.7c-2.7.8-3.9 4.5-2.3 7.3 1.5 2.7 1.4 3-1.2 3.3q-2.3.3-2.6 3.2-.2 3-2 2.1c-3.8-1.4-7.2-1.6-8.6-.4-2 1.6-2 5 0 7.9 1.7 2.2 1.6 2.4-1 4.5q-5.1 3.7 1.4 7.3c2.5 1.5 2.8 2.2 2.6 6-.4 5.4-.7 5.8-4.7 4.7l-3.4-1-.4-17-.5-17h-40.8c-39.3 0-40.7 0-41.1-2q-.5-1.7 1.5-3.2c1-.8 2.4-2.5 2.9-3.8.9-2.4 1-2.4 15.7-2.5l43.3-.9 33.4-.7c2.8 0 6.2.2 7.6.7m47.9 1c1 .4 2.3 2.3 3 4q2.5 5.8 4.9-.3l1.2-3.3 2 2.9 2.2 2.8 3.2-3.7q5.4-6 5.6.1c0 2 .4 2.4 2.4 2.4 2.2 0 2.4.4 1.8 3.5-.4 3.3-.4 3.4 2.9 3.2 2.6-.1 3.2.3 3 1.3-1.1 4.2-.6 5.5 2.1 6 2.7.2 2.9.5 3.2 6q-.1 2.8 2.3 2.2c2-.2 2.3.2 2.3 2.9 0 2.8.2 3.1 2.3 2.5 1.4-.2 3.3-.8 4.1-1.2 1.5-.5 1.6 0 1.4 2.7-.3 2.6 0 3.4 2.3 4.4 2.1.8 2.5 1.5 1.9 3.2-.6 1.5-2 2.3-5.2 2.7-7.4 1-105.7 4.1-106.5 3.4q-.4-.8.7-2.3c1.1-1.4 1.1-1.8-.3-2.9q-1.6-1-.7-2.6c1.7-2.5 1-3.8-2.4-5.4-4.6-1.9-5.2-3.1-2.2-5.1 2.5-1.5 2.5-1.7 1-5.1-1.7-4.1-1.9-7.4-.4-7.4.5 0 2.6.8 4.7 1.6q7 3 6-2c-.4-2 0-2.4 2.1-2.7 2.8-.3 2.9-.6 1.5-7.5-.5-3-.3-3.2 3.3-4.2 3.4-1 4-.9 5.5.8 2.2 2.7 3 2.6 5.9-.5 2.9-3 4.6-3.1 6-.1 1.8 3.3 1.7 3.3 4.9.2q5-4.5 5.1 1c0 2.5 2.3 3.4 3.4 1.4.7-1 9.5-5.8 10.9-5.9q1 0 2.6 1m-738.4 3c38.5.5 83.6 1 100.2 1h30.3v6.4l-89.8-.1c-49.4-.2-101.1-.6-115-.9l-25.2-.7v-7.6l14.7.5zm975.5 7v9h-3.3l-11.5-.6-8.2-.7v-15.6l6.7-.4 11.5-.5 4.8-.3zm26 .6v9.7l-3.8-.7c-2.1-.3-7.2-.6-11.5-.6h-8l.4-8.6c.2-5 0-8.6-.6-8.8s4.5-.5 11.2-.6h12.3zm34 .9v10.5h-9.7c-5.3 0-12.5-.5-16-1.2l-6.3-1V577h32zm26.8.2.2 10.3h-25V577l12.2.3 12.3.3zm-130.8-5.3c0 2.5-.6 3.5-2.7 4.4-2.2 1-3 1-4.5-.4-1.8-1.7-2-1.7-4.7.3q-5.2 4-5.1-3.9v-3.8l7.7-.3h8.5c.4.2.8 1.8.8 3.7m19 1.9v6.3l-3.6 1c-3 1-3.6 1-4.5-.7-1-2-5.4-2.6-6.5-.8-1.3 2-2.4-1.4-2.4-6.9v-5.2h17zm132 3.2c0 9.1-.1 9.5-2.3 9.5l-9 .6-6.7.7v-20.3h18zm-170-4.6c0 4.6-1 5.5-4.3 4.1-2-.6-4.7-5.2-4.7-7.7 0-.2 2-.4 4.5-.4h4.5zm185 4.6v8.5h-4.3c-2.4 0-5.2.3-6.5.6-2.2.6-2.2.4-2.2-8.5V579h13zm-892.7-6c2.5.5 4.3 1.1 4 1.6q-.6.9-2.3.4-2-.8-2.2 1.7c-.3 2-1 2.4-5.8 2.9-3.1.3-4.9.6-4.1.7q1.2.3.7.8-.7.5-2.4-.8c-2.4-2-5.3-3-6.6-2-.6.3-9.8.5-20.4.3l-19.2-.3v-5.9H313c14.8 0 29 .3 31.5.7m80.8 2.8c-.7 1.6-2 2.3-5 2.7-2.3.4-4.4.2-4.7-.2s-1.4-.8-2.4-.8-2.1-.9-2.4-2c-.5-2 0-2 7.4-2 7.8 0 7.9 0 7 2.3m-155.4 4.2c1 .3 1.3 7.9 1.3 33.3v32.8l-9.2.7c-5 .4-13.6.7-19 .7h-9.8V603l-54.8.3-54.7.3.3 23.4c.2 13 0 25.5-.3 27.7l-.6 4.1-32.6.8c-26.3.6-32.6 1-33 2a3 3 0 0 0 .6 2.9c.5.7 1 4.3.8 8.4l-.3 7.3-3.4-.5c-2-.3-6.1-.9-9.3-1.2l-5.7-.6v-90.5l114.2.4c62.8.2 114.8.6 115.5.8m1170.8.5c.4.7 2 .9 4 .5 2.5-.4 4.4 0 7.8 2 2.9 1.5 5.8 2.4 7.8 2.2 2.9-.2 3.4 0 3.7 2.3.3 3.1 2.7 5 6.3 5h2.9v25.7l-17.4-7.8-19.6-8.8c-1.9-1-2-2-2-11 0-8.7.1-10 1.7-10.5 3.1-.7 4.2-.6 4.8.4M317 591.4c-.7 1.2-1.6 2.6-2.2 3-.5.2-.5 2-.3 3.7.7 3 .6 3-2.8 3q-6.5.2-3.2 6.2c1.6 2.7 1.6 2.9-.5 4l-2.1 1.2 2.3 1.8a8 8 0 0 0 4 1.9q1.5 0-1 1.5a8 8 0 0 0-3.3 3c-.6 1.6 2.5 5.5 4.4 5.5q.9.1 1 1.9c0 1 .7 2.4 1.4 3 2.4 2 1.8 3-2.2 4.7-2 .8-4 2-4.4 2.7-1 1.5 1 4.6 2.7 4.6q1.4.1 1.5 2.5c0 2.9 3.3 5.5 6.7 5.5q2.1.2 2.3 1.5c0 1.3-1.7 1.6-9.4 1.6-5.2 0-12.8.3-17 .6l-7.6.7v-7.1c0-5.7.3-7.3 1.4-7.3 4.1 0 5.7-9.2 3.5-19.8-.8-3.6-1.7-5.1-3.5-6-2.4-1-2.4-1.3-2.4-13.6V589h32zm27.3-.3q.9 1.9.5 2c-.4 0-2.3-.8-4.3-2l-3.7-2h3.2q3.2 0 4.3 2m461 14c0 14.3-.2 15-2 15-2 0-2-.8-2.3-13.6l-.3-13.9h-36c-39.4 0-39.4 0-39.4-1.5 0-.5 14-1 40-1h40zm-67.2-4.6c.2 6.2-1 7.4-4.5 3.8-1-1-3-2.3-4.7-2.7-1.5-.4-2.5-1.1-2.2-1.8l1.2-2.9c.4-1.4 5.5-2.7 8.8-2.3.6.1 1.2 2.8 1.4 5.9m13.2-.8v5.4h-11v-10.9h11zm11.7.2.4 5.2h-5.6c-6.1 0-6.4-.4-4.9-7.9.6-3 .8-3.1 5.3-2.8l4.5.2zm12.3-.2v5.4h-10v-10.9h10zm12 0v5.4h-10v-10.9h10zm12 0v5.4h-11v-10.9h11zm344.2-.9 3.8.6v19.7h-3.8c-10.5 0-27.8-2.2-28.6-3.5-.6-1-2.6-1.4-7.2-1.4-6.2 0-6.5-.1-5.4-2q1-2 0-4t0-2.5q.8-.7-1-3.5c-4-5.4-3.8-5.4 18.2-4.7 11.1.4 21.9 1 24 1.3m89.7-.2c-.6.5-41.8 8.5-44 8.5-1.7 0-2-5-.5-6.2.6-.3 5.6-.7 11-.8 5.6-.1 13.4-.5 17.6-.9 9.4-1 16.4-1.1 15.9-.6m-82.8 15.7c-1 6.3-1 6.3-1-4.1 0-8.8.2-9.8 1-6.4.5 2.5.5 6.7 0 10.5m34.1-13.5c-1.2.3-3.3.3-4.5 0s-.2-.3 2.3-.3c2.4 0 3.5.1 2.2.3m.8 7v4.8l-16-.2-16-.3v-9h32zm-954 22.8v25.6h-6l-.3-20.3-.3-20.2-46.6-.3-46.8-.3-.3 21.8c-.3 21.7-.3 21.7-2.5 22.1l-2.2.3v-54.2h105zm507-17v6.6h-6.4c-6.1 0-6.4-.1-6.9-2.6-.4-2 0-2.8 2-3.4 1.2-.6 2.3-1.5 2.3-2q.2-1 1.4-1c.9 0 2.1-1 2.8-2 .7-1.1 2-2 3-2 1.5 0 1.8 1 1.8 6.5m13 0v6.6h-11V607h11zm12 0v6.6h-11.1l.1-6.5.2-6.6h10.8zm12 0v6.6h-10V607h10zm12 0v6.6h-10V607h10zm12 0v6.6h-11.1l.1-6.5.2-6.6h10.8zm-372.3.9-.3 4.1 5.5.3 5.4.4-4 4c-4.3 4.4-3.7 5.8 2.5 5.8 4.8.1 3.8 3-2.1 6-5 2.4-5.6 3.2-3.3 5 .9.7 1.6 2.4 1.6 3.7 0 1.9-.6 2.4-2.6 2.4-2.3 0-2.6.3-2 2.4.5 2 .2 2.6-1.2 2.6-22.5.9-52.8 1.5-55.2 1.2q-3.3-.4-2.6-2 .4-1.5-1.5-2-2-.4-1-1.3c1.7-1 .4-3-1.9-3-1 0-2.3-.6-3-1.4-1-1.2-.8-1.6 1.4-2.1 1.6-.4 3.8-1.8 5.2-3 2.4-2.2 2.4-2.4 1-5.3l-1.6-3 3.7-.3c3-.3 3.7-.6 3.4-2.3-.3-1.9.7-1.9 5 0q2 .8 1.9-1c0-2 .9-2 4.5.5 4.3 2.8 5.5 2.5 5.5-1.6v-3.4l4.7.2c4.5.3 4.8.1 5.7-3q1.8-5.7 5.1-.7c1 1.3 2.3 2.5 3 2.5s4.5-2.2 8.3-5c3.6-2.7 7.2-5 8-5q1.2-.1 1 4.3m925.2 50.4v44.2l-2.2.5c-1.3.3-8.3.8-15.7 1-62.1 2.9-99.3 8-168.4 23.7-9.8 2.2-18 3.9-18.2 3.7s9.4-4.3 21.3-9 21.8-9 22-9.6c.4-1.2-11.8-2.2-29.1-2.3h-14.1l44.5-17.8c58.3-23.5 88.8-37.7 118.4-55.2a262 262 0 0 0 38-26.9l2-2.3.7 2.9c.4 1.6.7 22.8.8 47.1M223.2 618.6c0 1.4-5.7 1.6-45 1.6-39.4 0-45-.2-45-1.6 0-1.3 5.6-1.5 45-1.5 39.3 0 45 .2 45 1.5m65.4 5.9c.4 2.8.6 7 .4 9.2l-.4 4-5.1.3-5 .3-.8-8.5c-.4-4.7-.4-9-.1-9.6s2.8-1 5.5-1h4.9zm-65.7-1.3c.3 1.4-3 1.7-29.9 2.3-16.6.4-36.8.7-45 .7-14.1 0-14.8-.1-14.8-2 0-2 .8-2 40.2-2.3 53.4-.4 49.2-.5 49.5 1.3m497 4.9.3 5.2-3.3-.3c-3-.4-3.2-.5-3.6-4.7-.4-6.1.2-7.2 3.5-6.2 2.6.6 2.9 1.1 3.2 6m86.7-5c4.1 1.6-5 2.2-33.7 1.8l-28.7-.3-.7 3.5c-.3 1.9-.3 10 0 18.3l.7 14.7h-13l-.1-8.6c0-4.9-.3-10.5-.6-12.6-.5-3.4-1-3.8-5-4.9l-4.3-1v-11.8h41.7c23 0 42.7.4 43.7 1m143 .1c-2.7.9-16.2 1.5-102 5.4a268 268 0 0 1-32.8.6c-2-2 1-2.7 12.6-3 6.8-.1 31.1-1 54.3-2 47-2 72.6-2.3 68-1m6.6 10.5c0 9.4 0 9.4-2.5 9.4s-2.5 0-2.5-9.3c0-8.2.2-9.5 1.7-10h2.5c.4.3.8 4.8.8 9.9m-7.1 1.2v8.8l-35.2 4.3-63.7 7.7-31.8 3.9-3.2.5v-27.7l8.2-.6c4.6-.4 25-1.3 45.2-2.2l49.6-2.4c6.8-.4 16.6-.7 21.7-.8l9.3-.2zm-726.2-6.4c-.6 1.7-15.7 2.4-56 2.5-33.1.1-33.7.1-33.7-1.9 0-1.9.7-2 45-2 35.7 0 45 .3 44.7 1.4m579.3 0c0 .3-12.4.6-27.6.6-17.5 0-27.4-.3-27.4-1s9.7-.8 27.4-.7c15.2.2 27.6.6 27.6 1m10.3 7c.3 4.5.6 11.8.6 16.3l.1 8.2-3.4.4c-3.4.3-3.5.2-4-4-.4-2.5-.6-10-.6-16.9v-12.4h6.7zm-62.5 7c.2 10 0 11.7-1.3 11.7s-1.5-2-1.5-12.1c0-9.3.3-12 1.2-11.6.9.2 1.4 3.8 1.6 12m-527.5-6.2c-.2.3-20.3.7-44.8.8-44.3.2-44.5.2-44.5-1.9 0-2 .4-2 36.2-2.2l44 .1c5.9.2 7.8 0 7.9-1.1q.1-1 .8 1.1c.4 1.5.6 2.9.4 3.2m533.7 6.3c0 10.9-.1 11.6-2 11.6-2 0-2-.7-2-11.6s0-11.5 2-11.5c1.9 0 2 .7 2 11.5m6 0c0 10.9-.1 11.6-2 11.6-2 0-2-.7-2-11.6s0-11.5 2-11.5c1.9 0 2 .7 2 11.5m6.7-.1c-.3 10.7-.4 11.2-2.5 11.5-2.2.3-2.2.2-2.2-11.3v-11.6h5zm8.3.1v11.6h-6V631h6zm6 0c0 10.9-.2 11.6-2 11.6-2 0-2-.7-2-11.6s0-11.5 2-11.5c1.8 0 2 .7 2 11.5m6 .1c0 10.5-.2 11.6-1.8 11.3-1.5-.3-1.8-1.8-2-11.6-.3-10.7-.2-11.3 1.7-11.3 2 0 2.1.7 2.1 11.6m5 0c0 9.6-.3 11.5-1.6 11.5-1.2 0-1.4-2-1.4-11.6s.2-11.5 1.4-11.5c1.3 0 1.6 2 1.6 11.5m5 0c0 9.6-.3 11.5-1.5 11.5-1.3 0-1.5-2-1.5-11.6s.2-11.5 1.5-11.5c1.2 0 1.5 2 1.5 11.5m2.7 5.2c-.2 3.2-.4.6-.4-5.7s.2-9 .4-5.7c.2 3.1.2 8.2 0 11.4M721.7 636l7 1.7-14.5.8-53.6 1.6c-45.9 1.2-97.5 2.6-127 3.6-20 .7-21.5.6-30.8-1.7a33 33 0 0 1-9.6-3c0-.5 5.9-.8 13.2-1 7.3 0 50.1-.9 95.3-1.8 107-2.4 111.2-2.4 120-.2m-270.3 2q.7.2.8 1.5 0 1.3 1.2 1.8c1 .4 1 .8-.1 2.1-.8 1-1.1 2.7-.8 4 .7 2.9-1.1 3.6-8.2 3.6-3.6 0-4.2-.3-3.8-1.5.4-.9.7-2.7.7-4 0-3 4.9-8.1 7.4-7.8q2 .1 2.8.3m-228.9 1.6c.7 1.8 5 1.5-48 2.4-38.8.5-41.4.5-41.4-1.2s2-1.7 22.3-2c65.1-.8 66.5-.8 67.1.8m499.7 6.8c0 3.4.2 9.2.6 13 .3 3.6.4 6.7.2 6.7l-208.5 15.7a738 738 0 0 1-2.3-33.2c0-2.2 0-2.2 18.2-3l75.8-2.1 81-2.4 29.2-.8 5.8-.2zm6.1 6.2a61 61 0 0 1-.4 13.2q-1 .4-2.3-.1c-1.2-.5-1.4-3-1.4-13 0-11.9 0-12.6 1.9-12.6s2 .8 2.2 12.5m-227.2-8.5c7.4 1.4 8.6 2 9 4 .4 1.4 1 9.5 1.4 18l.7 15.7-4.7.7c-2.5.2-6.4.5-8.5.5h-3.8l-.1-11.7c0-6.5-.3-13.4-.6-15.4-.5-3.2-1-3.7-4-4.3-3.3-.6-3.3-.8-3.3-5.7s0-5 2.7-4.3zm-278 .7c-.5 1.6-2.7 1.8-23 2.4-12.3.3-32.4.7-44.7.8-21.5 0-22.2 0-22.2-2 0-1.8.8-2 27.7-2.2l45-.5c16-.2 17.4 0 17.1 1.5m-.5 5.3c0 1.2-3.6 1.6-24 2-13.1.4-33.3.7-44.7.8-17.8.1-20.7 0-20.7-1.3 0-1.2 1.6-1.5 8.7-1.6l42.7-.9c40.7-.8 38-.8 38 1m268 3.6q1.5.7 1.6 1.3c0 .4-13.7 1-30.3 1.5-16.6.3-51.4 1.3-77.3 2-101.4 3-98.4 3-98.4.8 0-1.8.9-2 17.7-2.6l64.3-1.7c25.6-.5 60.4-1.4 77.5-1.9 29.8-.8 41.7-.6 45 .6m-268.2.8c.8 2-6 2.4-51.5 3-33.9.7-37.7.6-37.7-.9 0-1.3 1.5-1.6 8.7-1.7l35.3-.7c46-1.3 44.7-1.3 45.2.3m580.2 4.5v2.5l-27.7.4-27.7.4v-6.2l27.7.2 27.7.2zm-531.4 1c0 1.9-.8 2-5.8 2l-80.8 2c-98.4 2.6-105.6 2.6-113.4 1.1-11.3-2.3-10.1-3 5.4-3 8.3 0 40.7-.7 72-1.6 72.2-1.9 76.7-2 101.8-2.2 20.1-.2 20.8-.1 20.8 1.8m221 11c0 9.8-.3 13-1.3 13-2 0-36.3 2.7-82.7 6.5-98 8-116.7 9.6-118.8 9.6-2.2 0-2.2-.1-2.2-18v-17.8l10.2-.6c11.3-.7 59-2.1 122.3-3.6l47.5-1.4c3.5-.2 10.6-.3 15.7-.4l9.3-.2zm-220.8 11.5.3 18.6-3 .5a13873.7 13873.7 0 0 1-86.5 6.5l-50 3.5-34.8 2.5-14.3 1c-1.9 0-1.9-1-1.9-22.8v-22.8l45.2-1.2 83.3-2.2c35.6-1 47-1.4 57.1-1.8l4.3-.2zM72.2 667.5l6.4 1.2v13.8l-7.9-.7c-4.3-.4-8.3-1-8.7-1.2-.5-.3-.8-3.9-.8-8 0-7.2 0-7.5 2.2-7 1.2.4 5.1 1.1 8.8 1.9m6 34.1V716l-2.8.6-8.5 1.2-5.7.6v-29l6.2-1c11.9-1.8 10.8-3.3 10.8 13.2m1274 12.5v2.8l-12.8.7c-43.4 2.4-94.9 8.9-138.2 17.6a148 148 0 0 1-34.8 4.3h-13.9c.6-.6 27.6-6.7 45.5-10.3a613 613 0 0 1 88.2-13.5c16-1.3 52-3.8 63.2-4.4 2.4 0 2.8.2 2.8 2.8m-177 27.5a209.5 209.5 0 0 0-19.7 7.9c-9.3 4.2-10.6 4.5-15.7 4l-5.7-.6 5.8-2.4a89 89 0 0 1 20.3-6.8l6.4-1.3-5.6-.1c-4-.1-7.1.5-10.8 2.3-4.3 2-6.2 2.2-11.4 1.9q-13.7-1.2-2.6-3.7c6-1.3 39-2.3 39-1.2m-35 6.7q1.9.9-.3.8c-1 0-3.6 1-5.7 2-3.4 1.7-5.1 2-11.5 1.5-4.2-.4-7.5-1-7.5-1.3s2.3-1.6 5.2-2.8c4.3-1.9 6.4-2.1 11.8-1.7 3.6.4 7 1 8 1.5m-18.8 5.5 4.8.6-6.2 3c-5.8 2.7-6.7 2.8-14.5 2.2l-8.4-.7 7.2-3.4a24 24 0 0 1 9.9-2.9zm18 1.4c3.2.1 3.2.1-1.2 2.2l-7 3.2-9.3 5c-6.6 3.6-7 3.7-13.5 2.9l-6.6-.8 9.4-4.4 14.5-6.7c3.1-1.6 6-2.2 7.8-2 1.6.3 4.3.6 6 .6m-30.4 6.5c.1.2-3.2 2-7.5 4.4-7.7 4-8 4-17.3 3.9l-9.6-.3 9.6-4.7c9.2-4.5 9.5-4.6 16.9-4 4.2.2 7.7.6 8 .7m-2.8 12.6a98 98 0 0 0-8.5 5c-.5.5-5 .9-10 .9h-9l9-5c8.7-4.8 9.1-5 17.5-5h8.5zm-22.5-2.1h6l-9 4.8-9 4.8-9.5-.6-9.6-.6 9-4.7c7.2-3.8 9.8-4.6 12.6-4.2 1.9.2 6.1.5 9.5.5m2.3 9.6 6.2.7-6.7 3.9c-6.6 3.8-6.9 3.9-15.6 3.6l-9-.3 7.3-4.3c8-4.5 8.3-4.6 17.8-3.6m-24 1 6.2.7-6.8 4c-6.3 3.8-7.2 4.1-13.4 3.8-3.7-.2-7.8-.6-9.3-1-2.5-.6-2.2-.9 4.2-4.4 7-3.8 9-4.1 19.2-3m-14.5 10.2c2.7.7 2.6.8-4 4.7-6.7 3.9-7 4-14.9 3.6-11.5-.5-11.9-1.1-3.3-5.8 6.7-3.6 7.8-3.9 13.3-3.5 3.4.2 7.3.6 8.9 1m22-.8h6.2l-9 5.9-9 5.9-8.3-.8a45 45 0 0 1-8.8-1.2c-.2-.2 3.6-2.8 8.3-5.6 6.9-4.1 9.3-5.2 11.6-4.8 1.7.3 5.7.6 9 .6m-43 10.6 7.7.7-6.2 3.5c-3.6 2-7.4 4.3-8.6 5.2-2.2 1.8-3.2 1.8-17 .4l-5.4-.6 5.3-3.3 8.9-5.3c1.9-1.1 4.4-1.9 5.4-1.7 1.2.3 5.6.8 9.8 1.1m24 2 4.7.6-14 9.4-14 9.4h-23.5l9.5-6.2c9.4-6.2 9.5-6.2 18.5-6.9 5-.4 7-.6 4.3-.7-7.8-.3-8.7-1.2-4.2-3.8 4-2.5 9.6-3 18.7-1.8m-43.1 10 6.8.5-8.4 5.5-8.5 5.5-10.8-.8-10.7-.9 9.3-5.6c7.2-4.4 10-5.6 12.5-5.3 1.7.3 6 .7 9.8 1m10 11 6.7.7-8.7 6-8.8 6.2-11.9-.5-11.9-.5 9.4-6.3c10.3-6.8 10.9-7 25.2-5.6m-23.8 1.7c.5.2-3 2.9-7.6 6-9.3 6.2-10 6.4-24 5l-6.8-.6 9-5.7 8.9-5.7 9.8.4zm-21.7 13.6q1 .8-6.5 6l-7.7 5.5-8-.2c-4.4-.2-9.6-.6-11.5-.9s-3.2-.2-2.7.3 4.8 1.3 9.8 1.9l9 1-8.8 6-8.9 6-12.4-.5-12.4-.5 9.4-6.2 16-10.2c17-10.7 14.4-9.8 24.4-9.3 5 .2 9.6.7 10.3 1.1m28.2-1.1 4.4.6-9 6.5-8.9 6.4-13-.3c-7 0-13-.3-13.2-.5-.2 0 4.1-3.2 9.5-6.8l9.8-6.6h8c4.4 0 10 .3 12.4.7m-22.3 15 6.2.7-9.5 6.8-9.3 6.7-13.4-.6-13.6-.7 9.8-6.8 9.7-6.8h7c3.8 0 9.7.3 13 .7m-52.9 13.2h9.5l-8.5 6.4-8.7 6.5h-8.8c-4.8 0-10.7-.4-13.1-.7l-4.4-.7 9.3-6.4c7.8-5.1 10-6.2 12.3-5.7 1.7.3 7.2.6 12.4.6m37.7 3c-.3.5-4.6 4.1-9.8 8l-9.1 7-14-.6-14.3-.9c-.1 0 4.2-3.4 9.5-7.3l9.7-7.1 14.3-.1c9 0 14.1.4 13.7 1M913 882.6q1.2.6-3.2 3.8l-8.6 6-4.1 3-14.2-.3c-7.8 0-14.4-.3-14.6-.5 0-.1 4.3-3.1 9.8-6.6l10-6.4 11.8.3c6.4.2 12.3.5 13.1.7m20.4 4.4c4.3 0 7.7.4 7.7.8a55 55 0 0 1-8 7.1l-8.2 6.3-12-.7c-18.8-1.1-18.7-1-8.7-8.2l8.4-6.3 6.6.5c3.5.3 9.9.5 14.2.5M892 897.4c1.8.2.4 1.6-7 6.8l-9.3 6.4-16-.4-16-.5 8.5-5.4c4.6-3 9.3-5.8 10.2-6.5 1.7-1 20.5-1.2 29.6-.4m30.4 5.4c.4.3-2 2.9-5.5 5.8-3.4 3-7.2 6.7-8.4 8.2l-2 2.9-19.3-.3-19.3-.3 3.9-3 11.9-8.9 8-6 15 .6c8.2.4 15.3.8 15.7 1m-60.3 9.2 11.4.6-9.4 6.8-9.5 6.7h-18.4c-10 0-18.1-.2-17.8-.5.3-.4 6-4 12.3-8 10.6-6.4 12.2-7.1 15.8-6.8 2.3.3 9.3.8 15.6 1.2m40.7 12.5c-5.5 7.3-7.6 15.4-5.8 22l1 3.7h-15.8c-8.6 0-18.5.3-21.9.6l-6.1.6v-2.8c0-5.5 2.5-13.2 6.8-20.3l4.2-7.2h40zm-59.5 3.3 7.5.7-9.4 6.3-9.4 6.4-19.6-.3-19.5-.3 11.3-6.7 11.3-6.8h10.2c5.6 0 13.5.3 17.6.7M829 942.6l-9.9 6.6-9.5 6.2-22 .4c-12 .2-21.5 0-21.2-.4s5.7-3.5 12-7l11.2-6.2h19.9c11 0 19.7.2 19.5.4m71.5 13.3a84 84 0 0 0 21 21.3l7.7 5.4-27.8.3-27.8.3-6.4-6.6c-8.3-8.6-14.2-21-11.4-23.8.3-.3 10-.6 21.7-.6h21.1zm-100 5.1-14 9-8.3 5-25 .3-24.9.4 17-9.2 17.2-9.3h43.7zM770 980l-18.2 11-13.8 8.2-23.8-2.3-23.7-2.3 17-8.7 17-8.7h50zM233.9 130.8c-.4.4-.7 19.8-.7 43V216l2.7.6c6.3 1.3 42.5 7.6 44 7.6 1.3 0 1.4-4.4.7-42.8-.4-23.6-1.1-43-1.6-43.3s-10-2-21.1-3.8-21-3.5-21.8-3.7q-1.5-.3-2.2.2m23.9 6c9.4 1.5 17.7 3 18.4 3.4.9.5 1.5 11 2.2 40.8.6 22.1.9 40.3.7 40.6a801 801 0 0 1-41.7-7l-2.2-.4V133l2.7.6zm-17.6 1c-.4 12.7.2 70 .8 70.7.7.6 15.3 3.7 29.4 6.1l3.8.6v-14.7c0-8.1-.3-24.6-.7-36.5l-.7-21.6-14-2.1-16.4-2.7q-2-.4-2.2.3m30.7 6.4q.2 0 .3 1.5c0 1.8-.5 1.8-15.9-.2-13.1-1.7-14.8-2.2-14-4.7.6-1.1 2.9-1 15 1 8 1.2 14.4 2.4 14.6 2.4m-11 3.7c9.8 1.4 11.3 1.9 11.3 3.5 0 1.5-.6 1.8-2.8 1.4l-14.4-2.7q-11.8-2.2-12.3-3.7c-.5-1.2 0-1.4 3.2-.9zm-1.5 4.7 12.7 2v10.1l.1 10.1-8.8-1.8c-4.8-1-11.3-2.3-14.5-2.8-4.8-1-5.7-1.6-5.7-3.2 0-2.4-1-2.4 17.3 1.6q10.7 2.3 10.4 1.2c-.2-.6-6.5-2.2-14-3.5-12.8-2.3-13.7-2.7-13.7-4.7 0-2.1.2-2.2 3.2-1.4 6.5 1.8 24.8 4.7 24.8 4 0-.4-4-1.6-8.8-2.4-18.5-3.6-19.2-3.8-19.2-6q-.1-1.8 1.6-1.2c2.6 1 25.5 4.7 26 4.2.7-.6-1.5-1.2-15.4-3.7-10.8-1.9-12.2-2.4-12.2-4.2q-.1-2.2 1.7-1.2c1 .4 7.5 1.6 14.5 2.9m-.4 20.9c12.4 2.4 14.6 3.2 13.3 5.4-1.1 2-28.5-3.8-29-6s.5-2.2 15.7.6m1.4 5.8c9.8 2 11.8 2.6 11.8 4.1 0 2.2 1.1 2.3-15.2-.8-12.3-2.3-13.8-3-13.8-4.6 0-1.7.4-2 2.7-1.5zm-2.4 4.9c14.6 3 14.2 2.8 14.2 5.1q.1 2.3-2.1 1.5l-14.5-2.7c-11.9-2.2-12.4-2.4-12.4-4.7 0-2 .3-2.4 2.5-1.8zm1.2 6c14.4 2.6 13.9 2.4 13.3 5-.5 1.5-1 1.8-3.2 1.3-1.4-.3-7.8-1.6-14.1-2.7-10.7-2-11.6-2.3-11.9-4.5-.2-2 0-2.4 2-1.8 1.3.4 7.6 1.5 13.9 2.8m0 6.2c5.8 1 11.2 2 12.1 2 2.5-.1 1.6 3.2-1.1 3.6-1.9.3-19.9-2.9-25.3-4.5q-1.6-.7-1.7-2.5c0-1.8.3-2 2.7-1.3zm.5 5.9 12.3 2.3.4 3.3c.2 1.8 0 3.2-.5 3.2q-.6 0-.7-1c0-.5-1-1-2.1-1-2 0-20.3-3.5-24.2-4.5-1-.3-1.7-1.6-1.7-3.1 0-2 .3-2.5 2-2zm115.7 25 .2 53.3 17 3.9c37.1 8.3 42 9.4 42.6 8.8.7-.7-.7-77.8-1.7-91.7l-.5-8-15.7-5.1c-15-5-36.7-12.4-40.4-13.9-1.7-.6-1.7 2.1-1.5 52.6m32.9-39.6 22.6 7.6.6 18.2 1.3 47.8.6 29.6-7.4-1.4-27.8-6-20.6-4.9-.2-50.6-.2-50.7 4.2 1.3zm-25.5 40c.3 24.3.6 44.5.8 45.1s2.5 1.5 5.2 1.8c2.6.4 11.7 2.5 20.3 4.6 8.4 2.2 16 4 17 4 1.4 0 1.5-4 .9-42.2-.5-23.2-1.2-42.5-1.6-43-.8-.6-17.2-6-31.5-10.3l-10.3-3.1c-1.3-.6-1.4 4.6-.8 43.2m22.6-34c14.2 4.6 18.7 6.4 18.7 7.6 0 1.3-.6 1.4-4.2.8-5.7-1-18.7-5.5-20.5-7-1.2-1.1-1.4 3.5-1.2 35.6.2 45.9.2 44.7-1 44-.7-.4-1-15.1-1-41v-40.1l-3.3-.1c-5 0-8.7-2-8.7-4.4q0-1.9 1.2-1.7zm-11.2 4.2q0 1.6-2.3.8l-5-1.2c-2.5-.6-3.6-2.2-2.1-3.6 1-1 9.4 2.5 9.4 4m-4.3 1.9c2.3 1 4.3 2.3 4.3 3 0 3.2-10-.7-10-3.9-.1-1.1.9-1 5.7.9m22.1 1.9a42 42 0 0 0 11.2 2.9q.9-.4 1 1.5-.2 1.8-1.1 2c-3.3 0-22.9-7.4-22.9-8.6 0-1.8 0-1.8 11.8 2.2m-17.8 6c0 1.7-1.7 1.8-6 .4q-3-1.1-3-3c0-1.7.2-1.7 4.4-.3 2.5.9 4.6 2.2 4.6 3m18.7-.8 11.3 3.7V224l-6.3-2-12-3.6c-4.4-1.3-5.7-2.1-5.7-3.6q0-1.8 1.5-1.3c.8.4 4.8 1.6 8.7 2.8 4 1.2 8.5 2.8 10 3.6 2.2 1 2.8 1 2.8 0 0-.7-4.7-2.7-11.6-4.8-8.8-2.6-11.4-3.8-11.4-5.2-.1-2.3-.1-2.3 11.9 1.8a46 46 0 0 0 10.9 3c1-1-.2-1.4-11.4-5q-11-3.2-11.3-5c-.4-2-.4-2 12.6 2.2m-18.7 6c0 1.6-1.4 1.7-5.7 0q-3.2-1-3.3-3c0-1.5.2-1.5 4.4 0 2.5 1 4.6 2.3 4.6 3m0 4.9c0 1.6-1.7 1.7-6 .3q-3-1.1-3-3c0-1.7.2-1.7 4.4-.3 2.5.9 4.6 2.2 4.6 3m19.1 4.5 10.7 3.3.4 7.5c.2 4.2.5 16.6.6 27.5l.2 20.1-12.5-3c-11.5-2.8-12.5-3.2-12.5-5.2q0-2.1.2-2.3l11.2 3.4a81 81 0 0 0 11.6 3c.8-1-2.5-2.3-12.7-5-8.7-2.3-10.3-3-10.3-4.7q0-1.9 1.3-1.4l9.7 2.8c4.7 1.1 9.3 2.5 10.2 3q1.9 1 1.8-.4c0-.8-3.3-2-8.8-3.5-12.4-3-14.2-3.8-14.2-6.3q0-2 1.2-1.7l10 3.2 10.2 3.2q1.5.4 1.6-.5c0-.6-3.3-2-7.3-3.1-11.7-3.4-15.7-5-15.7-6.7q0-1.4 2-.8l8.3 2.4c3.4 1 7.4 2.3 9 3 3.6 1.4 3.7 1.4 3.7-.4q-.1-1.4-1.3-1.5c-.7 0-5.9-1.3-11.5-2.8-8-2-10.2-3.1-10.2-4.5-.1-2.2-.6-2.3 11.7 1.3a53 53 0 0 0 11 2.5c1-.8.4-1-11.3-4.1-9.3-2.5-11-3.3-11.2-5.1-.4-2-.3-2 10 .9a71 71 0 0 1 11.5 4q1.3 1.1 1.3-.5-.2-1.6-3.8-2.7c-14.3-3.8-19.2-5.6-19.2-7.1s1.5-1.2 11.1 1.7c6.2 1.8 11.5 3 11.8 2.8 1-1-1.5-1.9-12.3-5-7.7-2.1-10.6-3.3-10.6-4.5s1.6-1.1 11.2 1.6c10.3 3 13 3.5 11.6 2-.4-.4-5.7-2-11.8-3.8-9.3-2.5-11-3.3-11-5q0-2 1.4-1.3l10.3 3.2 10 3.1q1.2.3 1.3-.4c0-.6-5.2-2.5-11.6-4.4-9-2.7-11.4-3.8-11.4-5.2-.1-2-.3-2 5-.2a62 62 0 0 0 18 4.5q-.1-.9-1.8-1.3l-11.5-3.3c-7.8-2.3-9.7-3.3-9.7-4.8q0-1.6 1.2-1.3zm-22.3-2q3.1 1 3.2 3c0 1.6-.3 1.6-4.6.2-2.4-.9-4.4-2.2-4.4-3 0-1.6 1.6-1.7 5.8-.2m1 5.6c1.2.3 2.2 1.2 2.2 2.4 0 1.7-.3 1.7-4.6.3-2.6-1-4.4-2.2-4.4-3.1q-.2-1.6 2.2-.9zm-1.7 4.5q4 1 3.9 3c0 1.5-.5 1.7-2.3 1.2-5.3-1.7-6.7-2.4-6.7-3.9 0-1.9.1-1.9 5-.3m1.6 5.9c1.3.4 2.3 1.5 2.3 2.3 0 1.9-.3 1.9-5.1.4q-4.1-1.1-4-3c0-2 .7-2 6.8.3m-1 5c3.2 1 4.5 3.8 1.9 3.8-2.9 0-7.6-2.2-7.6-3.5 0-1.7 1.6-1.8 5.8-.3m0 5q3.3 1 3.3 3c0 1.6-.5 1.8-2.3 1.3-5.3-1.7-6.7-2.4-6.7-3.9 0-1.8 1.5-2 5.8-.4m.5 5.6q2.8.5 2.8 2.5 0 2.1-1.8 1.3c-1-.4-3-1-4.5-1.2q-2.8-.6-2.7-2.5-.1-2.1 1.7-1.4c1 .4 3 1 4.5 1.3m0 5q2.8.5 2.8 2.4c0 2.3-.8 2.3-5.4.4-3.6-1.5-5.5-5.4-2-4.1 1 .4 3.1 1 4.6 1.2m-.2 5.4c2.9.8 3.6 1.5 3.2 3q-.5 1.9-2 1.4l-3.8-1.1q-2.2-.7-2.4-1.4-.1-1-.7-2.6t.7-1.1c.9.2 3 1.1 5 1.8m3.8 8.8c.2 2 0 2.2-1.5 1.5-1-.3-3.1-1-4.6-1.2-2-.4-2.7-1-2.7-2.8 0-2.1 0-2.1 4.2-1 3.2 1 4.4 1.8 4.6 3.5M113.4 336l.3 56.7 26 2.2 65 5.8a1961 1961 0 0 0 42.2 3.6h3.3V297.5l-50.8-7.2c-54.3-7.7-80.4-11-84-11l-2.3-.2zm17.2-52.8c6.1.6 23.2 2.9 38 5 26.8 4 77.5 11 78.8 11 .5 0 .8 23.3.8 51.6v51.6l-4.3-.6a6978 6978 0 0 0-125.5-11.1l-3.2-.5V281l2.2.6c1.2.3 7.2 1 13.2 1.4m-9.4 55c0 27.6.4 48 .9 48l14.7 1.5c14.4 1.5 45.8 4.4 81.6 7.4 11.5 1 21 1.6 21.2 1.3s0-21-.2-45.7l-.5-45.2-5.1-.7c-12.2-1.7-51.6-6.6-66.6-8.5-25.2-3.2-40.3-5-43.3-5.6l-2.7-.3zm25.4-41.4 14.3 2 2.3.5v22.9c0 12.5.3 32.3.6 43.9l.6 21.1h-6.2v-85.7l-6.8-.7c-3.7-.3-7.7-1-9-1.2l-2.2-.6v86.2h-6v-86.9h-2.4c-4.7 0-8.6-1.3-8.6-2.8 0-1.7 1.3-1.6 23.4 1.3m-15.8 3.5c1 0 1.4 3.2 1.4 17v17h-3c-6.2 0-6 .4-6-18.2v-17l3 .5c1.8.4 3.9.7 4.6.7m45.5 3.5c.4 2.2.8 22.3.8 44.6l.1 40.5-5.3-.4-5.6-.7c0-.1-.5-20.1-.8-44.5l-.7-44.2 5.4.4 5.4.3zm27.9 0 21.5 3c1.9.4 2 1.3 2 18.9l.3 18.6H223l.1-17.3.1-17.2-9-1c-5.1-.6-9.4-1-9.5-.8-.2.2 0 19 .1 41.8l.5 41.6-3.8-.3-4-.4-.2-42-.3-42.1-9.4-1.4c-8.3-1-9.5-1.4-9.5-3.1 0-1.6.4-1.8 3.2-1.4 1.8.3 12 1.7 22.8 3m-52.3-1 4.3.6v34.1l-3.2-.6c-1.7-.3-4.8-.6-7-.6h-3.8V301l2.7.5zm41.5 5 2.8.7v32.8l-7.8-.6c-4.2-.3-8.2-1.1-8.7-1.6s-1-7.8-1-17v-16l6 .6zm43.8 43.4c0 33.8-.3 43-1.3 43-.7 0-2.2-.2-3.5-.6l-2.2-.6v-82.8l2.2-.9c5-2 4.8-3.8 4.8 42m-20.8-40.4 4.8.7V344l-6.3-.5c-3.4-.3-6.8-.7-7.5-.9-1-.2-1.2-4.5-1.2-17V309l2.7.6zm-85.6 25.5c1 0 1.4 4.4 1.4 24.5 0 22.1-.2 24.6-1.7 24-.8-.2-2.8-.5-4.4-.5h-2.9v-49.3l3 .6c1.8.4 3.9.7 4.6.7m22.6 2.6 2.8.5v24c0 21.5-.2 24-1.7 23.4-.8-.2-4-.5-7-.5h-5.3V337l4.2.6zm38 3.8 4.8.7v46.9h-2.4c-1.3 0-5-.3-8.5-.7l-6.1-.6V341l3.7.5c2.1.3 6 .9 8.5 1.1m26 2.5h3.8v47.2l-7.3-.3-7.3-.3-.3-24-.1-23.8 3.7.7c2 .2 5.4.5 7.5.5M228 370l.2 23.3-2.2-.3-2.3-.4-.3-23.3-.3-23.3 2.3.4 2.3.2zm153.2 1.6V419l4.2.6 20.3 2a4709 4709 0 0 1 63.5 6.6c5.1.4 10.6 1 11.8 1h2.5l-.8-44.7c-.4-24.7-.8-45-1-45.2s-16.4-2.7-36-5.7l-48-7.4c-6.9-1-13.5-2-14.6-2-1.9 0-1.9.8-1.9 47.4m18.3-43c8.4 1.5 29.8 4.8 47.6 7.6 18 2.8 32.6 5.1 32.7 5.3 0 .1.4 19.1.5 42.4l.3 42.3h-3.4c-3.4 0-63.3-6-83-8.3l-10.5-1.3-.2-45.2c-.1-24.8 0-45.2.3-45.2zm-9.3 45c0 21.8.3 39.6.7 39.6 1.3 0 30 2.9 54.3 5.4 12.9 1.5 25 2.7 27 2.8l3.4.3-.2-23.5c-.2-13-.6-30-.9-37.7-.6-13.7-.7-14.2-3-14.7a2178 2178 0 0 0-78.4-11.6h-3zm23.8-34 13.2 2.2-6.6 2q-6.6 2.4-9.3 1.4c-1.5-.5-6.5-1.1-11-1.5l-8.1-.8v-6.7l4.2.6zm21 39.8.2 35.7h-4.8l-.6-22.5c-.3-12.5-.6-28.8-.6-36.1V343l2.7.3 2.7.4zm21.2-33.7c8.4 1.4 15.4 2.7 15.5 2.8l1 35.5.6 35.2-5.3-.6c-3-.4-5.6-1-5.8-1.2a512 512 0 0 1-.8-33.1l-.3-32.8-10.9-1.2c-6-.8-11.3-1.7-11.8-2s-1.2-1.7-1.5-2.9c-.7-2.8-.2-2.8 19.3.3m-53.3 0c3.4.4 6.3 1 6.3 1.3l.6 32.9c.4 28.8.4 32.3-1 32.3s-1.7-2.1-1.9-14.3c0-7.8-.2-16.3-.3-18.8l-.3-17.6-.1-13.1-4.3-.7c-8-1.2-9.7-1.7-9.7-2.7 0-.5 1-.8 2.2-.5s5 .8 8.5 1.2m24.3 15.6v17.2l-4.7-.7-6.4-.7c-1.9 0-2-1-2-14.3v-14.3l5.3-2.1c2.8-1.2 5.8-2.1 6.5-2.1 1-.1 1.3 4 1.3 17m-14.2.6-.2 15.8-.8-14.5c-.9-13.3-.7-17 .6-17 .3 0 .5 7 .4 15.7m-9.1-12.2c1 .3 1.3 3.9 1.3 13.6v13.2l-3.8-.7c-2.1-.3-5-.6-6.5-.6h-2.7V348l5.2.6c2.8.3 5.8.8 6.5 1m36.3 33.7c0 43.6-1.8 43-2.7-1-.6-29.7-.5-32.2 1-32.2s1.7 3 1.7 33.2m16.6-31c2.1 0 2.1.2 2.6 32.2.2 17.6.2 32.4 0 32.9q-.6.7-1.6-.3c-.8-.7-1.3-10.7-1.5-32l-.3-30.8-6.9-.7c-3.8-.4-7.2-1.1-7.5-1.7q-.8-1 6.2-.2c3.8.4 7.8.8 9 .7m-3 4.2c.2.1.6 6 1 13l.7 12.9-4-.6c-2.1-.4-5-.7-6.6-.7h-2.7V355l5.7.6c3.2.4 5.9.8 6 1m-52 21.2 3.4.5v34.2l-3.8-.7c-2.1-.3-5-.6-6.5-.6h-2.7v-34.6l3.2.3zm11.1 26.6c-.2 5.1-.4 1.2-.4-8.7 0-10 .2-14.1.4-9.3s.2 12.8 0 18m14-23.8c.2.1.6 7.9 1 17l.5 16.9-6-.5c-3.5-.2-6.3-.7-6.6-.9s-.6-8-1-17.3l-.6-16.9 6.2.7c3.5.4 6.3.9 6.5 1m25 3.2 3.3.5v33.1l-3.8-.6a44 44 0 0 0-6.5-.6h-2.7v-33.6l3.2.3zM114.2 490.6v59.3l27.7.7c15.3.2 43.7.6 63.3.7l35.4.1.3-13.9c.1-7.6 0-32.5-.5-55.3l-.7-41.6-4.5-.1-82-6.3-38.3-3c-.4 0-.7 26.7-.7 59.4m28.6-55c11.4 1 32.1 2.5 45.8 3.5l36.9 2.7c7.1.4 12 1.1 12.2 1.8s.5 24.6.8 53.3l.6 52.2h-23.8c-13.1 0-40.8-.3-61.5-.5l-37.6-.7V434.2h2.8c1.6 0 12.3.6 23.8 1.5m-18.4 54.7c.4 27 .8 49.3 1 49.5.5.4 105.1 3 106 2.6.4-.2.8-21.2.8-46.7v-46.4l-5.3-.6-35.2-2.5q-50-3.3-62.5-4.6l-5.3-.5zm57.3-41.7c49.3 3.8 47.5 3.5 47.5 5.7 0 1.7-.7 1.9-5.3 1.4-6.8-.8-91.8-6.6-95.2-6.6q-2.6 0-2.5-1.8 0-1.7.4-2.3c.5-.4 5.5 0 55 3.6m-9 5c62.9 4.2 56.5 3.5 56.5 6.2 0 1.3-.4 2.4-.8 2.4l-22.2-1.6-47.6-3c-31.5-1.8-32.4-2-32.4-4.3 0-2.6.6-3 4.8-2.5 2 .2 20.8 1.6 41.6 2.9m11.5 7.1c21.1 1.4 40 2.4 41.7 2.4 2.8 0 3.3.4 3.3 2.6 0 1.3-.4 2.5-.8 2.5l-76.2-4.5c-13-.9-24.1-1.5-24.8-1.5s-1.2-1.3-1.2-2.7v-2.7l9.7.8zm10 6.9c34.1 1.9 35 2 35 4.7 0 1.9-.5 2-6.3 1.5-3.4-.4-23.8-1.5-45.2-2.7-50.3-2.5-51.5-2.6-51.5-4.8q0-1.7.4-2.2c.2-.3 9 0 19.7.7s32.1 2 47.9 2.8m-7.6 5.5c19.3 1.2 36.7 2 38.8 2 3.3 0 3.8.4 3.8 2.5 0 2.3-.3 2.4-5.3 2-2.9-.3-23.7-1.3-46.2-2.5-51.4-2.5-51.5-2.5-51.5-5.1 0-2.4-4.9-2.5 60.4 1.1m.6 6.1 39.2 2c2.1 0 2.8.4 2.8 2.1 0 2.1-.2 2.2-12.8 1.5l-46.2-2.2c-44.1-2-44-2-43.3-4.6.5-2 1-2.1 12.1-1.4zm-5 5.4c45.5 2 47 2.2 47 4.7 0 2-.5 2-12.3 1.4l-88.8-4.5c-.4 0-1-1-1.3-2.1-.6-2.2-.5-2.2 10.1-1.5 6 .2 26.3 1.3 45.3 2m-18 5c14.5.9 33.7 1.7 42.4 2 20.5.9 22.6 1.1 22.6 3.5 0 1.7-.7 1.8-7.3 1.5l-51.3-2.5c-24.2-1.2-44-2.2-44.4-2.5q-.1-.4.3-2c.7-1.8 3.4-1.8 37.7 0m-17.6 5 44 2c16.6.9 32 1.6 34.3 1.6 4 0 4.3.2 4.3 2.5 0 2.6-.1 2.6-6.8 2-3.7-.2-24.5-1.2-46.2-2-47.8-2-50.4-2.1-49.7-4.1q.7-1.6.7-2.5.2-.8 2.7-.4c1.5.2 9 .7 16.7 1m21.6 7 46.2 2.2 14.8.7v4.9l-10.3-.7c-11.2-.6-44.7-2-73.5-3.1l-18.2-.7v-2.3c0-3-1.8-3 41-1m16.4 7.1c24.2.9 44.4 2 44.8 2.4.5.4.6 1.5.2 2.3-.5 1.3-2 1.5-8.3 1.2-8.9-.5-86.4-3.5-91-3.5-2.7 0-3.1-.3-3.1-2.5 0-2.5 0-2.5 6.7-2 3.7.3 26.5 1.3 50.7 2.1m-1 6c43.9 1.6 46.5 1.9 46.6 4.7 0 1-2.1 1-38-.2-67.6-2.2-65-2-65-4.5 0-2 .4-2.1 5.7-1.9zm4.8 5.9c32.5.9 40 1.4 40.8 2.6q.8 1.4.5 1.8c-.6.5-83-1.7-94.3-2.4-6.9-.5-8.2-1-8.2-2.3 0-1.6 1-1.7 10.7-1.4zm12.7 5.7c25.6.8 31 1.5 28.5 3.7-.5.5-23.8 0-51.7-.7-49-1.4-50.7-1.5-50.7-3.4 0-2.2 1.8-2.1 73.9.4m-9.9 5c20.6.6 37.9 1.5 38.4 2q.9 1 0 1.7c-.8.7-34.9.1-100.2-1.8q-2.3.1-2.2-2.2c0-2 .1-2 13.2-1.5 7.3.4 30.1 1.1 50.8 1.8m11.7 5.5c20.3.5 26.3 1 26.3 2s-2.8 1.2-12.3.8c-14.6-.6-81.2-2.5-86.3-2.5-2 0-3.4-.5-3.4-1.1 0-.9 6.2-1 24.7-.5zm178.7-82.7c-.2.2-.4 22.7-.4 50.2V554l30.2.6 51 .8 20.8.3v-94.3l-6.8-.7-35.2-2.6c-15.7-1-35.4-2.6-43.8-3.3-8.5-.6-15.5-1-15.8-.7m45.6 5 47.7 3.6 6.3.7v90.1l-48.3-.8c-26.6-.3-48.5-1-48.7-1.1-.1-.2-.5-21.7-.8-48-.4-39.7-.3-47.4.8-47.4.8 0 20.1 1.3 43 3m-39 45.5v42.5l10.2.2c28 .2 72.5 1.7 74.6 2.4l2.4.8-.4-40.1c-.2-22-.7-40.3-1-40.6-.5-.7-7-1.2-50.3-4.6l-30.3-2.5-5.2-.5zm31-37c9.6.9 24.9 2 34 2.7 9 .5 17 1.2 17.7 1.5 1 .2 1.3 8.7 1.3 37.8 0 36.9 0 37.5-2 37.5s-2-.7-2.2-37.2l-.3-37.3-5-.1c-6.4-.4-55.7-4.1-64.8-5-3.7-.4-6.7-1-6.7-1.4s2.3-.6 5.2-.3zm10 4 28.2 2.2c6.4.5 8.8 1 8.8 2q-.1 1.3-.8 1.3a3840.3 3840.3 0 0 0-72.5-5q-1.6-.1-1.7-1.5c0-2-.9-2 38 1m-2 4.6c36.4 2.4 39 2.6 39 4.5s1.8 1.8-23 0c-11.3-.8-24.6-1.8-29.5-2-20.3-1.3-22.5-1.6-22.5-3.5q-.1-1.8 2.2-1.4c1.2.2 16.5 1.2 33.8 2.4m8 5.5c29 1.8 31 2 31 4 0 1.8 1.8 1.9-42.5-1-30.9-2.1-32.5-2.3-32.5-4.2 0-1.5 1.2-1.6 9.7-1zm-8 4.5c38.2 2.4 39 2.5 39 4.6 0 1.4-1.5 1.5-10.8.9l-63-3.5q-1.1-.2-1.2-2c0-2.5-3-2.5 36 0m7 5.9c27.8 1.5 32 2 32 3.7s-3.8 1.7-38-.1c-14.6-.9-29-1.5-31.8-1.5-4.8 0-5.2-.2-5.2-2.3 0-2.2 0-2.2 11.2-1.5 6.2.2 20.5 1.1 31.8 1.7m1.5 5.6 29.2 1.4c.7 0 1.3 1 1.3 2.1 0 2-.4 2.1-7.8 1.5l-30.2-1.6c-34.3-1.5-37-1.8-37-4.2 0-1.8.5-1.9 8.2-1.3 4.6.4 20.8 1.3 36.3 2m-3.3 5.1c32 1.7 33.8 1.8 33.8 3.7 0 1.8-.6 1.9-10.3 1.3-10-.7-56.4-2.6-62-2.6q-2.8 0-2.7-2c0-2.6-1.5-2.6 41.2-.4m-2.7 5.4c34 1.2 36.5 1.4 36.5 3.7 0 1.2-1.4 1.4-8.8 1-4.8-.4-16.4-1-25.7-1.2-35.8-1.1-40.5-1.5-40.5-3.5 0-1.6.7-1.7 3.7-1.5 2.1.2 17.7.9 34.8 1.5m19.3 5.6c12.6.6 16.5 1 16.9 2q.5 1.4 0 2c-.3.3-12.2 0-26.4-.6s-30.9-1-37-1.1c-10.7-.1-11.3-.3-11.3-2.2s.3-2 20.7-1.3zm-20.4 4.4c18.2.6 34 1.3 35.3 1.5 1.2.3 2.3 1.2 2.3 2 0 1.5-1.8 1.6-16.3 1.1-8.9-.3-25.8-1-37.5-1.2-19.9-.7-21.2-.8-21.2-2.6q0-1.9 2.2-1.9zm32.8 6.6q4.8.5 4.8 2.1c0 1.2-1.3 1.4-6.8.9-3.7-.3-20.6-.9-37.5-1.2-26.6-.6-30.7-1-30.7-2.2 0-1.4 3.7-1.5 32.7-.8 18 .4 35 1 37.5 1.2m-26 4c26.5.5 32.4 1 30.5 3-.2.2-17.2 0-37.7-.3-35.7-.7-37-.8-37-2.6s.5-1.9 7.2-1.3c4 .3 20.6.9 37 1.1m22.5 5c6.4.5 8.3.8 8.3 2 0 1.4-3.7 1.5-30.8 1-36.5-.8-44.2-1.3-44.2-3.1 0-1 6-1.1 29.2-.9 16.1.2 33 .7 37.5 1m-4 5c6.7.3 12.3 1 12.3 1.5 0 1-29.4 1.1-56.3.3-15.3-.6-18.7-1-18.7-2.1 0-1.3 3.7-1.4 25.2-.9zm4 4c6.4.5 8.3 1 8.3 2.1 0 1.4-2.1 1.5-15.8.9-8.6-.3-25.6-.6-37.5-.6-18.7 0-21.7-.3-21.7-1.5 0-1.3 3.9-1.5 29.2-1.5 16.1 0 33 .3 37.5.6m62.3-320c-1.8.8-3 1.8-2.7 2 .5.5 6.7-2.3 6.7-3.2 0-.5.2-.6-4 1.2m618.4 133c-13.2 2.7-15 3.1-14.2 4s28-4.7 29.2-5.8c1.4-1.3-1.5-.9-15 1.8M534.2 259c-1.4 1-1.4 1 0 1 .8 0 2.1-.4 3-1q2-1.1 0-1c-.9 0-2.2.5-3 1m721.5 4-32.5 7.5a491 491 0 0 0-31.3 7.8c-1.8 1-1.8 2.8-1.6 35.8.3 31.1.5 35.1 2 36.5 2 2 1.8 2 40.9-6.5 9.6-2.1 19.7-4.1 22.5-4.5a18 18 0 0 0 6.3-1.8c1.1-1 1.2-6.4.6-30.6-.8-33.8-1.5-44.4-3-44.7-.5-.1-2.3.1-4 .5m2.8 19.4c.4 8.8.8 24.6.9 35.1l.3 18.9-32.5 6.8a234 234 0 0 1-33.3 6c-.6-.6-1.3-16-1.6-34.5l-.4-33.6 2.3-.8c1.4-.6 12.1-3.2 24-5.8s24.8-5.5 29-6.5c11.8-2.8 10.7-4.2 11.3 14.4m-16.8-7.8c-5.5 1.4-14.9 3.3-20.9 4.4-12.7 2.4-16.6 4.1-20.7 9-6.9 8.2-7.2 19.2-.7 24.6l3.2 2.7.6 13.2.5 13 4-.3c5.4-.4 43.4-7.9 46.2-9.1 2.2-1 2.3-1.4 2.2-14.8-.3-29.4-1.4-44.7-2.9-44.8-.9-.2-6 .8-11.5 2.1m10.8 18.6c.3 10 .7 22.4.7 27.4v9.4l-3.8.6-10.8 2-18 3.5-13.2 2.5c-2.2.5-2.2.4-2.2-11.7v-12.3l-3.6-3.7c-6.9-7-5-17.7 4.2-24.2 6.2-4.3 18.4-5.4 18.4-1.6 0 .4-1.2 1-2.5 1.4-4 1-9.3 6.2-11 11a23 23 0 0 0 9.4 27.7c5.5 3.5 3.4 3.7-3.7.4-6.2-2.9-7.1-1.5-1 1.6 5.8 3 17.6 3.2 23.3.2 9.7-5 13.4-19.6 6.7-27.4a28 28 0 0 0-7.2-5.5 27 27 0 0 1-8.1-6.6 55 55 0 0 0-4.7-5.5c-1.2-1-1.2-1.3.8-1.9l25-5.4c.4 0 1 8.1 1.3 18.1m-24.4-1.5c1.3 1.9 4.5 4.6 7.1 5.9 9 4.6 11.7 11.3 7.8 19.2-3 6-6.6 8.5-11.7 8.5s-11.8-3.8-16-9c-7-8.2-4.3-22 5-26.5 4.6-2.3 5-2.2 7.8 1.9m103.2 151.1c-23.2 22.8-27.3 27.2-27 29.3.2 1.7 6.5 8 20.3 20.8 32.2 29.6 35 32 37.7 32.7 3.2.8 4.6-.4 37.2-31.8 19.2-18.6 22.7-22.4 22.5-24.6-.3-2.7-8.5-10.5-39.8-37.9-14.5-12.7-17.9-15.2-20.4-15.2-2.7 0-6.8 3.6-30.5 26.7m42.5-16c25.7 22 46.4 41.2 46.4 42.8 0 1.2-43.5 43.9-51.9 50.9-4 3.4-4.4 3.5-7 2.1a838 838 0 0 1-55.1-50.8c0-1.2 18.2-19.5 43.2-43.5 9.7-9.4 12-11.2 13.5-10.3 1 .5 5.8 4.5 10.9 8.7m-31 26c-17.3 17-17.8 17.6-16 19.3 5.4 5.2 35 31.2 36.1 31.7 1.3.5 33-29 36-33.5l1.5-2.6-6.8-6.4a290 290 0 0 0-31.7-26.2c-.7 0-9.3 8-19 17.6m25.4-10.6c3.5 2.7 11.7 9.8 18.2 15.6l12 10.6-7.4 7.3a645 645 0 0 1-17.4 16.8l-10 9.4-15.5-13.5a678 678 0 0 1-18-16l-2.4-2.4 17-16.4 17-16.5c.2 0 3 2.2 6.5 5M456.1 597.9c-.8 4.7.1 5.8 3.9 3.9 1.7-.9 4.2-1.6 5.6-1.6 2.3 0 2.5.2 1.5 2.5q-2.3 6.4 1 6.4c2.1 0 2.7 1.5 1.1 2.6q-1 .6-1 1.4c0 1 5.9-.5 7.2-1.8 1.6-1.6-.4-4.2-3.2-4.2s-3 0-2.7-4.6l.2-4.8h-3.5c-2 0-4.7.5-6.2.9-2.3.6-2.7.4-3-1.6q-.4-3-1 .9"/>
    <path fill="#16599c" fill-rule="evenodd" d="m1021.4 755 54.1 3.9-120.2 66.5q-43.4 24-67.1 35-25.5-2.6-41.3-4.8t-16-3.4q18.6-8 61.1-29.8 42.6-21.9 129.4-67.5m-84.8-5 42.9 3.2-176.3 93.4-72.4-10q49.8-22 88.8-38.3 39-16.5 117-48.4m-81-7.4 40 5.2-205.4 84-61-8zm-83.7-7.8 45 5q-56.4 22.5-98.9 36.6-42.4 14-137.5 41.8l-55.2-8q92.6-29.1 141-43.8A9637 9637 0 0 1 772 734.8m-73.6-9.3 40.4 4.5-257.4 73-61-10.3q108.8-27.9 162.9-41 54-13 115-26.2m-77.8-4.5 38.3 3.3a7177 7177 0 0 0-149.2 31.9q-48.9 11.2-127.8 31.9L334 777.3q98.9-24.1 148.1-33.9 49.3-9.7 138.3-22.4m-109.1-8.4 35.6 3.7-250.5 53.3-41.9-10zm-40.6-6.1-247.2 45.3-34.3-8.2z"/>
    <g fill-rule="evenodd" stroke="#bfc6cc" stroke-linecap="round">
      <path stroke-width="2" d="m1500 662.2-541.4 43.4L0 782.3M1500 662.2l-541.5 52L0 806M1500 662.2 958.7 725 0 836M1500 662.2l-541 77.2L0 876"/>
    </g>
    <g fill-rule="evenodd" stroke="#1fab7c" stroke-linecap="round">
      <path stroke-width="2" d="M0 782.3q895.8-95 1137-143t181.9-61.7"/>
      <path stroke-width="2" d="M0 806q872.8-103.7 1134.7-159.9 261.8-56.1 184.2-68.5"/>
      <path stroke-width="2" d="M0 836q865.8-122.6 1137-183.7t181.9-74.7"/>
      <path stroke-width="2" d="M0 876Q852 731 1137 659.4q285-71.7 181.9-81.7"/>
    </g>
    <g fill-rule="evenodd" stroke="#ffc50a" stroke-dasharray="0 5" stroke-linecap="round" stroke-linejoin="round">
      <path stroke-width="2" d="M272.6 715.1q139.6-24.3 549.9 62.3 410.2 86.7 677.5 196.9"/>
      <path stroke-width="2" d="M272.6 715.1q161-10.8 550 71.3 389.1 82.2 677.4 187.9"/>
      <path stroke-width="2" d="M272.6 715.1q170.2 0 550 80.3 379.6 80 677.4 178.9"/>
      <path stroke-width="2" d="M272.6 715.1q180 11.1 549.9 89.2a8560 8560 0 0 1 677.5 170"/>
      <path stroke-width="2" d="M272.4 715.1q190.5 22.3 550.1 98.2a13084 13084 0 0 1 677.5 161"/>
      <path stroke-width="2" d="M272.6 715.1q200.6 33.4 550 107.2 349.2 73.7 677.4 152"/>
      <path stroke-width="2" d="m272.6 715.1 549.9 116.1 677.5 143"/>
    </g>
    <g fill-rule="evenodd" stroke="#fd9300" stroke-linecap="round">
      <path stroke-width="2" d="m1352.1 592.6-952.3 538.8M1352.1 592.6 287.2 1150M1352.1 592.6 200.3 1150M1352.2 592.6q-130.4 51.9-401 172.8Q680.7 886.2 241 1087.5"/>
    </g>
  </g>
</svg>
