<svg xmlns="http://www.w3.org/2000/svg" viewBox="0 0 1598 1598">
<g fill="none" fill-rule="evenodd" transform="translate(1 -35)">
<path fill="#16599c" d="M1436.8 106.6a17.5 17.5 0 1 1 0 35 17.5 17.5 0 0 1 0-35m0 49c9.7 0 17.5 7.9 17.5 17.6v266.4a17.5 17.5 0 0 1-35 0V173.2c0-9.7 7.8-17.5 17.5-17.5M24.5 422a24.5 24.5 0 1 1 0 49.2 24.5 24.5 0 0 1 0-49.1m0 84.2c13.6 0 24.6 11 24.6 24.6V748a24.5 24.5 0 1 1-49.1 0V530.8c0-13.6 11-24.6 24.5-24.6M80.6 134.6a17.5 17.5 0 1 1-17.5 17.6c0-9.7 7.8-17.6 17.5-17.6m0 49.1c9.7 0 17.6 7.9 17.6 17.6V848a17.5 17.5 0 0 1-35.1 0V201.3c0-9.7 7.8-17.6 17.5-17.6"/>
<rect width="7" height="730.6" x="112.2" y="50.5" fill="#16599c" rx="3.5"/>
<path fill="#16599c" d="M25.2 792.3a7 7 0 0 1 7 7v21a7 7 0 1 1-14 0v-21a7 7 0 0 1 7-7m0 49a7 7 0 0 1 7 7.1v668a7 7 0 0 1-14 0v-668a7 7 0 0 1 7-7M129.7 795c9.7 0 17.5 8 17.5 17.6v.1a17.5 17.5 0 0 1-35 0c0-9.8 7.8-17.6 17.5-17.6m0 49.3c9.7 0 17.5 7.9 17.5 17.5v77.5a17.5 17.5 0 1 1-35 0v-77.5c0-9.6 7.8-17.5 17.5-17.5"/>
<path fill="#1fab7c" d="M164.8 430.5a24.5 24.5 0 1 1 0 49 24.5 24.5 0 0 1 0-49m0 84.1c13.5 0 24.5 11 24.5 24.6v217.3a24.5 24.5 0 0 1-49 0V539.2c0-13.6 11-24.6 24.5-24.6M168.3 795a7 7 0 1 1-7 7v.1a7 7 0 0 1 7-7m0 28.2a7 7 0 0 1 7 7V1139a7 7 0 1 1-14 0v-309a7 7 0 0 1 7-7"/>
<path fill="#16599c" d="M130.4 970.8a7 7 0 1 1 0 14 7 7 0 0 1 0-14m0 28a7 7 0 0 1 7 7v28.1a7 7 0 1 1-14 0v-28a7 7 0 0 1 7-7M129.7 1055a17.5 17.5 0 1 1 0 35 17.5 17.5 0 0 1 0-35m0 49c9.7 0 17.5 7.9 17.5 17.6v77.1a17.5 17.5 0 0 1-35 0v-77.1c0-9.7 7.8-17.6 17.5-17.6M210.3 50.5a7 7 0 1 1 0 14 7 7 0 0 1 0-14m0 28a7 7 0 0 1 7 7v688.6a7 7 0 1 1-14 0V85.5a7 7 0 0 1 7-7M206.8 795c9.7 0 17.6 8 17.6 17.6v.1a17.5 17.5 0 0 1-35 0c0-9.8 7.8-17.6 17.4-17.6m0 70.4c9.7 0 17.6 7.8 17.6 17.5v56.4a17.5 17.5 0 0 1-35 0v-56.4c0-9.7 7.8-17.5 17.4-17.5M543.4 631a17.5 17.5 0 1 1 0 35 17.5 17.5 0 0 1 0-35m0 70.1c9.7 0 17.5 7.9 17.5 17.6v56a17.5 17.5 0 1 1-35 0v-56c0-9.7 7.8-17.6 17.5-17.6M73.6 1258.3a17.5 17.5 0 1 1 0 35 17.5 17.5 0 0 1 0-35m0 49c9.7 0 17.5 8 17.5 17.6v266.4a17.5 17.5 0 0 1-35 0V1325c0-9.7 7.8-17.5 17.5-17.5"/>
<rect width="7" height="350.6" x="112.2" y="1237.3" fill="#16599c" rx="3.5"/>
<rect width="7" height="350.6" x="129" y="1237.3" fill="#14406a" rx="3.5"/>
<path fill="#16599c" d="M168.3 1160.1a7 7 0 1 1 0 14 7 7 0 0 1 0-14m0 28a7 7 0 0 1 7 7.1v119.2a7 7 0 0 1-14 0v-119.2a7 7 0 0 1 7-7M164.8 1342.4a17.5 17.5 0 1 1 0 35 17.5 17.5 0 0 1 0-35m0 70.1c9.6 0 17.5 7.9 17.5 17.6v245.4a17.5 17.5 0 0 1-35 0V1430c0-9.7 7.8-17.6 17.5-17.6M256 50.5a24.5 24.5 0 1 1 0 49 24.5 24.5 0 0 1 0-49m0 84.1c13.5 0 24.5 11 24.5 24.6v217.3a24.5 24.5 0 1 1-49.1 0V159.2c0-13.6 11-24.6 24.5-24.6M273.4 1174.2a7 7 0 1 1 0 14 7 7 0 0 1 0-14m0 28a7 7 0 0 1 7 7v308.5a7 7 0 1 1-14 0v-308.5a7 7 0 0 1 7-7M312 309.9a17.5 17.5 0 1 1 0 35 17.5 17.5 0 0 1 0-35m0 49c9.7 0 17.5 8 17.5 17.6v77.1a17.5 17.5 0 0 1-35 0v-77c0-9.8 7.8-17.6 17.5-17.6"/>
<rect width="7" height="98.2" x="294.5" y="211.7" fill="#14406a" rx="3.5"/>
<rect width="7" height="84.1" x="336.5" y="225.8" fill="#16599c" rx="3.5"/>
<path fill="#14406a" d="M319 50.5a24.5 24.5 0 1 1 0 49 24.5 24.5 0 0 1 0-49m0 70c13.6 0 24.6 11 24.6 24.6v42.1a24.5 24.5 0 0 1-49.1 0v-42c0-13.6 11-24.6 24.5-24.6"/>
<path fill="#16599c" d="M308.5 492.2a7 7 0 0 1 7 7v21a7 7 0 0 1-14 0v-21a7 7 0 0 1 7-7m0 49a7 7 0 0 1 7 7v287.6a7 7 0 0 1-14 0V548.3a7 7 0 0 1 7-7M326 855.8a24.5 24.5 0 1 1 0 49.1 24.5 24.5 0 0 1 0-49m0 84.2c13.6 0 24.6 11 24.6 24.5V1562a24.5 24.5 0 1 1-49.1 0V964.5c0-13.5 11-24.5 24.5-24.5"/>
<path fill="#14406a" d="M424.2 660.5a17.5 17.5 0 1 1-17.5 17.6v-.1c0-9.7 7.8-17.5 17.5-17.5m0 70.2c9.7 0 17.5 7.8 17.5 17.5V994a17.5 17.5 0 0 1-35 0V748.2c0-9.7 7.8-17.5 17.5-17.5"/>
<path fill="#16599c" d="M480.3 124.8a24.5 24.5 0 1 1-24.5 24.6c0-13.6 11-24.6 24.5-24.6m0 84.2c13.5 0 24.5 11 24.5 24.5v597.8a24.5 24.5 0 1 1-49 0V233.5c0-13.5 11-24.5 24.5-24.5"/>
<path fill="#1fab7c" d="M480.3 1025.5a17.5 17.5 0 1 1 0 35 17.5 17.5 0 0 1 0-35m0 49.1c9.7 0 17.5 7.8 17.5 17.5v266.5a17.5 17.5 0 0 1-35 0V1092c0-9.7 7.8-17.5 17.5-17.5"/>
<path fill="#16599c" d="M606.5 422a24.5 24.5 0 1 1-24.5 24.6c0-13.5 11-24.5 24.5-24.5m0 84.3c13.5 0 24.5 11 24.5 24.5v597.8a24.5 24.5 0 1 1-49 0V530.8c0-13.5 11-24.5 24.5-24.5M605.8 1167.2a7 7 0 0 1 7 7v21a7 7 0 0 1-14 0v-21a7 7 0 0 1 7-7m0 49a7 7 0 0 1 7 7v287.5a7 7 0 1 1-14 0v-287.5a7 7 0 0 1 7-7M544 415a7 7 0 1 1 0 14 7 7 0 0 1 0-14m0 28.1a7 7 0 0 1 7 7v28a7 7 0 1 1-14 0v-28a7 7 0 0 1 7-7M434.7 1025.5a7 7 0 0 1 7 7v21a7 7 0 0 1-14 0v-21a7 7 0 0 1 7-7m0 49.1a7 7 0 0 1 7 7v98.2a7 7 0 0 1-14 0v-98.2a7 7 0 0 1 7-7M735.5 1153.1a24.5 24.5 0 1 1 0 49.1 24.5 24.5 0 0 1 0-49m0 70.1c13.5 0 24.5 11 24.5 24.6v42a24.5 24.5 0 0 1-49 0v-42c0-13.6 11-24.6 24.5-24.6M669.6 1517.7a17.5 17.5 0 1 1 0 35 17.5 17.5 0 0 1 0-35m0 70.1c9.7 0 17.5 7.9 17.5 17.6v56a17.5 17.5 0 0 1-35 0v-56c0-9.7 7.8-17.6 17.5-17.6"/>
<rect width="7" height="731" x="646.4" y="422.1" fill="#16599c" rx="3.5"/>
<rect width="7" height="350.6" x="624" y="1167.2" fill="#16599c" rx="3.5"/>
<rect width="7" height="161.3" x="476.8" y="1376.1" fill="#1fab7c" rx="3.5"/>
<rect width="7" height="350.6" x="560.9" y="968" fill="#16599c" rx="3.5"/>
<path fill="#16599c" d="M564.4 1318.6a17.5 17.5 0 1 1 0 35 17.5 17.5 0 0 1 0-35m0 70.1c9.7 0 17.5 7.9 17.5 17.5v56.1a17.5 17.5 0 1 1-35 0v-56c0-9.7 7.8-17.6 17.5-17.6M595.3 1517.7a17.5 17.5 0 1 1 0 35 17.5 17.5 0 0 1 0-35m0 49.1c9.6 0 17.5 7.8 17.5 17.5v77.1a17.5 17.5 0 0 1-35 0v-77c0-9.8 7.8-17.6 17.5-17.6M553.9 1493.9a7 7 0 1 1 0 14 7 7 0 0 1 0-14m0 28a7 7 0 0 1 7 7v119.2a7 7 0 0 1-14 0V1529a7 7 0 0 1 7-7"/>
<rect width="7" height="204.7" x="427.7" y="1186.8" fill="#16599c" rx="3.5"/>
<path fill="#1fab7c" d="M1572.8 1077.4a17.5 17.5 0 1 1 0 35 17.5 17.5 0 0 1 0-35m0 49c9.7 0 17.6 8 17.6 17.6v266.4a17.5 17.5 0 0 1-35 0V1144c0-9.7 7.8-17.5 17.4-17.5"/>
<path fill="#16599c" d="M1527.3 1077.4a7 7 0 0 1 7 7v21a7 7 0 0 1-14 0v-21a7 7 0 0 1 7-7m0 49a7 7 0 0 1 7 7.1v98.2a7 7 0 0 1-14 0v-98.2a7 7 0 0 1 7-7M1523.8 1442a24.5 24.5 0 1 1 0 49 24.5 24.5 0 0 1 0-49m0 70.1c13.5 0 24.5 11 24.5 24.5v42.1a24.5 24.5 0 1 1-49 0v-42c0-13.6 11-24.6 24.5-24.6"/>
<rect width="7" height="161.3" x="1569.3" y="1428" fill="#16599c" rx="3.5"/>
<rect width="7" height="204.7" x="1520.3" y="1238.7" fill="#16599c" rx="3.5"/>
<path fill="#16599c" d="M599.5 71.5a17.5 17.5 0 1 1 0 35 17.5 17.5 0 0 1 0-35m0 70.1c9.6 0 17.5 7.9 17.5 17.6v245.4a17.5 17.5 0 1 1-35 0V159.2c0-9.7 7.8-17.6 17.5-17.6M1142.1 78.5a17.5 17.5 0 1 1 0 35 17.5 17.5 0 0 1 0-35m0 70.1c9.7 0 17.6 7.9 17.6 17.6v245.4a17.5 17.5 0 0 1-35 0V166.2c0-9.7 7.8-17.6 17.4-17.6M700.4 239.8a24.5 24.5 0 1 1 0 49 24.5 24.5 0 0 1 0-49m0 70.1c13.6 0 24.6 11 24.6 24.5v42.1a24.5 24.5 0 0 1-49.1 0v-42c0-13.6 11-24.6 24.5-24.6M385.6 50.5a7 7 0 0 1 7 7v21a7 7 0 1 1-14 0v-21a7 7 0 0 1 7-7m0 49a7 7 0 0 1 7 7v308.6a7 7 0 1 1-14 0V106.6a7 7 0 0 1 7-7M648.5 50.5a17.5 17.5 0 1 1 0 35 17.5 17.5 0 0 1 0-35m0 49c9.7 0 17.6 8 17.6 17.6v77.1a17.5 17.5 0 0 1-35 0v-77.1c0-9.7 7.8-17.5 17.4-17.5M653.5 352a7 7 0 1 1 0 14 7 7 0 0 1 0-14m0 28a7 7 0 0 1 7 7v28a7 7 0 1 1-14 0v-28a7 7 0 0 1 7-7"/>
<rect width="7" height="680.1" x="420.7" y="50.5" fill="#16599c" rx="3.5"/>
<path fill="#1fab7c" d="M479.6 955.4a7 7 0 1 1 0 14 7 7 0 0 1 0-14m0 28a7 7 0 0 1 7 7v28.1a7 7 0 0 1-14 0v-28a7 7 0 0 1 7-7"/>
<rect width="7" height="56.1" x="343.6" y="772.6" fill="#16599c" rx="3.5"/>
<path fill="#16599c" d="M378.6 864.3a7 7 0 0 1 7 7v21a7 7 0 0 1-14 0v-21a7 7 0 0 1 7-7m0 49a7 7 0 0 1 7 7v98.2a7 7 0 0 1-14 0v-98.1a7 7 0 0 1 7-7M742.5 78.5a17.5 17.5 0 1 1 0 35 17.5 17.5 0 0 1 0-35m0 49.1c9.7 0 17.5 7.9 17.5 17.5v77.2a17.5 17.5 0 0 1-35 0V145c0-9.6 7.8-17.5 17.5-17.5M1093 78.5a17.5 17.5 0 1 1 0 35 17.5 17.5 0 0 1 0-35m0 49.1c9.7 0 17.6 7.9 17.6 17.5v77.2a17.5 17.5 0 0 1-35 0V145c0-9.6 7.8-17.5 17.5-17.5M1565.8 242.6a24.5 24.5 0 1 1 0 49 24.5 24.5 0 0 1 0-49m0 84.1c13.6 0 24.6 11 24.6 24.6v217.3a24.5 24.5 0 0 1-49.1 0V351.3c0-13.6 11-24.6 24.5-24.6"/>
<path fill="#1fab7c" d="M840.7 625.4a17.5 17.5 0 1 1-17.5 17.6c0-9.7 7.8-17.6 17.5-17.6m0 70.2c9.6 0 17.5 7.9 17.5 17.5V959a17.5 17.5 0 0 1-35 0V713.1c0-9.6 7.8-17.5 17.5-17.5"/>
<path fill="#1fab7c" d="M841.4 274.8a7 7 0 0 1 7 7v21a7 7 0 0 1-14 0v-21a7 7 0 0 1 7-7m0 49.1a7 7 0 0 1 7 7v287.5a7 7 0 1 1-14 0V330.9a7 7 0 0 1 7-7"/>
<path fill="#16599c" d="M889.7 120.6a17.5 17.5 0 1 1-17.5 17.6c0-9.8 7.9-17.6 17.5-17.6m0 70.2c9.7 0 17.6 7.8 17.6 17.5V834a17.5 17.5 0 0 1-35 0V208.3c0-9.7 7.8-17.5 17.4-17.5M784.6 625.4A24.5 24.5 0 1 1 760 650c0-13.6 11-24.6 24.5-24.6m0 84.3c13.5 0 24.5 11 24.5 24.5v217.7a24.5 24.5 0 1 1-49 0V734.2c0-13.6 11-24.5 24.5-24.5"/>
<rect width="7" height="413.7" x="998.4" y="78.5" fill="#16599c" rx="3.5"/>
<path fill="#16599c" d="M952.8 331a17.5 17.5 0 1 1 0 35 17.5 17.5 0 0 1 0-35m0 70c9.7 0 17.6 7.9 17.6 17.6v56a17.5 17.5 0 1 1-35 0v-56c0-9.7 7.8-17.6 17.4-17.6M1016 492.2a17.5 17.5 0 1 1 0 35 17.5 17.5 0 0 1 0-35m0 49c9.6 0 17.5 8 17.5 17.6v77.1a17.5 17.5 0 1 1-35 0v-77.1c0-9.7 7.8-17.5 17.4-17.5M718 1314.4a7 7 0 0 1 7 7v21a7 7 0 0 1-14 0v-21a7 7 0 0 1 7-7m0 49a7 7 0 0 1 7 7V1658a7 7 0 0 1-14 0v-287.4a7 7 0 0 1 7-7"/>
<rect width="7" height="350.6" x="872.2" y="1237.3" fill="#16599c" rx="3.5"/>
<path fill="#16599c" d="M876.4 1601.9a7 7 0 1 1 0 14 7 7 0 0 1 0-14m0 28a7 7 0 0 1 7 7v28a7 7 0 1 1-14 0v-28a7 7 0 0 1 7-7"/>
<rect width="7" height="56.1" x="646.4" y="239.8" fill="#16599c" rx="3.5"/>
<rect width="7" height="56.1" x="1222.8" y="120.6" fill="#16599c" rx="3.5"/>
<rect width="7" height="161.3" x="949.3" y="169.7" fill="#16599c" rx="3.5"/>
<rect width="7" height="161.3" x="1222.8" y="194.9" fill="#16599c" rx="3.5"/>
<rect width="7" height="161.3" x="781.1" y="78.5" fill="#16599c" rx="3.5"/>
<path fill="#16599c" d="M1261.5 120.6a17.5 17.5 0 1 1 0 35 17.5 17.5 0 0 1 0-35m0 49c9.7 0 17.6 8 17.6 17.6v77.1a17.5 17.5 0 0 1-35 0v-77.1c0-9.7 7.8-17.5 17.4-17.5M1317.6 120.6a24.5 24.5 0 1 1 0 49 24.5 24.5 0 0 1 0-49m0 70.1c13.6 0 24.6 11 24.6 24.5v42.1a24.5 24.5 0 0 1-49.1 0v-42c0-13.6 11-24.6 24.5-24.6M1475.4 155.7a7 7 0 1 1 0 14 7 7 0 0 1 0-14m0 28a7 7 0 0 1 7 7v308.5a7 7 0 0 1-14 0V190.7a7 7 0 0 1 7-7M1520.3 214.5a7 7 0 1 1 0 14 7 7 0 0 1 0-14m0 28a7 7 0 0 1 7 7.1v308.5a7 7 0 0 1-14 0V249.6a7 7 0 0 1 7-7"/>
<rect width="7" height="56.1" x="1103.6" y="239.8" fill="#16599c" rx="3.5"/>
<rect width="7" height="56.1" x="1244" y="281.9" fill="#16599c" rx="3.5"/>
<path fill="#16599c" d="M918.5 1076a7 7 0 0 1 7 7v21a7 7 0 0 1-14 0v-21a7 7 0 0 1 7-7m0 49a7 7 0 0 1 7 7v98.3a7 7 0 0 1-14 0V1132a7 7 0 0 1 7-7"/>
<path fill="#1fab7c" d="M1268.5 338a24.5 24.5 0 1 1 0 49 24.5 24.5 0 0 1 0-49m0 84c13.6 0 24.6 11 24.6 24.6V664a24.5 24.5 0 0 1-49 0V446.6c0-13.5 10.9-24.5 24.4-24.5"/>
<path fill="#16599c" d="M1317 281.9a7 7 0 1 1 0 14 7 7 0 0 1 0-14m0 28a7 7 0 0 1 7 7v308.5a7 7 0 0 1-14 0V317a7 7 0 0 1 7-7M1173.7 847.4a7 7 0 1 1 0 14 7 7 0 0 1 0-14m0 28a7 7 0 0 1 7 7V1191a7 7 0 0 1-14 0V882.5a7 7 0 0 1 7-7"/>
<rect width="7" height="161.3" x="1251" y="847.4" fill="#16599c" rx="3.5"/>
<rect width="7" height="161.3" x="1569.3" y="916.1" fill="#1fab7c" rx="3.5"/>
<rect width="7" height="161.3" x="1312.7" y="632.4" fill="#16599c" rx="3.5"/>
<rect width="7" height="731" x="1384.2" y="646.4" fill="#16599c" rx="3.5"/>
<rect width="5.6" height="351" x="1517.4" y="565.1" fill="#16599c" rx="2.8"/>
<rect width="7" height="350.6" x="949.3" y="492.2" fill="#16599c" rx="3.5"/>
<rect width="7" height="161.3" x="1033.5" y="239.8" fill="#16599c" rx="3.5"/>
<path fill="#16599c" d="M1093 295.9a17.5 17.5 0 1 1 0 35 17.5 17.5 0 0 1 0-35m0 70c9.7 0 17.6 8 17.6 17.6v56.1a17.5 17.5 0 1 1-35 0v-56c0-9.8 7.8-17.6 17.5-17.6M1572.8 593.2a17.5 17.5 0 1 1 0 35 17.5 17.5 0 0 1 0-35m0 70c9.7 0 17.6 8 17.6 17.6v56a17.5 17.5 0 0 1-35 0v-56c0-9.7 7.8-17.5 17.4-17.5"/>
<rect width="7" height="351" x="1060.1" y="684.3" fill="#14406a" rx="3.5"/>
<rect width="7" height="350.6" x="1252.4" y="1049.4" fill="#16599c" rx="3.5"/>
<rect width="7" height="909.1" x="1117.6" y="492.2" fill="#16599c" rx="3.5"/>
<path fill="#16599c" d="M1398.3 646.4a7 7 0 0 1 7 7v21a7 7 0 0 1-14 0v-21a7 7 0 0 1 7-7m0 49.1a7 7 0 0 1 7 7v98.2a7 7 0 0 1-14 0v-98.2a7 7 0 0 1 7-7"/>
<rect width="7" height="351" x="1457.2" y="628.2" fill="#14406a" rx="3.5"/>
<rect width="7" height="350.6" x="1321.1" y="1238.7" fill="#16599c" rx="3.5"/>
<path fill="#16599c" d="M1166.7 429a7 7 0 1 1 0 14.1 7 7 0 0 1 0-14m0 28.1a7 7 0 0 1 7 7v119.2a7 7 0 0 1-14 0V464.2a7 7 0 0 1 7-7M1163.9 1428a7 7 0 1 1 0 14 7 7 0 0 1 0-14m0 28a7 7 0 0 1 7 7v119.2a7 7 0 0 1-14 0V1463a7 7 0 0 1 7-7M1324 1077.4a7 7 0 1 1 0 14 7 7 0 0 1 0-14m0 28a7 7 0 0 1 7 7v119.3a7 7 0 0 1-14 0v-119.2a7 7 0 0 1 7-7M1478.2 1099.8a7 7 0 1 1 0 14 7 7 0 0 1 0-14m0 28a7 7 0 0 1 7 7.1v119.2a7 7 0 0 1-14 0v-119.2a7 7 0 0 1 7-7"/>
<rect width="7" height="161.3" x="1356.2" y="429.1" fill="#16599c" rx="3.5"/>
<rect width="7" height="161.7" x="1208.8" y="727.8" fill="#16599c" rx="3.5"/>
<rect width="7" height="161.3" x="949.3" y="903.5" fill="#16599c" rx="3.5"/>
<rect width="7" height="161.3" x="1319.7" y="916.1" fill="#16599c" rx="3.5"/>
<rect width="7" height="161.3" x="1201.7" y="1240.1" fill="#14406a" rx="3.5"/>
<path fill="#16599c" d="M1426.3 457.1a7 7 0 0 1 7 7v21a7 7 0 0 1-14 0v-21a7 7 0 0 1 7-7m0 49.1a7 7 0 0 1 7 7v98.2a7 7 0 0 1-14 0v-98.2a7 7 0 0 1 7-7"/>
<rect width="7" height="112.6" x="1569.3" y="754.4" fill="#1fab7c" rx="3.5"/>
<path fill="#14406a" d="M256 422a24.5 24.5 0 1 1-24.5 24.6h-.1c0-13.5 11-24.5 24.5-24.5m0 84.3c13.5 0 24.5 11 24.5 24.5v597.8a24.5 24.5 0 1 1-49.1 0V530.8c0-13.5 11-24.5 24.5-24.5M671 1153.1a24.5 24.5 0 1 1 0 49.1 24.5 24.5 0 0 1 0-49m0 84.2c13.5 0 24.5 11 24.5 24.5v217.4a24.5 24.5 0 1 1-49 0v-217.4c0-13.5 11-24.5 24.5-24.5M700.4 422a24.5 24.5 0 1 1-24.5 24.6c0-13.5 11-24.5 24.5-24.5m0 84.3c13.6 0 24.6 11 24.6 24.5v597.8a24.5 24.5 0 1 1-49.1 0V530.8c0-13.5 11-24.5 24.5-24.5M1460.7 1261.1a24.5 24.5 0 1 1 0 49 24.5 24.5 0 0 1 0-49m0 84.1c13.5 0 24.5 11 24.5 24.6V1587a24.5 24.5 0 0 1-49 0v-217.3c0-13.6 10.9-24.6 24.5-24.6M73.6 886.7a24.5 24.5 0 1 1 0 49 24.5 24.5 0 0 1 0-49m0 84.1c13.6 0 24.6 11 24.6 24.6v217.3a24.5 24.5 0 0 1-49.1 0V995.4c0-13.6 11-24.6 24.5-24.6M164.8 66a17.5 17.5 0 1 1 0 35 17.5 17.5 0 0 1 0-35m0 70c9.6 0 17.5 7.9 17.5 17.5V399a17.5 17.5 0 1 1-35 0V153.5c0-9.6 7.8-17.5 17.5-17.5M368 422a24.5 24.5 0 1 1 0 49.2 24.5 24.5 0 0 1 0-49.1m0 84.2c13.6 0 24.6 11 24.6 24.6V748a24.5 24.5 0 1 1-49 0V530.8c0-13.6 11-24.6 24.5-24.6M1191.2 78.5a17.5 17.5 0 1 1 0 35 17.5 17.5 0 0 1 0-35m0 49.1c9.7 0 17.6 7.9 17.6 17.5v266.5a17.5 17.5 0 0 1-35.1 0V145c0-9.6 7.8-17.5 17.5-17.5M917.8 1237.3a24.5 24.5 0 1 1 0 49 24.5 24.5 0 0 1 0-49m0 84.1c13.5 0 24.5 11 24.5 24.5v217.4a24.5 24.5 0 1 1-49 0v-217.4c0-13.5 11-24.5 24.5-24.5M1521 53.3a24.5 24.5 0 1 1 0 49 24.5 24.5 0 0 1 0-49m0 70.1c13.5 0 24.5 11 24.5 24.5V190a24.5 24.5 0 1 1-49 0v-42c0-13.6 10.9-24.6 24.5-24.6"/>
<path fill="#143657" d="M24.5 50.5a17.5 17.5 0 1 1 0 35 17.5 17.5 0 0 1 0-35m0 49c9.7 0 17.6 8 17.6 17.6v266.4a17.5 17.5 0 0 1-35 0V117.1c0-9.7 7.8-17.5 17.4-17.5M543.4 806.3c13.5 0 24.5 11 24.5 24.5v.2a24.5 24.5 0 0 1-49 0v-.2c0-13.5 11-24.5 24.5-24.5m0 70.3c13.5 0 24.5 11 24.5 24.6v42.3a24.5 24.5 0 0 1-49 0v-42.3c0-13.6 11-24.6 24.5-24.6M784.6 239.8a24.5 24.5 0 1 1 0 49 24.5 24.5 0 0 1 0-49m0 84.1c13.5 0 24.5 11 24.5 24.6v217.3a24.5 24.5 0 1 1-49 0V348.5c0-13.6 11-24.6 24.5-24.6M1023 78.5a17.5 17.5 0 1 1 0 35 17.5 17.5 0 0 1 0-35m0 49.1c9.6 0 17.5 7.9 17.5 17.5v77.2a17.5 17.5 0 1 1-35 0V145c0-9.6 7.8-17.5 17.5-17.5M543.4 50.5a24.5 24.5 0 1 1 0 49 24.5 24.5 0 0 1 0-49m0 84.1c13.5 0 24.5 11 24.5 24.6v217.3a24.5 24.5 0 0 1-49 0V159.2c0-13.6 11-24.6 24.5-24.6M431.2 1390.1a24.5 24.5 0 1 1 0 49 24.5 24.5 0 0 1 0-49m0 70.1c13.5 0 24.5 11 24.5 24.6v42a24.5 24.5 0 1 1-49 0v-42c0-13.6 11-24.6 24.5-24.6M1380.7 78.5a24.5 24.5 0 1 1 0 49.1 24.5 24.5 0 0 1 0-49m0 84.2c13.6 0 24.6 11 24.6 24.5v217.4a24.5 24.5 0 0 1-49.1 0V187.2c0-13.6 11-24.5 24.5-24.5M1035.6 786.7c13.5 0 24.5 11 24.5 24.5v.2a24.5 24.5 0 0 1-49 0v-.2c0-13.5 11-24.5 24.5-24.5m0 70.3c13.5 0 24.5 11 24.5 24.5V924a24.5 24.5 0 0 1-49 0v-42.4c0-13.5 11-24.5 24.5-24.5"/>
</g>
</svg>