<svg xmlns="http://www.w3.org/2000/svg" viewBox="0 0 1560 1560">

<g fill="none" fill-rule="evenodd" opacity=".5">

<g fill="#16599c">
<path d="M910 520v65h-65v-65zM975 520v65h-65v-65z" opacity=".7"/>
<path d="M780 585h-65v-65h65z" opacity=".5"/>
<path d="M910 650h65v65h-65z" opacity=".2"/>
<path d="M520 650h65v65h-65z" opacity=".4"/>
<path d="M780 650h65v65h-65z" opacity=".5"/>
<path d="M845 650h65v65h-65z" opacity=".7"/>
<path d="M715 585h65v65h-65z" opacity=".6"/>
<path d="M650 585h65v65h-65z" opacity=".5"/>
<path d="M975 585h65v65h-65z" opacity=".4"/>
<path d="M845 585h65v65h-65z" opacity=".2"/>
<path d="M780 780h65v65h-65z" opacity=".3"/>
<path d="M520 780h65v65h-65z" opacity=".8"/>
<path d="M975 780h65v65h-65z" opacity=".9"/>
<path d="M910 715h65v65h-65z" opacity=".1"/>
<path d="M845 715h65v65h-65z" opacity=".2"/>
<path d="M715 910h65v65h-65z" opacity=".9"/>
<path d="M910 910h65v65h-65z" opacity=".5"/>
<path d="M975 910h65v65h-65z" opacity=".6"/>
<path d="M845 910h65v65h-65z" opacity=".7"/>
<path d="M585 910h65v65h-65z" opacity=".8"/>
<path d="M585 845h65v65h-65z" opacity=".4"/>
<path d="M845 845h65v65h-65z" opacity=".7"/>
<path d="M715 845h65v65h-65z" opacity=".6"/>
<path d="M910 845h65v65h-65z" opacity=".5"/>
<path d="M975 845h65v65h-65z" opacity=".7"/>
<path d="M715 975h65v65h-65z" opacity=".8"/>
<path d="M650 975h65v65h-65z" opacity=".6"/>
<path d="M585 975h65v65h-65z"/>
<path d="M585 780v-65h65v65z" opacity=".3"/>
<path d="M585 845v-65h65v65z" opacity=".4"/>
<path d="M585 650v-65h65v65z" opacity=".6"/>
<path d="M715 715v-65h65v65z" opacity=".5"/>
<path d="M715 845v-65h65v65z" opacity=".3"/>
<path d="M845 1040v-65h65v65z" opacity=".2"/>
<path d="M780 650v-65h65v65z" opacity=".9"/>
<path d="M650 845v-65h65v65z" opacity=".8"/>
<path d="M520 910v-65h65v65z" opacity=".9"/>
<path d="M520 975v-65h65v65z" opacity=".4"/>
<path d="M520 1040v-65h65v65z" opacity=".9"/>
<path d="M520 650v-65h65v65z" opacity=".8"/>
<path d="M975 715v-65h65v65z" opacity=".1"/>
<path d="M520 780v-65h65v65z" opacity=".2"/>
<path d="M650 975v-65h65v65z" opacity=".3"/>
<path d="M975 1040v-65h65v65z" opacity=".8"/>
<path d="M780 780v-65h65v65z" opacity=".5"/>
<path d="M910 845v-65h65v65z" opacity=".6"/>
<path d="M910 1040v-65h65v65z" opacity=".9"/>
<path d="M715 780v-65h65v65z" opacity=".4"/>
<path d="M780 1040v-65h65v65z"/>
<path d="M650 715v-65h65v65z" opacity=".6"/>
<path d="M650 780v-65h65v65z" opacity=".5"/>
<path d="M780 910v-65h65v65z" opacity=".3"/>
<path d="M910 650v-65h65v65z" opacity=".8"/>
<path d="M585 715v-65h65v65z" opacity=".5"/>
<path d="M975 780v-65h65v65z" opacity=".6"/>
<path d="M845 845v-65h65v65z" opacity=".7"/>
<path d="M650 910v-65h65v65z" opacity=".8"/>
<path d="M780 975v-65h65v65z" opacity=".9"/>
<path d="M585 520h65v65h-65z" opacity=".1"/>
<path d="M780 585v-65h65v65z" opacity=".6"/>
<path d="M975 585v-65h65v65z" opacity=".7"/>
<path d="M520 585v-65h65v65z" opacity=".2"/>
<path d="M650 585v-65h65v65z" opacity=".9"/>
</g>
<g fill="#16599c">
<path d="M65 520v65H0v-65z" opacity=".6"/>
<path d="M130 520v65H65v-65z" opacity=".9"/>
<path d="M195 520v65h-65v-65z" opacity=".8"/>
<path d="M455 585h-65v-65h65z" opacity=".1"/>
<path d="M260 585h-65v-65h65z" opacity=".2"/>
<path d="M195 650h65v65h-65z" opacity=".7"/>
<path d="M65 650h65v65H65z" opacity=".3"/>
<path d="M0 650h65v65H0z" opacity=".6"/>
<path d="M455 650h65v65h-65z" opacity=".4"/>
<path d="M455 585h65v65h-65z" opacity=".3"/>
<path d="M130 585h65v65h-65z" opacity=".1"/>
<path d="M65 585h65v65H65z" opacity=".2"/>
<path d="M195 585h65v65h-65z" opacity=".3"/>
<path d="M0 780h65v65H0z" opacity=".9"/>
<path d="M455 780h65v65h-65z" opacity=".2"/>
<path d="M325 780h65v65h-65z" opacity=".4"/>
<path d="M65 780h65v65H65z" opacity=".9"/>
<path d="M260 780h65v65h-65z" opacity=".6"/>
<path d="M455 715h65v65h-65z" opacity=".8"/>
<path d="M390 715h65v65h-65z" opacity=".1"/>
<path d="M130 715h65v65h-65z" opacity=".2"/>
<path d="M195 715h65v65h-65z" opacity=".3"/>
<path d="M65 715h65v65H65z" opacity=".8"/>
<path d="M0 715h65v65H0z" opacity=".5"/>
<path d="M260 910h65v65h-65z" opacity=".4"/>
<path d="M390 910h65v65h-65z" opacity=".8"/>
<path d="M455 910h65v65h-65z" opacity=".9"/>
<path d="M390 845h65v65h-65z"/>
<path d="M455 845h65v65h-65z" opacity=".3"/>
<path d="M65 845h65v65H65z"/>
<path d="M390 975h65v65h-65z" opacity=".5"/>
<path d="M0 975h65v65H0z" opacity=".7"/>
<path d="M195 975h65v65h-65z" opacity=".8"/>
<path d="M455 975h65v65h-65zM130 975h65v65h-65z" opacity=".9"/>
<path d="M390 650v-65h65v65z" opacity=".7"/>
<path d="M390 715v-65h65v65z" opacity=".2"/>
<path d="M130 910v-65h65v65z" opacity=".5"/>
<path d="M130 975v-65h65v65z" opacity=".6"/>
<path d="M65 1040v-65h65v65z" opacity=".7"/>
<path d="M260 780v-65h65v65z" opacity=".4"/>
<path d="M325 910v-65h65v65z" opacity=".2"/>
<path d="M0 975v-65h65v65z" opacity=".1"/>
<path d="M325 715v-65h65v65z" opacity=".2"/>
<path d="M325 780v-65h65v65z" opacity=".3"/>
<path d="M390 845v-65h65v65z" opacity=".1"/>
<path d="M195 910v-65h65v65z" opacity=".2"/>
<path d="M325 650v-65h65v65z" opacity=".9"/>
<path d="M130 715v-65h65v65z" opacity=".4"/>
<path d="M0 910v-65h65v65z" opacity=".7"/>
<path d="M195 975v-65h65v65z" opacity=".8"/>
<path d="M260 650v-65h65v65z"/>
<path d="M260 715v-65h65v65z" opacity=".3"/>
<path d="M130 845v-65h65v65z" opacity=".7"/>
<path d="M260 910v-65h65v65z" opacity=".6"/>
<path d="M325 975v-65h65v65z" opacity=".5"/>
<path d="M0 650v-65h65v65z" opacity=".7"/>
<path d="M195 845v-65h65v65z" opacity=".4"/>
<path d="M65 975v-65h65v65z" opacity=".2"/>
<path d="M260 1040v-65h65v65z" opacity=".1"/>
<path d="M325 1040v-65h65v65z"/>
<path d="M455 520h65v65h-65z" opacity=".2"/>
<path d="M260 585v-65h65v65z" opacity=".3"/>
<path d="M325 585v-65h65v65z" opacity=".8"/>
</g>
<g fill="#16599c">
<path d="M1105 0v65h-65V0z" opacity=".6"/>
<path d="M1170 0v65h-65V0z" opacity=".9"/>
<path d="M1235 0v65h-65V0z" opacity=".8"/>
<path d="M1495 65h-65V0h65z" opacity=".1"/>
<path d="M1300 65h-65V0h65z" opacity=".2"/>
<path d="M1235 130h65v65h-65z" opacity=".7"/>
<path d="M1105 130h65v65h-65z" opacity=".3"/>
<path d="M1040 130h65v65h-65z" opacity=".6"/>
<path d="M1495 130h65v65h-65z" opacity=".4"/>
<path d="M1495 65h65v65h-65z" opacity=".3"/>
<path d="M1170 65h65v65h-65z" opacity=".1"/>
<path d="M1105 65h65v65h-65z" opacity=".2"/>
<path d="M1235 65h65v65h-65z" opacity=".3"/>
<path d="M1040 260h65v65h-65z" opacity=".9"/>
<path d="M1495 260h65v65h-65z" opacity=".2"/>
<path d="M1365 260h65v65h-65z" opacity=".4"/>
<path d="M1105 260h65v65h-65z" opacity=".9"/>
<path d="M1300 260h65v65h-65z" opacity=".6"/>
<path d="M1495 195h65v65h-65z" opacity=".8"/>
<path d="M1430 195h65v65h-65z" opacity=".1"/>
<path d="M1170 195h65v65h-65z" opacity=".2"/>
<path d="M1235 195h65v65h-65z" opacity=".3"/>
<path d="M1105 195h65v65h-65z" opacity=".8"/>
<path d="M1040 195h65v65h-65z" opacity=".5"/>
<path d="M1300 390h65v65h-65z" opacity=".4"/>
<path d="M1430 390h65v65h-65z" opacity=".8"/>
<path d="M1495 390h65v65h-65z" opacity=".9"/>
<path d="M1430 325h65v65h-65z"/>
<path d="M1495 325h65v65h-65z" opacity=".3"/>
<path d="M1105 325h65v65h-65z"/>
<path d="M1430 455h65v65h-65z" opacity=".5"/>
<path d="M1040 455h65v65h-65z" opacity=".7"/>
<path d="M1235 455h65v65h-65z" opacity=".8"/>
<path d="M1495 455h65v65h-65zM1170 455h65v65h-65z" opacity=".9"/>
<path d="M1430 130V65h65v65z" opacity=".7"/>
<path d="M1430 195v-65h65v65z" opacity=".2"/>
<path d="M1170 390v-65h65v65z" opacity=".5"/>
<path d="M1170 455v-65h65v65z" opacity=".6"/>
<path d="M1105 520v-65h65v65z" opacity=".7"/>
<path d="M1300 260v-65h65v65z" opacity=".4"/>
<path d="M1365 390v-65h65v65z" opacity=".2"/>
<path d="M1040 455v-65h65v65z" opacity=".1"/>
<path d="M1365 195v-65h65v65z" opacity=".2"/>
<path d="M1365 260v-65h65v65z" opacity=".3"/>
<path d="M1430 325v-65h65v65z" opacity=".1"/>
<path d="M1235 390v-65h65v65z" opacity=".2"/>
<path d="M1365 130V65h65v65z" opacity=".9"/>
<path d="M1170 195v-65h65v65z" opacity=".4"/>
<path d="M1040 390v-65h65v65z" opacity=".7"/>
<path d="M1235 455v-65h65v65z" opacity=".8"/>
<path d="M1300 130V65h65v65z"/>
<path d="M1300 195v-65h65v65z" opacity=".3"/>
<path d="M1170 325v-65h65v65z" opacity=".7"/>
<path d="M1300 390v-65h65v65z" opacity=".6"/>
<path d="M1365 455v-65h65v65z" opacity=".5"/>
<path d="M1040 130V65h65v65z" opacity=".7"/>
<path d="M1235 325v-65h65v65z" opacity=".4"/>
<path d="M1105 455v-65h65v65z" opacity=".2"/>
<path d="M1300 520v-65h65v65z" opacity=".1"/>
<path d="M1365 520v-65h65v65z"/>
<path d="M1495 0h65v65h-65z" opacity=".2"/>
<path d="M1300 65V0h65v65z" opacity=".3"/>
<path d="M1365 65V0h65v65z" opacity=".8"/>
</g>
<g fill="#16599c">
<path d="M390 0v65h-65V0z" opacity=".7"/>
<path d="M325 0v65h-65V0z" opacity=".6"/>
<path d="M130 0v65H65V0z" opacity=".9"/>
<path d="M195 0v65h-65V0z" opacity=".8"/>
<path d="M455 65h-65V0h65z" opacity=".6"/>
<path d="M520 65h-65V0h65z" opacity=".5"/>
<path d="M65 65H0V0h65z" opacity=".1"/>
<path d="M260 65h-65V0h65z" opacity=".2"/>
<path d="M455 130h65v65h-65z" opacity=".7"/>
<path d="M65 130h65v65H65z" opacity=".3"/>
<path d="M260 130h65v65h-65z" opacity=".4"/>
<path d="M195 130h65v65h-65z" opacity=".5"/>
<path d="M325 130h65v65h-65zM325 65h65v65h-65z" opacity=".6"/>
<path d="M390 65h65v65h-65z" opacity=".5"/>
<path d="M130 65h65v65h-65z" opacity=".1"/>
<path d="M65 65h65v65H65z" opacity=".2"/>
<path d="M195 65h65v65h-65z" opacity=".3"/>
<path d="M195 260h65v65h-65z" opacity=".9"/>
<path d="M0 260h65v65H0z" opacity=".3"/>
<path d="M130 260h65v65h-65z" opacity=".8"/>
<path d="M390 260h65v65h-65z" opacity=".4"/>
<path d="M65 260h65v65H65z" opacity=".9"/>
<path d="M455 260h65v65h-65z" opacity=".6"/>
<path d="M390 195h65v65h-65z" opacity=".1"/>
<path d="M455 195h65v65h-65zM130 195h65v65h-65z" opacity=".2"/>
<path d="M195 195h65v65h-65z" opacity=".3"/>
<path d="M65 195h65v65H65z" opacity=".8"/>
<path d="M0 195h65v65H0z" opacity=".5"/>
<path d="M455 390h65v65h-65z" opacity=".9"/>
<path d="M390 390h65v65h-65z" opacity=".4"/>
<path d="M195 325h65v65h-65z" opacity=".6"/>
<path d="M65 325h65v65H65z"/>
<path d="M0 455h65v65H0z" opacity=".8"/>
<path d="M325 455h65v65h-65z" opacity=".6"/>
<path d="M260 455h65v65h-65z" opacity=".7"/>
<path d="M195 455h65v65h-65z" opacity=".8"/>
<path d="M130 455h65v65h-65z" opacity=".9"/>
<path d="M0 195v-65h65v65z" opacity=".2"/>
<path d="M130 390v-65h65v65z" opacity=".5"/>
<path d="M130 455v-65h65v65z" opacity=".6"/>
<path d="M65 520v-65h65v65z" opacity=".7"/>
<path d="M260 260v-65h65v65z" opacity=".4"/>
<path d="M455 390v-65h65v65z" opacity=".2"/>
<path d="M0 455v-65h65v65z" opacity=".1"/>
<path d="M390 195v-65h65v65z" opacity=".2"/>
<path d="M325 260v-65h65v65z" opacity=".3"/>
<path d="M325 390v-65h65v65z" opacity=".9"/>
<path d="M260 455v-65h65v65z" opacity=".4"/>
<path d="M390 390v-65h65v65z" opacity=".2"/>
<path d="M455 130V65h65v65z" opacity=".9"/>
<path d="M130 195v-65h65v65z" opacity=".4"/>
<path d="M0 390v-65h65v65z" opacity=".7"/>
<path d="M195 455v-65h65v65z" opacity=".8"/>
<path d="M260 130V65h65v65z"/>
<path d="M325 325v-65h65v65z" opacity=".7"/>
<path d="M260 390v-65h65v65z" opacity=".6"/>
<path d="M325 455v-65h65v65z" opacity=".5"/>
<path d="M0 130V65h65v65z" opacity=".7"/>
<path d="M260 325v-65h65v65z" opacity=".4"/>
<path d="M65 455v-65h65v65z" opacity=".2"/>
<path d="M455 520v-65h65v65z" opacity=".1"/>
<path d="M390 520v-65h65v65z"/>
</g>
<g fill="#16599c">
<path d="M1430 520v65h-65v-65z" opacity=".7"/>
<path d="M1365 520v65h-65v-65z" opacity=".6"/>
<path d="M1170 520v65h-65v-65z" opacity=".9"/>
<path d="M1235 520v65h-65v-65z" opacity=".8"/>
<path d="M1495 585h-65v-65h65z" opacity=".6"/>
<path d="M1560 585h-65v-65h65z" opacity=".5"/>
<path d="M1105 585h-65v-65h65z" opacity=".1"/>
<path d="M1300 585h-65v-65h65z" opacity=".2"/>
<path d="M1495 650h65v65h-65z" opacity=".7"/>
<path d="M1105 650h65v65h-65z" opacity=".3"/>
<path d="M1300 650h65v65h-65z" opacity=".4"/>
<path d="M1235 650h65v65h-65z" opacity=".5"/>
<path d="M1365 650h65v65h-65zM1365 585h65v65h-65z" opacity=".6"/>
<path d="M1430 585h65v65h-65z" opacity=".5"/>
<path d="M1170 585h65v65h-65z" opacity=".1"/>
<path d="M1105 585h65v65h-65z" opacity=".2"/>
<path d="M1235 585h65v65h-65z" opacity=".3"/>
<path d="M1235 780h65v65h-65z" opacity=".9"/>
<path d="M1040 780h65v65h-65z" opacity=".3"/>
<path d="M1170 780h65v65h-65z" opacity=".8"/>
<path d="M1430 780h65v65h-65z" opacity=".4"/>
<path d="M1105 780h65v65h-65z" opacity=".9"/>
<path d="M1495 780h65v65h-65z" opacity=".6"/>
<path d="M1430 715h65v65h-65z" opacity=".1"/>
<path d="M1495 715h65v65h-65zM1170 715h65v65h-65z" opacity=".2"/>
<path d="M1235 715h65v65h-65z" opacity=".3"/>
<path d="M1105 715h65v65h-65z" opacity=".8"/>
<path d="M1040 715h65v65h-65z" opacity=".5"/>
<path d="M1495 910h65v65h-65z" opacity=".9"/>
<path d="M1430 910h65v65h-65z" opacity=".4"/>
<path d="M1235 845h65v65h-65z" opacity=".6"/>
<path d="M1105 845h65v65h-65z"/>
<path d="M1040 975h65v65h-65z" opacity=".8"/>
<path d="M1365 975h65v65h-65z" opacity=".6"/>
<path d="M1300 975h65v65h-65z" opacity=".7"/>
<path d="M1235 975h65v65h-65z" opacity=".8"/>
<path d="M1170 975h65v65h-65z" opacity=".9"/>
<path d="M1040 715v-65h65v65z" opacity=".2"/>
<path d="M1170 910v-65h65v65z" opacity=".5"/>
<path d="M1170 975v-65h65v65z" opacity=".6"/>
<path d="M1105 1040v-65h65v65z" opacity=".7"/>
<path d="M1300 780v-65h65v65z" opacity=".4"/>
<path d="M1495 910v-65h65v65z" opacity=".2"/>
<path d="M1040 975v-65h65v65z" opacity=".1"/>
<path d="M1430 715v-65h65v65z" opacity=".2"/>
<path d="M1365 780v-65h65v65z" opacity=".3"/>
<path d="M1365 910v-65h65v65z" opacity=".9"/>
<path d="M1300 975v-65h65v65z" opacity=".4"/>
<path d="M1430 910v-65h65v65z" opacity=".2"/>
<path d="M1495 650v-65h65v65z" opacity=".9"/>
<path d="M1170 715v-65h65v65z" opacity=".4"/>
<path d="M1040 910v-65h65v65z" opacity=".7"/>
<path d="M1235 975v-65h65v65z" opacity=".8"/>
<path d="M1300 650v-65h65v65z"/>
<path d="M1365 845v-65h65v65z" opacity=".7"/>
<path d="M1300 910v-65h65v65z" opacity=".6"/>
<path d="M1365 975v-65h65v65z" opacity=".5"/>
<path d="M1040 650v-65h65v65z" opacity=".7"/>
<path d="M1300 845v-65h65v65z" opacity=".4"/>
<path d="M1105 975v-65h65v65z" opacity=".2"/>
<path d="M1495 1040v-65h65v65z" opacity=".1"/>
<path d="M1430 1040v-65h65v65z"/>
</g>
<g fill="#16599c">
<path d="M780 0v65h-65V0z" opacity=".9"/>
<path d="M585 0v65h-65V0z"/>
<path d="M650 0v65h-65V0z" opacity=".7"/>
<path d="M715 0v65h-65V0z" opacity=".8"/>
<path d="M1040 65h-65V0h65z" opacity=".4"/>
<path d="M975 65h-65V0h65z" opacity=".3"/>
<path d="M910 65h-65V0h65z" opacity=".2"/>
<path d="M845 65h-65V0h65z" opacity=".3"/>
<path d="M910 130h65v65h-65z" opacity=".2"/>
<path d="M845 130h65v65h-65z" opacity=".7"/>
<path d="M715 130h65v65h-65zM520 65h65v65h-65z" opacity=".4"/>
<path d="M715 65h65v65h-65z" opacity=".3"/>
<path d="M780 65h65v65h-65zM780 260h65v65h-65z" opacity=".2"/>
<path d="M975 260h65v65h-65z" opacity=".9"/>
<path d="M910 195h65v65h-65z" opacity=".8"/>
<path d="M975 195h65v65h-65z" opacity=".1"/>
<path d="M715 390h65v65h-65z" opacity=".5"/>
<path d="M975 390h65v65h-65z" opacity=".6"/>
<path d="M845 390h65v65h-65z" opacity=".7"/>
<path d="M650 390h65v65h-65z" opacity=".8"/>
<path d="M780 390h65v65h-65z" opacity=".9"/>
<path d="M910 390h65v65h-65z" opacity=".8"/>
<path d="M650 325h65v65h-65z"/>
<path d="M780 325h65v65h-65z" opacity=".3"/>
<path d="M845 325h65v65h-65z" opacity=".4"/>
<path d="M715 325h65v65h-65z" opacity=".7"/>
<path d="M910 325h65v65h-65z" opacity=".5"/>
<path d="M975 325h65v65h-65z" opacity=".7"/>
<path d="M845 455h65v65h-65z" opacity=".5"/>
<path d="M910 455h65v65h-65z" opacity=".9"/>
<path d="M975 455h65v65h-65z"/>
<path d="M975 130V65h65v65z" opacity=".7"/>
<path d="M780 260v-65h65v65z" opacity=".3"/>
<path d="M715 325v-65h65v65z" opacity=".4"/>
<path d="M910 130V65h65v65z" opacity=".6"/>
<path d="M585 195v-65h65v65z" opacity=".5"/>
<path d="M585 325v-65h65v65z" opacity=".3"/>
<path d="M780 520v-65h65v65z" opacity=".2"/>
<path d="M650 130V65h65v65z" opacity=".9"/>
<path d="M520 325v-65h65v65z" opacity=".8"/>
<path d="M585 520v-65h65v65z" opacity=".9"/>
<path d="M585 130V65h65v65z" opacity=".8"/>
<path d="M975 195v-65h65v65z" opacity=".1"/>
<path d="M650 260v-65h65v65z" opacity=".2"/>
<path d="M845 325v-65h65v65z" opacity=".1"/>
<path d="M585 455v-65h65v65z" opacity=".3"/>
<path d="M650 520v-65h65v65z" opacity=".8"/>
<path d="M715 260v-65h65v65z" opacity=".5"/>
<path d="M910 325v-65h65v65z" opacity=".6"/>
<path d="M715 520v-65h65v65z" opacity=".9"/>
<path d="M520 195v-65h65v65z" opacity=".3"/>
<path d="M520 260v-65h65v65z" opacity=".4"/>
<path d="M520 520v-65h65v65z"/>
<path d="M650 195v-65h65v65z" opacity=".6"/>
<path d="M585 260v-65h65v65z" opacity=".5"/>
<path d="M520 390v-65h65v65z" opacity=".3"/>
<path d="M845 130V65h65v65z" opacity=".8"/>
<path d="M780 195v-65h65v65z" opacity=".5"/>
<path d="M845 260v-65h65v65z" opacity=".6"/>
<path d="M650 325v-65h65v65z" opacity=".7"/>
<path d="M585 390v-65h65v65z" opacity=".8"/>
<path d="M520 455v-65h65v65z" opacity=".9"/>
</g>
<g fill="#16599c">
<path d="M1105 1040v65h-65v-65z" opacity=".6"/>
<path d="M1170 1040v65h-65v-65z" opacity=".9"/>
<path d="M1235 1040v65h-65v-65z" opacity=".8"/>
<path d="M1495 1105h-65v-65h65z" opacity=".1"/>
<path d="M1300 1105h-65v-65h65z" opacity=".2"/>
<path d="M1235 1170h65v65h-65z" opacity=".7"/>
<path d="M1105 1170h65v65h-65z" opacity=".3"/>
<path d="M1040 1170h65v65h-65z" opacity=".6"/>
<path d="M1495 1170h65v65h-65z" opacity=".4"/>
<path d="M1495 1105h65v65h-65z" opacity=".3"/>
<path d="M1170 1105h65v65h-65z" opacity=".1"/>
<path d="M1105 1105h65v65h-65z" opacity=".2"/>
<path d="M1235 1105h65v65h-65z" opacity=".3"/>
<path d="M1040 1300h65v65h-65z" opacity=".9"/>
<path d="M1495 1300h65v65h-65z" opacity=".2"/>
<path d="M1365 1300h65v65h-65z" opacity=".4"/>
<path d="M1105 1300h65v65h-65z" opacity=".9"/>
<path d="M1300 1300h65v65h-65z" opacity=".6"/>
<path d="M1495 1235h65v65h-65z" opacity=".8"/>
<path d="M1430 1235h65v65h-65z" opacity=".1"/>
<path d="M1170 1235h65v65h-65z" opacity=".2"/>
<path d="M1235 1235h65v65h-65z" opacity=".3"/>
<path d="M1105 1235h65v65h-65z" opacity=".8"/>
<path d="M1040 1235h65v65h-65z" opacity=".5"/>
<path d="M1300 1430h65v65h-65z" opacity=".4"/>
<path d="M1430 1430h65v65h-65z" opacity=".8"/>
<path d="M1495 1430h65v65h-65z" opacity=".9"/>
<path d="M1430 1365h65v65h-65z"/>
<path d="M1495 1365h65v65h-65z" opacity=".3"/>
<path d="M1105 1365h65v65h-65z"/>
<path d="M1430 1495h65v65h-65z" opacity=".5"/>
<path d="M1040 1495h65v65h-65z" opacity=".7"/>
<path d="M1235 1495h65v65h-65z" opacity=".8"/>
<path d="M1495 1495h65v65h-65zM1170 1495h65v65h-65z" opacity=".9"/>
<path d="M1430 1170v-65h65v65z" opacity=".7"/>
<path d="M1430 1235v-65h65v65z" opacity=".2"/>
<path d="M1170 1430v-65h65v65z" opacity=".5"/>
<path d="M1170 1495v-65h65v65z" opacity=".6"/>
<path d="M1105 1560v-65h65v65z" opacity=".7"/>
<path d="M1300 1300v-65h65v65z" opacity=".4"/>
<path d="M1365 1430v-65h65v65z" opacity=".2"/>
<path d="M1040 1495v-65h65v65z" opacity=".1"/>
<path d="M1365 1235v-65h65v65z" opacity=".2"/>
<path d="M1365 1300v-65h65v65z" opacity=".3"/>
<path d="M1430 1365v-65h65v65z" opacity=".1"/>
<path d="M1235 1430v-65h65v65z" opacity=".2"/>
<path d="M1365 1170v-65h65v65z" opacity=".9"/>
<path d="M1170 1235v-65h65v65z" opacity=".4"/>
<path d="M1040 1430v-65h65v65z" opacity=".7"/>
<path d="M1235 1495v-65h65v65z" opacity=".8"/>
<path d="M1300 1170v-65h65v65z"/>
<path d="M1300 1235v-65h65v65z" opacity=".3"/>
<path d="M1170 1365v-65h65v65z" opacity=".7"/>
<path d="M1300 1430v-65h65v65z" opacity=".6"/>
<path d="M1365 1495v-65h65v65z" opacity=".5"/>
<path d="M1040 1170v-65h65v65z" opacity=".7"/>
<path d="M1235 1365v-65h65v65z" opacity=".4"/>
<path d="M1105 1495v-65h65v65z" opacity=".2"/>
<path d="M1300 1560v-65h65v65z" opacity=".1"/>
<path d="M1365 1560v-65h65v65z"/>
<path d="M1495 1040h65v65h-65z" opacity=".2"/>
<path d="M1300 1105v-65h65v65z" opacity=".3"/>
<path d="M1365 1105v-65h65v65z" opacity=".8"/>
</g>
<g fill="#16599c">
<path d="M390 1040v65h-65v-65z" opacity=".7"/>
<path d="M325 1040v65h-65v-65z" opacity=".6"/>
<path d="M130 1040v65H65v-65z" opacity=".9"/>
<path d="M195 1040v65h-65v-65z" opacity=".8"/>
<path d="M455 1105h-65v-65h65z" opacity=".6"/>
<path d="M520 1105h-65v-65h65z" opacity=".5"/>
<path d="M65 1105H0v-65h65z" opacity=".1"/>
<path d="M260 1105h-65v-65h65z" opacity=".2"/>
<path d="M455 1170h65v65h-65z" opacity=".7"/>
<path d="M65 1170h65v65H65z" opacity=".3"/>
<path d="M260 1170h65v65h-65z" opacity=".4"/>
<path d="M195 1170h65v65h-65z" opacity=".5"/>
<path d="M325 1170h65v65h-65zM325 1105h65v65h-65z" opacity=".6"/>
<path d="M390 1105h65v65h-65z" opacity=".5"/>
<path d="M130 1105h65v65h-65z" opacity=".1"/>
<path d="M65 1105h65v65H65z" opacity=".2"/>
<path d="M195 1105h65v65h-65z" opacity=".3"/>
<path d="M195 1300h65v65h-65z" opacity=".9"/>
<path d="M0 1300h65v65H0z" opacity=".3"/>
<path d="M130 1300h65v65h-65z" opacity=".8"/>
<path d="M390 1300h65v65h-65z" opacity=".4"/>
<path d="M65 1300h65v65H65z" opacity=".9"/>
<path d="M455 1300h65v65h-65z" opacity=".6"/>
<path d="M390 1235h65v65h-65z" opacity=".1"/>
<path d="M455 1235h65v65h-65zM130 1235h65v65h-65z" opacity=".2"/>
<path d="M195 1235h65v65h-65z" opacity=".3"/>
<path d="M65 1235h65v65H65z" opacity=".8"/>
<path d="M0 1235h65v65H0z" opacity=".5"/>
<path d="M455 1430h65v65h-65z" opacity=".9"/>
<path d="M390 1430h65v65h-65z" opacity=".4"/>
<path d="M195 1365h65v65h-65z" opacity=".6"/>
<path d="M65 1365h65v65H65z"/>
<path d="M0 1495h65v65H0z" opacity=".8"/>
<path d="M325 1495h65v65h-65z" opacity=".6"/>
<path d="M260 1495h65v65h-65z" opacity=".7"/>
<path d="M195 1495h65v65h-65z" opacity=".8"/>
<path d="M130 1495h65v65h-65z" opacity=".9"/>
<path d="M0 1235v-65h65v65z" opacity=".2"/>
<path d="M130 1430v-65h65v65z" opacity=".5"/>
<path d="M130 1495v-65h65v65z" opacity=".6"/>
<path d="M65 1560v-65h65v65z" opacity=".7"/>
<path d="M260 1300v-65h65v65z" opacity=".4"/>
<path d="M455 1430v-65h65v65z" opacity=".2"/>
<path d="M0 1495v-65h65v65z" opacity=".1"/>
<path d="M390 1235v-65h65v65z" opacity=".2"/>
<path d="M325 1300v-65h65v65z" opacity=".3"/>
<path d="M325 1430v-65h65v65z" opacity=".9"/>
<path d="M260 1495v-65h65v65z" opacity=".4"/>
<path d="M390 1430v-65h65v65z" opacity=".2"/>
<path d="M455 1170v-65h65v65z" opacity=".9"/>
<path d="M130 1235v-65h65v65z" opacity=".4"/>
<path d="M0 1430v-65h65v65z" opacity=".7"/>
<path d="M195 1495v-65h65v65z" opacity=".8"/>
<path d="M260 1170v-65h65v65z"/>
<path d="M325 1365v-65h65v65z" opacity=".7"/>
<path d="M260 1430v-65h65v65z" opacity=".6"/>
<path d="M325 1495v-65h65v65z" opacity=".5"/>
<path d="M0 1170v-65h65v65z" opacity=".7"/>
<path d="M260 1365v-65h65v65z" opacity=".4"/>
<path d="M65 1495v-65h65v65z" opacity=".2"/>
<path d="M455 1560v-65h65v65z" opacity=".1"/>
<path d="M390 1560v-65h65v65z"/>
</g>
<g fill="#16599c">
<path d="M780 1040v65h-65v-65z" opacity=".9"/>
<path d="M585 1040v65h-65v-65z"/>
<path d="M650 1040v65h-65v-65z" opacity=".7"/>
<path d="M715 1040v65h-65v-65z" opacity=".8"/>
<path d="M1040 1105h-65v-65h65z" opacity=".4"/>
<path d="M975 1105h-65v-65h65z" opacity=".3"/>
<path d="M910 1105h-65v-65h65z" opacity=".2"/>
<path d="M845 1105h-65v-65h65z" opacity=".3"/>
<path d="M910 1170h65v65h-65z" opacity=".2"/>
<path d="M845 1170h65v65h-65z" opacity=".7"/>
<path d="M715 1170h65v65h-65zM520 1105h65v65h-65z" opacity=".4"/>
<path d="M715 1105h65v65h-65z" opacity=".3"/>
<path d="M780 1105h65v65h-65zM780 1300h65v65h-65z" opacity=".2"/>
<path d="M975 1300h65v65h-65z" opacity=".9"/>
<path d="M910 1235h65v65h-65z" opacity=".8"/>
<path d="M975 1235h65v65h-65z" opacity=".1"/>
<path d="M715 1430h65v65h-65z" opacity=".5"/>
<path d="M975 1430h65v65h-65z" opacity=".6"/>
<path d="M845 1430h65v65h-65z" opacity=".7"/>
<path d="M650 1430h65v65h-65z" opacity=".8"/>
<path d="M780 1430h65v65h-65z" opacity=".9"/>
<path d="M910 1430h65v65h-65z" opacity=".8"/>
<path d="M650 1365h65v65h-65z"/>
<path d="M780 1365h65v65h-65z" opacity=".3"/>
<path d="M845 1365h65v65h-65z" opacity=".4"/>
<path d="M715 1365h65v65h-65z" opacity=".7"/>
<path d="M910 1365h65v65h-65z" opacity=".5"/>
<path d="M975 1365h65v65h-65z" opacity=".7"/>
<path d="M845 1495h65v65h-65z" opacity=".5"/>
<path d="M910 1495h65v65h-65z" opacity=".9"/>
<path d="M975 1495h65v65h-65z"/>
<path d="M975 1170v-65h65v65z" opacity=".7"/>
<path d="M780 1300v-65h65v65z" opacity=".3"/>
<path d="M715 1365v-65h65v65z" opacity=".4"/>
<path d="M910 1170v-65h65v65z" opacity=".6"/>
<path d="M585 1235v-65h65v65z" opacity=".5"/>
<path d="M585 1365v-65h65v65z" opacity=".3"/>
<path d="M780 1560v-65h65v65z" opacity=".2"/>
<path d="M650 1170v-65h65v65z" opacity=".9"/>
<path d="M520 1365v-65h65v65z" opacity=".8"/>
<path d="M585 1560v-65h65v65z" opacity=".9"/>
<path d="M585 1170v-65h65v65z" opacity=".8"/>
<path d="M975 1235v-65h65v65z" opacity=".1"/>
<path d="M650 1300v-65h65v65z" opacity=".2"/>
<path d="M845 1365v-65h65v65z" opacity=".1"/>
<path d="M585 1495v-65h65v65z" opacity=".3"/>
<path d="M650 1560v-65h65v65z" opacity=".8"/>
<path d="M715 1300v-65h65v65z" opacity=".5"/>
<path d="M910 1365v-65h65v65z" opacity=".6"/>
<path d="M715 1560v-65h65v65z" opacity=".9"/>
<path d="M520 1235v-65h65v65z" opacity=".3"/>
<path d="M520 1300v-65h65v65z" opacity=".4"/>
<path d="M520 1560v-65h65v65z"/>
<path d="M650 1235v-65h65v65z" opacity=".6"/>
<path d="M585 1300v-65h65v65z" opacity=".5"/>
<path d="M520 1430v-65h65v65z" opacity=".3"/>
<path d="M845 1170v-65h65v65z" opacity=".8"/>
<path d="M780 1235v-65h65v65z" opacity=".5"/>
<path d="M845 1300v-65h65v65z" opacity=".6"/>
<path d="M650 1365v-65h65v65z" opacity=".7"/>
<path d="M585 1430v-65h65v65z" opacity=".8"/>
<path d="M520 1495v-65h65v65z" opacity=".9"/>
</g>
</g>
</svg>
