<svg xmlns="http://www.w3.org/2000/svg" viewBox="0 0 1598 1598">
<g fill="#16599c" fill-rule="evenodd" transform="translate(0 -1.5)">
<rect width="133.1" height="133.1" x="133.1" y="1465.4" opacity=".7" rx="66.6" transform="matrix(0 1 1 0 -1332.3 1332.3)"/>
<rect width="133.1" height="133.1" x="133.1" y="1332.3" opacity=".2" rx="66.6" transform="matrix(0 1 1 0 -1199.1 1199.1)"/>
<rect width="133.1" height="133.1" x="932.5" y="1199.1" opacity=".5" rx="66.6" transform="rotate(90 999 1265.7)"/>
<rect width="133.1" height="133.1" x="932.1" y="1066" opacity=".6" rx="66.6" transform="matrix(0 1 1 0 -133.9 133.9)"/>
<rect width="133.1" height="133.1" x="932.1" y="932.9" opacity=".7" rx="66.6" transform="matrix(0 1 1 0 -.8 .8)"/>
<rect width="133.1" height="133.1" x="932.1" y="799.8" opacity=".8" rx="66.6" transform="matrix(0 1 1 0 132.4 -132.4)"/>
<rect width="133.1" height="133.1" x="932.1" y="666.6" opacity=".9" rx="66.6" transform="matrix(0 1 1 0 265.5 -265.5)"/>
<rect width="133.1" height="133.1" x="1065.3" y="1066" opacity=".7" rx="66.6" transform="matrix(0 1 1 0 -.8 .8)"/>
<rect width="133.1" height="133.1" x="1065.3" y="932.9" opacity=".8" rx="66.6" transform="matrix(0 1 1 0 132.4 -132.4)"/>
<rect width="133.1" height="133.1" x="1065.3" y="799.8" opacity=".9" rx="66.6" transform="matrix(0 1 1 0 265.5 -265.5)"/>
<rect width="133.1" height="133.1" x="1065.3" y="666.6" rx="66.6" transform="matrix(0 1 1 0 398.6 -398.6)"/>
<rect width="133.1" height="133.1" x="1198.4" y="1066" opacity=".4" rx="66.6" transform="matrix(0 1 1 0 132.4 -132.4)"/>
<rect width="133.1" height="133.1" x="1198.4" y="932.9" opacity=".5" rx="66.6" transform="matrix(0 1 1 0 265.5 -265.5)"/>
<rect width="133.1" height="133.1" x="1198.4" y="799.8" opacity=".6" rx="66.6" transform="matrix(0 1 1 0 398.6 -398.6)"/>
<rect width="133.1" height="133.1" x="1198.4" y="666.6" opacity=".7" rx="66.6" transform="matrix(0 1 1 0 531.7 -531.8)"/>
<rect width="133.1" height="133.1" x="1464.6" y="1066" opacity=".8" rx="66.6" transform="matrix(0 1 1 0 398.6 -398.6)"/>
<rect width="133.1" height="133.1" x="1464.6" y="932.9" opacity=".9" rx="66.6" transform="matrix(0 1 1 0 531.7 -531.8)"/>
<rect width="133.1" height="133.1" x="1464.6" y="799.8" opacity=".4" rx="66.6" transform="matrix(0 1 1 0 664.9 -664.9)"/>
<rect width="133.1" height="133.1" x="1464.6" y="666.6" opacity=".9" rx="66.6" transform="matrix(0 1 1 0 798 -798)"/>
<rect width="133.1" height="133.1" x="1331.5" y="1066" opacity=".1" rx="66.6" transform="matrix(0 1 1 0 265.5 -265.5)"/>
<rect width="133.1" height="133.1" x="1331.5" y="932.9" opacity=".2" rx="66.6" transform="matrix(0 1 1 0 398.6 -398.6)"/>
<rect width="133.1" height="133.1" x="1331.5" y="799.8" opacity=".3" rx="66.6" transform="matrix(0 1 1 0 531.7 -531.8)"/>
<rect width="133.1" height="133.1" x="1331.5" y="666.6" opacity=".8" rx="66.6" transform="matrix(0 1 1 0 664.9 -664.9)"/>
<rect width="133.1" height="133.1" x="932.1" y="533.5" opacity=".4" rx="66.6" transform="matrix(0 1 1 0 398.6 -398.6)"/>
<rect width="133.1" height="133.1" x="932.1" y="400.4" opacity=".5" rx="66.6" transform="matrix(0 1 1 0 531.8 -531.8)"/>
<rect width="133.1" height="133.1" x="932.1" y="267.3" opacity=".6" rx="66.6" transform="matrix(0 1 1 0 664.9 -664.9)"/>
<rect width="133.1" height="133.1" x="1065.3" y="533.5" opacity=".5" rx="66.6" transform="matrix(0 1 1 0 531.7 -531.8)"/>
<rect width="133.1" height="133.1" x="1065.3" y="400.4" opacity=".6" rx="66.6" transform="matrix(0 1 1 0 664.9 -664.9)"/>
<rect width="133.1" height="133.1" x="1065.3" y="267.3" opacity=".7" rx="66.6" transform="matrix(0 1 1 0 798 -798)"/>
<rect width="133.1" height="133.1" x="1198.4" y="533.5" opacity=".2" rx="66.6" transform="matrix(0 1 1 0 664.9 -664.9)"/>
<rect width="133.1" height="133.1" x="1198.4" y="400.4" opacity=".3" rx="66.6" transform="matrix(0 1 1 0 798 -798)"/>
<rect width="133.1" height="133.1" x="1198.4" y="267.3" opacity=".4" rx="66.6" transform="matrix(0 1 1 0 931.1 -931.1)"/>
<rect width="133.1" height="133.1" x="1464.6" y="533.5" opacity=".2" rx="66.6" transform="matrix(0 1 1 0 931.1 -931.1)"/>
<rect width="133.1" height="133.1" x="1464.6" y="400.4" opacity=".3" rx="66.6" transform="rotate(90 1064.3 0)scale(1 -1)"/>
<rect width="133.1" height="133.1" x="1464.6" y="267.3" opacity=".8" rx="66.6" transform="rotate(90 1197.4 0)scale(1 -1)"/>
<rect width="133.1" height="133.1" x="1331.5" y="533.5" opacity=".1" rx="66.6" transform="matrix(0 1 1 0 798 -798)"/>
<rect width="133.1" height="133.1" x="1331.5" y="400.4" opacity=".2" rx="66.6" transform="matrix(0 1 1 0 931.1 -931.1)"/>
<rect width="133.1" height="133.1" x="1331.5" y="267.3" opacity=".1" rx="66.6" transform="rotate(90 1064.3 0)scale(1 -1)"/>
<rect width="133.1" height="133.1" x="1465.3" y="134.1" opacity=".9" rx="66.6" transform="rotate(90 1531.8 200.7)"/>
<rect width="133.1" height="133.1" x="1199" y="134.1" opacity=".7" rx="66.6" transform="rotate(90 1265.6 200.7)"/>
<rect width="133.1" height="133.1" x="1332.1" y="134.1" opacity=".6" rx="66.6" transform="rotate(90 1398.7 200.7)"/>
<rect width="133.1" height="133.1" x="1065.9" y="134.1" opacity=".8" rx="66.6" transform="rotate(90 1132.4 200.7)"/>
<rect width="133.1" height="133.1" x="932.8" y="134.1" opacity=".5" rx="66.6" transform="rotate(90 999.3 200.7)"/>
<rect width="133.1" height="133.1" x="399.6" y="267.8" opacity=".3" rx="66.6" transform="rotate(-90 466.2 334.3)"/>
<rect width="133.1" height="133.1" x="399.6" y="400.9" opacity=".4" rx="66.6" transform="rotate(-90 466.2 467.4)"/>
<rect width="133.1" height="133.1" x="399.6" y="534" opacity=".5" rx="66.6" transform="rotate(-90 466.2 600.6)"/>
<rect width="133.1" height="133.1" x="399.6" y="667.1" opacity=".6" rx="66.6" transform="rotate(-90 466.2 733.7)"/>
<rect width="133.1" height="133.1" x="399.6" y="800.3" opacity=".7" rx="66.6" transform="rotate(-90 466.2 866.8)"/>
<rect width="133.1" height="133.1" x="665.9" y="267.8" opacity=".3" rx="66.6" transform="rotate(-90 732.4 334.3)"/>
<rect width="133.1" height="133.1" x="665.9" y="400.9" opacity=".8" rx="66.6" transform="rotate(-90 732.4 467.4)"/>
<rect width="133.1" height="133.1" x="665.9" y="534" opacity=".9" rx="66.6" transform="rotate(-90 732.4 600.6)"/>
<rect width="133.1" height="133.1" x="665.9" y="667.1" opacity=".4" rx="66.6" transform="rotate(-90 732.4 733.7)"/>
<rect width="133.1" height="133.1" x="665.9" y="800.3" opacity=".9" rx="66.6" transform="rotate(-90 732.4 866.8)"/>
<rect width="133.1" height="133.1" x="532.8" y="267.8" opacity=".2" rx="66.6" transform="rotate(-90 599.3 334.3)"/>
<rect width="133.1" height="133.1" x="532.8" y="400.9" opacity=".1" rx="66.6" transform="rotate(-90 599.3 467.4)"/>
<rect width="133.1" height="133.1" x="532.8" y="534" opacity=".2" rx="66.6" transform="rotate(-90 599.3 600.6)"/>
<rect width="133.1" height="133.1" x="532.8" y="667.1" opacity=".3" rx="66.6" transform="rotate(-90 599.3 733.7)"/>
<rect width="133.1" height="133.1" x="532.8" y="800.3" opacity=".8" rx="66.6" transform="rotate(-90 599.3 866.8)"/>
<rect width="133.1" height="133.1" x="799" y="267.8" opacity=".4" rx="66.6" transform="rotate(-90 865.6 334.3)"/>
<rect width="133.1" height="133.1" x="799" y="400.9" opacity=".7" rx="66.6" transform="rotate(-90 865.6 467.4)"/>
<rect width="133.1" height="133.1" x="799" y="534" opacity=".6" rx="66.6" transform="rotate(-90 865.6 600.6)"/>
<rect width="133.1" height="133.1" x="799" y="667.1" opacity=".5" rx="66.6" transform="rotate(-90 865.6 733.7)"/>
<rect width="133.1" height="133.1" x="799" y="800.3" rx="66.6" transform="rotate(-90 865.6 866.8)"/>
<rect width="133.1" height="133.1" x="399.6" y="933.4" opacity=".2" rx="66.6" transform="rotate(-90 466.2 1000)"/>
<rect width="133.1" height="133.1" x="399.6" y="1066.5" opacity=".3" rx="66.6" transform="rotate(-90 466.2 1133)"/>
<rect width="133.1" height="133.1" x="665.9" y="933.4" opacity=".2" rx="66.6" transform="rotate(-90 732.4 1000)"/>
<rect width="133.1" height="133.1" x="665.9" y="1066.5" opacity=".3" rx="66.6" transform="rotate(-90 732.4 1133)"/>
<rect width="133.1" height="133.1" x="532.8" y="933.4" opacity=".1" rx="66.6" transform="rotate(-90 599.3 1000)"/>
<rect width="133.1" height="133.1" x="532.8" y="1066.5" opacity=".2" rx="66.6" transform="rotate(-90 599.3 1133)"/>
<rect width="133.1" height="133.1" x="799" y="933.4" opacity=".3" rx="66.6" transform="rotate(-90 865.6 1000)"/>
<rect width="133.1" height="133.1" x="799" y="1066.5" opacity=".4" rx="66.6" transform="rotate(-90 865.6 1133)"/>
<rect width="133.1" height="133.1" x="666.5" y="134.6" opacity=".2" rx="66.6" transform="rotate(90 0 934.3)scale(-1 1)"/>
<rect width="133.1" height="133.1" x="799.6" y="134.6" opacity=".1" rx="66.6" transform="rotate(90 0 1067.4)scale(-1 1)"/>
<rect width="133.1" height="133.1" x="400.3" y="134.6" opacity=".4" rx="66.6" transform="matrix(0 -1 -1 0 668 668)"/>
<rect width="133.1" height="133.1" x="533.4" y="134.6" opacity=".3" rx="66.6" transform="rotate(90 0 801.1)scale(-1 1)"/>
<rect width="133.1" height="133.1" x="799.4" y="1199.1" opacity=".6" rx="66.6" transform="rotate(90 866 1265.7)"/>
<rect width="133.1" height="133.1" x="666.3" y="1199.1" opacity=".3" rx="66.6" transform="rotate(90 732.8 1265.7)"/>
<rect width="133.1" height="133.1" x="400" y="1199.1" opacity=".3" rx="66.6" transform="rotate(90 466.6 1265.7)"/>
<rect width="133.1" height="133.1" x="533.1" y="1199.1" opacity=".2" rx="66.6" transform="rotate(90 599.7 1265.7)"/>
<rect width="133.1" height="133.1" x="133.8" y="1199.1" opacity=".5" rx="66.6" transform="rotate(90 200.3 1265.7)"/>
<rect width="133.1" height="133.1" x="133.8" y="1066" opacity=".6" rx="66.6" transform="rotate(90 200.3 1132.6)"/>
<rect width="133.1" height="133.1" x="133.8" y="932.9" opacity=".7" rx="66.6" transform="rotate(90 200.3 999.4)"/>
<rect width="133.1" height="133.1" x="133.8" y="799.8" opacity=".8" rx="66.6" transform="rotate(90 200.3 866.3)"/>
<rect width="133.1" height="133.1" x="133.8" y="666.6" opacity=".9" rx="66.6" transform="rotate(90 200.3 733.2)"/>
<rect width="133.1" height="133.1" x="266.9" y="1199.1" opacity=".4" rx="66.6" transform="rotate(90 333.4 1265.7)"/>
<rect width="133.1" height="133.1" x="266.9" y="1066" opacity=".7" rx="66.6" transform="rotate(90 333.4 1132.6)"/>
<rect width="133.1" height="133.1" x="266.9" y="932.9" opacity=".6" rx="66.6" transform="rotate(90 333.4 999.4)"/>
<rect width="133.1" height="133.1" x="133.8" y="533.5" opacity=".4" rx="66.6" transform="rotate(90 200.3 600)"/>
<rect width="133.1" height="133.1" x="133.8" y="400.4" opacity=".5" rx="66.6" transform="rotate(90 200.3 467)"/>
<rect width="133.1" height="133.1" x="266.9" y="533.5" opacity=".3" rx="66.6" transform="rotate(90 333.4 600)"/>
<rect width="133.1" height="133.1" x="266.9" y="400.4" opacity=".4" rx="66.6" transform="rotate(90 333.4 467)"/>
<rect width="133.1" height="133.1" x="266.9" y="267.3" opacity=".7" rx="66.6" transform="rotate(90 333.4 333.8)"/>
<rect width="133.1" height="133.1" x="266.9" y="799.8" opacity=".5" rx="66.6" transform="rotate(90 333.4 866.3)"/>
<rect width="133.1" height="133.1" x="266.9" y="666.6" rx="66.6" transform="rotate(90 333.4 733.2)"/>
<rect width="133.1" height="133.1" x="399.4" y="1465.4" opacity=".9" rx="66.6" transform="matrix(0 1 1 0 -1066 1066)"/>
<rect width="133.1" height="133.1" x="399.4" y="1332.3" opacity=".2" rx="66.6" transform="matrix(0 1 1 0 -932.9 932.9)"/>
<rect width="133.1" height="133.1" x="266.3" y="1465.4" opacity=".8" rx="66.6" transform="matrix(0 1 1 0 -1199.1 1199.1)"/>
<rect width="133.1" height="133.1" x="266.3" y="1332.3" opacity=".1" rx="66.6" transform="matrix(0 1 1 0 -1066 1066)"/>
<rect width="133.1" height="133.1" x="665.6" y="1465.4" opacity=".9" rx="66.6" transform="matrix(0 1 1 0 -799.8 799.8)"/>
<rect width="133.1" height="133.1" x="665.6" y="1332.3" opacity=".4" rx="66.6" transform="matrix(0 1 1 0 -666.6 666.6)"/>
<rect width="133.1" height="133.1" x="532.5" y="1465.4" rx="66.6" transform="matrix(0 1 1 0 -932.9 932.9)"/>
<rect width="133.1" height="133.1" x="532.5" y="1332.3" opacity=".3" rx="66.6" transform="matrix(0 1 1 0 -799.8 799.8)"/>
<rect width="133.1" height="133.1" x="798.8" y="1465.4" opacity=".8" rx="66.6" transform="matrix(0 1 1 0 -666.6 666.6)"/>
<rect width="133.1" height="133.1" x="798.8" y="1332.3" opacity=".5" rx="66.6" transform="matrix(0 1 1 0 -533.5 533.5)"/>
<rect width="133.1" height="133.1" x="931.9" y="1465.4" opacity=".7" rx="66.6" transform="matrix(0 1 1 0 -533.5 533.5)"/>
<rect width="133.1" height="133.1" x="931.9" y="1332.3" opacity=".2" rx="66.6" transform="matrix(0 1 1 0 -400.4 400.4)"/>
<rect width="133.1" height="133.1" x="133.1" y="134.1" opacity=".5" rx="66.6" transform="matrix(0 1 1 0 -1 1)"/>
<rect width="133.1" height="133.1" x="266.3" y="134.1" opacity=".2" rx="66.6" transform="matrix(0 1 1 0 132.1 -132.1)"/>
<rect width="133.1" height="133.1" x="133.1" y="1" opacity=".5" rx="66.6" transform="matrix(0 1 1 0 132.1 -132.1)"/>
<rect width="133.1" height="133.1" x="399.4" y="1" opacity=".9" rx="66.6" transform="matrix(0 1 1 0 398.4 -398.4)"/>
<rect width="133.1" height="133.1" x="266.3" y="1" opacity=".2" rx="66.6" transform="matrix(0 1 1 0 265.3 -265.3)"/>
<rect width="133.1" height="133.1" x="665.6" y="1" opacity=".7" rx="66.6" transform="matrix(0 1 1 0 664.6 -664.6)"/>
<rect width="133.1" height="133.1" x="532.5" y="1" opacity=".6" rx="66.6" transform="matrix(0 1 1 0 531.5 -531.5)"/>
<rect width="133.1" height="133.1" x="798.8" y="1" opacity=".8" rx="66.6" transform="matrix(0 1 1 0 797.8 -797.8)"/>
<rect width="133.1" height="133.1" x="931.9" y="1" opacity=".5" rx="66.6" transform="matrix(0 1 1 0 930.9 -930.9)"/>
<rect width="133.1" height="133.1" x="1465" y="1199.6" opacity=".4" rx="66.6" transform="rotate(90 0 2797.8)scale(-1 1)"/>
<rect width="133.1" height="133.1" x="1198.8" y="1199.6" opacity=".8" rx="66.6" transform="rotate(90 0 2531.5)scale(-1 1)"/>
<rect width="133.1" height="133.1" x="1331.9" y="1199.6" opacity=".1" rx="66.6" transform="rotate(90 0 2664.6)scale(-1 1)"/>
<rect width="133.1" height="133.1" x="1065.6" y="1199.6" opacity=".7" rx="66.6" transform="rotate(90 0 2398.4)scale(-1 1)"/>
<rect width="133.1" height="133.1" y="1.5" opacity=".6" rx="66.6" transform="rotate(-90 66.6 68)"/>
<rect width="133.1" height="133.1" y="134.6" opacity=".5" rx="66.6" transform="rotate(-90 66.6 201.2)"/>
<rect width="133.1" height="133.1" y="267.8" opacity=".4" rx="66.6" transform="rotate(-90 66.6 334.3)"/>
<rect width="133.1" height="133.1" y="400.9" opacity=".3" rx="66.6" transform="rotate(-90 66.6 467.4)"/>
<rect width="133.1" height="133.1" y="534" opacity=".2" rx="66.6" transform="rotate(-90 66.6 600.6)"/>
<rect width="133.1" height="133.1" y="667.1" opacity=".1" rx="66.6" transform="rotate(-90 66.6 733.7)"/>
<rect width="133.1" height="133.1" y="800.3" opacity=".2" rx="66.6" transform="rotate(-90 66.6 866.8)"/>
<rect width="133.1" height="133.1" x="1198.1" y="1.5" opacity=".9" rx="66.6" transform="rotate(-90 1264.7 68)"/>
<rect width="133.1" height="133.1" x="1065" y="1.5" opacity=".8" rx="66.6" transform="rotate(-90 1131.6 68)"/>
<rect width="133.1" height="133.1" x="1464.4" y="1.5" opacity=".9" rx="66.6" transform="rotate(-90 1531 68)"/>
<rect width="133.1" height="133.1" x="1331.3" y="1.5" rx="66.6" transform="rotate(-90 1397.8 68)"/>
<rect width="133.1" height="133.1" y="933.4" opacity=".5" rx="66.6" transform="rotate(-90 66.6 1000)"/>
<rect width="133.1" height="133.1" y="1066.5" opacity=".4" rx="66.6" transform="rotate(-90 66.6 1133)"/>
<rect width="133.1" height="133.1" y="1199.6" opacity=".3" rx="66.6" transform="rotate(-90 66.6 1266.2)"/>
<rect width="133.1" height="133.1" y="1332.8" opacity=".2" rx="66.6" transform="rotate(-90 66.6 1399.3)"/>
<rect width="133.1" height="133.1" x="1198.1" y="1332.8" opacity=".9" rx="66.6" transform="rotate(-90 1264.7 1399.3)"/>
<rect width="133.1" height="133.1" x="1065" y="1332.8" opacity=".2" rx="66.6" transform="rotate(-90 1131.6 1399.3)"/>
<rect width="133.1" height="133.1" x="1464.4" y="1199.6" opacity=".6" rx="66.6" transform="rotate(-90 1531 1266.2)"/>
<rect width="133.1" height="133.1" x="1464.4" y="1332.8" opacity=".7" rx="66.6" transform="rotate(-90 1531 1399.3)"/>
<rect width="133.1" height="133.1" x="1331.3" y="1332.8" opacity=".6" rx="66.6" transform="rotate(-90 1397.8 1399.3)"/>
<rect width="133.1" height="133.1" y="1465.9" opacity=".2" rx="66.6" transform="rotate(-90 66.6 1532.4)"/>
<rect width="133.1" height="133.1" x="1198.1" y="1465.9" opacity=".9" rx="66.6" transform="rotate(-90 1264.7 1532.4)"/>
<rect width="133.1" height="133.1" x="1065" y="1465.9" opacity=".2" rx="66.6" transform="rotate(-90 1131.6 1532.4)"/>
<rect width="133.1" height="133.1" x="1464.4" y="1465.9" opacity=".7" rx="66.6" transform="rotate(-90 1531 1532.4)"/>
<rect width="133.1" height="133.1" x="1331.3" y="1465.9" opacity=".6" rx="66.6" transform="rotate(-90 1397.8 1532.4)"/>
</g>
</svg>
